G75*
%MOIN*%
%OFA0B0*%
%FSLAX24Y24*%
%IPPOS*%
%LPD*%
%AMOC8*
5,1,8,0,0,1.08239X$1,22.5*
%
%ADD10C,0.0560*%
%ADD11R,0.0600X0.0600*%
%ADD12C,0.0600*%
%ADD13OC8,0.0600*%
%ADD14C,0.0780*%
%ADD15C,0.0475*%
%ADD16C,0.0120*%
%ADD17C,0.0240*%
%ADD18C,0.0100*%
%ADD19C,0.0200*%
%ADD20C,0.0110*%
%ADD21C,0.0591*%
D10*
X012480Y021010D02*
X013040Y021010D01*
X013040Y022010D02*
X012480Y022010D01*
X012480Y023010D02*
X013040Y023010D01*
X014340Y023010D02*
X014900Y023010D01*
X014900Y022010D02*
X014340Y022010D01*
X014340Y021010D02*
X014900Y021010D01*
X015900Y021010D02*
X016460Y021010D01*
X016460Y022010D02*
X015900Y022010D01*
X015900Y023010D02*
X016460Y023010D01*
D11*
X028170Y013900D03*
D12*
X029170Y013900D03*
X030170Y013900D03*
D13*
X029710Y004960D03*
X028710Y004960D03*
X028710Y003960D03*
X029710Y003960D03*
X030710Y003960D03*
X031710Y003960D03*
X031710Y004960D03*
X030710Y004960D03*
X032710Y004960D03*
X032710Y003960D03*
X033710Y003960D03*
X033710Y004960D03*
X027710Y004960D03*
X027710Y003960D03*
X026710Y003960D03*
X025710Y003960D03*
X025710Y004960D03*
X026710Y004960D03*
X024710Y004960D03*
X024710Y003960D03*
X023710Y003960D03*
X022710Y003960D03*
X022710Y004960D03*
X023710Y004960D03*
X021710Y004960D03*
X020710Y004960D03*
X020710Y003960D03*
X021710Y003960D03*
X019710Y003960D03*
X019710Y004960D03*
X018710Y004960D03*
X017710Y004960D03*
X017710Y003960D03*
X018710Y003960D03*
X016710Y003960D03*
X015710Y003960D03*
X015710Y004960D03*
X016710Y004960D03*
X014710Y004960D03*
X014710Y003960D03*
X005310Y016380D03*
X005310Y017380D03*
X004310Y017380D03*
X004310Y016380D03*
X004310Y018380D03*
X005310Y018380D03*
X005310Y019380D03*
X005310Y020380D03*
X004310Y020380D03*
X004310Y019380D03*
X004310Y021380D03*
X004310Y022380D03*
X005310Y022380D03*
X005310Y021380D03*
X005310Y023380D03*
X004310Y023380D03*
X004310Y024380D03*
X004310Y025380D03*
X005310Y025380D03*
X005310Y024380D03*
X005310Y026380D03*
X004310Y026380D03*
X004310Y027380D03*
X004310Y028380D03*
X005310Y028380D03*
X005310Y027380D03*
X005310Y029380D03*
X004310Y029380D03*
X004310Y030380D03*
X004310Y031380D03*
X005310Y031380D03*
X005310Y030380D03*
X005310Y032380D03*
X005310Y033380D03*
X004310Y033380D03*
X004310Y032380D03*
X004310Y034380D03*
X005310Y034380D03*
X005310Y035380D03*
X004310Y035380D03*
D14*
X004770Y013330D02*
X005550Y013330D01*
X005550Y011360D02*
X004770Y011360D01*
X004770Y009390D02*
X005550Y009390D01*
X005550Y007410D02*
X004770Y007410D01*
X004770Y005440D02*
X005550Y005440D01*
X005550Y003470D02*
X004770Y003470D01*
D15*
X009480Y009390D03*
X012770Y012000D03*
X012290Y012580D03*
X014590Y015300D03*
X015910Y016330D03*
X015460Y016710D03*
X014610Y017260D03*
X012660Y016520D03*
X016510Y018820D03*
X016870Y018240D03*
X018490Y019160D03*
X018140Y020120D03*
X019830Y019420D03*
X019830Y018700D03*
X018610Y015750D03*
X019510Y014860D03*
X020120Y013560D03*
X020310Y011360D03*
X017810Y013260D03*
X016370Y011640D03*
X016310Y010660D03*
X017550Y009080D03*
X018310Y008560D03*
X023710Y008360D03*
X023550Y014080D03*
X025060Y014660D03*
X025910Y014280D03*
X027370Y014710D03*
X026510Y016500D03*
X025670Y016930D03*
X025510Y019280D03*
X024140Y020740D03*
X025040Y022450D03*
X027710Y021360D03*
X027850Y020240D03*
X028610Y019060D03*
X029410Y019260D03*
X030010Y020960D03*
X028930Y021490D03*
X028470Y024540D03*
X027680Y026070D03*
X028690Y028460D03*
X027080Y030310D03*
X025650Y030270D03*
X024410Y030260D03*
X024380Y028310D03*
X024570Y026760D03*
X024010Y026260D03*
X020700Y024840D03*
X020150Y026540D03*
X019510Y027310D03*
X018360Y027480D03*
X017580Y027250D03*
X016560Y027680D03*
X014730Y027550D03*
X014070Y027550D03*
X011420Y027680D03*
X009960Y026410D03*
X009760Y027450D03*
X015510Y031760D03*
X017730Y034140D03*
X019870Y034110D03*
X018310Y031660D03*
X023440Y034570D03*
X028510Y032760D03*
X028670Y030800D03*
X020870Y022540D03*
X018810Y022150D03*
X018190Y022660D03*
X016760Y024100D03*
X017360Y024760D03*
X031210Y016460D03*
X031710Y015660D03*
X031410Y014360D03*
X033660Y012480D03*
X034220Y016120D03*
X032590Y018150D03*
X028900Y002670D03*
D16*
X000611Y000681D02*
X000659Y037296D01*
X037500Y037296D01*
X037480Y000729D01*
X000611Y000681D01*
X000611Y000734D02*
X037480Y000734D01*
X037480Y000853D02*
X000611Y000853D01*
X000611Y000971D02*
X037480Y000971D01*
X037481Y001090D02*
X000611Y001090D01*
X000611Y001208D02*
X037481Y001208D01*
X037481Y001327D02*
X000611Y001327D01*
X000612Y001445D02*
X037481Y001445D01*
X037481Y001564D02*
X000612Y001564D01*
X000612Y001682D02*
X037481Y001682D01*
X037481Y001801D02*
X028399Y001801D01*
X028397Y001800D02*
X028890Y002293D01*
X028975Y002293D01*
X029114Y002350D01*
X029220Y002456D01*
X029277Y002595D01*
X029277Y002620D01*
X035462Y002620D01*
X035557Y002660D01*
X035957Y003060D01*
X035958Y003060D01*
X035994Y003097D01*
X036030Y003133D01*
X036031Y003133D01*
X036050Y003181D01*
X036070Y003228D01*
X036070Y003229D01*
X036070Y003281D01*
X036070Y003332D01*
X036050Y012900D01*
X036053Y012911D01*
X036050Y012951D01*
X036050Y012992D01*
X036046Y013003D01*
X036045Y013014D01*
X036026Y013050D01*
X036010Y013088D01*
X036002Y013096D01*
X035997Y013106D01*
X035966Y013132D01*
X035937Y013161D01*
X035926Y013165D01*
X031786Y016652D01*
X031757Y016680D01*
X031747Y016685D01*
X031738Y016692D01*
X031699Y016704D01*
X031662Y016720D01*
X031650Y016720D01*
X031639Y016723D01*
X031599Y016720D01*
X031484Y016720D01*
X031470Y016734D01*
X031470Y019462D01*
X031430Y019557D01*
X030830Y020157D01*
X030757Y020230D01*
X030662Y020270D01*
X029168Y020270D01*
X028087Y021350D01*
X028087Y021435D01*
X028060Y021501D01*
X028060Y021542D01*
X028020Y021637D01*
X027947Y021710D01*
X027852Y021750D01*
X027748Y021750D01*
X027718Y021737D01*
X027635Y021737D01*
X027496Y021680D01*
X027390Y021574D01*
X027333Y021435D01*
X027333Y021420D01*
X027330Y021417D01*
X027290Y021322D01*
X027290Y021218D01*
X027330Y021123D01*
X027403Y021050D01*
X027498Y021010D01*
X027569Y021010D01*
X027590Y021001D01*
X027590Y020514D01*
X027530Y020454D01*
X027473Y020315D01*
X027473Y020165D01*
X027530Y020026D01*
X027636Y019920D01*
X027768Y019865D01*
X027710Y019807D01*
X027380Y019478D01*
X027380Y019538D01*
X027381Y019587D01*
X027380Y019589D01*
X027380Y019592D01*
X027361Y019637D01*
X027343Y019684D01*
X027341Y019685D01*
X027340Y019687D01*
X027305Y019722D01*
X027051Y019985D01*
X027050Y019987D01*
X027015Y020022D01*
X026981Y020058D01*
X026979Y020059D01*
X026977Y020060D01*
X026932Y020079D01*
X026886Y020099D01*
X026884Y020099D01*
X026882Y020100D01*
X026832Y020100D01*
X026783Y020101D01*
X026781Y020100D01*
X023784Y020100D01*
X023750Y020132D01*
X023750Y021952D01*
X023988Y022190D01*
X024766Y022190D01*
X024826Y022130D01*
X024965Y022073D01*
X025032Y022073D01*
X025083Y022016D01*
X025177Y021973D01*
X025280Y021968D01*
X025377Y022003D01*
X025454Y022073D01*
X025497Y022167D01*
X025502Y022270D01*
X025467Y022367D01*
X025417Y022421D01*
X025417Y022525D01*
X025395Y022578D01*
X028444Y025637D01*
X028480Y025673D01*
X028480Y025673D01*
X028481Y025673D01*
X028500Y025721D01*
X028520Y025768D01*
X028520Y025768D01*
X028520Y025769D01*
X028520Y025820D01*
X028520Y026480D01*
X028521Y026482D01*
X028520Y026532D01*
X028520Y026582D01*
X028519Y026584D01*
X028519Y026586D01*
X028499Y026631D01*
X028480Y026677D01*
X028479Y026679D01*
X028478Y026681D01*
X028442Y026715D01*
X028407Y026750D01*
X028405Y026751D01*
X024897Y030150D01*
X024940Y030222D01*
X024955Y030324D01*
X024929Y030425D01*
X024867Y030507D01*
X024778Y030560D01*
X024689Y030573D01*
X024672Y030580D01*
X024660Y030580D01*
X024662Y030622D01*
X024660Y030627D01*
X024660Y030632D01*
X024642Y030675D01*
X024626Y030719D01*
X024622Y030722D01*
X024620Y030727D01*
X024587Y030760D01*
X024556Y030795D01*
X024551Y030797D01*
X024547Y030800D01*
X024504Y030818D01*
X024462Y030838D01*
X024456Y030838D01*
X024452Y030840D01*
X024405Y030840D01*
X024358Y030842D01*
X024353Y030840D01*
X024348Y030840D01*
X024305Y030822D01*
X024261Y030806D01*
X024258Y030802D01*
X024253Y030800D01*
X024220Y030767D01*
X024185Y030736D01*
X024183Y030731D01*
X024180Y030727D01*
X024162Y030684D01*
X024142Y030642D01*
X024142Y030636D01*
X024140Y030632D01*
X024140Y030585D01*
X024138Y030521D01*
X024090Y030474D01*
X024033Y030335D01*
X024033Y030185D01*
X024090Y030046D01*
X024196Y029940D01*
X024335Y029883D01*
X024426Y029883D01*
X028000Y026420D01*
X028000Y026284D01*
X027894Y026390D01*
X027755Y026447D01*
X027605Y026447D01*
X027466Y026390D01*
X027360Y026284D01*
X027303Y026145D01*
X027303Y026060D01*
X026362Y025120D01*
X023928Y025120D01*
X023880Y025100D01*
X020974Y025100D01*
X020914Y025160D01*
X020775Y025217D01*
X020625Y025217D01*
X020486Y025160D01*
X020380Y025054D01*
X020323Y024915D01*
X020323Y024765D01*
X020380Y024626D01*
X020486Y024520D01*
X020625Y024463D01*
X020775Y024463D01*
X020914Y024520D01*
X020974Y024580D01*
X024012Y024580D01*
X024060Y024600D01*
X026522Y024600D01*
X026617Y024640D01*
X027670Y025693D01*
X027755Y025693D01*
X027773Y025700D01*
X024938Y022856D01*
X024910Y022868D01*
X024807Y022872D01*
X024750Y022850D01*
X024717Y022850D01*
X024600Y022733D01*
X024600Y022710D01*
X023828Y022710D01*
X023733Y022670D01*
X023343Y022280D01*
X023270Y022207D01*
X023250Y022187D01*
X023210Y022092D01*
X023210Y021988D01*
X023230Y021940D01*
X023230Y020068D01*
X023229Y020065D01*
X023230Y020016D01*
X023230Y019968D01*
X023231Y019965D01*
X023231Y019961D01*
X023251Y019917D01*
X023270Y019873D01*
X023272Y019870D01*
X023274Y019867D01*
X023309Y019834D01*
X023343Y019800D01*
X023346Y019798D01*
X023499Y019654D01*
X023533Y019620D01*
X023536Y019618D01*
X023539Y019616D01*
X023584Y019598D01*
X023628Y019580D01*
X023632Y019580D01*
X023635Y019579D01*
X023684Y019580D01*
X026720Y019580D01*
X026860Y019435D01*
X026860Y016641D01*
X026830Y016714D01*
X026724Y016820D01*
X026585Y016877D01*
X026435Y016877D01*
X026296Y016820D01*
X026190Y016714D01*
X026133Y016575D01*
X026133Y016500D01*
X025722Y016090D01*
X023828Y016090D01*
X023733Y016050D01*
X023387Y015705D01*
X023352Y015670D01*
X023351Y015669D01*
X023350Y015667D01*
X023330Y015621D01*
X023311Y015575D01*
X023311Y015573D01*
X023310Y015572D01*
X023310Y015522D01*
X023294Y014358D01*
X023230Y014294D01*
X023173Y014155D01*
X023173Y014005D01*
X023230Y013866D01*
X023336Y013760D01*
X023475Y013703D01*
X023625Y013703D01*
X023764Y013760D01*
X023870Y013866D01*
X023927Y014005D01*
X023927Y014155D01*
X023870Y014294D01*
X023814Y014350D01*
X023829Y015411D01*
X023988Y015570D01*
X025882Y015570D01*
X025977Y015610D01*
X026050Y015683D01*
X026490Y016123D01*
X026585Y016123D01*
X026714Y016176D01*
X025905Y015345D01*
X025433Y015345D01*
X025338Y015305D01*
X025095Y015063D01*
X024967Y015190D01*
X024872Y015230D01*
X024768Y015230D01*
X024673Y015190D01*
X024600Y015117D01*
X024560Y015022D01*
X024560Y014918D01*
X024575Y014881D01*
X024573Y014880D01*
X024500Y014807D01*
X024460Y014712D01*
X024460Y014608D01*
X024500Y014513D01*
X024573Y014440D01*
X024668Y014400D01*
X024786Y014400D01*
X024800Y014386D01*
X024800Y014321D01*
X024800Y014271D01*
X024800Y014270D01*
X024800Y014268D01*
X024819Y014222D01*
X024838Y014175D01*
X024839Y014174D01*
X024840Y014173D01*
X024875Y014137D01*
X025194Y013812D01*
X025190Y013807D01*
X025150Y013712D01*
X025150Y011368D01*
X024702Y010920D01*
X020424Y010920D01*
X020447Y010930D01*
X020520Y011003D01*
X020544Y011061D01*
X020584Y011100D01*
X020722Y011100D01*
X020817Y011140D01*
X020890Y011213D01*
X020930Y011308D01*
X020930Y011412D01*
X020890Y011507D01*
X020817Y011580D01*
X020722Y011620D01*
X020584Y011620D01*
X020524Y011680D01*
X020385Y011737D01*
X020334Y011737D01*
X018990Y013354D01*
X018990Y014584D01*
X021645Y017307D01*
X021680Y017342D01*
X021681Y017344D01*
X021682Y017346D01*
X021701Y017392D01*
X021720Y017438D01*
X021720Y017440D01*
X021721Y017442D01*
X021720Y017491D01*
X021730Y021719D01*
X021735Y021750D01*
X021730Y021770D01*
X021730Y021791D01*
X021718Y021820D01*
X021711Y021851D01*
X021699Y021868D01*
X021691Y021887D01*
X021669Y021909D01*
X021369Y022322D01*
X021387Y022330D01*
X021460Y022403D01*
X021500Y022498D01*
X021500Y022602D01*
X021460Y022697D01*
X021387Y022770D01*
X021292Y022810D01*
X021170Y022810D01*
X021170Y022922D01*
X021130Y023017D01*
X021100Y023047D01*
X021027Y023120D01*
X020932Y023160D01*
X020828Y023160D01*
X020733Y023120D01*
X020660Y023047D01*
X020620Y022952D01*
X020620Y022840D01*
X020438Y022840D01*
X020343Y022800D01*
X020333Y022790D01*
X020260Y022717D01*
X020220Y022622D01*
X020220Y022518D01*
X020260Y022423D01*
X020333Y022350D01*
X020428Y022310D01*
X020566Y022310D01*
X020600Y022276D01*
X020600Y022168D01*
X020640Y022073D01*
X020713Y022000D01*
X020808Y021960D01*
X020912Y021960D01*
X020971Y021985D01*
X021210Y021656D01*
X021209Y021208D01*
X019515Y023246D01*
X019510Y023257D01*
X019482Y023285D01*
X019457Y023316D01*
X019446Y023322D01*
X019437Y023330D01*
X019401Y023346D01*
X019365Y023364D01*
X019353Y023365D01*
X019342Y023370D01*
X019302Y023370D01*
X019262Y023374D01*
X019251Y023370D01*
X017901Y023370D01*
X017884Y023374D01*
X019656Y025619D01*
X019683Y025646D01*
X019688Y025659D01*
X019696Y025669D01*
X019707Y025707D01*
X019721Y025743D01*
X019721Y025756D01*
X019724Y025769D01*
X019720Y025807D01*
X019711Y026335D01*
X019712Y026338D01*
X019710Y026384D01*
X019710Y026394D01*
X019710Y026431D01*
X019709Y026433D01*
X019709Y026436D01*
X019708Y026438D01*
X019708Y026441D01*
X019689Y026483D01*
X019687Y026488D01*
X019671Y026526D01*
X019671Y026526D01*
X019671Y026526D01*
X019669Y026528D01*
X019668Y026531D01*
X019666Y026533D01*
X019665Y026535D01*
X019631Y026567D01*
X019629Y026569D01*
X018896Y027308D01*
X018910Y027323D01*
X018950Y027418D01*
X018950Y027522D01*
X018910Y027617D01*
X018837Y027690D01*
X018814Y027700D01*
X023980Y027700D01*
X023981Y027699D01*
X024031Y027700D01*
X024082Y027700D01*
X024083Y027701D01*
X024085Y027701D01*
X024131Y027720D01*
X024177Y027740D01*
X024178Y027741D01*
X024180Y027741D01*
X024208Y027771D01*
X024221Y027774D01*
X024302Y027839D01*
X024333Y027894D01*
X024453Y027933D01*
X024455Y027933D01*
X024594Y027990D01*
X024665Y028061D01*
X024674Y028066D01*
X024712Y028083D01*
X024719Y028091D01*
X024729Y028096D01*
X024755Y028128D01*
X024784Y028158D01*
X024787Y028168D01*
X024794Y028176D01*
X024806Y028215D01*
X024821Y028254D01*
X024821Y028265D01*
X024824Y028275D01*
X024820Y028316D01*
X024819Y028357D01*
X024815Y028367D01*
X024813Y028378D01*
X024794Y028414D01*
X024777Y028452D01*
X024769Y028459D01*
X024725Y028542D01*
X024710Y028577D01*
X024709Y028578D01*
X024709Y028580D01*
X024706Y028583D01*
X024704Y028587D01*
X024698Y028592D01*
X024694Y028599D01*
X024665Y028623D01*
X024644Y028644D01*
X024637Y028669D01*
X024636Y028670D01*
X024636Y028671D01*
X024604Y028711D01*
X024573Y028750D01*
X024572Y028751D01*
X024571Y028752D01*
X024527Y028777D01*
X024484Y028802D01*
X024482Y028802D01*
X024481Y028802D01*
X024469Y028804D01*
X024453Y028820D01*
X024287Y028820D01*
X024170Y028703D01*
X024170Y028698D01*
X024160Y028687D01*
X024120Y028592D01*
X024120Y028584D01*
X024086Y028550D01*
X024053Y028549D01*
X023958Y028507D01*
X023886Y028432D01*
X023849Y028336D01*
X023851Y028233D01*
X023857Y028220D01*
X017458Y028220D01*
X017363Y028180D01*
X016937Y027755D01*
X016880Y027894D01*
X016774Y028000D01*
X016635Y028057D01*
X016550Y028057D01*
X016516Y028091D01*
X016516Y028091D01*
X016511Y028097D01*
X016508Y028103D01*
X016475Y028133D01*
X016443Y028165D01*
X016436Y028167D01*
X016379Y028219D01*
X016347Y028250D01*
X016340Y028253D01*
X016335Y028258D01*
X016293Y028273D01*
X016252Y028290D01*
X016244Y028290D01*
X016237Y028292D01*
X016193Y028290D01*
X012728Y028290D01*
X012633Y028250D01*
X012560Y028177D01*
X011690Y027307D01*
X011650Y027212D01*
X011650Y022374D01*
X011646Y022337D01*
X011650Y022323D01*
X011650Y022308D01*
X011664Y022274D01*
X011675Y022238D01*
X011684Y022226D01*
X011690Y022213D01*
X011716Y022186D01*
X011862Y022004D01*
X011714Y021852D01*
X011679Y021816D01*
X011678Y021815D01*
X011677Y021814D01*
X011659Y021767D01*
X011640Y021721D01*
X011640Y021719D01*
X011639Y021718D01*
X011640Y021667D01*
X011650Y019361D01*
X011649Y019312D01*
X011650Y019310D01*
X011650Y019307D01*
X011669Y019262D01*
X011688Y019216D01*
X011689Y019214D01*
X011690Y019212D01*
X011725Y019177D01*
X014127Y016710D01*
X014283Y016549D01*
X014318Y016513D01*
X014319Y016512D01*
X014320Y016512D01*
X014367Y016491D01*
X014413Y016471D01*
X014414Y016471D01*
X014415Y016471D01*
X014466Y016470D01*
X015122Y016457D01*
X015140Y016442D01*
X015140Y016428D01*
X015180Y016333D01*
X015263Y016250D01*
X015358Y016210D01*
X015426Y016210D01*
X014918Y015697D01*
X014859Y015701D01*
X014830Y015708D01*
X014808Y015704D01*
X014793Y015705D01*
X014740Y015757D01*
X014667Y015830D01*
X014572Y015870D01*
X014468Y015870D01*
X014373Y015830D01*
X014300Y015757D01*
X014260Y015662D01*
X014260Y015590D01*
X014218Y015590D01*
X014123Y015550D01*
X014050Y015477D01*
X014010Y015382D01*
X014010Y015278D01*
X014050Y015183D01*
X014153Y015080D01*
X014200Y015060D01*
X013468Y015060D01*
X013401Y015127D01*
X013420Y016955D01*
X013421Y017005D01*
X013420Y017007D01*
X013421Y017009D01*
X013402Y017055D01*
X013384Y017102D01*
X013383Y017103D01*
X013382Y017105D01*
X013347Y017141D01*
X011070Y019534D01*
X011070Y027539D01*
X011100Y027466D01*
X011206Y027360D01*
X011345Y027303D01*
X011495Y027303D01*
X011634Y027360D01*
X011740Y027466D01*
X011797Y027605D01*
X011797Y027668D01*
X012509Y028300D01*
X015212Y028300D01*
X015307Y028340D01*
X015380Y028413D01*
X016242Y029275D01*
X016268Y029300D01*
X017812Y029300D01*
X017907Y029340D01*
X018457Y029890D01*
X018530Y029963D01*
X018570Y030058D01*
X018570Y031310D01*
X018632Y031310D01*
X018727Y031350D01*
X018840Y031463D01*
X018870Y031493D01*
X018910Y031588D01*
X018910Y031692D01*
X018870Y031787D01*
X018838Y031820D01*
X019030Y032013D01*
X019070Y032108D01*
X019070Y034142D01*
X019278Y034350D01*
X019576Y034350D01*
X019550Y034324D01*
X019493Y034185D01*
X019493Y034035D01*
X019550Y033896D01*
X019656Y033790D01*
X019795Y033733D01*
X019945Y033733D01*
X020084Y033790D01*
X020142Y033848D01*
X021780Y033841D01*
X025273Y030283D01*
X025273Y030195D01*
X025330Y030056D01*
X025436Y029950D01*
X025575Y029893D01*
X025725Y029893D01*
X025864Y029950D01*
X025970Y030056D01*
X026027Y030195D01*
X026027Y030205D01*
X027640Y028592D01*
X027640Y028168D01*
X027680Y028073D01*
X027753Y028000D01*
X028243Y027510D01*
X028338Y027470D01*
X029002Y027470D01*
X029097Y027510D01*
X029170Y027583D01*
X029920Y028333D01*
X029960Y028428D01*
X029960Y034072D01*
X029920Y034167D01*
X029847Y034240D01*
X027457Y036630D01*
X027362Y036670D01*
X003908Y036670D01*
X003813Y036630D01*
X003740Y036557D01*
X002380Y035197D01*
X002340Y035102D01*
X002340Y015521D01*
X002339Y015471D01*
X002340Y015470D01*
X002340Y015468D01*
X002359Y015422D01*
X002378Y015375D01*
X002379Y015374D01*
X002380Y015373D01*
X002415Y015337D01*
X003077Y014660D01*
X003077Y014660D01*
X003760Y013961D01*
X003855Y013921D01*
X003959Y013919D01*
X004010Y013940D01*
X006892Y013940D01*
X007305Y013528D01*
X007305Y013373D01*
X007371Y013213D01*
X007493Y013091D01*
X007653Y013025D01*
X007827Y013025D01*
X007987Y013091D01*
X008109Y013213D01*
X008175Y013373D01*
X008175Y013547D01*
X008109Y013707D01*
X007987Y013829D01*
X007827Y013895D01*
X007672Y013895D01*
X007147Y014420D01*
X007052Y014460D01*
X004000Y014460D01*
X003863Y014600D01*
X010972Y014600D01*
X012272Y013300D01*
X010018Y013300D01*
X009923Y013260D01*
X006312Y009650D01*
X006016Y009650D01*
X005999Y009690D01*
X005850Y009839D01*
X005655Y009920D01*
X004665Y009920D01*
X004499Y009851D01*
X004778Y010130D01*
X006702Y010130D01*
X006797Y010170D01*
X006870Y010243D01*
X007367Y010740D01*
X007440Y010813D01*
X007480Y010908D01*
X007480Y012762D01*
X007440Y012857D01*
X006820Y013477D01*
X006747Y013550D01*
X006652Y013590D01*
X006016Y013590D01*
X005999Y013630D01*
X005850Y013779D01*
X005655Y013860D01*
X004665Y013860D01*
X004470Y013779D01*
X004321Y013630D01*
X004240Y013435D01*
X004240Y013225D01*
X004321Y013030D01*
X004470Y012881D01*
X004665Y012800D01*
X005655Y012800D01*
X005850Y012881D01*
X005999Y013030D01*
X006016Y013070D01*
X006492Y013070D01*
X006960Y012602D01*
X006960Y011068D01*
X006542Y010650D01*
X004618Y010650D01*
X004523Y010610D01*
X004450Y010537D01*
X003740Y009827D01*
X003700Y009732D01*
X003700Y004812D01*
X003697Y004802D01*
X003700Y004760D01*
X003700Y004718D01*
X003704Y004709D01*
X003705Y004699D01*
X003724Y004662D01*
X003740Y004623D01*
X003747Y004616D01*
X003751Y004607D01*
X003783Y004579D01*
X003813Y004550D01*
X003822Y004546D01*
X004143Y004269D01*
X004173Y004240D01*
X004182Y004236D01*
X004190Y004229D01*
X004229Y004216D01*
X004268Y004200D01*
X004278Y004200D01*
X004288Y004197D01*
X004330Y004200D01*
X011222Y004200D01*
X012483Y002940D01*
X012578Y002900D01*
X019372Y002900D01*
X019467Y002940D01*
X019540Y003013D01*
X019710Y003182D01*
X019873Y003020D01*
X019968Y002980D01*
X028392Y002980D01*
X028440Y003000D01*
X028710Y003000D01*
X028686Y002990D01*
X028580Y002884D01*
X028523Y002745D01*
X028523Y002660D01*
X028142Y002280D01*
X004739Y002280D01*
X003489Y003547D01*
X003441Y010028D01*
X004427Y010954D01*
X004470Y010911D01*
X004665Y010830D01*
X005655Y010830D01*
X005850Y010911D01*
X005999Y011060D01*
X006080Y011255D01*
X006080Y011465D01*
X005999Y011660D01*
X005850Y011809D01*
X005655Y011890D01*
X004665Y011890D01*
X004470Y011809D01*
X004321Y011660D01*
X004258Y011508D01*
X003036Y010361D01*
X003031Y010359D01*
X002998Y010326D01*
X002964Y010294D01*
X002962Y010289D01*
X002958Y010286D01*
X002941Y010242D01*
X002922Y010200D01*
X002922Y010195D01*
X002920Y010190D01*
X002920Y010143D01*
X002918Y010097D01*
X002920Y010092D01*
X002970Y003440D01*
X002970Y003390D01*
X002970Y003388D01*
X002970Y003386D01*
X002990Y003340D01*
X003009Y003294D01*
X003010Y003293D01*
X003011Y003291D01*
X003046Y003256D01*
X004409Y001874D01*
X004410Y001873D01*
X004445Y001837D01*
X004481Y001801D01*
X000612Y001801D01*
X000612Y001919D02*
X004364Y001919D01*
X004481Y001801D02*
X004482Y001800D01*
X004483Y001800D01*
X004530Y001780D01*
X004576Y001760D01*
X004577Y001760D01*
X004578Y001760D01*
X004629Y001760D01*
X004680Y001760D01*
X004681Y001760D01*
X028302Y001760D01*
X028397Y001800D01*
X028517Y001919D02*
X037481Y001919D01*
X037481Y002038D02*
X028636Y002038D01*
X028754Y002156D02*
X037481Y002156D01*
X037481Y002275D02*
X028873Y002275D01*
X029157Y002393D02*
X037481Y002393D01*
X037481Y002512D02*
X029243Y002512D01*
X028682Y002986D02*
X028406Y002986D01*
X028573Y002867D02*
X004160Y002867D01*
X004276Y002749D02*
X028524Y002749D01*
X028493Y002630D02*
X004393Y002630D01*
X004510Y002512D02*
X028374Y002512D01*
X028256Y002393D02*
X004627Y002393D01*
X004247Y002038D02*
X000612Y002038D01*
X000613Y002156D02*
X004130Y002156D01*
X004013Y002275D02*
X000613Y002275D01*
X000613Y002393D02*
X003897Y002393D01*
X003780Y002512D02*
X000613Y002512D01*
X000613Y002630D02*
X003663Y002630D01*
X003546Y002749D02*
X000613Y002749D01*
X000614Y002867D02*
X003429Y002867D01*
X003312Y002986D02*
X000614Y002986D01*
X000614Y003104D02*
X003196Y003104D01*
X003079Y003223D02*
X000614Y003223D01*
X000614Y003341D02*
X002989Y003341D01*
X002970Y003460D02*
X000614Y003460D01*
X000614Y003579D02*
X002969Y003579D01*
X002968Y003697D02*
X000615Y003697D01*
X000615Y003816D02*
X002967Y003816D01*
X002966Y003934D02*
X000615Y003934D01*
X000615Y004053D02*
X002965Y004053D01*
X002965Y004171D02*
X000615Y004171D01*
X000615Y004290D02*
X002964Y004290D01*
X002963Y004408D02*
X000616Y004408D01*
X000616Y004527D02*
X002962Y004527D01*
X002961Y004645D02*
X000616Y004645D01*
X000616Y004764D02*
X002960Y004764D01*
X002959Y004882D02*
X000616Y004882D01*
X000616Y005001D02*
X002958Y005001D01*
X002957Y005119D02*
X000617Y005119D01*
X000617Y005238D02*
X002957Y005238D01*
X002956Y005356D02*
X000617Y005356D01*
X000617Y005475D02*
X002955Y005475D01*
X002954Y005593D02*
X000617Y005593D01*
X000617Y005712D02*
X002953Y005712D01*
X002952Y005830D02*
X000617Y005830D01*
X000618Y005949D02*
X002951Y005949D01*
X002950Y006067D02*
X000618Y006067D01*
X000618Y006186D02*
X002950Y006186D01*
X002949Y006304D02*
X000618Y006304D01*
X000618Y006423D02*
X002948Y006423D01*
X002947Y006541D02*
X000618Y006541D01*
X000619Y006660D02*
X002946Y006660D01*
X002945Y006778D02*
X000619Y006778D01*
X000619Y006897D02*
X002944Y006897D01*
X002943Y007015D02*
X000619Y007015D01*
X000619Y007134D02*
X002942Y007134D01*
X002942Y007252D02*
X000619Y007252D01*
X000620Y007371D02*
X002941Y007371D01*
X002940Y007489D02*
X000620Y007489D01*
X000620Y007608D02*
X002939Y007608D01*
X002938Y007726D02*
X000620Y007726D01*
X000620Y007845D02*
X002937Y007845D01*
X002936Y007963D02*
X000620Y007963D01*
X000620Y008082D02*
X002935Y008082D01*
X002934Y008200D02*
X000621Y008200D01*
X000621Y008319D02*
X002934Y008319D01*
X002933Y008437D02*
X000621Y008437D01*
X000621Y008556D02*
X002932Y008556D01*
X002931Y008674D02*
X000621Y008674D01*
X000621Y008793D02*
X002930Y008793D01*
X002929Y008911D02*
X000622Y008911D01*
X000622Y009030D02*
X002928Y009030D01*
X002927Y009148D02*
X000622Y009148D01*
X000622Y009267D02*
X002927Y009267D01*
X002926Y009385D02*
X000622Y009385D01*
X000622Y009504D02*
X002925Y009504D01*
X002924Y009622D02*
X000623Y009622D01*
X000623Y009741D02*
X002923Y009741D01*
X002922Y009859D02*
X000623Y009859D01*
X000623Y009978D02*
X002921Y009978D01*
X002919Y010096D02*
X000623Y010096D01*
X000623Y010215D02*
X002928Y010215D01*
X003005Y010333D02*
X000623Y010333D01*
X000624Y010452D02*
X003132Y010452D01*
X003258Y010570D02*
X000624Y010570D01*
X000624Y010689D02*
X003385Y010689D01*
X003511Y010807D02*
X000624Y010807D01*
X000624Y010926D02*
X003637Y010926D01*
X003763Y011044D02*
X000624Y011044D01*
X000625Y011163D02*
X003890Y011163D01*
X004016Y011281D02*
X000625Y011281D01*
X000625Y011400D02*
X004142Y011400D01*
X004262Y011518D02*
X000625Y011518D01*
X000625Y011637D02*
X004311Y011637D01*
X004415Y011755D02*
X000625Y011755D01*
X000626Y011874D02*
X004625Y011874D01*
X004613Y012822D02*
X000627Y012822D01*
X000627Y012940D02*
X004410Y012940D01*
X004309Y013059D02*
X000627Y013059D01*
X000627Y013177D02*
X004260Y013177D01*
X004240Y013296D02*
X000627Y013296D01*
X000628Y013414D02*
X004240Y013414D01*
X004280Y013533D02*
X000628Y013533D01*
X000628Y013651D02*
X004341Y013651D01*
X004460Y013770D02*
X000628Y013770D01*
X000628Y013888D02*
X006944Y013888D01*
X007063Y013770D02*
X005860Y013770D01*
X005979Y013651D02*
X007181Y013651D01*
X007300Y013533D02*
X006765Y013533D01*
X006884Y013414D02*
X007305Y013414D01*
X007337Y013296D02*
X007002Y013296D01*
X007121Y013177D02*
X007407Y013177D01*
X007572Y013059D02*
X007239Y013059D01*
X007358Y012940D02*
X009602Y012940D01*
X009484Y012822D02*
X007455Y012822D01*
X007480Y012703D02*
X009365Y012703D01*
X009247Y012585D02*
X007480Y012585D01*
X007480Y012466D02*
X009128Y012466D01*
X009010Y012348D02*
X007480Y012348D01*
X007480Y012229D02*
X008891Y012229D01*
X008773Y012111D02*
X007480Y012111D01*
X007480Y011992D02*
X008654Y011992D01*
X008536Y011874D02*
X007480Y011874D01*
X007480Y011755D02*
X008417Y011755D01*
X008299Y011637D02*
X007480Y011637D01*
X007480Y011518D02*
X008180Y011518D01*
X008062Y011400D02*
X007480Y011400D01*
X007480Y011281D02*
X007943Y011281D01*
X007825Y011163D02*
X007480Y011163D01*
X007480Y011044D02*
X007706Y011044D01*
X007588Y010926D02*
X007480Y010926D01*
X007469Y010807D02*
X007435Y010807D01*
X007367Y010740D02*
X007367Y010740D01*
X007351Y010689D02*
X007316Y010689D01*
X007232Y010570D02*
X007198Y010570D01*
X007114Y010452D02*
X007079Y010452D01*
X006995Y010333D02*
X006961Y010333D01*
X006870Y010243D02*
X006870Y010243D01*
X006877Y010215D02*
X006842Y010215D01*
X006758Y010096D02*
X004744Y010096D01*
X004625Y009978D02*
X006640Y009978D01*
X006521Y009859D02*
X005803Y009859D01*
X005949Y009741D02*
X006403Y009741D01*
X006783Y009385D02*
X007617Y009385D01*
X007499Y009267D02*
X006664Y009267D01*
X006640Y009243D02*
X010178Y012780D01*
X011162Y012780D01*
X011148Y012766D01*
X007816Y009557D01*
X007770Y009537D01*
X007078Y008846D01*
X007042Y008811D01*
X007041Y008809D01*
X007040Y008807D01*
X007022Y008764D01*
X005983Y007726D01*
X005850Y007859D01*
X005655Y007940D01*
X004665Y007940D01*
X004470Y007859D01*
X004321Y007710D01*
X004240Y007515D01*
X004240Y007305D01*
X004321Y007110D01*
X004470Y006961D01*
X004665Y006880D01*
X005655Y006880D01*
X005850Y006961D01*
X005999Y007110D01*
X006016Y007150D01*
X006087Y007150D01*
X006182Y007190D01*
X008089Y009097D01*
X008124Y009131D01*
X011435Y012320D01*
X011740Y012320D01*
X011740Y012238D01*
X011780Y012143D01*
X011853Y012070D01*
X011948Y012030D01*
X012052Y012030D01*
X012147Y012070D01*
X012280Y012203D01*
X012365Y012203D01*
X012504Y012260D01*
X012564Y012320D01*
X012592Y012320D01*
X012687Y012360D01*
X012760Y012433D01*
X012800Y012528D01*
X012800Y012632D01*
X012760Y012727D01*
X012708Y012780D01*
X016822Y012780D01*
X016983Y012639D01*
X017000Y011957D01*
X017000Y011908D01*
X017001Y011905D01*
X017001Y011902D01*
X017021Y011857D01*
X017040Y011813D01*
X017042Y011810D01*
X017043Y011807D01*
X017078Y011774D01*
X018413Y010440D01*
X018508Y010400D01*
X024862Y010400D01*
X024957Y010440D01*
X025630Y011113D01*
X025670Y011208D01*
X025670Y013550D01*
X026124Y013550D01*
X026061Y013487D01*
X025995Y013327D01*
X025995Y013153D01*
X026061Y012993D01*
X026160Y012894D01*
X026160Y010808D01*
X026100Y010747D01*
X026093Y010732D01*
X025001Y009649D01*
X024691Y009645D01*
X024610Y009726D01*
X024610Y009772D01*
X024570Y009867D01*
X024497Y009940D01*
X024402Y009980D01*
X024298Y009980D01*
X024203Y009940D01*
X024130Y009867D01*
X024090Y009772D01*
X024090Y009746D01*
X023994Y009650D01*
X023938Y009650D01*
X023843Y009610D01*
X023770Y009537D01*
X023730Y009442D01*
X023730Y009338D01*
X023770Y009243D01*
X023843Y009170D01*
X023938Y009130D01*
X023974Y009130D01*
X024093Y009011D01*
X024096Y009010D01*
X024116Y008958D01*
X024187Y008883D01*
X024282Y008841D01*
X024385Y008839D01*
X024482Y008876D01*
X024557Y008947D01*
X024585Y009010D01*
X024587Y009011D01*
X024700Y009125D01*
X025111Y009130D01*
X025161Y009130D01*
X025163Y009131D01*
X025165Y009131D01*
X025211Y009150D01*
X025256Y009169D01*
X025258Y009171D01*
X025260Y009172D01*
X025295Y009207D01*
X026577Y010479D01*
X026577Y010480D01*
X026614Y010516D01*
X026650Y010552D01*
X026650Y010552D01*
X026650Y010553D01*
X026670Y010600D01*
X026690Y010647D01*
X026690Y010648D01*
X026690Y010648D01*
X026690Y010700D01*
X026690Y010751D01*
X026690Y012884D01*
X026799Y012993D01*
X026865Y013153D01*
X026865Y013327D01*
X026799Y013487D01*
X026736Y013550D01*
X027110Y013550D01*
X027112Y013549D01*
X027162Y013550D01*
X027212Y013550D01*
X027213Y013551D01*
X027215Y013551D01*
X027261Y013570D01*
X027307Y013590D01*
X027309Y013591D01*
X027310Y013592D01*
X027345Y013627D01*
X027380Y013663D01*
X027381Y013664D01*
X027730Y014023D01*
X027730Y013542D01*
X027812Y013460D01*
X027981Y013460D01*
X027985Y013456D01*
X028002Y013434D01*
X028023Y013421D01*
X028041Y013404D01*
X028067Y013395D01*
X028091Y013380D01*
X028115Y013377D01*
X028138Y013368D01*
X028166Y013369D01*
X028193Y013365D01*
X028217Y013371D01*
X028241Y013372D01*
X028266Y013384D01*
X028293Y013390D01*
X028313Y013405D01*
X028335Y013415D01*
X028354Y013435D01*
X028376Y013452D01*
X028381Y013460D01*
X028528Y013460D01*
X028610Y013542D01*
X028610Y013620D01*
X028828Y013620D01*
X028921Y013527D01*
X028982Y013501D01*
X028986Y013493D01*
X029062Y013423D01*
X029160Y013388D01*
X029263Y013392D01*
X029357Y013436D01*
X029427Y013512D01*
X029439Y013547D01*
X029543Y013651D01*
X029797Y013651D01*
X029921Y013527D01*
X030082Y013460D01*
X030258Y013460D01*
X030419Y013527D01*
X030543Y013651D01*
X031150Y013651D01*
X031150Y013533D02*
X030425Y013533D01*
X030543Y013651D02*
X030610Y013812D01*
X030610Y013988D01*
X030543Y014149D01*
X030419Y014273D01*
X030306Y014320D01*
X030423Y014320D01*
X030458Y014316D01*
X030475Y014320D01*
X030492Y014320D01*
X030524Y014333D01*
X030558Y014343D01*
X030571Y014353D01*
X030587Y014360D01*
X030612Y014384D01*
X031744Y015258D01*
X031813Y015190D01*
X031908Y015150D01*
X032012Y015150D01*
X032107Y015190D01*
X032180Y015263D01*
X032220Y015358D01*
X032220Y015462D01*
X032180Y015557D01*
X032087Y015650D01*
X032087Y015718D01*
X035530Y012819D01*
X035533Y011658D01*
X035529Y011667D01*
X035420Y011776D01*
X035420Y011802D01*
X035380Y011897D01*
X035307Y011970D01*
X035212Y012010D01*
X035108Y012010D01*
X035013Y011970D01*
X035010Y011967D01*
X034993Y011960D01*
X034920Y011887D01*
X034880Y011792D01*
X034880Y011756D01*
X034791Y011667D01*
X034725Y011507D01*
X034725Y011370D01*
X034578Y011233D01*
X034575Y011232D01*
X034540Y011198D01*
X034505Y011165D01*
X034503Y011162D01*
X034501Y011159D01*
X034482Y011115D01*
X034462Y011071D01*
X034462Y011067D01*
X034461Y011064D01*
X034460Y011016D01*
X034458Y010967D01*
X034460Y010964D01*
X034391Y003959D01*
X033952Y003520D01*
X028308Y003520D01*
X028260Y003500D01*
X020128Y003500D01*
X020000Y003628D01*
X020150Y003778D01*
X020150Y004142D01*
X019892Y004400D01*
X019528Y004400D01*
X019270Y004142D01*
X019270Y003778D01*
X019420Y003628D01*
X019212Y003420D01*
X012738Y003420D01*
X011550Y004607D01*
X011477Y004680D01*
X011382Y004720D01*
X004417Y004720D01*
X004220Y004889D01*
X004220Y009572D01*
X004309Y009661D01*
X004240Y009495D01*
X004240Y009285D01*
X004321Y009090D01*
X004470Y008941D01*
X004665Y008860D01*
X005655Y008860D01*
X005850Y008941D01*
X005999Y009090D01*
X006016Y009130D01*
X006472Y009130D01*
X006567Y009170D01*
X006640Y009243D01*
X006640Y009243D01*
X006515Y009148D02*
X007380Y009148D01*
X007262Y009030D02*
X005939Y009030D01*
X005779Y008911D02*
X007143Y008911D01*
X007033Y008793D02*
X004220Y008793D01*
X004220Y008911D02*
X004541Y008911D01*
X004381Y009030D02*
X004220Y009030D01*
X004220Y009148D02*
X004297Y009148D01*
X004247Y009267D02*
X004220Y009267D01*
X004220Y009385D02*
X004240Y009385D01*
X004243Y009504D02*
X004220Y009504D01*
X004270Y009622D02*
X004292Y009622D01*
X004507Y009859D02*
X004517Y009859D01*
X004127Y010215D02*
X003639Y010215D01*
X003766Y010333D02*
X004245Y010333D01*
X004364Y010452D02*
X003892Y010452D01*
X004018Y010570D02*
X004482Y010570D01*
X004450Y010537D02*
X004450Y010537D01*
X004271Y010807D02*
X006699Y010807D01*
X006581Y010689D02*
X004144Y010689D01*
X004397Y010926D02*
X004455Y010926D01*
X004008Y010096D02*
X003513Y010096D01*
X003441Y009978D02*
X003890Y009978D01*
X003771Y009859D02*
X003442Y009859D01*
X003443Y009741D02*
X003704Y009741D01*
X003700Y009622D02*
X003444Y009622D01*
X003445Y009504D02*
X003700Y009504D01*
X003700Y009385D02*
X003446Y009385D01*
X003447Y009267D02*
X003700Y009267D01*
X003700Y009148D02*
X003447Y009148D01*
X003448Y009030D02*
X003700Y009030D01*
X003700Y008911D02*
X003449Y008911D01*
X003450Y008793D02*
X003700Y008793D01*
X003700Y008674D02*
X003451Y008674D01*
X003452Y008556D02*
X003700Y008556D01*
X003700Y008437D02*
X003453Y008437D01*
X003454Y008319D02*
X003700Y008319D01*
X003700Y008200D02*
X003454Y008200D01*
X003455Y008082D02*
X003700Y008082D01*
X003700Y007963D02*
X003456Y007963D01*
X003457Y007845D02*
X003700Y007845D01*
X003700Y007726D02*
X003458Y007726D01*
X003459Y007608D02*
X003700Y007608D01*
X003700Y007489D02*
X003460Y007489D01*
X003461Y007371D02*
X003700Y007371D01*
X003700Y007252D02*
X003462Y007252D01*
X003462Y007134D02*
X003700Y007134D01*
X003700Y007015D02*
X003463Y007015D01*
X003464Y006897D02*
X003700Y006897D01*
X003700Y006778D02*
X003465Y006778D01*
X003466Y006660D02*
X003700Y006660D01*
X003700Y006541D02*
X003467Y006541D01*
X003468Y006423D02*
X003700Y006423D01*
X003700Y006304D02*
X003469Y006304D01*
X003470Y006186D02*
X003700Y006186D01*
X003700Y006067D02*
X003470Y006067D01*
X003471Y005949D02*
X003700Y005949D01*
X003700Y005830D02*
X003472Y005830D01*
X003473Y005712D02*
X003700Y005712D01*
X003700Y005593D02*
X003474Y005593D01*
X003475Y005475D02*
X003700Y005475D01*
X003700Y005356D02*
X003476Y005356D01*
X003477Y005238D02*
X003700Y005238D01*
X003700Y005119D02*
X003477Y005119D01*
X003478Y005001D02*
X003700Y005001D01*
X003700Y004882D02*
X003479Y004882D01*
X003480Y004764D02*
X003700Y004764D01*
X003730Y004645D02*
X003481Y004645D01*
X003482Y004527D02*
X003844Y004527D01*
X003982Y004408D02*
X003483Y004408D01*
X003484Y004290D02*
X004120Y004290D01*
X004412Y003890D02*
X004350Y003828D01*
X004300Y003758D01*
X004260Y003681D01*
X004234Y003599D01*
X004223Y003530D01*
X005100Y003530D01*
X005100Y004020D01*
X004727Y004020D01*
X004641Y004006D01*
X004559Y003980D01*
X004482Y003940D01*
X004412Y003890D01*
X004473Y003934D02*
X003486Y003934D01*
X003485Y004053D02*
X011370Y004053D01*
X011251Y004171D02*
X003485Y004171D01*
X003487Y003816D02*
X004341Y003816D01*
X004268Y003697D02*
X003488Y003697D01*
X003489Y003579D02*
X004230Y003579D01*
X004223Y003410D02*
X004234Y003341D01*
X004260Y003259D01*
X004300Y003182D01*
X004350Y003112D01*
X004412Y003050D01*
X004482Y003000D01*
X004559Y002960D01*
X004641Y002934D01*
X004727Y002920D01*
X005100Y002920D01*
X005100Y003410D01*
X005220Y003410D01*
X005220Y003530D01*
X005100Y003530D01*
X005100Y003410D01*
X004223Y003410D01*
X004233Y003341D02*
X003692Y003341D01*
X003809Y003223D02*
X004279Y003223D01*
X004358Y003104D02*
X003926Y003104D01*
X004043Y002986D02*
X004508Y002986D01*
X005100Y002986D02*
X005220Y002986D01*
X005220Y002920D02*
X005593Y002920D01*
X005679Y002934D01*
X005761Y002960D01*
X005838Y003000D01*
X005908Y003050D01*
X005970Y003112D01*
X006020Y003182D01*
X006060Y003259D01*
X006086Y003341D01*
X006097Y003410D01*
X005220Y003410D01*
X005220Y002920D01*
X005220Y003104D02*
X005100Y003104D01*
X005100Y003223D02*
X005220Y003223D01*
X005220Y003341D02*
X005100Y003341D01*
X005100Y003460D02*
X003575Y003460D01*
X004366Y004764D02*
X014284Y004764D01*
X014270Y004778D02*
X014528Y004520D01*
X014892Y004520D01*
X015150Y004778D01*
X015150Y005142D01*
X014892Y005400D01*
X014528Y005400D01*
X014270Y005142D01*
X014270Y004778D01*
X014270Y004882D02*
X004228Y004882D01*
X004220Y005001D02*
X004460Y005001D01*
X004470Y004991D02*
X004665Y004910D01*
X005655Y004910D01*
X005850Y004991D01*
X005999Y005140D01*
X006080Y005335D01*
X006080Y005545D01*
X005999Y005740D01*
X005850Y005889D01*
X005655Y005970D01*
X004665Y005970D01*
X004470Y005889D01*
X004321Y005740D01*
X004240Y005545D01*
X004240Y005335D01*
X004321Y005140D01*
X004470Y004991D01*
X004341Y005119D02*
X004220Y005119D01*
X004220Y005238D02*
X004280Y005238D01*
X004240Y005356D02*
X004220Y005356D01*
X004220Y005475D02*
X004240Y005475D01*
X004220Y005593D02*
X004260Y005593D01*
X004220Y005712D02*
X004309Y005712D01*
X004220Y005830D02*
X004410Y005830D01*
X004220Y005949D02*
X004613Y005949D01*
X004220Y006067D02*
X017035Y006067D01*
X016917Y006186D02*
X004220Y006186D01*
X004220Y006304D02*
X016798Y006304D01*
X016680Y006423D02*
X004220Y006423D01*
X004220Y006541D02*
X016561Y006541D01*
X016443Y006660D02*
X004220Y006660D01*
X004220Y006778D02*
X016324Y006778D01*
X016206Y006897D02*
X005695Y006897D01*
X005905Y007015D02*
X016089Y007015D01*
X016090Y007013D02*
X017440Y005663D01*
X017513Y005590D01*
X017608Y005550D01*
X024132Y005550D01*
X024405Y005277D01*
X024270Y005142D01*
X024270Y004778D01*
X024528Y004520D01*
X024892Y004520D01*
X025150Y004778D01*
X025150Y005142D01*
X024970Y005322D01*
X024970Y005392D01*
X024930Y005487D01*
X024857Y005560D01*
X024468Y005950D01*
X025122Y005950D01*
X025460Y005612D01*
X025460Y005332D01*
X025270Y005142D01*
X025270Y004778D01*
X025528Y004520D01*
X025892Y004520D01*
X026150Y004778D01*
X026150Y005142D01*
X025980Y005312D01*
X025980Y005772D01*
X025940Y005867D01*
X025867Y005940D01*
X025518Y006290D01*
X026062Y006290D01*
X026430Y005922D01*
X026430Y005302D01*
X026270Y005142D01*
X026270Y004778D01*
X026528Y004520D01*
X026892Y004520D01*
X027150Y004778D01*
X027150Y005142D01*
X026950Y005342D01*
X026950Y006082D01*
X026910Y006177D01*
X026837Y006250D01*
X026390Y006697D01*
X026390Y006697D01*
X026317Y006770D01*
X026222Y006810D01*
X019113Y006810D01*
X018570Y007322D01*
X018570Y008286D01*
X018603Y008319D01*
X018607Y008319D01*
X018703Y008357D01*
X018777Y008428D01*
X018819Y008523D01*
X018821Y008627D01*
X018783Y008723D01*
X018712Y008797D01*
X018617Y008839D01*
X018580Y008840D01*
X018580Y008932D01*
X018540Y009027D01*
X018467Y009100D01*
X018372Y009140D01*
X018268Y009140D01*
X018173Y009100D01*
X018100Y009027D01*
X018060Y008932D01*
X018060Y008850D01*
X018053Y008850D01*
X018003Y008851D01*
X018001Y008850D01*
X017998Y008850D01*
X017963Y008835D01*
X018020Y008893D01*
X018060Y008988D01*
X018060Y009092D01*
X018020Y009187D01*
X017947Y009260D01*
X017871Y009292D01*
X017870Y009294D01*
X017793Y009371D01*
X017787Y009387D01*
X017718Y009463D01*
X017624Y009507D01*
X017521Y009512D01*
X017423Y009477D01*
X017347Y009408D01*
X017345Y009404D01*
X017336Y009400D01*
X017230Y009294D01*
X017173Y009155D01*
X017173Y009005D01*
X017230Y008866D01*
X017290Y008806D01*
X017290Y006968D01*
X017330Y006873D01*
X018132Y006070D01*
X017768Y006070D01*
X016570Y007268D01*
X016570Y010386D01*
X016630Y010446D01*
X016687Y010585D01*
X016687Y010680D01*
X016730Y010723D01*
X016770Y010818D01*
X016770Y010922D01*
X016730Y011017D01*
X016657Y011090D01*
X016562Y011130D01*
X016458Y011130D01*
X016363Y011090D01*
X016310Y011037D01*
X016290Y011037D01*
X016267Y011060D01*
X016172Y011100D01*
X016068Y011100D01*
X015973Y011060D01*
X015900Y010987D01*
X015860Y010892D01*
X015860Y010788D01*
X015900Y010693D01*
X015933Y010660D01*
X015933Y010585D01*
X015990Y010446D01*
X016050Y010386D01*
X016050Y007108D01*
X016090Y007013D01*
X016050Y007134D02*
X006009Y007134D01*
X006245Y007252D02*
X016050Y007252D01*
X016050Y007371D02*
X006363Y007371D01*
X006482Y007489D02*
X016050Y007489D01*
X016050Y007608D02*
X006600Y007608D01*
X006719Y007726D02*
X016050Y007726D01*
X016050Y007845D02*
X006837Y007845D01*
X006956Y007963D02*
X016050Y007963D01*
X016050Y008082D02*
X007074Y008082D01*
X007193Y008200D02*
X016050Y008200D01*
X016050Y008319D02*
X007311Y008319D01*
X007430Y008437D02*
X016050Y008437D01*
X016050Y008556D02*
X007548Y008556D01*
X007667Y008674D02*
X016050Y008674D01*
X016050Y008793D02*
X007785Y008793D01*
X007904Y008911D02*
X016050Y008911D01*
X016050Y009030D02*
X008022Y009030D01*
X008141Y009148D02*
X016050Y009148D01*
X016050Y009267D02*
X008265Y009267D01*
X008388Y009385D02*
X016050Y009385D01*
X016050Y009504D02*
X008511Y009504D01*
X008634Y009622D02*
X016050Y009622D01*
X016050Y009741D02*
X008757Y009741D01*
X008880Y009859D02*
X016050Y009859D01*
X016050Y009978D02*
X009003Y009978D01*
X009126Y010096D02*
X016050Y010096D01*
X016050Y010215D02*
X009249Y010215D01*
X009372Y010333D02*
X016050Y010333D01*
X015988Y010452D02*
X009495Y010452D01*
X009618Y010570D02*
X015939Y010570D01*
X015904Y010689D02*
X009741Y010689D01*
X009864Y010807D02*
X015860Y010807D01*
X015874Y010926D02*
X009987Y010926D01*
X010110Y011044D02*
X015956Y011044D01*
X016284Y011044D02*
X016316Y011044D01*
X016704Y011044D02*
X017808Y011044D01*
X017690Y011163D02*
X010233Y011163D01*
X010356Y011281D02*
X017571Y011281D01*
X017453Y011400D02*
X010479Y011400D01*
X010602Y011518D02*
X017334Y011518D01*
X017216Y011637D02*
X010725Y011637D01*
X010848Y011755D02*
X017097Y011755D01*
X017014Y011874D02*
X010971Y011874D01*
X011094Y011992D02*
X016999Y011992D01*
X016996Y012111D02*
X012188Y012111D01*
X012429Y012229D02*
X016993Y012229D01*
X016990Y012348D02*
X012658Y012348D01*
X012774Y012466D02*
X016987Y012466D01*
X016984Y012585D02*
X012800Y012585D01*
X012770Y012703D02*
X016910Y012703D01*
X017265Y013083D02*
X017098Y013230D01*
X017067Y013260D01*
X017059Y013264D01*
X017052Y013270D01*
X017012Y013284D01*
X016972Y013300D01*
X016963Y013300D01*
X016954Y013303D01*
X016911Y013300D01*
X016005Y013300D01*
X020456Y017928D01*
X020490Y017963D01*
X020491Y017965D01*
X020493Y017967D01*
X020511Y018013D01*
X020530Y018058D01*
X020530Y018061D01*
X020531Y018063D01*
X020530Y018113D01*
X020530Y019093D01*
X020535Y019118D01*
X020530Y019144D01*
X020530Y019172D01*
X020520Y019195D01*
X020516Y019219D01*
X020501Y019242D01*
X020490Y019267D01*
X020473Y019285D01*
X020459Y019306D01*
X020437Y019321D01*
X020417Y019340D01*
X020394Y019350D01*
X020207Y019477D01*
X020207Y019495D01*
X020150Y019634D01*
X020115Y019669D01*
X020110Y019873D01*
X020110Y019952D01*
X020070Y020047D01*
X019997Y020120D01*
X019902Y020160D01*
X019798Y020160D01*
X019703Y020120D01*
X019630Y020047D01*
X019590Y019952D01*
X019590Y019918D01*
X019589Y019915D01*
X019590Y019867D01*
X019590Y019818D01*
X019591Y019815D01*
X019594Y019717D01*
X019560Y019683D01*
X019559Y019705D01*
X019550Y019726D01*
X019546Y019749D01*
X019530Y019773D01*
X019518Y019800D01*
X019502Y019816D01*
X019237Y020223D01*
X019232Y020239D01*
X019209Y020266D01*
X019190Y020295D01*
X019176Y020305D01*
X019165Y020318D01*
X019133Y020334D01*
X019104Y020354D01*
X019088Y020357D01*
X019072Y020365D01*
X019037Y020368D01*
X019003Y020375D01*
X018986Y020372D01*
X018410Y020419D01*
X018410Y020632D01*
X018370Y020727D01*
X018297Y020800D01*
X018202Y020840D01*
X018128Y020840D01*
X018630Y021343D01*
X018670Y021438D01*
X018670Y021453D01*
X018876Y021773D01*
X018885Y021773D01*
X019024Y021830D01*
X019094Y021900D01*
X019172Y021900D01*
X019267Y021940D01*
X019340Y022013D01*
X019380Y022108D01*
X019380Y022212D01*
X019340Y022307D01*
X019267Y022380D01*
X019172Y022420D01*
X019074Y022420D01*
X019060Y022434D01*
X019063Y022473D01*
X019030Y022571D01*
X018963Y022649D01*
X018870Y022696D01*
X018767Y022703D01*
X018669Y022670D01*
X018591Y022603D01*
X018544Y022510D01*
X018539Y022430D01*
X018438Y022430D01*
X018343Y022390D01*
X018270Y022317D01*
X018230Y022222D01*
X018230Y022118D01*
X018270Y022023D01*
X018343Y021950D01*
X018365Y021940D01*
X018207Y021694D01*
X018190Y021677D01*
X018179Y021651D01*
X018163Y021627D01*
X018160Y021608D01*
X017330Y020778D01*
X017330Y021338D01*
X017333Y021347D01*
X017330Y021389D01*
X017330Y021432D01*
X017326Y021441D01*
X017326Y021450D01*
X017307Y021488D01*
X017290Y021527D01*
X017284Y021534D01*
X017279Y021543D01*
X017253Y021565D01*
X017502Y021723D01*
X017521Y021729D01*
X017545Y021751D01*
X017573Y021768D01*
X017584Y021784D01*
X017599Y021797D01*
X017614Y021826D01*
X017632Y021853D01*
X017637Y021872D01*
X017646Y021890D01*
X017648Y021922D01*
X017655Y021954D01*
X017652Y021973D01*
X017684Y022417D01*
X018002Y022850D01*
X019168Y022850D01*
X020801Y020885D01*
X020819Y017717D01*
X017669Y014547D01*
X017635Y014515D01*
X017633Y014510D01*
X017629Y014507D01*
X017611Y014463D01*
X017592Y014421D01*
X017592Y014416D01*
X017590Y014411D01*
X017590Y014364D01*
X017560Y013544D01*
X017490Y013474D01*
X017433Y013335D01*
X017433Y013250D01*
X017265Y013083D01*
X017359Y013177D02*
X017158Y013177D01*
X016983Y013296D02*
X017433Y013296D01*
X017465Y013414D02*
X016115Y013414D01*
X016229Y013533D02*
X017549Y013533D01*
X017564Y013651D02*
X016343Y013651D01*
X016457Y013770D02*
X017568Y013770D01*
X017573Y013888D02*
X016571Y013888D01*
X016685Y014007D02*
X017577Y014007D01*
X017581Y014125D02*
X016799Y014125D01*
X016913Y014244D02*
X017586Y014244D01*
X017590Y014362D02*
X017027Y014362D01*
X017141Y014481D02*
X017618Y014481D01*
X017721Y014599D02*
X017254Y014599D01*
X017368Y014718D02*
X017839Y014718D01*
X017957Y014836D02*
X017482Y014836D01*
X017596Y014955D02*
X018074Y014955D01*
X018192Y015073D02*
X017710Y015073D01*
X017824Y015192D02*
X018310Y015192D01*
X018428Y015310D02*
X017938Y015310D01*
X018052Y015429D02*
X018545Y015429D01*
X018663Y015547D02*
X018166Y015547D01*
X018280Y015666D02*
X018781Y015666D01*
X018899Y015784D02*
X018394Y015784D01*
X018508Y015903D02*
X019016Y015903D01*
X019134Y016021D02*
X018622Y016021D01*
X018736Y016140D02*
X019252Y016140D01*
X019370Y016258D02*
X018850Y016258D01*
X018964Y016377D02*
X019488Y016377D01*
X019605Y016495D02*
X019078Y016495D01*
X019192Y016614D02*
X019723Y016614D01*
X019841Y016732D02*
X019306Y016732D01*
X019420Y016851D02*
X019959Y016851D01*
X020076Y016969D02*
X019534Y016969D01*
X019647Y017088D02*
X020194Y017088D01*
X020312Y017206D02*
X019761Y017206D01*
X019875Y017325D02*
X020430Y017325D01*
X020547Y017443D02*
X019989Y017443D01*
X020103Y017562D02*
X020665Y017562D01*
X020783Y017680D02*
X020217Y017680D01*
X020331Y017799D02*
X020819Y017799D01*
X020818Y017917D02*
X020445Y017917D01*
X020521Y018036D02*
X020817Y018036D01*
X020817Y018154D02*
X020530Y018154D01*
X020530Y018273D02*
X020816Y018273D01*
X020815Y018391D02*
X020530Y018391D01*
X020530Y018510D02*
X020815Y018510D01*
X020814Y018628D02*
X020530Y018628D01*
X020530Y018747D02*
X020813Y018747D01*
X020813Y018865D02*
X020530Y018865D01*
X020530Y018984D02*
X020812Y018984D01*
X020811Y019102D02*
X020532Y019102D01*
X020515Y019221D02*
X020810Y019221D01*
X020810Y019339D02*
X020419Y019339D01*
X020236Y019458D02*
X020809Y019458D01*
X020808Y019576D02*
X020174Y019576D01*
X020114Y019695D02*
X020808Y019695D01*
X020807Y019813D02*
X020111Y019813D01*
X020110Y019932D02*
X020806Y019932D01*
X020806Y020050D02*
X020068Y020050D01*
X019632Y020050D02*
X019350Y020050D01*
X019427Y019932D02*
X019590Y019932D01*
X019591Y019813D02*
X019505Y019813D01*
X019559Y019695D02*
X019571Y019695D01*
X020270Y019120D02*
X020290Y019080D01*
X019830Y018700D02*
X019790Y018660D01*
X019272Y020169D02*
X020805Y020169D01*
X020804Y020287D02*
X019195Y020287D01*
X018571Y020406D02*
X020803Y020406D01*
X020803Y020524D02*
X018410Y020524D01*
X018406Y020643D02*
X020802Y020643D01*
X020801Y020761D02*
X018337Y020761D01*
X018167Y020880D02*
X020801Y020880D01*
X020707Y020998D02*
X018286Y020998D01*
X018404Y021117D02*
X020608Y021117D01*
X020510Y021235D02*
X018523Y021235D01*
X018635Y021354D02*
X020412Y021354D01*
X020313Y021472D02*
X018682Y021472D01*
X018758Y021591D02*
X020215Y021591D01*
X020116Y021709D02*
X018835Y021709D01*
X019018Y021828D02*
X020018Y021828D01*
X019919Y021946D02*
X019274Y021946D01*
X019362Y022065D02*
X019821Y022065D01*
X019722Y022183D02*
X019380Y022183D01*
X019343Y022302D02*
X019624Y022302D01*
X019525Y022420D02*
X019074Y022420D01*
X019041Y022539D02*
X019427Y022539D01*
X019328Y022657D02*
X018947Y022657D01*
X018653Y022657D02*
X017860Y022657D01*
X017773Y022539D02*
X018559Y022539D01*
X018414Y022420D02*
X017686Y022420D01*
X017676Y022302D02*
X018263Y022302D01*
X018230Y022183D02*
X017667Y022183D01*
X017658Y022065D02*
X018252Y022065D01*
X018351Y021946D02*
X017653Y021946D01*
X017615Y021828D02*
X018293Y021828D01*
X018216Y021709D02*
X017480Y021709D01*
X017293Y021591D02*
X018143Y021591D01*
X018024Y021472D02*
X017315Y021472D01*
X017333Y021354D02*
X017906Y021354D01*
X017787Y021235D02*
X017330Y021235D01*
X017330Y021117D02*
X017669Y021117D01*
X017550Y020998D02*
X017330Y020998D01*
X017330Y020880D02*
X017432Y020880D01*
X017980Y022520D02*
X018150Y022660D01*
X018150Y022690D01*
X017947Y022776D02*
X019230Y022776D01*
X019611Y023131D02*
X020758Y023131D01*
X020645Y023013D02*
X019709Y023013D01*
X019808Y022894D02*
X020620Y022894D01*
X020318Y022776D02*
X019906Y022776D01*
X020004Y022657D02*
X020235Y022657D01*
X020220Y022539D02*
X020103Y022539D01*
X020201Y022420D02*
X020262Y022420D01*
X020300Y022302D02*
X020575Y022302D01*
X020600Y022183D02*
X020398Y022183D01*
X020497Y022065D02*
X020648Y022065D01*
X020595Y021946D02*
X020999Y021946D01*
X021085Y021828D02*
X020694Y021828D01*
X020792Y021709D02*
X021171Y021709D01*
X021210Y021591D02*
X020891Y021591D01*
X020989Y021472D02*
X021209Y021472D01*
X021209Y021354D02*
X021088Y021354D01*
X021186Y021235D02*
X021209Y021235D01*
X021729Y021235D02*
X023230Y021235D01*
X023230Y021117D02*
X021729Y021117D01*
X021728Y020998D02*
X023230Y020998D01*
X023230Y020880D02*
X021728Y020880D01*
X021728Y020761D02*
X023230Y020761D01*
X023230Y020643D02*
X021727Y020643D01*
X021727Y020524D02*
X023230Y020524D01*
X023230Y020406D02*
X021727Y020406D01*
X021727Y020287D02*
X023230Y020287D01*
X023230Y020169D02*
X021726Y020169D01*
X021726Y020050D02*
X023229Y020050D01*
X023245Y019932D02*
X021726Y019932D01*
X021725Y019813D02*
X023329Y019813D01*
X023455Y019695D02*
X021725Y019695D01*
X021725Y019576D02*
X026724Y019576D01*
X026838Y019458D02*
X021725Y019458D01*
X021724Y019339D02*
X026860Y019339D01*
X026860Y019221D02*
X021724Y019221D01*
X021724Y019102D02*
X026860Y019102D01*
X026860Y018984D02*
X021724Y018984D01*
X021723Y018865D02*
X026860Y018865D01*
X026860Y018747D02*
X021723Y018747D01*
X021723Y018628D02*
X026860Y018628D01*
X026860Y018510D02*
X021722Y018510D01*
X021722Y018391D02*
X026860Y018391D01*
X026860Y018273D02*
X021722Y018273D01*
X021722Y018154D02*
X026860Y018154D01*
X026860Y018036D02*
X021721Y018036D01*
X021721Y017917D02*
X026860Y017917D01*
X026860Y017799D02*
X021721Y017799D01*
X021720Y017680D02*
X026860Y017680D01*
X026860Y017562D02*
X021720Y017562D01*
X021721Y017443D02*
X026860Y017443D01*
X026860Y017325D02*
X021662Y017325D01*
X021546Y017206D02*
X025412Y017206D01*
X025396Y017190D02*
X023532Y017190D01*
X023531Y017190D01*
X023480Y017190D01*
X023428Y017190D01*
X023428Y017190D01*
X023428Y017190D01*
X023380Y017170D01*
X023333Y017150D01*
X023332Y017150D01*
X023296Y017113D01*
X023260Y017077D01*
X023260Y017077D01*
X020129Y013937D01*
X020045Y013937D01*
X019906Y013880D01*
X019800Y013774D01*
X019743Y013635D01*
X019743Y013485D01*
X019800Y013346D01*
X019906Y013240D01*
X020045Y013183D01*
X020195Y013183D01*
X020334Y013240D01*
X020440Y013346D01*
X020497Y013485D01*
X020497Y013570D01*
X023588Y016670D01*
X025396Y016670D01*
X025456Y016610D01*
X025595Y016553D01*
X025745Y016553D01*
X025884Y016610D01*
X025990Y016716D01*
X026047Y016855D01*
X026047Y017005D01*
X025990Y017144D01*
X025884Y017250D01*
X025745Y017307D01*
X025595Y017307D01*
X025456Y017250D01*
X025396Y017190D01*
X025928Y017206D02*
X026860Y017206D01*
X026860Y017088D02*
X026013Y017088D01*
X026047Y016969D02*
X026860Y016969D01*
X026860Y016851D02*
X026650Y016851D01*
X026812Y016732D02*
X026860Y016732D01*
X026370Y016851D02*
X026046Y016851D01*
X025997Y016732D02*
X026208Y016732D01*
X026148Y016614D02*
X025887Y016614D01*
X026009Y016377D02*
X023295Y016377D01*
X023413Y016495D02*
X026127Y016495D01*
X025890Y016258D02*
X023177Y016258D01*
X023059Y016140D02*
X025772Y016140D01*
X026152Y015784D02*
X026333Y015784D01*
X026270Y015903D02*
X026448Y015903D01*
X026389Y016021D02*
X026563Y016021D01*
X026626Y016140D02*
X026679Y016140D01*
X026217Y015666D02*
X026033Y015666D01*
X026102Y015547D02*
X023965Y015547D01*
X023846Y015429D02*
X025987Y015429D01*
X025349Y015310D02*
X023827Y015310D01*
X023825Y015192D02*
X024675Y015192D01*
X024581Y015073D02*
X023824Y015073D01*
X023822Y014955D02*
X024560Y014955D01*
X024528Y014836D02*
X023821Y014836D01*
X023819Y014718D02*
X024462Y014718D01*
X024464Y014599D02*
X023817Y014599D01*
X023816Y014481D02*
X024532Y014481D01*
X024800Y014362D02*
X023814Y014362D01*
X023891Y014244D02*
X024810Y014244D01*
X024887Y014125D02*
X023927Y014125D01*
X023927Y014007D02*
X025003Y014007D01*
X025119Y013888D02*
X023879Y013888D01*
X023773Y013770D02*
X025174Y013770D01*
X025150Y013651D02*
X020578Y013651D01*
X020497Y013533D02*
X025150Y013533D01*
X025150Y013414D02*
X020468Y013414D01*
X020389Y013296D02*
X025150Y013296D01*
X025150Y013177D02*
X019137Y013177D01*
X019039Y013296D02*
X019851Y013296D01*
X019772Y013414D02*
X018990Y013414D01*
X018990Y013533D02*
X019743Y013533D01*
X019749Y013651D02*
X018990Y013651D01*
X018990Y013770D02*
X019798Y013770D01*
X019926Y013888D02*
X018990Y013888D01*
X018990Y014007D02*
X020198Y014007D01*
X020316Y014125D02*
X018990Y014125D01*
X018990Y014244D02*
X020434Y014244D01*
X020552Y014362D02*
X018990Y014362D01*
X018990Y014481D02*
X020671Y014481D01*
X020789Y014599D02*
X019004Y014599D01*
X019120Y014718D02*
X020907Y014718D01*
X021025Y014836D02*
X019235Y014836D01*
X019351Y014955D02*
X021143Y014955D01*
X021261Y015073D02*
X019467Y015073D01*
X019582Y015192D02*
X021380Y015192D01*
X021498Y015310D02*
X019698Y015310D01*
X019813Y015429D02*
X021616Y015429D01*
X021734Y015547D02*
X019929Y015547D01*
X020044Y015666D02*
X021852Y015666D01*
X021970Y015784D02*
X020160Y015784D01*
X020275Y015903D02*
X022088Y015903D01*
X022207Y016021D02*
X020391Y016021D01*
X020506Y016140D02*
X022325Y016140D01*
X022443Y016258D02*
X020622Y016258D01*
X020737Y016377D02*
X022561Y016377D01*
X022679Y016495D02*
X020853Y016495D01*
X020969Y016614D02*
X022797Y016614D01*
X022915Y016732D02*
X021084Y016732D01*
X021200Y016851D02*
X023034Y016851D01*
X023152Y016969D02*
X021315Y016969D01*
X021431Y017088D02*
X023270Y017088D01*
X023333Y017150D02*
X023333Y017150D01*
X023532Y016614D02*
X025453Y016614D01*
X025224Y015192D02*
X024965Y015192D01*
X025085Y015073D02*
X025105Y015073D01*
X026287Y014323D02*
X026487Y014558D01*
X027720Y015657D01*
X027727Y015660D01*
X027759Y015691D01*
X027792Y015720D01*
X027795Y015727D01*
X027800Y015733D01*
X027817Y015774D01*
X027837Y015813D01*
X027837Y015821D01*
X027840Y015828D01*
X027840Y015872D01*
X027843Y015917D01*
X027840Y015924D01*
X027840Y019202D01*
X028038Y019400D01*
X028902Y019400D01*
X029033Y019270D01*
X029033Y019185D01*
X029090Y019046D01*
X029196Y018940D01*
X029335Y018883D01*
X029485Y018883D01*
X029491Y018885D01*
X029554Y018866D01*
X029657Y018876D01*
X029748Y018925D01*
X029814Y019005D01*
X029844Y019104D01*
X029834Y019207D01*
X029816Y019240D01*
X029858Y019318D01*
X029864Y019323D01*
X029882Y019363D01*
X029903Y019402D01*
X029904Y019410D01*
X029908Y019417D01*
X029909Y019461D01*
X029914Y019505D01*
X029912Y019513D01*
X029912Y019520D01*
X029897Y019562D01*
X029884Y019604D01*
X029879Y019610D01*
X029877Y019618D01*
X029847Y019650D01*
X029819Y019684D01*
X029812Y019688D01*
X029807Y019694D01*
X029767Y019712D01*
X029728Y019733D01*
X029720Y019734D01*
X029713Y019738D01*
X029669Y019739D01*
X029625Y019744D01*
X029617Y019742D01*
X029610Y019742D01*
X029568Y019727D01*
X029526Y019714D01*
X029520Y019709D01*
X029512Y019707D01*
X029480Y019677D01*
X029446Y019649D01*
X029442Y019642D01*
X029437Y019637D01*
X029400Y019637D01*
X029288Y019750D01*
X030502Y019750D01*
X030950Y019302D01*
X030950Y016734D01*
X030916Y016700D01*
X030798Y016700D01*
X030703Y016660D01*
X030630Y016587D01*
X030590Y016492D01*
X030590Y016388D01*
X030630Y016293D01*
X030703Y016220D01*
X030798Y016180D01*
X030956Y016180D01*
X030970Y016167D01*
X030974Y016101D01*
X031020Y016008D01*
X031098Y015940D01*
X031196Y015907D01*
X031299Y015914D01*
X031392Y015960D01*
X031460Y016038D01*
X031493Y016136D01*
X031489Y016200D01*
X031515Y016200D01*
X031708Y016037D01*
X031635Y016037D01*
X031496Y015980D01*
X031429Y015912D01*
X031281Y015909D01*
X031187Y015866D01*
X031116Y015791D01*
X031079Y015695D01*
X031081Y015591D01*
X031124Y015497D01*
X031159Y015463D01*
X030351Y014840D01*
X027960Y014840D01*
X027958Y014841D01*
X027908Y014840D01*
X027858Y014840D01*
X027857Y014839D01*
X027855Y014839D01*
X027809Y014820D01*
X027763Y014800D01*
X027761Y014799D01*
X027760Y014798D01*
X027725Y014763D01*
X027690Y014727D01*
X027689Y014726D01*
X027050Y014070D01*
X026232Y014070D01*
X026287Y014205D01*
X026287Y014323D01*
X026320Y014362D02*
X027335Y014362D01*
X027450Y014481D02*
X026421Y014481D01*
X026533Y014599D02*
X027566Y014599D01*
X027681Y014718D02*
X026666Y014718D01*
X026799Y014836D02*
X027847Y014836D01*
X027331Y015310D02*
X030960Y015310D01*
X030807Y015192D02*
X027198Y015192D01*
X027065Y015073D02*
X030653Y015073D01*
X030500Y014955D02*
X026932Y014955D01*
X027464Y015429D02*
X031114Y015429D01*
X031101Y015547D02*
X027597Y015547D01*
X027733Y015666D02*
X031079Y015666D01*
X031113Y015784D02*
X027822Y015784D01*
X027842Y015903D02*
X031268Y015903D01*
X031445Y016021D02*
X031595Y016021D01*
X031587Y016140D02*
X031493Y016140D01*
X031014Y016021D02*
X027840Y016021D01*
X027840Y016140D02*
X030971Y016140D01*
X030664Y016258D02*
X027840Y016258D01*
X027840Y016377D02*
X030595Y016377D01*
X030591Y016495D02*
X027840Y016495D01*
X027840Y016614D02*
X030656Y016614D01*
X030948Y016732D02*
X027840Y016732D01*
X027840Y016851D02*
X030950Y016851D01*
X030950Y016969D02*
X027840Y016969D01*
X027840Y017088D02*
X030950Y017088D01*
X030950Y017206D02*
X027840Y017206D01*
X027840Y017325D02*
X030950Y017325D01*
X030950Y017443D02*
X027840Y017443D01*
X027840Y017562D02*
X030950Y017562D01*
X030950Y017680D02*
X027840Y017680D01*
X027840Y017799D02*
X030950Y017799D01*
X030950Y017917D02*
X027840Y017917D01*
X027840Y018036D02*
X030950Y018036D01*
X030950Y018154D02*
X027840Y018154D01*
X027840Y018273D02*
X030950Y018273D01*
X030950Y018391D02*
X027840Y018391D01*
X027840Y018510D02*
X030950Y018510D01*
X030950Y018628D02*
X027840Y018628D01*
X027840Y018747D02*
X030950Y018747D01*
X030950Y018865D02*
X027840Y018865D01*
X027840Y018984D02*
X029153Y018984D01*
X029067Y019102D02*
X027840Y019102D01*
X027858Y019221D02*
X029033Y019221D01*
X028963Y019339D02*
X027977Y019339D01*
X027597Y019695D02*
X027333Y019695D01*
X027381Y019576D02*
X027478Y019576D01*
X027715Y019813D02*
X027218Y019813D01*
X027103Y019932D02*
X027625Y019932D01*
X027520Y020050D02*
X026989Y020050D01*
X027473Y020169D02*
X023750Y020169D01*
X023750Y020287D02*
X027473Y020287D01*
X027510Y020406D02*
X024319Y020406D01*
X024354Y020420D02*
X024414Y020480D01*
X024742Y020480D01*
X024837Y020520D01*
X026198Y021880D01*
X027909Y021880D01*
X028553Y021435D01*
X028553Y021415D01*
X028610Y021276D01*
X028716Y021170D01*
X028855Y021113D01*
X029005Y021113D01*
X029144Y021170D01*
X029250Y021276D01*
X029307Y021415D01*
X029307Y021565D01*
X029250Y021704D01*
X029144Y021810D01*
X029005Y021867D01*
X028855Y021867D01*
X028846Y021864D01*
X028157Y022340D01*
X028137Y022360D01*
X028115Y022370D01*
X028095Y022383D01*
X028068Y022389D01*
X028042Y022400D01*
X028018Y022400D01*
X027994Y022405D01*
X027966Y022400D01*
X026038Y022400D01*
X025943Y022360D01*
X025870Y022287D01*
X024582Y021000D01*
X024414Y021000D01*
X024354Y021060D01*
X024215Y021117D01*
X024065Y021117D01*
X023926Y021060D01*
X023820Y020954D01*
X023763Y020815D01*
X023763Y020665D01*
X023820Y020526D01*
X023926Y020420D01*
X024065Y020363D01*
X024215Y020363D01*
X024354Y020420D01*
X023961Y020406D02*
X023750Y020406D01*
X023750Y020524D02*
X023822Y020524D01*
X023772Y020643D02*
X023750Y020643D01*
X023750Y020761D02*
X023763Y020761D01*
X023750Y020880D02*
X023789Y020880D01*
X023750Y020998D02*
X023864Y020998D01*
X023750Y021117D02*
X024063Y021117D01*
X024217Y021117D02*
X024699Y021117D01*
X024817Y021235D02*
X023750Y021235D01*
X023750Y021354D02*
X024936Y021354D01*
X025054Y021472D02*
X023750Y021472D01*
X023750Y021591D02*
X025173Y021591D01*
X025291Y021709D02*
X023750Y021709D01*
X023750Y021828D02*
X025410Y021828D01*
X025528Y021946D02*
X023750Y021946D01*
X023862Y022065D02*
X025039Y022065D01*
X025210Y022280D02*
X025030Y022460D01*
X024840Y022650D01*
X024800Y022650D01*
X024643Y022776D02*
X021375Y022776D01*
X021477Y022657D02*
X023719Y022657D01*
X023601Y022539D02*
X021500Y022539D01*
X021468Y022420D02*
X023482Y022420D01*
X023364Y022302D02*
X021384Y022302D01*
X021470Y022183D02*
X023248Y022183D01*
X023270Y022207D02*
X023270Y022207D01*
X023343Y022280D02*
X023343Y022280D01*
X023210Y022065D02*
X021556Y022065D01*
X021642Y021946D02*
X023227Y021946D01*
X023230Y021828D02*
X021716Y021828D01*
X021730Y021709D02*
X023230Y021709D01*
X023230Y021591D02*
X021730Y021591D01*
X021729Y021472D02*
X023230Y021472D01*
X023230Y021354D02*
X021729Y021354D01*
X021170Y022894D02*
X024976Y022894D01*
X025094Y023013D02*
X021132Y023013D01*
X021002Y023131D02*
X025212Y023131D01*
X025330Y023250D02*
X019514Y023250D01*
X019346Y023368D02*
X025448Y023368D01*
X025567Y023487D02*
X017972Y023487D01*
X018066Y023605D02*
X025685Y023605D01*
X025803Y023724D02*
X018160Y023724D01*
X018253Y023842D02*
X025921Y023842D01*
X026039Y023961D02*
X018347Y023961D01*
X018440Y024079D02*
X026157Y024079D01*
X026275Y024198D02*
X018534Y024198D01*
X018627Y024316D02*
X026394Y024316D01*
X026512Y024435D02*
X018721Y024435D01*
X018815Y024553D02*
X020453Y024553D01*
X020361Y024672D02*
X018908Y024672D01*
X019002Y024790D02*
X020323Y024790D01*
X020323Y024909D02*
X019095Y024909D01*
X019189Y025027D02*
X020369Y025027D01*
X020472Y025146D02*
X019282Y025146D01*
X019376Y025264D02*
X026506Y025264D01*
X026388Y025146D02*
X020928Y025146D01*
X020947Y024553D02*
X026630Y024553D01*
X026649Y024672D02*
X026748Y024672D01*
X026768Y024790D02*
X026866Y024790D01*
X026886Y024909D02*
X026984Y024909D01*
X027005Y025027D02*
X027102Y025027D01*
X027123Y025146D02*
X027220Y025146D01*
X027242Y025264D02*
X027339Y025264D01*
X027360Y025383D02*
X027457Y025383D01*
X027479Y025501D02*
X027575Y025501D01*
X027597Y025620D02*
X027693Y025620D01*
X028073Y025264D02*
X037493Y025264D01*
X037493Y025146D02*
X027955Y025146D01*
X027837Y025027D02*
X037493Y025027D01*
X037493Y024909D02*
X027718Y024909D01*
X027600Y024790D02*
X037493Y024790D01*
X037493Y024672D02*
X027482Y024672D01*
X027364Y024553D02*
X037493Y024553D01*
X037493Y024435D02*
X027246Y024435D01*
X027128Y024316D02*
X037493Y024316D01*
X037493Y024198D02*
X027010Y024198D01*
X026892Y024079D02*
X037493Y024079D01*
X037493Y023961D02*
X026773Y023961D01*
X026655Y023842D02*
X037493Y023842D01*
X037493Y023724D02*
X026537Y023724D01*
X026419Y023605D02*
X037493Y023605D01*
X037492Y023487D02*
X026301Y023487D01*
X026183Y023368D02*
X037492Y023368D01*
X037492Y023250D02*
X026065Y023250D01*
X025946Y023131D02*
X037492Y023131D01*
X037492Y023013D02*
X025828Y023013D01*
X025710Y022894D02*
X037492Y022894D01*
X037492Y022776D02*
X025592Y022776D01*
X025474Y022657D02*
X037492Y022657D01*
X037492Y022539D02*
X025412Y022539D01*
X025419Y022420D02*
X037492Y022420D01*
X037492Y022302D02*
X028214Y022302D01*
X028385Y022183D02*
X037492Y022183D01*
X037492Y022065D02*
X028556Y022065D01*
X028728Y021946D02*
X037492Y021946D01*
X037492Y021828D02*
X029102Y021828D01*
X029245Y021709D02*
X037492Y021709D01*
X037491Y021591D02*
X029297Y021591D01*
X029307Y021472D02*
X037491Y021472D01*
X037491Y021354D02*
X029282Y021354D01*
X029209Y021235D02*
X037491Y021235D01*
X037491Y021117D02*
X029015Y021117D01*
X028845Y021117D02*
X028321Y021117D01*
X028203Y021235D02*
X028651Y021235D01*
X028578Y021354D02*
X028087Y021354D01*
X028072Y021472D02*
X028499Y021472D01*
X028327Y021591D02*
X028040Y021591D01*
X027949Y021709D02*
X028156Y021709D01*
X027985Y021828D02*
X026145Y021828D01*
X026027Y021709D02*
X027566Y021709D01*
X027407Y021591D02*
X025908Y021591D01*
X025790Y021472D02*
X027348Y021472D01*
X027303Y021354D02*
X025671Y021354D01*
X025553Y021235D02*
X027290Y021235D01*
X027336Y021117D02*
X025434Y021117D01*
X025316Y020998D02*
X027590Y020998D01*
X027590Y020880D02*
X025197Y020880D01*
X025079Y020761D02*
X027590Y020761D01*
X027590Y020643D02*
X024960Y020643D01*
X024842Y020524D02*
X027590Y020524D01*
X028440Y020998D02*
X037491Y020998D01*
X037491Y020880D02*
X028558Y020880D01*
X028677Y020761D02*
X037491Y020761D01*
X037491Y020643D02*
X028795Y020643D01*
X028914Y020524D02*
X037491Y020524D01*
X037491Y020406D02*
X029032Y020406D01*
X029151Y020287D02*
X037491Y020287D01*
X037491Y020169D02*
X030819Y020169D01*
X030938Y020050D02*
X037491Y020050D01*
X037491Y019932D02*
X031056Y019932D01*
X031175Y019813D02*
X037491Y019813D01*
X037490Y019695D02*
X031293Y019695D01*
X031412Y019576D02*
X037490Y019576D01*
X037490Y019458D02*
X031470Y019458D01*
X031470Y019339D02*
X037490Y019339D01*
X037490Y019221D02*
X031470Y019221D01*
X031470Y019102D02*
X037490Y019102D01*
X037490Y018984D02*
X031470Y018984D01*
X031470Y018865D02*
X037490Y018865D01*
X037490Y018747D02*
X031470Y018747D01*
X031470Y018628D02*
X037490Y018628D01*
X037490Y018510D02*
X032708Y018510D01*
X032665Y018527D02*
X032515Y018527D01*
X032376Y018470D01*
X032270Y018364D01*
X032213Y018225D01*
X032213Y018075D01*
X032270Y017936D01*
X032376Y017830D01*
X032515Y017773D01*
X032600Y017773D01*
X033960Y016412D01*
X033960Y016394D01*
X033900Y016334D01*
X033843Y016195D01*
X033843Y016045D01*
X033900Y015906D01*
X034006Y015800D01*
X034145Y015743D01*
X034295Y015743D01*
X034434Y015800D01*
X034540Y015906D01*
X034597Y016045D01*
X034597Y016195D01*
X034540Y016334D01*
X034480Y016394D01*
X034480Y016572D01*
X034440Y016667D01*
X032967Y018140D01*
X032967Y018225D01*
X032910Y018364D01*
X032804Y018470D01*
X032665Y018527D01*
X032472Y018510D02*
X031470Y018510D01*
X031470Y018391D02*
X032297Y018391D01*
X032232Y018273D02*
X031470Y018273D01*
X031470Y018154D02*
X032213Y018154D01*
X032229Y018036D02*
X031470Y018036D01*
X031470Y017917D02*
X032289Y017917D01*
X032452Y017799D02*
X031470Y017799D01*
X031470Y017680D02*
X032692Y017680D01*
X032811Y017562D02*
X031470Y017562D01*
X031470Y017443D02*
X032929Y017443D01*
X033048Y017325D02*
X031470Y017325D01*
X031470Y017206D02*
X033166Y017206D01*
X033285Y017088D02*
X031470Y017088D01*
X031470Y016969D02*
X033403Y016969D01*
X033522Y016851D02*
X031470Y016851D01*
X031472Y016732D02*
X033640Y016732D01*
X033759Y016614D02*
X031831Y016614D01*
X031972Y016495D02*
X033877Y016495D01*
X033943Y016377D02*
X032113Y016377D01*
X032253Y016258D02*
X033869Y016258D01*
X033843Y016140D02*
X032394Y016140D01*
X032535Y016021D02*
X033852Y016021D01*
X033904Y015903D02*
X032676Y015903D01*
X032816Y015784D02*
X034045Y015784D01*
X034395Y015784D02*
X037488Y015784D01*
X037488Y015666D02*
X032957Y015666D01*
X033098Y015547D02*
X037488Y015547D01*
X037488Y015429D02*
X033239Y015429D01*
X033379Y015310D02*
X037488Y015310D01*
X037488Y015192D02*
X033520Y015192D01*
X033661Y015073D02*
X037488Y015073D01*
X037488Y014955D02*
X033801Y014955D01*
X033942Y014836D02*
X037488Y014836D01*
X037488Y014718D02*
X034083Y014718D01*
X034224Y014599D02*
X037488Y014599D01*
X037488Y014481D02*
X034364Y014481D01*
X034505Y014362D02*
X037488Y014362D01*
X037488Y014244D02*
X034646Y014244D01*
X034786Y014125D02*
X037487Y014125D01*
X037487Y014007D02*
X034927Y014007D01*
X035068Y013888D02*
X037487Y013888D01*
X037487Y013770D02*
X035209Y013770D01*
X035349Y013651D02*
X037487Y013651D01*
X037487Y013533D02*
X035490Y013533D01*
X035631Y013414D02*
X037487Y013414D01*
X037487Y013296D02*
X035771Y013296D01*
X035912Y013177D02*
X037487Y013177D01*
X037487Y013059D02*
X036022Y013059D01*
X036051Y012940D02*
X037487Y012940D01*
X037487Y012822D02*
X036050Y012822D01*
X036050Y012703D02*
X037487Y012703D01*
X037487Y012585D02*
X036051Y012585D01*
X036051Y012466D02*
X037487Y012466D01*
X037487Y012348D02*
X036051Y012348D01*
X036051Y012229D02*
X037486Y012229D01*
X037486Y012111D02*
X036052Y012111D01*
X036052Y011992D02*
X037486Y011992D01*
X037486Y011874D02*
X036052Y011874D01*
X036052Y011755D02*
X037486Y011755D01*
X037486Y011637D02*
X036053Y011637D01*
X036053Y011518D02*
X037486Y011518D01*
X037486Y011400D02*
X036053Y011400D01*
X036053Y011281D02*
X037486Y011281D01*
X037486Y011163D02*
X036054Y011163D01*
X036054Y011044D02*
X037486Y011044D01*
X037486Y010926D02*
X036054Y010926D01*
X036054Y010807D02*
X037486Y010807D01*
X037486Y010689D02*
X036055Y010689D01*
X036055Y010570D02*
X037486Y010570D01*
X037486Y010452D02*
X036055Y010452D01*
X036055Y010333D02*
X037485Y010333D01*
X037485Y010215D02*
X036056Y010215D01*
X036056Y010096D02*
X037485Y010096D01*
X037485Y009978D02*
X036056Y009978D01*
X036056Y009859D02*
X037485Y009859D01*
X037485Y009741D02*
X036057Y009741D01*
X036057Y009622D02*
X037485Y009622D01*
X037485Y009504D02*
X036057Y009504D01*
X036057Y009385D02*
X037485Y009385D01*
X037485Y009267D02*
X036058Y009267D01*
X036058Y009148D02*
X037485Y009148D01*
X037485Y009030D02*
X036058Y009030D01*
X036058Y008911D02*
X037485Y008911D01*
X037485Y008793D02*
X036059Y008793D01*
X036059Y008674D02*
X037485Y008674D01*
X037484Y008556D02*
X036059Y008556D01*
X036059Y008437D02*
X037484Y008437D01*
X037484Y008319D02*
X036060Y008319D01*
X036060Y008200D02*
X037484Y008200D01*
X037484Y008082D02*
X036060Y008082D01*
X036060Y007963D02*
X037484Y007963D01*
X037484Y007845D02*
X036061Y007845D01*
X036061Y007726D02*
X037484Y007726D01*
X037484Y007608D02*
X036061Y007608D01*
X036061Y007489D02*
X037484Y007489D01*
X037484Y007371D02*
X036062Y007371D01*
X036062Y007252D02*
X037484Y007252D01*
X037484Y007134D02*
X036062Y007134D01*
X036062Y007015D02*
X037484Y007015D01*
X037484Y006897D02*
X036063Y006897D01*
X036063Y006778D02*
X037484Y006778D01*
X037483Y006660D02*
X036063Y006660D01*
X036063Y006541D02*
X037483Y006541D01*
X037483Y006423D02*
X036063Y006423D01*
X036064Y006304D02*
X037483Y006304D01*
X037483Y006186D02*
X036064Y006186D01*
X036064Y006067D02*
X037483Y006067D01*
X037483Y005949D02*
X036064Y005949D01*
X036065Y005830D02*
X037483Y005830D01*
X037483Y005712D02*
X036065Y005712D01*
X036065Y005593D02*
X037483Y005593D01*
X037483Y005475D02*
X036065Y005475D01*
X036066Y005356D02*
X037483Y005356D01*
X037483Y005238D02*
X036066Y005238D01*
X036066Y005119D02*
X037483Y005119D01*
X037483Y005001D02*
X036066Y005001D01*
X036067Y004882D02*
X037483Y004882D01*
X037482Y004764D02*
X036067Y004764D01*
X036067Y004645D02*
X037482Y004645D01*
X037482Y004527D02*
X036067Y004527D01*
X036068Y004408D02*
X037482Y004408D01*
X037482Y004290D02*
X036068Y004290D01*
X036068Y004171D02*
X037482Y004171D01*
X037482Y004053D02*
X036068Y004053D01*
X036069Y003934D02*
X037482Y003934D01*
X037482Y003816D02*
X036069Y003816D01*
X036069Y003697D02*
X037482Y003697D01*
X037482Y003579D02*
X036069Y003579D01*
X036070Y003460D02*
X037482Y003460D01*
X037482Y003341D02*
X036070Y003341D01*
X036070Y003332D02*
X036070Y003332D01*
X036070Y003229D02*
X036070Y003229D01*
X036068Y003223D02*
X037482Y003223D01*
X037482Y003104D02*
X036002Y003104D01*
X036031Y003133D02*
X036031Y003133D01*
X035884Y002986D02*
X037482Y002986D01*
X037481Y002867D02*
X035765Y002867D01*
X035647Y002749D02*
X037481Y002749D01*
X037481Y002630D02*
X035487Y002630D01*
X034129Y003697D02*
X034069Y003697D01*
X034150Y003778D02*
X033892Y003520D01*
X033528Y003520D01*
X033270Y003778D01*
X033270Y004142D01*
X033528Y004400D01*
X033892Y004400D01*
X034150Y004142D01*
X034150Y003778D01*
X034150Y003816D02*
X034248Y003816D01*
X034150Y003934D02*
X034366Y003934D01*
X034392Y004053D02*
X034150Y004053D01*
X034121Y004171D02*
X034393Y004171D01*
X034394Y004290D02*
X034003Y004290D01*
X033892Y004520D02*
X034150Y004778D01*
X034150Y005142D01*
X033892Y005400D01*
X033528Y005400D01*
X033270Y005142D01*
X033270Y004778D01*
X033528Y004520D01*
X033892Y004520D01*
X033899Y004527D02*
X034397Y004527D01*
X034398Y004645D02*
X034017Y004645D01*
X034136Y004764D02*
X034399Y004764D01*
X034400Y004882D02*
X034150Y004882D01*
X034150Y005001D02*
X034401Y005001D01*
X034402Y005119D02*
X034150Y005119D01*
X034055Y005238D02*
X034404Y005238D01*
X034405Y005356D02*
X033936Y005356D01*
X033484Y005356D02*
X032936Y005356D01*
X032892Y005400D02*
X033150Y005142D01*
X033150Y004778D01*
X032892Y004520D01*
X032528Y004520D01*
X032270Y004778D01*
X032270Y005142D01*
X032528Y005400D01*
X032892Y005400D01*
X033055Y005238D02*
X033365Y005238D01*
X033270Y005119D02*
X033150Y005119D01*
X033150Y005001D02*
X033270Y005001D01*
X033270Y004882D02*
X033150Y004882D01*
X033136Y004764D02*
X033284Y004764D01*
X033403Y004645D02*
X033017Y004645D01*
X032899Y004527D02*
X033521Y004527D01*
X033417Y004290D02*
X033003Y004290D01*
X032892Y004400D02*
X033150Y004142D01*
X033150Y003778D01*
X032892Y003520D01*
X032528Y003520D01*
X032270Y003778D01*
X032270Y004142D01*
X032528Y004400D01*
X032892Y004400D01*
X033121Y004171D02*
X033299Y004171D01*
X033270Y004053D02*
X033150Y004053D01*
X033150Y003934D02*
X033270Y003934D01*
X033270Y003816D02*
X033150Y003816D01*
X033069Y003697D02*
X033351Y003697D01*
X033469Y003579D02*
X032951Y003579D01*
X032469Y003579D02*
X031951Y003579D01*
X031892Y003520D02*
X032150Y003778D01*
X032150Y004142D01*
X031892Y004400D01*
X031528Y004400D01*
X031270Y004142D01*
X031270Y003778D01*
X031528Y003520D01*
X031892Y003520D01*
X032069Y003697D02*
X032351Y003697D01*
X032270Y003816D02*
X032150Y003816D01*
X032150Y003934D02*
X032270Y003934D01*
X032270Y004053D02*
X032150Y004053D01*
X032121Y004171D02*
X032299Y004171D01*
X032417Y004290D02*
X032003Y004290D01*
X031892Y004520D02*
X032150Y004778D01*
X032150Y005142D01*
X031892Y005400D01*
X031528Y005400D01*
X031270Y005142D01*
X031270Y004778D01*
X031528Y004520D01*
X031892Y004520D01*
X031899Y004527D02*
X032521Y004527D01*
X032403Y004645D02*
X032017Y004645D01*
X032136Y004764D02*
X032284Y004764D01*
X032270Y004882D02*
X032150Y004882D01*
X032150Y005001D02*
X032270Y005001D01*
X032270Y005119D02*
X032150Y005119D01*
X032055Y005238D02*
X032365Y005238D01*
X032484Y005356D02*
X031936Y005356D01*
X031484Y005356D02*
X030936Y005356D01*
X030892Y005400D02*
X030528Y005400D01*
X030270Y005142D01*
X030270Y004778D01*
X030528Y004520D01*
X030892Y004520D01*
X031150Y004778D01*
X031150Y005142D01*
X030892Y005400D01*
X031055Y005238D02*
X031365Y005238D01*
X031270Y005119D02*
X031150Y005119D01*
X031150Y005001D02*
X031270Y005001D01*
X031270Y004882D02*
X031150Y004882D01*
X031136Y004764D02*
X031284Y004764D01*
X031403Y004645D02*
X031017Y004645D01*
X030899Y004527D02*
X031521Y004527D01*
X031417Y004290D02*
X031003Y004290D01*
X030892Y004400D02*
X030528Y004400D01*
X030270Y004142D01*
X030270Y003778D01*
X030528Y003520D01*
X030892Y003520D01*
X031150Y003778D01*
X031150Y004142D01*
X030892Y004400D01*
X031121Y004171D02*
X031299Y004171D01*
X031270Y004053D02*
X031150Y004053D01*
X031150Y003934D02*
X031270Y003934D01*
X031270Y003816D02*
X031150Y003816D01*
X031069Y003697D02*
X031351Y003697D01*
X031469Y003579D02*
X030951Y003579D01*
X030469Y003579D02*
X029951Y003579D01*
X029892Y003520D02*
X030150Y003778D01*
X030150Y004142D01*
X029892Y004400D01*
X029528Y004400D01*
X029270Y004142D01*
X029270Y003778D01*
X029528Y003520D01*
X029892Y003520D01*
X030069Y003697D02*
X030351Y003697D01*
X030270Y003816D02*
X030150Y003816D01*
X030150Y003934D02*
X030270Y003934D01*
X030270Y004053D02*
X030150Y004053D01*
X030121Y004171D02*
X030299Y004171D01*
X030417Y004290D02*
X030003Y004290D01*
X029892Y004520D02*
X030150Y004778D01*
X030150Y005142D01*
X029892Y005400D01*
X029528Y005400D01*
X029270Y005142D01*
X029270Y004778D01*
X029528Y004520D01*
X029892Y004520D01*
X029899Y004527D02*
X030521Y004527D01*
X030403Y004645D02*
X030017Y004645D01*
X030136Y004764D02*
X030284Y004764D01*
X030270Y004882D02*
X030150Y004882D01*
X030150Y005001D02*
X030270Y005001D01*
X030270Y005119D02*
X030150Y005119D01*
X030055Y005238D02*
X030365Y005238D01*
X030484Y005356D02*
X029936Y005356D01*
X029484Y005356D02*
X028965Y005356D01*
X028901Y005420D02*
X028750Y005420D01*
X028750Y005000D01*
X029170Y005000D01*
X029170Y005151D01*
X028901Y005420D01*
X028750Y005356D02*
X028670Y005356D01*
X028670Y005420D02*
X028519Y005420D01*
X028250Y005151D01*
X028250Y005000D01*
X028670Y005000D01*
X028670Y005420D01*
X028670Y005238D02*
X028750Y005238D01*
X028750Y005119D02*
X028670Y005119D01*
X028670Y005001D02*
X028750Y005001D01*
X028750Y005000D02*
X028670Y005000D01*
X028670Y004920D01*
X028750Y004920D01*
X028750Y005000D01*
X028750Y004920D02*
X029170Y004920D01*
X029170Y004769D01*
X028901Y004500D01*
X028750Y004500D01*
X028750Y004920D01*
X028750Y004882D02*
X028670Y004882D01*
X028670Y004920D02*
X028670Y004500D01*
X028519Y004500D01*
X028250Y004769D01*
X028250Y004920D01*
X028670Y004920D01*
X028670Y004764D02*
X028750Y004764D01*
X028750Y004645D02*
X028670Y004645D01*
X028670Y004527D02*
X028750Y004527D01*
X028927Y004527D02*
X029521Y004527D01*
X029403Y004645D02*
X029046Y004645D01*
X029164Y004764D02*
X029284Y004764D01*
X029270Y004882D02*
X029170Y004882D01*
X029170Y005001D02*
X029270Y005001D01*
X029270Y005119D02*
X029170Y005119D01*
X029083Y005238D02*
X029365Y005238D01*
X028455Y005356D02*
X027936Y005356D01*
X027892Y005400D02*
X027528Y005400D01*
X027270Y005142D01*
X027270Y004778D01*
X027528Y004520D01*
X027892Y004520D01*
X028150Y004778D01*
X028150Y005142D01*
X027892Y005400D01*
X028055Y005238D02*
X028337Y005238D01*
X028250Y005119D02*
X028150Y005119D01*
X028150Y005001D02*
X028250Y005001D01*
X028250Y004882D02*
X028150Y004882D01*
X028136Y004764D02*
X028256Y004764D01*
X028374Y004645D02*
X028017Y004645D01*
X027899Y004527D02*
X028493Y004527D01*
X028528Y004400D02*
X028270Y004142D01*
X028270Y003778D01*
X028528Y003520D01*
X028892Y003520D01*
X029150Y003778D01*
X029150Y004142D01*
X028892Y004400D01*
X028528Y004400D01*
X028417Y004290D02*
X028003Y004290D01*
X027892Y004400D02*
X028150Y004142D01*
X028150Y003778D01*
X027892Y003520D01*
X027528Y003520D01*
X027270Y003778D01*
X027270Y004142D01*
X027528Y004400D01*
X027892Y004400D01*
X028121Y004171D02*
X028299Y004171D01*
X028270Y004053D02*
X028150Y004053D01*
X028150Y003934D02*
X028270Y003934D01*
X028270Y003816D02*
X028150Y003816D01*
X028069Y003697D02*
X028351Y003697D01*
X028469Y003579D02*
X027951Y003579D01*
X027469Y003579D02*
X026951Y003579D01*
X026892Y003520D02*
X027150Y003778D01*
X027150Y004142D01*
X026892Y004400D01*
X026528Y004400D01*
X026270Y004142D01*
X026270Y003778D01*
X026528Y003520D01*
X026892Y003520D01*
X027069Y003697D02*
X027351Y003697D01*
X027270Y003816D02*
X027150Y003816D01*
X027150Y003934D02*
X027270Y003934D01*
X027270Y004053D02*
X027150Y004053D01*
X027121Y004171D02*
X027299Y004171D01*
X027417Y004290D02*
X027003Y004290D01*
X026899Y004527D02*
X027521Y004527D01*
X027403Y004645D02*
X027017Y004645D01*
X027136Y004764D02*
X027284Y004764D01*
X027270Y004882D02*
X027150Y004882D01*
X027150Y005001D02*
X027270Y005001D01*
X027270Y005119D02*
X027150Y005119D01*
X027055Y005238D02*
X027365Y005238D01*
X027484Y005356D02*
X026950Y005356D01*
X026950Y005475D02*
X034406Y005475D01*
X034407Y005593D02*
X026950Y005593D01*
X026950Y005712D02*
X034408Y005712D01*
X034409Y005830D02*
X026950Y005830D01*
X026950Y005949D02*
X034411Y005949D01*
X034412Y006067D02*
X026950Y006067D01*
X026902Y006186D02*
X034413Y006186D01*
X034414Y006304D02*
X026784Y006304D01*
X026665Y006423D02*
X034415Y006423D01*
X034416Y006541D02*
X026547Y006541D01*
X026428Y006660D02*
X034417Y006660D01*
X034419Y006778D02*
X026299Y006778D01*
X026167Y006186D02*
X025622Y006186D01*
X025741Y006067D02*
X026285Y006067D01*
X026404Y005949D02*
X025859Y005949D01*
X025956Y005830D02*
X026430Y005830D01*
X026430Y005712D02*
X025980Y005712D01*
X025980Y005593D02*
X026430Y005593D01*
X026430Y005475D02*
X025980Y005475D01*
X025980Y005356D02*
X026430Y005356D01*
X026365Y005238D02*
X026055Y005238D01*
X026150Y005119D02*
X026270Y005119D01*
X026270Y005001D02*
X026150Y005001D01*
X026150Y004882D02*
X026270Y004882D01*
X026284Y004764D02*
X026136Y004764D01*
X026017Y004645D02*
X026403Y004645D01*
X026521Y004527D02*
X025899Y004527D01*
X025892Y004400D02*
X025528Y004400D01*
X025270Y004142D01*
X025270Y003778D01*
X025528Y003520D01*
X025892Y003520D01*
X026150Y003778D01*
X026150Y004142D01*
X025892Y004400D01*
X026003Y004290D02*
X026417Y004290D01*
X026299Y004171D02*
X026121Y004171D01*
X026150Y004053D02*
X026270Y004053D01*
X026270Y003934D02*
X026150Y003934D01*
X026150Y003816D02*
X026270Y003816D01*
X026351Y003697D02*
X026069Y003697D01*
X025951Y003579D02*
X026469Y003579D01*
X025469Y003579D02*
X024951Y003579D01*
X024892Y003520D02*
X025150Y003778D01*
X025150Y004142D01*
X024892Y004400D01*
X024528Y004400D01*
X024270Y004142D01*
X024270Y003778D01*
X024528Y003520D01*
X024892Y003520D01*
X025069Y003697D02*
X025351Y003697D01*
X025270Y003816D02*
X025150Y003816D01*
X025150Y003934D02*
X025270Y003934D01*
X025270Y004053D02*
X025150Y004053D01*
X025121Y004171D02*
X025299Y004171D01*
X025417Y004290D02*
X025003Y004290D01*
X024899Y004527D02*
X025521Y004527D01*
X025403Y004645D02*
X025017Y004645D01*
X025136Y004764D02*
X025284Y004764D01*
X025270Y004882D02*
X025150Y004882D01*
X025150Y005001D02*
X025270Y005001D01*
X025270Y005119D02*
X025150Y005119D01*
X025055Y005238D02*
X025365Y005238D01*
X025460Y005356D02*
X024970Y005356D01*
X024936Y005475D02*
X025460Y005475D01*
X025460Y005593D02*
X024825Y005593D01*
X024706Y005712D02*
X025361Y005712D01*
X025242Y005830D02*
X024588Y005830D01*
X024469Y005949D02*
X025124Y005949D01*
X024326Y005356D02*
X023936Y005356D01*
X023892Y005400D02*
X023528Y005400D01*
X023270Y005142D01*
X023270Y004778D01*
X023528Y004520D01*
X023892Y004520D01*
X024150Y004778D01*
X024150Y005142D01*
X023892Y005400D01*
X024055Y005238D02*
X024365Y005238D01*
X024270Y005119D02*
X024150Y005119D01*
X024150Y005001D02*
X024270Y005001D01*
X024270Y004882D02*
X024150Y004882D01*
X024136Y004764D02*
X024284Y004764D01*
X024403Y004645D02*
X024017Y004645D01*
X023899Y004527D02*
X024521Y004527D01*
X024417Y004290D02*
X024003Y004290D01*
X023892Y004400D02*
X023528Y004400D01*
X023270Y004142D01*
X023270Y003778D01*
X023528Y003520D01*
X023892Y003520D01*
X024150Y003778D01*
X024150Y004142D01*
X023892Y004400D01*
X024121Y004171D02*
X024299Y004171D01*
X024270Y004053D02*
X024150Y004053D01*
X024150Y003934D02*
X024270Y003934D01*
X024270Y003816D02*
X024150Y003816D01*
X024069Y003697D02*
X024351Y003697D01*
X024469Y003579D02*
X023951Y003579D01*
X023469Y003579D02*
X022951Y003579D01*
X022892Y003520D02*
X023150Y003778D01*
X023150Y004142D01*
X022892Y004400D01*
X022528Y004400D01*
X022270Y004142D01*
X022270Y003778D01*
X022528Y003520D01*
X022892Y003520D01*
X023069Y003697D02*
X023351Y003697D01*
X023270Y003816D02*
X023150Y003816D01*
X023150Y003934D02*
X023270Y003934D01*
X023270Y004053D02*
X023150Y004053D01*
X023121Y004171D02*
X023299Y004171D01*
X023417Y004290D02*
X023003Y004290D01*
X022892Y004520D02*
X023150Y004778D01*
X023150Y005142D01*
X022892Y005400D01*
X022528Y005400D01*
X022270Y005142D01*
X022270Y004778D01*
X022528Y004520D01*
X022892Y004520D01*
X022899Y004527D02*
X023521Y004527D01*
X023403Y004645D02*
X023017Y004645D01*
X023136Y004764D02*
X023284Y004764D01*
X023270Y004882D02*
X023150Y004882D01*
X023150Y005001D02*
X023270Y005001D01*
X023270Y005119D02*
X023150Y005119D01*
X023055Y005238D02*
X023365Y005238D01*
X023484Y005356D02*
X022936Y005356D01*
X022484Y005356D02*
X021936Y005356D01*
X021892Y005400D02*
X021528Y005400D01*
X021270Y005142D01*
X021270Y004778D01*
X021528Y004520D01*
X021892Y004520D01*
X022150Y004778D01*
X022150Y005142D01*
X021892Y005400D01*
X022055Y005238D02*
X022365Y005238D01*
X022270Y005119D02*
X022150Y005119D01*
X022150Y005001D02*
X022270Y005001D01*
X022270Y004882D02*
X022150Y004882D01*
X022136Y004764D02*
X022284Y004764D01*
X022403Y004645D02*
X022017Y004645D01*
X021899Y004527D02*
X022521Y004527D01*
X022417Y004290D02*
X022003Y004290D01*
X021892Y004400D02*
X021528Y004400D01*
X021270Y004142D01*
X021270Y003778D01*
X021528Y003520D01*
X021892Y003520D01*
X022150Y003778D01*
X022150Y004142D01*
X021892Y004400D01*
X022121Y004171D02*
X022299Y004171D01*
X022270Y004053D02*
X022150Y004053D01*
X022150Y003934D02*
X022270Y003934D01*
X022270Y003816D02*
X022150Y003816D01*
X022069Y003697D02*
X022351Y003697D01*
X022469Y003579D02*
X021951Y003579D01*
X021469Y003579D02*
X020951Y003579D01*
X020892Y003520D02*
X021150Y003778D01*
X021150Y004142D01*
X020892Y004400D01*
X020528Y004400D01*
X020270Y004142D01*
X020270Y003778D01*
X020528Y003520D01*
X020892Y003520D01*
X021069Y003697D02*
X021351Y003697D01*
X021270Y003816D02*
X021150Y003816D01*
X021150Y003934D02*
X021270Y003934D01*
X021270Y004053D02*
X021150Y004053D01*
X021121Y004171D02*
X021299Y004171D01*
X021417Y004290D02*
X021003Y004290D01*
X020892Y004520D02*
X021150Y004778D01*
X021150Y005142D01*
X020892Y005400D01*
X020528Y005400D01*
X020270Y005142D01*
X020270Y004778D01*
X020528Y004520D01*
X020892Y004520D01*
X020899Y004527D02*
X021521Y004527D01*
X021403Y004645D02*
X021017Y004645D01*
X021136Y004764D02*
X021284Y004764D01*
X021270Y004882D02*
X021150Y004882D01*
X021150Y005001D02*
X021270Y005001D01*
X021270Y005119D02*
X021150Y005119D01*
X021055Y005238D02*
X021365Y005238D01*
X021484Y005356D02*
X020936Y005356D01*
X020484Y005356D02*
X019965Y005356D01*
X019901Y005420D02*
X020170Y005151D01*
X020170Y005000D01*
X019750Y005000D01*
X019750Y004920D01*
X020170Y004920D01*
X020170Y004769D01*
X019901Y004500D01*
X019750Y004500D01*
X019750Y004920D01*
X019670Y004920D01*
X019670Y004500D01*
X019519Y004500D01*
X019250Y004769D01*
X019250Y004920D01*
X019670Y004920D01*
X019670Y005000D01*
X019670Y005420D01*
X019519Y005420D01*
X019250Y005151D01*
X019250Y005000D01*
X019670Y005000D01*
X019750Y005000D01*
X019750Y005420D01*
X019901Y005420D01*
X019750Y005356D02*
X019670Y005356D01*
X019670Y005238D02*
X019750Y005238D01*
X019750Y005119D02*
X019670Y005119D01*
X019670Y005001D02*
X019750Y005001D01*
X019750Y004882D02*
X019670Y004882D01*
X019670Y004764D02*
X019750Y004764D01*
X019750Y004645D02*
X019670Y004645D01*
X019670Y004527D02*
X019750Y004527D01*
X019927Y004527D02*
X020521Y004527D01*
X020403Y004645D02*
X020046Y004645D01*
X020164Y004764D02*
X020284Y004764D01*
X020270Y004882D02*
X020170Y004882D01*
X020170Y005001D02*
X020270Y005001D01*
X020270Y005119D02*
X020170Y005119D01*
X020083Y005238D02*
X020365Y005238D01*
X020417Y004290D02*
X020003Y004290D01*
X020121Y004171D02*
X020299Y004171D01*
X020270Y004053D02*
X020150Y004053D01*
X020150Y003934D02*
X020270Y003934D01*
X020270Y003816D02*
X020150Y003816D01*
X020069Y003697D02*
X020351Y003697D01*
X020469Y003579D02*
X020049Y003579D01*
X019788Y003104D02*
X019632Y003104D01*
X019514Y002986D02*
X019954Y002986D01*
X019371Y003579D02*
X018951Y003579D01*
X018892Y003520D02*
X019150Y003778D01*
X019150Y004142D01*
X018892Y004400D01*
X018528Y004400D01*
X018270Y004142D01*
X018270Y003778D01*
X018528Y003520D01*
X018892Y003520D01*
X019069Y003697D02*
X019351Y003697D01*
X019270Y003816D02*
X019150Y003816D01*
X019150Y003934D02*
X019270Y003934D01*
X019270Y004053D02*
X019150Y004053D01*
X019121Y004171D02*
X019299Y004171D01*
X019417Y004290D02*
X019003Y004290D01*
X018892Y004520D02*
X019150Y004778D01*
X019150Y005142D01*
X018892Y005400D01*
X018528Y005400D01*
X018270Y005142D01*
X018270Y004778D01*
X018528Y004520D01*
X018892Y004520D01*
X018899Y004527D02*
X019493Y004527D01*
X019374Y004645D02*
X019017Y004645D01*
X019136Y004764D02*
X019256Y004764D01*
X019250Y004882D02*
X019150Y004882D01*
X019150Y005001D02*
X019250Y005001D01*
X019250Y005119D02*
X019150Y005119D01*
X019055Y005238D02*
X019337Y005238D01*
X019455Y005356D02*
X018936Y005356D01*
X018484Y005356D02*
X017936Y005356D01*
X017892Y005400D02*
X017528Y005400D01*
X017270Y005142D01*
X017270Y004778D01*
X017528Y004520D01*
X017892Y004520D01*
X018150Y004778D01*
X018150Y005142D01*
X017892Y005400D01*
X018055Y005238D02*
X018365Y005238D01*
X018270Y005119D02*
X018150Y005119D01*
X018150Y005001D02*
X018270Y005001D01*
X018270Y004882D02*
X018150Y004882D01*
X018136Y004764D02*
X018284Y004764D01*
X018403Y004645D02*
X018017Y004645D01*
X017899Y004527D02*
X018521Y004527D01*
X018417Y004290D02*
X018003Y004290D01*
X017892Y004400D02*
X018150Y004142D01*
X018150Y003778D01*
X017892Y003520D01*
X017528Y003520D01*
X017270Y003778D01*
X017270Y004142D01*
X017528Y004400D01*
X017892Y004400D01*
X018121Y004171D02*
X018299Y004171D01*
X018270Y004053D02*
X018150Y004053D01*
X018150Y003934D02*
X018270Y003934D01*
X018270Y003816D02*
X018150Y003816D01*
X018069Y003697D02*
X018351Y003697D01*
X018469Y003579D02*
X017951Y003579D01*
X017469Y003579D02*
X016951Y003579D01*
X016892Y003520D02*
X017150Y003778D01*
X017150Y004142D01*
X016892Y004400D01*
X016528Y004400D01*
X016270Y004142D01*
X016270Y003778D01*
X016528Y003520D01*
X016892Y003520D01*
X017069Y003697D02*
X017351Y003697D01*
X017270Y003816D02*
X017150Y003816D01*
X017150Y003934D02*
X017270Y003934D01*
X017270Y004053D02*
X017150Y004053D01*
X017121Y004171D02*
X017299Y004171D01*
X017417Y004290D02*
X017003Y004290D01*
X016892Y004520D02*
X017150Y004778D01*
X017150Y005142D01*
X016892Y005400D01*
X016528Y005400D01*
X016270Y005142D01*
X016270Y004778D01*
X016528Y004520D01*
X016892Y004520D01*
X016899Y004527D02*
X017521Y004527D01*
X017403Y004645D02*
X017017Y004645D01*
X017136Y004764D02*
X017284Y004764D01*
X017270Y004882D02*
X017150Y004882D01*
X017150Y005001D02*
X017270Y005001D01*
X017270Y005119D02*
X017150Y005119D01*
X017055Y005238D02*
X017365Y005238D01*
X017484Y005356D02*
X016936Y005356D01*
X016484Y005356D02*
X015936Y005356D01*
X015892Y005400D02*
X015528Y005400D01*
X015270Y005142D01*
X015270Y004778D01*
X015528Y004520D01*
X015892Y004520D01*
X016150Y004778D01*
X016150Y005142D01*
X015892Y005400D01*
X016055Y005238D02*
X016365Y005238D01*
X016270Y005119D02*
X016150Y005119D01*
X016150Y005001D02*
X016270Y005001D01*
X016270Y004882D02*
X016150Y004882D01*
X016136Y004764D02*
X016284Y004764D01*
X016403Y004645D02*
X016017Y004645D01*
X015899Y004527D02*
X016521Y004527D01*
X016417Y004290D02*
X016003Y004290D01*
X015892Y004400D02*
X015528Y004400D01*
X015270Y004142D01*
X015270Y003778D01*
X015528Y003520D01*
X015892Y003520D01*
X016150Y003778D01*
X016150Y004142D01*
X015892Y004400D01*
X016121Y004171D02*
X016299Y004171D01*
X016270Y004053D02*
X016150Y004053D01*
X016150Y003934D02*
X016270Y003934D01*
X016270Y003816D02*
X016150Y003816D01*
X016069Y003697D02*
X016351Y003697D01*
X016469Y003579D02*
X015951Y003579D01*
X015469Y003579D02*
X014951Y003579D01*
X014892Y003520D02*
X015150Y003778D01*
X015150Y004142D01*
X014892Y004400D01*
X014528Y004400D01*
X014270Y004142D01*
X014270Y003778D01*
X014528Y003520D01*
X014892Y003520D01*
X015069Y003697D02*
X015351Y003697D01*
X015270Y003816D02*
X015150Y003816D01*
X015150Y003934D02*
X015270Y003934D01*
X015270Y004053D02*
X015150Y004053D01*
X015121Y004171D02*
X015299Y004171D01*
X015417Y004290D02*
X015003Y004290D01*
X014899Y004527D02*
X015521Y004527D01*
X015403Y004645D02*
X015017Y004645D01*
X015136Y004764D02*
X015284Y004764D01*
X015270Y004882D02*
X015150Y004882D01*
X015150Y005001D02*
X015270Y005001D01*
X015270Y005119D02*
X015150Y005119D01*
X015055Y005238D02*
X015365Y005238D01*
X015484Y005356D02*
X014936Y005356D01*
X014484Y005356D02*
X006080Y005356D01*
X006080Y005475D02*
X024208Y005475D01*
X024161Y008911D02*
X018580Y008911D01*
X018538Y009030D02*
X024075Y009030D01*
X023895Y009148D02*
X018037Y009148D01*
X018060Y009030D02*
X018102Y009030D01*
X018060Y008911D02*
X018028Y008911D01*
X017933Y009267D02*
X023760Y009267D01*
X023730Y009385D02*
X017788Y009385D01*
X017632Y009504D02*
X023756Y009504D01*
X023871Y009622D02*
X016570Y009622D01*
X016570Y009504D02*
X017497Y009504D01*
X017321Y009385D02*
X016570Y009385D01*
X016570Y009267D02*
X017219Y009267D01*
X017173Y009148D02*
X016570Y009148D01*
X016570Y009030D02*
X017173Y009030D01*
X017211Y008911D02*
X016570Y008911D01*
X016570Y008793D02*
X017290Y008793D01*
X017290Y008674D02*
X016570Y008674D01*
X016570Y008556D02*
X017290Y008556D01*
X017290Y008437D02*
X016570Y008437D01*
X016570Y008319D02*
X017290Y008319D01*
X017290Y008200D02*
X016570Y008200D01*
X016570Y008082D02*
X017290Y008082D01*
X017290Y007963D02*
X016570Y007963D01*
X016570Y007845D02*
X017290Y007845D01*
X017290Y007726D02*
X016570Y007726D01*
X016570Y007608D02*
X017290Y007608D01*
X017290Y007489D02*
X016570Y007489D01*
X016570Y007371D02*
X017290Y007371D01*
X017290Y007252D02*
X016586Y007252D01*
X016704Y007134D02*
X017290Y007134D01*
X017290Y007015D02*
X016823Y007015D01*
X016941Y006897D02*
X017320Y006897D01*
X017424Y006778D02*
X017060Y006778D01*
X017178Y006660D02*
X017543Y006660D01*
X017661Y006541D02*
X017297Y006541D01*
X017415Y006423D02*
X017780Y006423D01*
X017898Y006304D02*
X017534Y006304D01*
X017652Y006186D02*
X018017Y006186D01*
X017509Y005593D02*
X006060Y005593D01*
X006011Y005712D02*
X017391Y005712D01*
X017272Y005830D02*
X005910Y005830D01*
X005707Y005949D02*
X017154Y005949D01*
X018644Y007252D02*
X034423Y007252D01*
X034422Y007134D02*
X018770Y007134D01*
X018896Y007015D02*
X034421Y007015D01*
X034420Y006897D02*
X019021Y006897D01*
X018570Y007371D02*
X034424Y007371D01*
X034426Y007489D02*
X018570Y007489D01*
X018570Y007608D02*
X034427Y007608D01*
X034428Y007726D02*
X018570Y007726D01*
X018570Y007845D02*
X034429Y007845D01*
X034430Y007963D02*
X018570Y007963D01*
X018570Y008082D02*
X034431Y008082D01*
X034433Y008200D02*
X018570Y008200D01*
X018602Y008319D02*
X034434Y008319D01*
X034435Y008437D02*
X018781Y008437D01*
X018820Y008556D02*
X034436Y008556D01*
X034437Y008674D02*
X018802Y008674D01*
X018716Y008793D02*
X034438Y008793D01*
X034439Y008911D02*
X024519Y008911D01*
X024605Y009030D02*
X034441Y009030D01*
X034442Y009148D02*
X025205Y009148D01*
X025355Y009267D02*
X034443Y009267D01*
X034444Y009385D02*
X025474Y009385D01*
X025593Y009504D02*
X034445Y009504D01*
X034446Y009622D02*
X025713Y009622D01*
X025832Y009741D02*
X034448Y009741D01*
X034449Y009859D02*
X025952Y009859D01*
X026071Y009978D02*
X034450Y009978D01*
X034451Y010096D02*
X026191Y010096D01*
X026310Y010215D02*
X034452Y010215D01*
X034453Y010333D02*
X026429Y010333D01*
X026549Y010452D02*
X034455Y010452D01*
X034456Y010570D02*
X026658Y010570D01*
X026690Y010689D02*
X034457Y010689D01*
X034458Y010807D02*
X026690Y010807D01*
X026690Y010751D02*
X026690Y010751D01*
X026690Y010926D02*
X034459Y010926D01*
X034460Y011044D02*
X026690Y011044D01*
X026690Y011163D02*
X034504Y011163D01*
X034629Y011281D02*
X026690Y011281D01*
X026690Y011400D02*
X034725Y011400D01*
X034729Y011518D02*
X026690Y011518D01*
X026690Y011637D02*
X034779Y011637D01*
X034879Y011755D02*
X026690Y011755D01*
X026690Y011874D02*
X034914Y011874D01*
X035065Y011992D02*
X033789Y011992D01*
X033807Y012000D02*
X033880Y012073D01*
X033920Y012168D01*
X033920Y012206D01*
X033980Y012266D01*
X034037Y012405D01*
X034037Y012555D01*
X033980Y012694D01*
X033889Y012785D01*
X033831Y012851D01*
X033738Y012896D01*
X033635Y012903D01*
X033537Y012869D01*
X033469Y012810D01*
X033446Y012800D01*
X033386Y012740D01*
X031918Y012740D01*
X031670Y012988D01*
X031670Y014046D01*
X031766Y014036D01*
X031865Y014066D01*
X031945Y014132D01*
X031994Y014223D01*
X032004Y014326D01*
X031974Y014425D01*
X031908Y014505D01*
X031898Y014510D01*
X031900Y014513D01*
X031940Y014608D01*
X031940Y014712D01*
X031900Y014807D01*
X031827Y014880D01*
X031732Y014920D01*
X031628Y014920D01*
X031533Y014880D01*
X031390Y014737D01*
X031335Y014737D01*
X031196Y014680D01*
X031090Y014574D01*
X031033Y014435D01*
X031033Y014285D01*
X031090Y014146D01*
X031150Y014086D01*
X031150Y012828D01*
X031190Y012733D01*
X031263Y012660D01*
X031663Y012260D01*
X031758Y012220D01*
X033386Y012220D01*
X033400Y012206D01*
X033400Y012168D01*
X033440Y012073D01*
X033513Y012000D01*
X033608Y011960D01*
X033712Y011960D01*
X033807Y012000D01*
X033896Y012111D02*
X035532Y012111D01*
X035531Y012229D02*
X033943Y012229D01*
X034014Y012348D02*
X035531Y012348D01*
X035531Y012466D02*
X034037Y012466D01*
X034025Y012585D02*
X035531Y012585D01*
X035530Y012703D02*
X033971Y012703D01*
X033857Y012822D02*
X035527Y012822D01*
X035386Y012940D02*
X031718Y012940D01*
X031670Y013059D02*
X035246Y013059D01*
X035105Y013177D02*
X031670Y013177D01*
X031670Y013296D02*
X034964Y013296D01*
X034823Y013414D02*
X031670Y013414D01*
X031670Y013533D02*
X034683Y013533D01*
X034542Y013651D02*
X031670Y013651D01*
X031670Y013770D02*
X034401Y013770D01*
X034261Y013888D02*
X031670Y013888D01*
X031670Y014007D02*
X034120Y014007D01*
X033979Y014125D02*
X031937Y014125D01*
X031996Y014244D02*
X033838Y014244D01*
X033698Y014362D02*
X031993Y014362D01*
X031928Y014481D02*
X033557Y014481D01*
X033416Y014599D02*
X031936Y014599D01*
X031938Y014718D02*
X033276Y014718D01*
X033135Y014836D02*
X031872Y014836D01*
X031811Y015192D02*
X031658Y015192D01*
X031505Y015073D02*
X032853Y015073D01*
X032713Y015192D02*
X032109Y015192D01*
X032200Y015310D02*
X032572Y015310D01*
X032431Y015429D02*
X032220Y015429D01*
X032185Y015547D02*
X032291Y015547D01*
X032150Y015666D02*
X032087Y015666D01*
X031488Y014836D02*
X031197Y014836D01*
X031287Y014718D02*
X031044Y014718D01*
X031115Y014599D02*
X030890Y014599D01*
X030737Y014481D02*
X031051Y014481D01*
X031033Y014362D02*
X030590Y014362D01*
X030449Y014244D02*
X031050Y014244D01*
X031111Y014125D02*
X030553Y014125D01*
X030602Y014007D02*
X031150Y014007D01*
X031150Y013888D02*
X030610Y013888D01*
X030592Y013770D02*
X031150Y013770D01*
X031150Y013414D02*
X029309Y013414D01*
X029434Y013533D02*
X029915Y013533D01*
X029797Y013651D02*
X029730Y013812D01*
X029730Y013988D01*
X029797Y014149D01*
X029921Y014273D01*
X030034Y014320D01*
X029306Y014320D01*
X029419Y014273D01*
X029543Y014149D01*
X029610Y013988D01*
X029610Y013812D01*
X029543Y013651D01*
X029592Y013770D02*
X029748Y013770D01*
X029730Y013888D02*
X029610Y013888D01*
X029602Y014007D02*
X029738Y014007D01*
X029787Y014125D02*
X029553Y014125D01*
X029449Y014244D02*
X029891Y014244D01*
X029088Y013414D02*
X028333Y013414D01*
X028601Y013533D02*
X028915Y013533D01*
X028030Y013414D02*
X026829Y013414D01*
X026865Y013296D02*
X031150Y013296D01*
X031150Y013177D02*
X026865Y013177D01*
X026826Y013059D02*
X031150Y013059D01*
X031150Y012940D02*
X026746Y012940D01*
X026690Y012822D02*
X031153Y012822D01*
X031219Y012703D02*
X026690Y012703D01*
X026690Y012585D02*
X031338Y012585D01*
X031456Y012466D02*
X026690Y012466D01*
X026690Y012348D02*
X031575Y012348D01*
X031737Y012229D02*
X026690Y012229D01*
X026690Y012111D02*
X033424Y012111D01*
X033531Y011992D02*
X026690Y011992D01*
X026160Y011992D02*
X025670Y011992D01*
X025670Y011874D02*
X026160Y011874D01*
X026160Y011755D02*
X025670Y011755D01*
X025670Y011637D02*
X026160Y011637D01*
X026160Y011518D02*
X025670Y011518D01*
X025670Y011400D02*
X026160Y011400D01*
X026160Y011281D02*
X025670Y011281D01*
X025651Y011163D02*
X026160Y011163D01*
X026160Y011044D02*
X025562Y011044D01*
X025443Y010926D02*
X026160Y010926D01*
X026159Y010807D02*
X025325Y010807D01*
X025206Y010689D02*
X026049Y010689D01*
X025930Y010570D02*
X025088Y010570D01*
X024969Y010452D02*
X025811Y010452D01*
X025691Y010333D02*
X016570Y010333D01*
X016570Y010215D02*
X025572Y010215D01*
X025452Y010096D02*
X016570Y010096D01*
X016570Y009978D02*
X024292Y009978D01*
X024408Y009978D02*
X025333Y009978D01*
X025213Y009859D02*
X024574Y009859D01*
X024610Y009741D02*
X025094Y009741D01*
X024126Y009859D02*
X016570Y009859D01*
X016570Y009741D02*
X024085Y009741D01*
X024708Y010926D02*
X020437Y010926D01*
X020538Y011044D02*
X024826Y011044D01*
X024945Y011163D02*
X020840Y011163D01*
X020919Y011281D02*
X025063Y011281D01*
X025150Y011400D02*
X020930Y011400D01*
X020880Y011518D02*
X025150Y011518D01*
X025150Y011637D02*
X020567Y011637D01*
X020320Y011755D02*
X025150Y011755D01*
X025150Y011874D02*
X020221Y011874D01*
X020123Y011992D02*
X025150Y011992D01*
X025150Y012111D02*
X020024Y012111D01*
X019925Y012229D02*
X025150Y012229D01*
X025150Y012348D02*
X019827Y012348D01*
X019728Y012466D02*
X025150Y012466D01*
X025150Y012585D02*
X019630Y012585D01*
X019531Y012703D02*
X025150Y012703D01*
X025150Y012822D02*
X019433Y012822D01*
X019334Y012940D02*
X025150Y012940D01*
X025150Y013059D02*
X019236Y013059D01*
X020696Y013770D02*
X023327Y013770D01*
X023221Y013888D02*
X020814Y013888D01*
X020932Y014007D02*
X023173Y014007D01*
X023173Y014125D02*
X021050Y014125D01*
X021169Y014244D02*
X023209Y014244D01*
X023294Y014362D02*
X021287Y014362D01*
X021405Y014481D02*
X023296Y014481D01*
X023297Y014599D02*
X021523Y014599D01*
X021641Y014718D02*
X023299Y014718D01*
X023300Y014836D02*
X021759Y014836D01*
X021878Y014955D02*
X023302Y014955D01*
X023304Y015073D02*
X021996Y015073D01*
X022114Y015192D02*
X023305Y015192D01*
X023307Y015310D02*
X022232Y015310D01*
X022350Y015429D02*
X023309Y015429D01*
X023310Y015547D02*
X022468Y015547D01*
X022586Y015666D02*
X023349Y015666D01*
X023466Y015784D02*
X022705Y015784D01*
X022823Y015903D02*
X023585Y015903D01*
X023703Y016021D02*
X022941Y016021D01*
X025670Y013533D02*
X026107Y013533D01*
X026031Y013414D02*
X025670Y013414D01*
X025670Y013296D02*
X025995Y013296D01*
X025995Y013177D02*
X025670Y013177D01*
X025670Y013059D02*
X026034Y013059D01*
X026114Y012940D02*
X025670Y012940D01*
X025670Y012822D02*
X026160Y012822D01*
X026160Y012703D02*
X025670Y012703D01*
X025670Y012585D02*
X026160Y012585D01*
X026160Y012466D02*
X025670Y012466D01*
X025670Y012348D02*
X026160Y012348D01*
X026160Y012229D02*
X025670Y012229D01*
X025670Y012111D02*
X026160Y012111D01*
X026753Y013533D02*
X027739Y013533D01*
X027730Y013651D02*
X027369Y013651D01*
X027484Y013770D02*
X027730Y013770D01*
X027730Y013888D02*
X027599Y013888D01*
X027714Y014007D02*
X027730Y014007D01*
X027219Y014244D02*
X026287Y014244D01*
X026254Y014125D02*
X027104Y014125D01*
X031351Y014955D02*
X032994Y014955D01*
X034536Y015903D02*
X037488Y015903D01*
X037488Y016021D02*
X034588Y016021D01*
X034597Y016140D02*
X037489Y016140D01*
X037489Y016258D02*
X034571Y016258D01*
X034497Y016377D02*
X037489Y016377D01*
X037489Y016495D02*
X034480Y016495D01*
X034463Y016614D02*
X037489Y016614D01*
X037489Y016732D02*
X034376Y016732D01*
X034257Y016851D02*
X037489Y016851D01*
X037489Y016969D02*
X034139Y016969D01*
X034020Y017088D02*
X037489Y017088D01*
X037489Y017206D02*
X033902Y017206D01*
X033783Y017325D02*
X037489Y017325D01*
X037489Y017443D02*
X033665Y017443D01*
X033546Y017562D02*
X037489Y017562D01*
X037489Y017680D02*
X033428Y017680D01*
X033309Y017799D02*
X037489Y017799D01*
X037489Y017917D02*
X033191Y017917D01*
X033072Y018036D02*
X037490Y018036D01*
X037490Y018154D02*
X032967Y018154D01*
X032948Y018273D02*
X037490Y018273D01*
X037490Y018391D02*
X032883Y018391D01*
X030950Y018984D02*
X029796Y018984D01*
X029843Y019102D02*
X030950Y019102D01*
X030950Y019221D02*
X029826Y019221D01*
X029871Y019339D02*
X030913Y019339D01*
X030795Y019458D02*
X029909Y019458D01*
X029893Y019576D02*
X030676Y019576D01*
X030558Y019695D02*
X029805Y019695D01*
X029499Y019695D02*
X029343Y019695D01*
X030010Y020960D02*
X030010Y021060D01*
X025884Y022302D02*
X025491Y022302D01*
X025498Y022183D02*
X025765Y022183D01*
X025647Y022065D02*
X025444Y022065D01*
X024773Y022183D02*
X023981Y022183D01*
X026625Y025383D02*
X019470Y025383D01*
X019563Y025501D02*
X026743Y025501D01*
X026862Y025620D02*
X019657Y025620D01*
X019719Y025738D02*
X023874Y025738D01*
X023883Y025730D02*
X023978Y025690D01*
X024082Y025690D01*
X024177Y025730D01*
X024250Y025803D01*
X024278Y025869D01*
X024327Y025890D01*
X024400Y025963D01*
X024440Y026058D01*
X024440Y026162D01*
X024400Y026257D01*
X024387Y026270D01*
X024387Y026335D01*
X024330Y026474D01*
X024224Y026580D01*
X024085Y026637D01*
X024000Y026637D01*
X023607Y027030D01*
X023512Y027070D01*
X020358Y027070D01*
X020263Y027030D01*
X020220Y026988D01*
X020192Y027000D01*
X020185Y027000D01*
X020179Y027002D01*
X020134Y027000D01*
X020088Y027000D01*
X020082Y026997D01*
X020075Y026997D01*
X020035Y026978D01*
X019993Y026960D01*
X019988Y026956D01*
X019982Y026953D01*
X019952Y026919D01*
X019920Y026887D01*
X019917Y026881D01*
X019913Y026876D01*
X019897Y026833D01*
X019889Y026812D01*
X019830Y026754D01*
X019773Y026615D01*
X019773Y026465D01*
X019830Y026326D01*
X019936Y026220D01*
X020012Y026188D01*
X020030Y026167D01*
X020121Y026117D01*
X020224Y026106D01*
X020323Y026135D01*
X020403Y026200D01*
X020453Y026291D01*
X020455Y026311D01*
X020470Y026326D01*
X020527Y026465D01*
X020527Y026550D01*
X023352Y026550D01*
X023633Y026270D01*
X023633Y026185D01*
X023690Y026046D01*
X023770Y025966D01*
X023770Y025898D01*
X023810Y025803D01*
X023883Y025730D01*
X023787Y025857D02*
X019719Y025857D01*
X019717Y025975D02*
X023761Y025975D01*
X023670Y026094D02*
X019715Y026094D01*
X019713Y026212D02*
X019955Y026212D01*
X019828Y026331D02*
X019711Y026331D01*
X019710Y026431D02*
X019710Y026431D01*
X019710Y026431D01*
X019704Y026449D02*
X019779Y026449D01*
X019773Y026568D02*
X019630Y026568D01*
X019513Y026686D02*
X019802Y026686D01*
X019881Y026805D02*
X019395Y026805D01*
X019278Y026923D02*
X019955Y026923D01*
X020290Y027042D02*
X019161Y027042D01*
X019043Y027160D02*
X027236Y027160D01*
X027358Y027042D02*
X023580Y027042D01*
X023715Y026923D02*
X027481Y026923D01*
X027603Y026805D02*
X023833Y026805D01*
X023952Y026686D02*
X027725Y026686D01*
X027848Y026568D02*
X024236Y026568D01*
X024340Y026449D02*
X027970Y026449D01*
X027953Y026331D02*
X028000Y026331D01*
X028520Y026331D02*
X037494Y026331D01*
X037494Y026449D02*
X028520Y026449D01*
X028520Y026568D02*
X037494Y026568D01*
X037494Y026686D02*
X028473Y026686D01*
X028350Y026805D02*
X037494Y026805D01*
X037494Y026923D02*
X028228Y026923D01*
X028106Y027042D02*
X037494Y027042D01*
X037494Y027160D02*
X027983Y027160D01*
X027861Y027279D02*
X037494Y027279D01*
X037495Y027397D02*
X027739Y027397D01*
X027616Y027516D02*
X028237Y027516D01*
X028118Y027634D02*
X027494Y027634D01*
X027372Y027753D02*
X028000Y027753D01*
X027881Y027871D02*
X027249Y027871D01*
X027127Y027990D02*
X027763Y027990D01*
X027665Y028108D02*
X027005Y028108D01*
X026883Y028227D02*
X027640Y028227D01*
X027640Y028345D02*
X026760Y028345D01*
X026638Y028464D02*
X027640Y028464D01*
X027640Y028582D02*
X026516Y028582D01*
X026393Y028701D02*
X027532Y028701D01*
X027413Y028819D02*
X026271Y028819D01*
X026149Y028938D02*
X027295Y028938D01*
X027176Y029056D02*
X026026Y029056D01*
X025904Y029175D02*
X027058Y029175D01*
X026939Y029293D02*
X025782Y029293D01*
X025659Y029412D02*
X026821Y029412D01*
X026702Y029530D02*
X025537Y029530D01*
X025415Y029649D02*
X026584Y029649D01*
X026465Y029767D02*
X025292Y029767D01*
X025170Y029886D02*
X026347Y029886D01*
X026228Y030004D02*
X025918Y030004D01*
X025998Y030123D02*
X026110Y030123D01*
X026490Y030478D02*
X026574Y030478D01*
X026608Y030360D02*
X026693Y030360D01*
X026703Y030350D02*
X026703Y030265D01*
X022210Y034757D01*
X022137Y034830D01*
X022042Y034870D01*
X019118Y034870D01*
X019023Y034830D01*
X018663Y034470D01*
X018590Y034397D01*
X018550Y034302D01*
X018550Y032268D01*
X018380Y032098D01*
X018247Y032230D01*
X018152Y032270D01*
X018048Y032270D01*
X017953Y032230D01*
X017880Y032157D01*
X017840Y032062D01*
X017840Y031958D01*
X017880Y031863D01*
X017920Y031822D01*
X017843Y031790D01*
X017780Y031728D01*
X017780Y033560D01*
X017862Y033560D01*
X017957Y033600D01*
X018030Y033673D01*
X018070Y033768D01*
X018070Y033860D01*
X018142Y033860D01*
X018237Y033900D01*
X018310Y033973D01*
X018350Y034068D01*
X018350Y034172D01*
X018310Y034267D01*
X018237Y034340D01*
X018142Y034380D01*
X018065Y034380D01*
X018051Y034390D01*
X018019Y034385D01*
X017944Y034460D01*
X017805Y034517D01*
X017655Y034517D01*
X017516Y034460D01*
X017465Y034408D01*
X017426Y034393D01*
X017383Y034377D01*
X017379Y034373D01*
X017373Y034370D01*
X017341Y034338D01*
X017307Y034308D01*
X017304Y034302D01*
X017300Y034297D01*
X017293Y034281D01*
X017291Y034543D01*
X018098Y035350D01*
X027353Y035340D01*
X028950Y033752D01*
X028950Y031314D01*
X028799Y031155D01*
X028745Y031177D01*
X028595Y031177D01*
X028456Y031120D01*
X028350Y031014D01*
X028293Y030875D01*
X028293Y030725D01*
X028350Y030586D01*
X028412Y030524D01*
X028428Y028732D01*
X028370Y028674D01*
X028313Y028535D01*
X028313Y028385D01*
X028370Y028246D01*
X028476Y028140D01*
X028615Y028083D01*
X028765Y028083D01*
X028904Y028140D01*
X029010Y028246D01*
X029067Y028385D01*
X029067Y028535D01*
X029010Y028674D01*
X028948Y028736D01*
X028932Y030528D01*
X028990Y030586D01*
X029000Y030609D01*
X029022Y030634D01*
X029396Y031029D01*
X029430Y031063D01*
X029432Y031066D01*
X029434Y031068D01*
X029440Y031084D01*
X029440Y028588D01*
X028842Y027990D01*
X028498Y027990D01*
X028160Y028328D01*
X028160Y028752D01*
X028120Y028847D01*
X027035Y029933D01*
X027155Y029933D01*
X027294Y029990D01*
X027400Y030096D01*
X027457Y030235D01*
X027457Y030385D01*
X027400Y030524D01*
X027294Y030630D01*
X027155Y030687D01*
X027100Y030687D01*
X023700Y034088D01*
X023700Y034296D01*
X023760Y034356D01*
X023817Y034495D01*
X023817Y034645D01*
X023760Y034784D01*
X023654Y034890D01*
X023515Y034947D01*
X023365Y034947D01*
X023226Y034890D01*
X023120Y034784D01*
X023063Y034645D01*
X023063Y034495D01*
X023120Y034356D01*
X023180Y034296D01*
X023180Y033928D01*
X023220Y033833D01*
X023293Y033760D01*
X026703Y030350D01*
X026456Y030597D02*
X026371Y030597D01*
X026337Y030715D02*
X026253Y030715D01*
X026219Y030834D02*
X026134Y030834D01*
X026100Y030952D02*
X026016Y030952D01*
X025982Y031071D02*
X025897Y031071D01*
X025863Y031189D02*
X025779Y031189D01*
X025745Y031308D02*
X025660Y031308D01*
X025626Y031426D02*
X025542Y031426D01*
X025508Y031545D02*
X025423Y031545D01*
X025389Y031663D02*
X025305Y031663D01*
X025271Y031782D02*
X025186Y031782D01*
X025152Y031900D02*
X025068Y031900D01*
X025034Y032019D02*
X024949Y032019D01*
X024915Y032137D02*
X024831Y032137D01*
X024797Y032256D02*
X024712Y032256D01*
X024678Y032374D02*
X024594Y032374D01*
X024560Y032493D02*
X024475Y032493D01*
X024441Y032611D02*
X024357Y032611D01*
X024323Y032730D02*
X024238Y032730D01*
X024204Y032848D02*
X024120Y032848D01*
X024086Y032967D02*
X024001Y032967D01*
X023967Y033085D02*
X023883Y033085D01*
X023849Y033204D02*
X023764Y033204D01*
X023730Y033322D02*
X023646Y033322D01*
X023612Y033441D02*
X023527Y033441D01*
X023493Y033559D02*
X023409Y033559D01*
X023375Y033678D02*
X023290Y033678D01*
X023256Y033796D02*
X023172Y033796D01*
X023186Y033915D02*
X023053Y033915D01*
X022935Y034033D02*
X023180Y034033D01*
X023180Y034152D02*
X022816Y034152D01*
X022698Y034270D02*
X023180Y034270D01*
X023107Y034389D02*
X022579Y034389D01*
X022461Y034507D02*
X023063Y034507D01*
X023063Y034626D02*
X022342Y034626D01*
X022224Y034744D02*
X023104Y034744D01*
X023199Y034863D02*
X022060Y034863D01*
X021824Y033796D02*
X020090Y033796D01*
X019650Y033796D02*
X019070Y033796D01*
X019070Y033678D02*
X021940Y033678D01*
X022057Y033559D02*
X019070Y033559D01*
X019070Y033441D02*
X022173Y033441D01*
X022289Y033322D02*
X019070Y033322D01*
X019070Y033204D02*
X022406Y033204D01*
X022522Y033085D02*
X019070Y033085D01*
X019070Y032967D02*
X022638Y032967D01*
X022755Y032848D02*
X019070Y032848D01*
X019070Y032730D02*
X022871Y032730D01*
X022987Y032611D02*
X019070Y032611D01*
X019070Y032493D02*
X023104Y032493D01*
X023220Y032374D02*
X019070Y032374D01*
X019070Y032256D02*
X023336Y032256D01*
X023453Y032137D02*
X019070Y032137D01*
X019033Y032019D02*
X023569Y032019D01*
X023685Y031900D02*
X018918Y031900D01*
X018873Y031782D02*
X023802Y031782D01*
X023918Y031663D02*
X018910Y031663D01*
X018892Y031545D02*
X024034Y031545D01*
X024151Y031426D02*
X018804Y031426D01*
X018840Y031463D02*
X018840Y031463D01*
X018650Y031640D02*
X018650Y031660D01*
X018330Y031700D02*
X018310Y031700D01*
X018341Y032137D02*
X018419Y032137D01*
X018538Y032256D02*
X018187Y032256D01*
X018013Y032256D02*
X017780Y032256D01*
X017780Y032374D02*
X018550Y032374D01*
X018550Y032493D02*
X017780Y032493D01*
X017780Y032611D02*
X018550Y032611D01*
X018550Y032730D02*
X017780Y032730D01*
X017780Y032848D02*
X018550Y032848D01*
X018550Y032967D02*
X017780Y032967D01*
X017780Y033085D02*
X018550Y033085D01*
X018550Y033204D02*
X017780Y033204D01*
X017780Y033322D02*
X018550Y033322D01*
X018550Y033441D02*
X017780Y033441D01*
X017780Y033559D02*
X018550Y033559D01*
X018550Y033678D02*
X018032Y033678D01*
X018070Y033796D02*
X018550Y033796D01*
X018550Y033915D02*
X018252Y033915D01*
X018335Y034033D02*
X018550Y034033D01*
X018550Y034152D02*
X018350Y034152D01*
X018308Y034270D02*
X018550Y034270D01*
X018586Y034389D02*
X018054Y034389D01*
X018040Y034389D02*
X018015Y034389D01*
X018000Y034180D02*
X017740Y034140D01*
X017730Y034140D02*
X017730Y034120D01*
X017730Y033900D01*
X017740Y033900D01*
X017415Y034389D02*
X017292Y034389D01*
X017291Y034507D02*
X017630Y034507D01*
X017830Y034507D02*
X018699Y034507D01*
X018818Y034626D02*
X017373Y034626D01*
X017492Y034744D02*
X018936Y034744D01*
X019100Y034863D02*
X017610Y034863D01*
X017729Y034981D02*
X027714Y034981D01*
X027833Y034863D02*
X023681Y034863D01*
X023776Y034744D02*
X027952Y034744D01*
X028071Y034626D02*
X023817Y034626D01*
X023817Y034507D02*
X028190Y034507D01*
X028310Y034389D02*
X023773Y034389D01*
X023700Y034270D02*
X028429Y034270D01*
X028548Y034152D02*
X023700Y034152D01*
X023755Y034033D02*
X028667Y034033D01*
X028786Y033915D02*
X023873Y033915D01*
X023992Y033796D02*
X028906Y033796D01*
X028950Y033678D02*
X024110Y033678D01*
X024229Y033559D02*
X028950Y033559D01*
X028950Y033441D02*
X024347Y033441D01*
X024466Y033322D02*
X028950Y033322D01*
X028950Y033204D02*
X024584Y033204D01*
X024703Y033085D02*
X028950Y033085D01*
X028950Y032967D02*
X024821Y032967D01*
X024940Y032848D02*
X028950Y032848D01*
X028950Y032730D02*
X025058Y032730D01*
X025177Y032611D02*
X028950Y032611D01*
X028950Y032493D02*
X025295Y032493D01*
X025414Y032374D02*
X028950Y032374D01*
X028950Y032256D02*
X025532Y032256D01*
X025651Y032137D02*
X028950Y032137D01*
X028950Y032019D02*
X025769Y032019D01*
X025888Y031900D02*
X028950Y031900D01*
X028950Y031782D02*
X026006Y031782D01*
X026125Y031663D02*
X028950Y031663D01*
X028950Y031545D02*
X026243Y031545D01*
X026362Y031426D02*
X028950Y031426D01*
X028944Y031308D02*
X026480Y031308D01*
X026599Y031189D02*
X028831Y031189D01*
X028407Y031071D02*
X026717Y031071D01*
X026836Y030952D02*
X028324Y030952D01*
X028293Y030834D02*
X026954Y030834D01*
X027073Y030715D02*
X028297Y030715D01*
X028346Y030597D02*
X027327Y030597D01*
X027419Y030478D02*
X028413Y030478D01*
X028414Y030360D02*
X027457Y030360D01*
X027457Y030241D02*
X028415Y030241D01*
X028416Y030123D02*
X027411Y030123D01*
X027308Y030004D02*
X028417Y030004D01*
X028418Y029886D02*
X027082Y029886D01*
X027201Y029767D02*
X028419Y029767D01*
X028420Y029649D02*
X027319Y029649D01*
X027438Y029530D02*
X028421Y029530D01*
X028422Y029412D02*
X027556Y029412D01*
X027675Y029293D02*
X028423Y029293D01*
X028424Y029175D02*
X027793Y029175D01*
X027912Y029056D02*
X028425Y029056D01*
X028426Y028938D02*
X028030Y028938D01*
X028132Y028819D02*
X028427Y028819D01*
X028397Y028701D02*
X028160Y028701D01*
X028160Y028582D02*
X028332Y028582D01*
X028313Y028464D02*
X028160Y028464D01*
X028160Y028345D02*
X028329Y028345D01*
X028390Y028227D02*
X028261Y028227D01*
X028380Y028108D02*
X028553Y028108D01*
X028827Y028108D02*
X028960Y028108D01*
X028990Y028227D02*
X029079Y028227D01*
X029051Y028345D02*
X029197Y028345D01*
X029316Y028464D02*
X029067Y028464D01*
X029048Y028582D02*
X029434Y028582D01*
X029440Y028701D02*
X028983Y028701D01*
X028947Y028819D02*
X029440Y028819D01*
X029440Y028938D02*
X028946Y028938D01*
X028945Y029056D02*
X029440Y029056D01*
X029440Y029175D02*
X028944Y029175D01*
X028943Y029293D02*
X029440Y029293D01*
X029440Y029412D02*
X028942Y029412D01*
X028941Y029530D02*
X029440Y029530D01*
X029440Y029649D02*
X028940Y029649D01*
X028939Y029767D02*
X029440Y029767D01*
X029440Y029886D02*
X028938Y029886D01*
X028937Y030004D02*
X029440Y030004D01*
X029440Y030123D02*
X028936Y030123D01*
X028935Y030241D02*
X029440Y030241D01*
X029440Y030360D02*
X028934Y030360D01*
X028933Y030478D02*
X029440Y030478D01*
X029440Y030597D02*
X028994Y030597D01*
X029098Y030715D02*
X029440Y030715D01*
X029440Y030834D02*
X029211Y030834D01*
X029324Y030952D02*
X029440Y030952D01*
X029435Y031071D02*
X029440Y031071D01*
X029960Y031071D02*
X037497Y031071D01*
X037497Y031189D02*
X029960Y031189D01*
X029960Y031308D02*
X037497Y031308D01*
X037497Y031426D02*
X029960Y031426D01*
X029960Y031545D02*
X037497Y031545D01*
X037497Y031663D02*
X029960Y031663D01*
X029960Y031782D02*
X037497Y031782D01*
X037497Y031900D02*
X029960Y031900D01*
X029960Y032019D02*
X037497Y032019D01*
X037497Y032137D02*
X029960Y032137D01*
X029960Y032256D02*
X037497Y032256D01*
X037497Y032374D02*
X029960Y032374D01*
X029960Y032493D02*
X037497Y032493D01*
X037497Y032611D02*
X029960Y032611D01*
X029960Y032730D02*
X037497Y032730D01*
X037497Y032848D02*
X029960Y032848D01*
X029960Y032967D02*
X037498Y032967D01*
X037498Y033085D02*
X029960Y033085D01*
X029960Y033204D02*
X037498Y033204D01*
X037498Y033322D02*
X029960Y033322D01*
X029960Y033441D02*
X037498Y033441D01*
X037498Y033559D02*
X029960Y033559D01*
X029960Y033678D02*
X037498Y033678D01*
X037498Y033796D02*
X029960Y033796D01*
X029960Y033915D02*
X037498Y033915D01*
X037498Y034033D02*
X029960Y034033D01*
X029927Y034152D02*
X037498Y034152D01*
X037498Y034270D02*
X029818Y034270D01*
X029699Y034389D02*
X037498Y034389D01*
X037498Y034507D02*
X029581Y034507D01*
X029462Y034626D02*
X037498Y034626D01*
X037498Y034744D02*
X029344Y034744D01*
X029225Y034863D02*
X037499Y034863D01*
X037499Y034981D02*
X029107Y034981D01*
X028988Y035100D02*
X037499Y035100D01*
X037499Y035218D02*
X028870Y035218D01*
X028751Y035337D02*
X037499Y035337D01*
X037499Y035455D02*
X028633Y035455D01*
X028514Y035574D02*
X037499Y035574D01*
X037499Y035692D02*
X028396Y035692D01*
X028277Y035811D02*
X037499Y035811D01*
X037499Y035929D02*
X028159Y035929D01*
X028040Y036048D02*
X037499Y036048D01*
X037499Y036166D02*
X027922Y036166D01*
X027803Y036285D02*
X037499Y036285D01*
X037499Y036403D02*
X027685Y036403D01*
X027566Y036522D02*
X037499Y036522D01*
X037499Y036640D02*
X027434Y036640D01*
X027202Y036150D02*
X027492Y035860D01*
X027459Y035860D01*
X018042Y035870D01*
X018042Y035870D01*
X017990Y035870D01*
X017939Y035870D01*
X017938Y035870D01*
X017891Y035850D01*
X017843Y035831D01*
X017843Y035830D01*
X017843Y035830D01*
X017807Y035794D01*
X017770Y035758D01*
X017770Y035757D01*
X016882Y034870D01*
X016881Y034869D01*
X016845Y034833D01*
X016810Y034797D01*
X016809Y034796D01*
X016808Y034796D01*
X016789Y034749D01*
X016770Y034702D01*
X016770Y034701D01*
X016770Y034700D01*
X016770Y034649D01*
X016770Y034598D01*
X016770Y034597D01*
X016799Y030820D01*
X012778Y030820D01*
X012683Y030780D01*
X012542Y030640D01*
X005672Y030640D01*
X005492Y030820D01*
X005128Y030820D01*
X004870Y030562D01*
X004870Y030198D01*
X005128Y029940D01*
X005492Y029940D01*
X005672Y030120D01*
X012702Y030120D01*
X012797Y030160D01*
X012870Y030233D01*
X012938Y030300D01*
X012982Y030300D01*
X010663Y028001D01*
X010663Y028000D01*
X010626Y027964D01*
X010590Y027928D01*
X010590Y027928D01*
X010590Y027927D01*
X010570Y027880D01*
X010550Y027833D01*
X010550Y027832D01*
X010550Y027781D01*
X010550Y027729D01*
X010550Y019433D01*
X010549Y019385D01*
X010550Y019382D01*
X010550Y019378D01*
X010569Y019333D01*
X010586Y019288D01*
X010588Y019286D01*
X010590Y019283D01*
X010624Y019248D01*
X012707Y017059D01*
X012628Y017062D01*
X012531Y017026D01*
X012455Y016956D01*
X012412Y016862D01*
X012410Y016804D01*
X012386Y016780D01*
X012238Y016780D01*
X012143Y016740D01*
X012070Y016667D01*
X012030Y016572D01*
X012030Y016468D01*
X012070Y016373D01*
X012143Y016300D01*
X012238Y016260D01*
X012386Y016260D01*
X012397Y016249D01*
X012381Y014937D01*
X011467Y015850D01*
X011372Y015890D01*
X004148Y015890D01*
X004030Y016008D01*
X004030Y016038D01*
X004128Y015940D01*
X004492Y015940D01*
X004750Y016198D01*
X004750Y016562D01*
X004492Y016820D01*
X004128Y016820D01*
X004028Y016720D01*
X004027Y017041D01*
X004128Y016940D01*
X004492Y016940D01*
X004750Y017198D01*
X004750Y017562D01*
X004492Y017820D01*
X004128Y017820D01*
X004025Y017717D01*
X004024Y018044D01*
X004128Y017940D01*
X004492Y017940D01*
X004750Y018198D01*
X004750Y018562D01*
X004492Y018820D01*
X004128Y018820D01*
X004022Y018714D01*
X004021Y019047D01*
X004128Y018940D01*
X004492Y018940D01*
X004750Y019198D01*
X004750Y019562D01*
X004492Y019820D01*
X004128Y019820D01*
X004019Y019711D01*
X004018Y020050D01*
X004128Y019940D01*
X004492Y019940D01*
X004750Y020198D01*
X004750Y020562D01*
X004492Y020820D01*
X004128Y020820D01*
X004016Y020708D01*
X004015Y021024D01*
X004119Y020920D01*
X004270Y020920D01*
X004270Y021340D01*
X004350Y021340D01*
X004350Y021420D01*
X004270Y021420D01*
X004270Y021840D01*
X004119Y021840D01*
X004013Y021734D01*
X004012Y022056D01*
X004128Y021940D01*
X004492Y021940D01*
X004750Y022198D01*
X004750Y022562D01*
X004492Y022820D01*
X004131Y022820D01*
X004247Y022940D01*
X004492Y022940D01*
X004750Y023198D01*
X004750Y023562D01*
X004492Y023820D01*
X004128Y023820D01*
X003870Y023562D01*
X003870Y023299D01*
X003620Y023040D01*
X003620Y023422D01*
X004138Y023940D01*
X004492Y023940D01*
X004750Y024198D01*
X004750Y024562D01*
X004492Y024820D01*
X004128Y024820D01*
X003870Y024562D01*
X003870Y024408D01*
X003213Y023750D01*
X003211Y023749D01*
X003210Y024025D01*
X004112Y024956D01*
X004128Y024940D01*
X004492Y024940D01*
X004750Y025198D01*
X004750Y025562D01*
X004492Y025820D01*
X004128Y025820D01*
X003870Y025562D01*
X003870Y025454D01*
X002860Y024411D01*
X002860Y034942D01*
X004068Y036150D01*
X027202Y036150D01*
X027305Y036048D02*
X003965Y036048D01*
X003847Y035929D02*
X010561Y035929D01*
X010540Y035907D02*
X009090Y034457D01*
X009050Y034362D01*
X009050Y031968D01*
X008703Y031621D01*
X005674Y031638D01*
X005492Y031820D01*
X005128Y031820D01*
X004870Y031562D01*
X004870Y031198D01*
X005128Y030940D01*
X005492Y030940D01*
X005670Y031118D01*
X008758Y031100D01*
X008809Y031100D01*
X008860Y031100D01*
X008861Y031100D01*
X008862Y031100D01*
X008909Y031120D01*
X008956Y031139D01*
X008957Y031139D01*
X008957Y031140D01*
X008993Y031176D01*
X009030Y031211D01*
X009030Y031212D01*
X009457Y031640D01*
X009530Y031713D01*
X009570Y031808D01*
X009570Y034202D01*
X010868Y035500D01*
X014802Y035500D01*
X015250Y035052D01*
X015250Y032034D01*
X015236Y032020D01*
X014948Y032020D01*
X014853Y031980D01*
X014780Y031907D01*
X014740Y031812D01*
X014740Y031708D01*
X014780Y031613D01*
X014853Y031540D01*
X014948Y031500D01*
X015236Y031500D01*
X015290Y031446D01*
X015290Y031218D01*
X015330Y031123D01*
X015403Y031050D01*
X015498Y031010D01*
X015602Y031010D01*
X015697Y031050D01*
X015770Y031123D01*
X015810Y031218D01*
X015810Y031500D01*
X015814Y031500D01*
X015859Y031498D01*
X015865Y031500D01*
X015872Y031500D01*
X015913Y031517D01*
X015956Y031533D01*
X015961Y031537D01*
X015967Y031540D01*
X015999Y031572D01*
X016033Y031602D01*
X016036Y031608D01*
X016040Y031613D01*
X016058Y031655D01*
X016077Y031695D01*
X016077Y031702D01*
X016080Y031708D01*
X016080Y031754D01*
X016082Y031799D01*
X016080Y031805D01*
X016080Y031812D01*
X016063Y031853D01*
X016047Y031896D01*
X016043Y031901D01*
X016040Y031907D01*
X016008Y031939D01*
X015978Y031973D01*
X015972Y031976D01*
X015967Y031980D01*
X015925Y031998D01*
X015885Y032017D01*
X015878Y032017D01*
X015872Y032020D01*
X015826Y032020D01*
X015782Y032022D01*
X015770Y032034D01*
X015770Y035212D01*
X015730Y035307D01*
X015657Y035380D01*
X015057Y035980D01*
X014962Y036020D01*
X010708Y036020D01*
X010613Y035980D01*
X010540Y035907D01*
X010443Y035811D02*
X005502Y035811D01*
X005492Y035820D02*
X005128Y035820D01*
X004870Y035562D01*
X004870Y035198D01*
X005128Y034940D01*
X005492Y034940D01*
X005750Y035198D01*
X005750Y035562D01*
X005492Y035820D01*
X005620Y035692D02*
X010324Y035692D01*
X010206Y035574D02*
X005739Y035574D01*
X005750Y035455D02*
X010087Y035455D01*
X009969Y035337D02*
X005750Y035337D01*
X005750Y035218D02*
X009850Y035218D01*
X009732Y035100D02*
X005652Y035100D01*
X005533Y034981D02*
X009613Y034981D01*
X009495Y034863D02*
X002860Y034863D01*
X002860Y034744D02*
X004052Y034744D01*
X004128Y034820D02*
X003870Y034562D01*
X003870Y034198D01*
X004128Y033940D01*
X004492Y033940D01*
X004750Y034198D01*
X004750Y034562D01*
X004492Y034820D01*
X004128Y034820D01*
X004128Y034940D02*
X004492Y034940D01*
X004750Y035198D01*
X004750Y035562D01*
X004492Y035820D01*
X004128Y035820D01*
X003870Y035562D01*
X003870Y035198D01*
X004128Y034940D01*
X004087Y034981D02*
X002899Y034981D01*
X003017Y035100D02*
X003968Y035100D01*
X003870Y035218D02*
X003136Y035218D01*
X003254Y035337D02*
X003870Y035337D01*
X003870Y035455D02*
X003373Y035455D01*
X003491Y035574D02*
X003881Y035574D01*
X004000Y035692D02*
X003610Y035692D01*
X003728Y035811D02*
X004118Y035811D01*
X004502Y035811D02*
X005118Y035811D01*
X005000Y035692D02*
X004620Y035692D01*
X004739Y035574D02*
X004881Y035574D01*
X004870Y035455D02*
X004750Y035455D01*
X004750Y035337D02*
X004870Y035337D01*
X004870Y035218D02*
X004750Y035218D01*
X004652Y035100D02*
X004968Y035100D01*
X005087Y034981D02*
X004533Y034981D01*
X004568Y034744D02*
X005052Y034744D01*
X005128Y034820D02*
X004870Y034562D01*
X004870Y034198D01*
X005128Y033940D01*
X005492Y033940D01*
X005750Y034198D01*
X005750Y034562D01*
X005492Y034820D01*
X005128Y034820D01*
X004933Y034626D02*
X004687Y034626D01*
X004750Y034507D02*
X004870Y034507D01*
X004870Y034389D02*
X004750Y034389D01*
X004750Y034270D02*
X004870Y034270D01*
X004916Y034152D02*
X004704Y034152D01*
X004585Y034033D02*
X005035Y034033D01*
X005128Y033820D02*
X004870Y033562D01*
X004870Y033198D01*
X005128Y032940D01*
X005492Y032940D01*
X005750Y033198D01*
X005750Y033562D01*
X005492Y033820D01*
X005128Y033820D01*
X005104Y033796D02*
X004516Y033796D01*
X004492Y033820D02*
X004128Y033820D01*
X003870Y033562D01*
X003870Y033198D01*
X004128Y032940D01*
X004492Y032940D01*
X004750Y033198D01*
X004750Y033562D01*
X004492Y033820D01*
X004635Y033678D02*
X004985Y033678D01*
X004870Y033559D02*
X004750Y033559D01*
X004750Y033441D02*
X004870Y033441D01*
X004870Y033322D02*
X004750Y033322D01*
X004750Y033204D02*
X004870Y033204D01*
X004983Y033085D02*
X004637Y033085D01*
X004519Y032967D02*
X005101Y032967D01*
X005128Y032820D02*
X004870Y032562D01*
X004870Y032198D01*
X005128Y031940D01*
X005492Y031940D01*
X005750Y032198D01*
X005750Y032562D01*
X005492Y032820D01*
X005128Y032820D01*
X005037Y032730D02*
X004583Y032730D01*
X004492Y032820D02*
X004128Y032820D01*
X003870Y032562D01*
X003870Y032198D01*
X004128Y031940D01*
X004492Y031940D01*
X004750Y032198D01*
X004750Y032562D01*
X004492Y032820D01*
X004701Y032611D02*
X004919Y032611D01*
X004870Y032493D02*
X004750Y032493D01*
X004750Y032374D02*
X004870Y032374D01*
X004870Y032256D02*
X004750Y032256D01*
X004689Y032137D02*
X004931Y032137D01*
X005049Y032019D02*
X004571Y032019D01*
X004492Y031820D02*
X004128Y031820D01*
X003870Y031562D01*
X003870Y031198D01*
X004128Y030940D01*
X004492Y030940D01*
X004750Y031198D01*
X004750Y031562D01*
X004492Y031820D01*
X004531Y031782D02*
X005089Y031782D01*
X004971Y031663D02*
X004649Y031663D01*
X004750Y031545D02*
X004870Y031545D01*
X004870Y031426D02*
X004750Y031426D01*
X004750Y031308D02*
X004870Y031308D01*
X004879Y031189D02*
X004741Y031189D01*
X004623Y031071D02*
X004997Y031071D01*
X005116Y030952D02*
X004504Y030952D01*
X004501Y030840D02*
X004350Y030840D01*
X004350Y030420D01*
X004270Y030420D01*
X004270Y030840D01*
X004119Y030840D01*
X003850Y030571D01*
X003850Y030420D01*
X004270Y030420D01*
X004270Y030340D01*
X003850Y030340D01*
X003850Y030189D01*
X004119Y029920D01*
X004270Y029920D01*
X004270Y030340D01*
X004350Y030340D01*
X004350Y030420D01*
X004770Y030420D01*
X004770Y030571D01*
X004501Y030840D01*
X004507Y030834D02*
X016799Y030834D01*
X016798Y030952D02*
X005504Y030952D01*
X005623Y031071D02*
X015382Y031071D01*
X015302Y031189D02*
X009007Y031189D01*
X009125Y031308D02*
X015290Y031308D01*
X015290Y031426D02*
X009244Y031426D01*
X009362Y031545D02*
X014848Y031545D01*
X014759Y031663D02*
X009481Y031663D01*
X009559Y031782D02*
X014740Y031782D01*
X014777Y031900D02*
X009570Y031900D01*
X009570Y032019D02*
X014945Y032019D01*
X015250Y032137D02*
X009570Y032137D01*
X009570Y032256D02*
X015250Y032256D01*
X015250Y032374D02*
X009570Y032374D01*
X009570Y032493D02*
X015250Y032493D01*
X015250Y032611D02*
X009570Y032611D01*
X009570Y032730D02*
X015250Y032730D01*
X015250Y032848D02*
X009570Y032848D01*
X009570Y032967D02*
X015250Y032967D01*
X015250Y033085D02*
X009570Y033085D01*
X009570Y033204D02*
X015250Y033204D01*
X015250Y033322D02*
X009570Y033322D01*
X009570Y033441D02*
X015250Y033441D01*
X015250Y033559D02*
X009570Y033559D01*
X009570Y033678D02*
X015250Y033678D01*
X015250Y033796D02*
X009570Y033796D01*
X009570Y033915D02*
X015250Y033915D01*
X015250Y034033D02*
X009570Y034033D01*
X009570Y034152D02*
X015250Y034152D01*
X015250Y034270D02*
X009638Y034270D01*
X009756Y034389D02*
X015250Y034389D01*
X015250Y034507D02*
X009875Y034507D01*
X009993Y034626D02*
X015250Y034626D01*
X015250Y034744D02*
X010112Y034744D01*
X010230Y034863D02*
X015250Y034863D01*
X015250Y034981D02*
X010349Y034981D01*
X010467Y035100D02*
X015203Y035100D01*
X015084Y035218D02*
X010586Y035218D01*
X010704Y035337D02*
X014966Y035337D01*
X014847Y035455D02*
X010823Y035455D01*
X009376Y034744D02*
X005568Y034744D01*
X005687Y034626D02*
X009258Y034626D01*
X009139Y034507D02*
X005750Y034507D01*
X005750Y034389D02*
X009061Y034389D01*
X009050Y034270D02*
X005750Y034270D01*
X005704Y034152D02*
X009050Y034152D01*
X009050Y034033D02*
X005585Y034033D01*
X005516Y033796D02*
X009050Y033796D01*
X009050Y033678D02*
X005635Y033678D01*
X005750Y033559D02*
X009050Y033559D01*
X009050Y033441D02*
X005750Y033441D01*
X005750Y033322D02*
X009050Y033322D01*
X009050Y033204D02*
X005750Y033204D01*
X005637Y033085D02*
X009050Y033085D01*
X009050Y032967D02*
X005519Y032967D01*
X005583Y032730D02*
X009050Y032730D01*
X009050Y032848D02*
X002860Y032848D01*
X002860Y032730D02*
X004037Y032730D01*
X003919Y032611D02*
X002860Y032611D01*
X002860Y032493D02*
X003870Y032493D01*
X003870Y032374D02*
X002860Y032374D01*
X002860Y032256D02*
X003870Y032256D01*
X003931Y032137D02*
X002860Y032137D01*
X002860Y032019D02*
X004049Y032019D01*
X004089Y031782D02*
X002860Y031782D01*
X002860Y031900D02*
X008982Y031900D01*
X009050Y032019D02*
X005571Y032019D01*
X005689Y032137D02*
X009050Y032137D01*
X009050Y032256D02*
X005750Y032256D01*
X005750Y032374D02*
X009050Y032374D01*
X009050Y032493D02*
X005750Y032493D01*
X005701Y032611D02*
X009050Y032611D01*
X008864Y031782D02*
X005531Y031782D01*
X005649Y031663D02*
X008745Y031663D01*
X008758Y031100D02*
X008758Y031100D01*
X005750Y029562D02*
X005750Y029198D01*
X005492Y028940D01*
X005128Y028940D01*
X004870Y029198D01*
X004870Y029562D01*
X005128Y029820D01*
X005492Y029820D01*
X005750Y029562D01*
X005750Y029530D02*
X012205Y029530D01*
X012086Y029412D02*
X005750Y029412D01*
X005750Y029293D02*
X011966Y029293D01*
X011847Y029175D02*
X005727Y029175D01*
X005608Y029056D02*
X011727Y029056D01*
X011608Y028938D02*
X002860Y028938D01*
X002860Y029056D02*
X004012Y029056D01*
X004128Y028940D02*
X004492Y028940D01*
X004750Y029198D01*
X004750Y029562D01*
X004492Y029820D01*
X004128Y029820D01*
X003870Y029562D01*
X003870Y029198D01*
X004128Y028940D01*
X004128Y028820D02*
X003870Y028562D01*
X003870Y028198D01*
X004128Y027940D01*
X004492Y027940D01*
X004750Y028198D01*
X004750Y028562D01*
X004492Y028820D01*
X004128Y028820D01*
X004127Y028819D02*
X002860Y028819D01*
X002860Y028701D02*
X004008Y028701D01*
X003890Y028582D02*
X002860Y028582D01*
X002860Y028464D02*
X003870Y028464D01*
X003870Y028345D02*
X002860Y028345D01*
X002860Y028227D02*
X003870Y028227D01*
X003960Y028108D02*
X002860Y028108D01*
X002860Y027990D02*
X004078Y027990D01*
X004128Y027820D02*
X003870Y027562D01*
X003870Y027198D01*
X004128Y026940D01*
X004492Y026940D01*
X004750Y027198D01*
X004750Y027562D01*
X004492Y027820D01*
X004128Y027820D01*
X004060Y027753D02*
X002860Y027753D01*
X002860Y027871D02*
X010566Y027871D01*
X010550Y027832D02*
X010550Y027832D01*
X010550Y027753D02*
X005560Y027753D01*
X005492Y027820D02*
X005128Y027820D01*
X004870Y027562D01*
X004870Y027198D01*
X005128Y026940D01*
X005492Y026940D01*
X005750Y027198D01*
X005750Y027562D01*
X005492Y027820D01*
X005492Y027940D02*
X005750Y028198D01*
X005750Y028562D01*
X005492Y028820D01*
X005128Y028820D01*
X004870Y028562D01*
X004870Y028198D01*
X005128Y027940D01*
X005492Y027940D01*
X005542Y027990D02*
X010652Y027990D01*
X010772Y028108D02*
X005660Y028108D01*
X005750Y028227D02*
X010891Y028227D01*
X011010Y028345D02*
X005750Y028345D01*
X005750Y028464D02*
X011130Y028464D01*
X011249Y028582D02*
X005730Y028582D01*
X005612Y028701D02*
X011369Y028701D01*
X011488Y028819D02*
X005493Y028819D01*
X005127Y028819D02*
X004493Y028819D01*
X004612Y028701D02*
X005008Y028701D01*
X004890Y028582D02*
X004730Y028582D01*
X004750Y028464D02*
X004870Y028464D01*
X004870Y028345D02*
X004750Y028345D01*
X004750Y028227D02*
X004870Y028227D01*
X004960Y028108D02*
X004660Y028108D01*
X004542Y027990D02*
X005078Y027990D01*
X005060Y027753D02*
X004560Y027753D01*
X004678Y027634D02*
X004942Y027634D01*
X004870Y027516D02*
X004750Y027516D01*
X004750Y027397D02*
X004870Y027397D01*
X004870Y027279D02*
X004750Y027279D01*
X004712Y027160D02*
X004908Y027160D01*
X005026Y027042D02*
X004594Y027042D01*
X004492Y026820D02*
X004128Y026820D01*
X003870Y026562D01*
X003870Y026198D01*
X004128Y025940D01*
X004492Y025940D01*
X004750Y026198D01*
X004750Y026562D01*
X004492Y026820D01*
X004508Y026805D02*
X005112Y026805D01*
X005128Y026820D02*
X004870Y026562D01*
X004870Y026198D01*
X005128Y025940D01*
X005492Y025940D01*
X005750Y026198D01*
X005750Y026562D01*
X005492Y026820D01*
X005128Y026820D01*
X004994Y026686D02*
X004626Y026686D01*
X004745Y026568D02*
X004875Y026568D01*
X004870Y026449D02*
X004750Y026449D01*
X004750Y026331D02*
X004870Y026331D01*
X004870Y026212D02*
X004750Y026212D01*
X004646Y026094D02*
X004974Y026094D01*
X005093Y025975D02*
X004527Y025975D01*
X004574Y025738D02*
X005046Y025738D01*
X005128Y025820D02*
X004870Y025562D01*
X004870Y025198D01*
X005128Y024940D01*
X005492Y024940D01*
X005750Y025198D01*
X005750Y025562D01*
X005492Y025820D01*
X005128Y025820D01*
X004927Y025620D02*
X004693Y025620D01*
X004750Y025501D02*
X004870Y025501D01*
X004870Y025383D02*
X004750Y025383D01*
X004750Y025264D02*
X004870Y025264D01*
X004922Y025146D02*
X004698Y025146D01*
X004579Y025027D02*
X005041Y025027D01*
X005128Y024820D02*
X004870Y024562D01*
X004870Y024198D01*
X005128Y023940D01*
X005492Y023940D01*
X005750Y024198D01*
X005750Y024562D01*
X005492Y024820D01*
X005128Y024820D01*
X005098Y024790D02*
X004522Y024790D01*
X004641Y024672D02*
X004979Y024672D01*
X004870Y024553D02*
X004750Y024553D01*
X004750Y024435D02*
X004870Y024435D01*
X004870Y024316D02*
X004750Y024316D01*
X004750Y024198D02*
X004870Y024198D01*
X004989Y024079D02*
X004631Y024079D01*
X004513Y023961D02*
X005107Y023961D01*
X005128Y023820D02*
X004870Y023562D01*
X004870Y023198D01*
X005128Y022940D01*
X005492Y022940D01*
X005750Y023198D01*
X005750Y023562D01*
X005492Y023820D01*
X005128Y023820D01*
X005031Y023724D02*
X004589Y023724D01*
X004707Y023605D02*
X004913Y023605D01*
X004870Y023487D02*
X004750Y023487D01*
X004750Y023368D02*
X004870Y023368D01*
X004870Y023250D02*
X004750Y023250D01*
X004683Y023131D02*
X004937Y023131D01*
X005055Y023013D02*
X004565Y023013D01*
X004537Y022776D02*
X005083Y022776D01*
X005128Y022820D02*
X004870Y022562D01*
X004870Y022198D01*
X005128Y021940D01*
X005492Y021940D01*
X005750Y022198D01*
X005750Y022562D01*
X005492Y022820D01*
X005128Y022820D01*
X004965Y022657D02*
X004655Y022657D01*
X004750Y022539D02*
X004870Y022539D01*
X004870Y022420D02*
X004750Y022420D01*
X004750Y022302D02*
X004870Y022302D01*
X004885Y022183D02*
X004735Y022183D01*
X004617Y022065D02*
X005003Y022065D01*
X005122Y021946D02*
X004498Y021946D01*
X004501Y021840D02*
X004350Y021840D01*
X004350Y021420D01*
X004770Y021420D01*
X004770Y021571D01*
X004501Y021840D01*
X004513Y021828D02*
X006210Y021828D01*
X006328Y021946D02*
X005498Y021946D01*
X005492Y021820D02*
X005128Y021820D01*
X004870Y021562D01*
X004870Y021198D01*
X005128Y020940D01*
X005492Y020940D01*
X005642Y021090D01*
X006182Y021090D01*
X006277Y021130D01*
X006350Y021203D01*
X006930Y021783D01*
X006970Y021878D01*
X006970Y023092D01*
X008889Y025011D01*
X008957Y025040D01*
X009030Y025113D01*
X009950Y026033D01*
X009990Y026033D01*
X010068Y026000D01*
X010172Y026000D01*
X010267Y026040D01*
X010340Y026113D01*
X010380Y026208D01*
X010380Y026312D01*
X010340Y026407D01*
X010337Y026410D01*
X010337Y026440D01*
X010350Y026453D01*
X010390Y026548D01*
X010390Y026652D01*
X010350Y026747D01*
X010277Y026820D01*
X010182Y026860D01*
X010078Y026860D01*
X009983Y026820D01*
X009950Y026787D01*
X009915Y026787D01*
X009898Y026802D01*
X009799Y026833D01*
X009696Y026825D01*
X009604Y026777D01*
X009538Y026698D01*
X009507Y026599D01*
X009515Y026496D01*
X009563Y026404D01*
X009576Y026394D01*
X008691Y025509D01*
X008623Y025480D01*
X006563Y023420D01*
X006490Y023347D01*
X006450Y023252D01*
X006450Y022068D01*
X005992Y021610D01*
X005702Y021610D01*
X005492Y021820D01*
X005603Y021709D02*
X006091Y021709D01*
X006447Y022065D02*
X005617Y022065D01*
X005735Y022183D02*
X006450Y022183D01*
X006450Y022302D02*
X005750Y022302D01*
X005750Y022420D02*
X006450Y022420D01*
X006450Y022539D02*
X005750Y022539D01*
X005655Y022657D02*
X006450Y022657D01*
X006450Y022776D02*
X005537Y022776D01*
X005565Y023013D02*
X006450Y023013D01*
X006450Y023131D02*
X005683Y023131D01*
X005750Y023250D02*
X006450Y023250D01*
X006510Y023368D02*
X005750Y023368D01*
X005750Y023487D02*
X006629Y023487D01*
X006747Y023605D02*
X005707Y023605D01*
X005589Y023724D02*
X006866Y023724D01*
X006984Y023842D02*
X004040Y023842D01*
X004031Y023724D02*
X003921Y023724D01*
X003913Y023605D02*
X003803Y023605D01*
X003870Y023487D02*
X003684Y023487D01*
X003620Y023368D02*
X003870Y023368D01*
X003823Y023250D02*
X003620Y023250D01*
X003620Y023131D02*
X003708Y023131D01*
X004202Y022894D02*
X006450Y022894D01*
X006970Y022894D02*
X010550Y022894D01*
X010550Y022776D02*
X006970Y022776D01*
X006970Y022657D02*
X010550Y022657D01*
X010550Y022539D02*
X006970Y022539D01*
X006970Y022420D02*
X010550Y022420D01*
X010550Y022302D02*
X006970Y022302D01*
X006970Y022183D02*
X010550Y022183D01*
X010550Y022065D02*
X006970Y022065D01*
X006970Y021946D02*
X010550Y021946D01*
X010550Y021828D02*
X006949Y021828D01*
X006857Y021709D02*
X010550Y021709D01*
X010550Y021591D02*
X006738Y021591D01*
X006620Y021472D02*
X010550Y021472D01*
X010550Y021354D02*
X006501Y021354D01*
X006383Y021235D02*
X010550Y021235D01*
X010550Y021117D02*
X006246Y021117D01*
X005750Y020562D02*
X005492Y020820D01*
X005128Y020820D01*
X004870Y020562D01*
X004870Y020198D01*
X005128Y019940D01*
X005492Y019940D01*
X005750Y020198D01*
X005750Y020562D01*
X005750Y020524D02*
X010550Y020524D01*
X010550Y020406D02*
X005750Y020406D01*
X005750Y020287D02*
X010550Y020287D01*
X010550Y020169D02*
X005721Y020169D01*
X005602Y020050D02*
X010550Y020050D01*
X010550Y019932D02*
X004018Y019932D01*
X004019Y019813D02*
X004121Y019813D01*
X004499Y019813D02*
X005121Y019813D01*
X005128Y019820D02*
X004870Y019562D01*
X004870Y019198D01*
X005128Y018940D01*
X005492Y018940D01*
X005750Y019198D01*
X005750Y019562D01*
X005492Y019820D01*
X005128Y019820D01*
X005002Y019695D02*
X004618Y019695D01*
X004736Y019576D02*
X004884Y019576D01*
X004870Y019458D02*
X004750Y019458D01*
X004750Y019339D02*
X004870Y019339D01*
X004870Y019221D02*
X004750Y019221D01*
X004654Y019102D02*
X004966Y019102D01*
X005084Y018984D02*
X004536Y018984D01*
X004566Y018747D02*
X005054Y018747D01*
X005128Y018820D02*
X004870Y018562D01*
X004870Y018198D01*
X005128Y017940D01*
X005492Y017940D01*
X005750Y018198D01*
X005750Y018562D01*
X005492Y018820D01*
X005128Y018820D01*
X004936Y018628D02*
X004684Y018628D01*
X004750Y018510D02*
X004870Y018510D01*
X004870Y018391D02*
X004750Y018391D01*
X004750Y018273D02*
X004870Y018273D01*
X004914Y018154D02*
X004706Y018154D01*
X004588Y018036D02*
X005032Y018036D01*
X005128Y017820D02*
X004870Y017562D01*
X004870Y017198D01*
X005128Y016940D01*
X005492Y016940D01*
X005750Y017198D01*
X005750Y017562D01*
X005492Y017820D01*
X005128Y017820D01*
X005106Y017799D02*
X004514Y017799D01*
X004632Y017680D02*
X004988Y017680D01*
X004870Y017562D02*
X004750Y017562D01*
X004750Y017443D02*
X004870Y017443D01*
X004870Y017325D02*
X004750Y017325D01*
X004750Y017206D02*
X004870Y017206D01*
X004980Y017088D02*
X004640Y017088D01*
X004521Y016969D02*
X005099Y016969D01*
X005128Y016820D02*
X004870Y016562D01*
X004870Y016198D01*
X005128Y015940D01*
X005492Y015940D01*
X005750Y016198D01*
X005750Y016562D01*
X005492Y016820D01*
X005128Y016820D01*
X005040Y016732D02*
X004580Y016732D01*
X004699Y016614D02*
X004921Y016614D01*
X004870Y016495D02*
X004750Y016495D01*
X004750Y016377D02*
X004870Y016377D01*
X004870Y016258D02*
X004750Y016258D01*
X004692Y016140D02*
X004928Y016140D01*
X005047Y016021D02*
X004573Y016021D01*
X004135Y015903D02*
X012392Y015903D01*
X012394Y016021D02*
X005573Y016021D01*
X005692Y016140D02*
X012395Y016140D01*
X012388Y016258D02*
X005750Y016258D01*
X005750Y016377D02*
X012068Y016377D01*
X012030Y016495D02*
X005750Y016495D01*
X005699Y016614D02*
X012047Y016614D01*
X012134Y016732D02*
X005580Y016732D01*
X005521Y016969D02*
X012470Y016969D01*
X012412Y016851D02*
X004027Y016851D01*
X004027Y016969D02*
X004099Y016969D01*
X004040Y016732D02*
X004028Y016732D01*
X004030Y016021D02*
X004047Y016021D01*
X002905Y014836D02*
X000629Y014836D01*
X000629Y014718D02*
X003021Y014718D01*
X003137Y014599D02*
X000629Y014599D01*
X000629Y014481D02*
X003253Y014481D01*
X003368Y014362D02*
X000629Y014362D01*
X000629Y014244D02*
X003484Y014244D01*
X003600Y014125D02*
X000629Y014125D01*
X000628Y014007D02*
X003716Y014007D01*
X003980Y014481D02*
X011092Y014481D01*
X010973Y014599D02*
X003864Y014599D01*
X002789Y014955D02*
X000630Y014955D01*
X000630Y015073D02*
X002673Y015073D01*
X002558Y015192D02*
X000630Y015192D01*
X000630Y015310D02*
X002442Y015310D01*
X002356Y015429D02*
X000630Y015429D01*
X000630Y015547D02*
X002340Y015547D01*
X002340Y015666D02*
X000631Y015666D01*
X000631Y015784D02*
X002340Y015784D01*
X002340Y015903D02*
X000631Y015903D01*
X000631Y016021D02*
X002340Y016021D01*
X002340Y016140D02*
X000631Y016140D01*
X000631Y016258D02*
X002340Y016258D01*
X002340Y016377D02*
X000632Y016377D01*
X000632Y016495D02*
X002340Y016495D01*
X002340Y016614D02*
X000632Y016614D01*
X000632Y016732D02*
X002340Y016732D01*
X002340Y016851D02*
X000632Y016851D01*
X000632Y016969D02*
X002340Y016969D01*
X002340Y017088D02*
X000632Y017088D01*
X000633Y017206D02*
X002340Y017206D01*
X002340Y017325D02*
X000633Y017325D01*
X000633Y017443D02*
X002340Y017443D01*
X002340Y017562D02*
X000633Y017562D01*
X000633Y017680D02*
X002340Y017680D01*
X002340Y017799D02*
X000633Y017799D01*
X000634Y017917D02*
X002340Y017917D01*
X002340Y018036D02*
X000634Y018036D01*
X000634Y018154D02*
X002340Y018154D01*
X002340Y018273D02*
X000634Y018273D01*
X000634Y018391D02*
X002340Y018391D01*
X002340Y018510D02*
X000634Y018510D01*
X000635Y018628D02*
X002340Y018628D01*
X002340Y018747D02*
X000635Y018747D01*
X000635Y018865D02*
X002340Y018865D01*
X002340Y018984D02*
X000635Y018984D01*
X000635Y019102D02*
X002340Y019102D01*
X002340Y019221D02*
X000635Y019221D01*
X000635Y019339D02*
X002340Y019339D01*
X002340Y019458D02*
X000636Y019458D01*
X000636Y019576D02*
X002340Y019576D01*
X002340Y019695D02*
X000636Y019695D01*
X000636Y019813D02*
X002340Y019813D01*
X002340Y019932D02*
X000636Y019932D01*
X000636Y020050D02*
X002340Y020050D01*
X002340Y020169D02*
X000637Y020169D01*
X000637Y020287D02*
X002340Y020287D01*
X002340Y020406D02*
X000637Y020406D01*
X000637Y020524D02*
X002340Y020524D01*
X002340Y020643D02*
X000637Y020643D01*
X000637Y020761D02*
X002340Y020761D01*
X002340Y020880D02*
X000638Y020880D01*
X000638Y020998D02*
X002340Y020998D01*
X002340Y021117D02*
X000638Y021117D01*
X000638Y021235D02*
X002340Y021235D01*
X002340Y021354D02*
X000638Y021354D01*
X000638Y021472D02*
X002340Y021472D01*
X002340Y021591D02*
X000638Y021591D01*
X000639Y021709D02*
X002340Y021709D01*
X002340Y021828D02*
X000639Y021828D01*
X000639Y021946D02*
X002340Y021946D01*
X002340Y022065D02*
X000639Y022065D01*
X000639Y022183D02*
X002340Y022183D01*
X002340Y022302D02*
X000639Y022302D01*
X000640Y022420D02*
X002340Y022420D01*
X002340Y022539D02*
X000640Y022539D01*
X000640Y022657D02*
X002340Y022657D01*
X002340Y022776D02*
X000640Y022776D01*
X000640Y022894D02*
X002340Y022894D01*
X002340Y023013D02*
X000640Y023013D01*
X000641Y023131D02*
X002340Y023131D01*
X002340Y023250D02*
X000641Y023250D01*
X000641Y023368D02*
X002340Y023368D01*
X002340Y023487D02*
X000641Y023487D01*
X000641Y023605D02*
X002340Y023605D01*
X002340Y023724D02*
X000641Y023724D01*
X000641Y023842D02*
X002340Y023842D01*
X002340Y023961D02*
X000642Y023961D01*
X000642Y024079D02*
X002340Y024079D01*
X002340Y024198D02*
X000642Y024198D01*
X000642Y024316D02*
X002340Y024316D01*
X002340Y024435D02*
X000642Y024435D01*
X000642Y024553D02*
X002340Y024553D01*
X002340Y024672D02*
X000643Y024672D01*
X000643Y024790D02*
X002340Y024790D01*
X002340Y024909D02*
X000643Y024909D01*
X000643Y025027D02*
X002340Y025027D01*
X002340Y025146D02*
X000643Y025146D01*
X000643Y025264D02*
X002340Y025264D01*
X002340Y025383D02*
X000644Y025383D01*
X000644Y025501D02*
X002340Y025501D01*
X002340Y025620D02*
X000644Y025620D01*
X000644Y025738D02*
X002340Y025738D01*
X002340Y025857D02*
X000644Y025857D01*
X000644Y025975D02*
X002340Y025975D01*
X002340Y026094D02*
X000644Y026094D01*
X000645Y026212D02*
X002340Y026212D01*
X002340Y026331D02*
X000645Y026331D01*
X000645Y026449D02*
X002340Y026449D01*
X002340Y026568D02*
X000645Y026568D01*
X000645Y026686D02*
X002340Y026686D01*
X002340Y026805D02*
X000645Y026805D01*
X000646Y026923D02*
X002340Y026923D01*
X002340Y027042D02*
X000646Y027042D01*
X000646Y027160D02*
X002340Y027160D01*
X002340Y027279D02*
X000646Y027279D01*
X000646Y027397D02*
X002340Y027397D01*
X002340Y027516D02*
X000646Y027516D01*
X000647Y027634D02*
X002340Y027634D01*
X002340Y027753D02*
X000647Y027753D01*
X000647Y027871D02*
X002340Y027871D01*
X002340Y027990D02*
X000647Y027990D01*
X000647Y028108D02*
X002340Y028108D01*
X002340Y028227D02*
X000647Y028227D01*
X000647Y028345D02*
X002340Y028345D01*
X002340Y028464D02*
X000648Y028464D01*
X000648Y028582D02*
X002340Y028582D01*
X002340Y028701D02*
X000648Y028701D01*
X000648Y028819D02*
X002340Y028819D01*
X002340Y028938D02*
X000648Y028938D01*
X000648Y029056D02*
X002340Y029056D01*
X002340Y029175D02*
X000649Y029175D01*
X000649Y029293D02*
X002340Y029293D01*
X002340Y029412D02*
X000649Y029412D01*
X000649Y029530D02*
X002340Y029530D01*
X002340Y029649D02*
X000649Y029649D01*
X000649Y029767D02*
X002340Y029767D01*
X002340Y029886D02*
X000650Y029886D01*
X000650Y030004D02*
X002340Y030004D01*
X002340Y030123D02*
X000650Y030123D01*
X000650Y030241D02*
X002340Y030241D01*
X002340Y030360D02*
X000650Y030360D01*
X000650Y030478D02*
X002340Y030478D01*
X002340Y030597D02*
X000650Y030597D01*
X000651Y030715D02*
X002340Y030715D01*
X002340Y030834D02*
X000651Y030834D01*
X000651Y030952D02*
X002340Y030952D01*
X002340Y031071D02*
X000651Y031071D01*
X000651Y031189D02*
X002340Y031189D01*
X002340Y031308D02*
X000651Y031308D01*
X000652Y031426D02*
X002340Y031426D01*
X002340Y031545D02*
X000652Y031545D01*
X000652Y031663D02*
X002340Y031663D01*
X002340Y031782D02*
X000652Y031782D01*
X000652Y031900D02*
X002340Y031900D01*
X002340Y032019D02*
X000652Y032019D01*
X000653Y032137D02*
X002340Y032137D01*
X002340Y032256D02*
X000653Y032256D01*
X000653Y032374D02*
X002340Y032374D01*
X002340Y032493D02*
X000653Y032493D01*
X000653Y032611D02*
X002340Y032611D01*
X002340Y032730D02*
X000653Y032730D01*
X000653Y032848D02*
X002340Y032848D01*
X002340Y032967D02*
X000654Y032967D01*
X000654Y033085D02*
X002340Y033085D01*
X002340Y033204D02*
X000654Y033204D01*
X000654Y033322D02*
X002340Y033322D01*
X002340Y033441D02*
X000654Y033441D01*
X000654Y033559D02*
X002340Y033559D01*
X002340Y033678D02*
X000655Y033678D01*
X000655Y033796D02*
X002340Y033796D01*
X002340Y033915D02*
X000655Y033915D01*
X000655Y034033D02*
X002340Y034033D01*
X002340Y034152D02*
X000655Y034152D01*
X000655Y034270D02*
X002340Y034270D01*
X002340Y034389D02*
X000656Y034389D01*
X000656Y034507D02*
X002340Y034507D01*
X002340Y034626D02*
X000656Y034626D01*
X000656Y034744D02*
X002340Y034744D01*
X002340Y034863D02*
X000656Y034863D01*
X000656Y034981D02*
X002340Y034981D01*
X002340Y035100D02*
X000656Y035100D01*
X000657Y035218D02*
X002400Y035218D01*
X002519Y035337D02*
X000657Y035337D01*
X000657Y035455D02*
X002637Y035455D01*
X002756Y035574D02*
X000657Y035574D01*
X000657Y035692D02*
X002874Y035692D01*
X002993Y035811D02*
X000657Y035811D01*
X000658Y035929D02*
X003111Y035929D01*
X003230Y036048D02*
X000658Y036048D01*
X000658Y036166D02*
X003348Y036166D01*
X003467Y036285D02*
X000658Y036285D01*
X000658Y036403D02*
X003585Y036403D01*
X003704Y036522D02*
X000658Y036522D01*
X000659Y036640D02*
X003836Y036640D01*
X003740Y036557D02*
X003740Y036557D01*
X003933Y034626D02*
X002860Y034626D01*
X002860Y034507D02*
X003870Y034507D01*
X003870Y034389D02*
X002860Y034389D01*
X002860Y034270D02*
X003870Y034270D01*
X003916Y034152D02*
X002860Y034152D01*
X002860Y034033D02*
X004035Y034033D01*
X004104Y033796D02*
X002860Y033796D01*
X002860Y033678D02*
X003985Y033678D01*
X003870Y033559D02*
X002860Y033559D01*
X002860Y033441D02*
X003870Y033441D01*
X003870Y033322D02*
X002860Y033322D01*
X002860Y033204D02*
X003870Y033204D01*
X003983Y033085D02*
X002860Y033085D01*
X002860Y032967D02*
X004101Y032967D01*
X003971Y031663D02*
X002860Y031663D01*
X002860Y031545D02*
X003870Y031545D01*
X003870Y031426D02*
X002860Y031426D01*
X002860Y031308D02*
X003870Y031308D01*
X003879Y031189D02*
X002860Y031189D01*
X002860Y031071D02*
X003997Y031071D01*
X004116Y030952D02*
X002860Y030952D01*
X002860Y030834D02*
X004113Y030834D01*
X004270Y030834D02*
X004350Y030834D01*
X004350Y030715D02*
X004270Y030715D01*
X004270Y030597D02*
X004350Y030597D01*
X004350Y030478D02*
X004270Y030478D01*
X004270Y030360D02*
X002860Y030360D01*
X002860Y030478D02*
X003850Y030478D01*
X003876Y030597D02*
X002860Y030597D01*
X002860Y030715D02*
X003995Y030715D01*
X003850Y030241D02*
X002860Y030241D01*
X002860Y030123D02*
X003917Y030123D01*
X004035Y030004D02*
X002860Y030004D01*
X002860Y029886D02*
X012564Y029886D01*
X012683Y030004D02*
X005556Y030004D01*
X005545Y029767D02*
X012444Y029767D01*
X012325Y029649D02*
X005664Y029649D01*
X005075Y029767D02*
X004545Y029767D01*
X004501Y029920D02*
X004770Y030189D01*
X004770Y030340D01*
X004350Y030340D01*
X004350Y029920D01*
X004501Y029920D01*
X004585Y030004D02*
X005064Y030004D01*
X004945Y030123D02*
X004703Y030123D01*
X004770Y030241D02*
X004870Y030241D01*
X004870Y030360D02*
X004350Y030360D01*
X004350Y030241D02*
X004270Y030241D01*
X004270Y030123D02*
X004350Y030123D01*
X004350Y030004D02*
X004270Y030004D01*
X004075Y029767D02*
X002860Y029767D01*
X002860Y029649D02*
X003956Y029649D01*
X003870Y029530D02*
X002860Y029530D01*
X002860Y029412D02*
X003870Y029412D01*
X003870Y029293D02*
X002860Y029293D01*
X002860Y029175D02*
X003893Y029175D01*
X004608Y029056D02*
X005012Y029056D01*
X004893Y029175D02*
X004727Y029175D01*
X004750Y029293D02*
X004870Y029293D01*
X004870Y029412D02*
X004750Y029412D01*
X004750Y029530D02*
X004870Y029530D01*
X004956Y029649D02*
X004664Y029649D01*
X004830Y029860D02*
X004705Y029985D01*
X004770Y030478D02*
X004870Y030478D01*
X004904Y030597D02*
X004744Y030597D01*
X004625Y030715D02*
X005023Y030715D01*
X005597Y030715D02*
X012617Y030715D01*
X012879Y030241D02*
X012922Y030241D01*
X012803Y030123D02*
X012708Y030123D01*
X012609Y028227D02*
X012426Y028227D01*
X012490Y028108D02*
X012293Y028108D01*
X012372Y027990D02*
X012160Y027990D01*
X012253Y027871D02*
X012026Y027871D01*
X012135Y027753D02*
X011893Y027753D01*
X011797Y027634D02*
X012016Y027634D01*
X011898Y027516D02*
X011760Y027516D01*
X011779Y027397D02*
X011671Y027397D01*
X011678Y027279D02*
X011070Y027279D01*
X011070Y027397D02*
X011169Y027397D01*
X011080Y027516D02*
X011070Y027516D01*
X011070Y027160D02*
X011650Y027160D01*
X011650Y027042D02*
X011070Y027042D01*
X011070Y026923D02*
X011650Y026923D01*
X011650Y026805D02*
X011070Y026805D01*
X011070Y026686D02*
X011650Y026686D01*
X011650Y026568D02*
X011070Y026568D01*
X011070Y026449D02*
X011650Y026449D01*
X011650Y026331D02*
X011070Y026331D01*
X011070Y026212D02*
X011650Y026212D01*
X011650Y026094D02*
X011070Y026094D01*
X011070Y025975D02*
X011650Y025975D01*
X011650Y025857D02*
X011070Y025857D01*
X011070Y025738D02*
X011650Y025738D01*
X011650Y025620D02*
X011070Y025620D01*
X011070Y025501D02*
X011650Y025501D01*
X011650Y025383D02*
X011070Y025383D01*
X011070Y025264D02*
X011650Y025264D01*
X011650Y025146D02*
X011070Y025146D01*
X011070Y025027D02*
X011650Y025027D01*
X011650Y024909D02*
X011070Y024909D01*
X011070Y024790D02*
X011650Y024790D01*
X011650Y024672D02*
X011070Y024672D01*
X011070Y024553D02*
X011650Y024553D01*
X011650Y024435D02*
X011070Y024435D01*
X011070Y024316D02*
X011650Y024316D01*
X011650Y024198D02*
X011070Y024198D01*
X011070Y024079D02*
X011650Y024079D01*
X011650Y023961D02*
X011070Y023961D01*
X011070Y023842D02*
X011650Y023842D01*
X011650Y023724D02*
X011070Y023724D01*
X011070Y023605D02*
X011650Y023605D01*
X011650Y023487D02*
X011070Y023487D01*
X011070Y023368D02*
X011650Y023368D01*
X011650Y023250D02*
X011070Y023250D01*
X011070Y023131D02*
X011650Y023131D01*
X011650Y023013D02*
X011070Y023013D01*
X011070Y022894D02*
X011650Y022894D01*
X011650Y022776D02*
X011070Y022776D01*
X011070Y022657D02*
X011650Y022657D01*
X011650Y022539D02*
X011070Y022539D01*
X011070Y022420D02*
X011650Y022420D01*
X011653Y022302D02*
X011070Y022302D01*
X011070Y022183D02*
X011719Y022183D01*
X011813Y022065D02*
X011070Y022065D01*
X011070Y021946D02*
X011806Y021946D01*
X011690Y021828D02*
X011070Y021828D01*
X011070Y021709D02*
X011639Y021709D01*
X011640Y021591D02*
X011070Y021591D01*
X011070Y021472D02*
X011641Y021472D01*
X011641Y021354D02*
X011070Y021354D01*
X011070Y021235D02*
X011642Y021235D01*
X011642Y021117D02*
X011070Y021117D01*
X011070Y020998D02*
X011643Y020998D01*
X011643Y020880D02*
X011070Y020880D01*
X011070Y020761D02*
X011644Y020761D01*
X011644Y020643D02*
X011070Y020643D01*
X011070Y020524D02*
X011645Y020524D01*
X011645Y020406D02*
X011070Y020406D01*
X011070Y020287D02*
X011646Y020287D01*
X011646Y020169D02*
X011070Y020169D01*
X011070Y020050D02*
X011647Y020050D01*
X011648Y019932D02*
X011070Y019932D01*
X011070Y019813D02*
X011648Y019813D01*
X011649Y019695D02*
X011070Y019695D01*
X011070Y019576D02*
X011649Y019576D01*
X011650Y019458D02*
X011143Y019458D01*
X011255Y019339D02*
X011650Y019339D01*
X011686Y019221D02*
X011368Y019221D01*
X011481Y019102D02*
X011798Y019102D01*
X011914Y018984D02*
X011594Y018984D01*
X011706Y018865D02*
X012029Y018865D01*
X012144Y018747D02*
X011819Y018747D01*
X011932Y018628D02*
X012260Y018628D01*
X012375Y018510D02*
X012045Y018510D01*
X012157Y018391D02*
X012490Y018391D01*
X012606Y018273D02*
X012270Y018273D01*
X012383Y018154D02*
X012721Y018154D01*
X012836Y018036D02*
X012496Y018036D01*
X012608Y017917D02*
X012952Y017917D01*
X013067Y017799D02*
X012721Y017799D01*
X012834Y017680D02*
X013182Y017680D01*
X013298Y017562D02*
X012947Y017562D01*
X013059Y017443D02*
X013413Y017443D01*
X013528Y017325D02*
X013172Y017325D01*
X013285Y017206D02*
X013644Y017206D01*
X013759Y017088D02*
X013389Y017088D01*
X013420Y016969D02*
X013874Y016969D01*
X013990Y016851D02*
X013419Y016851D01*
X013418Y016732D02*
X014105Y016732D01*
X014127Y016710D02*
X014127Y016710D01*
X014221Y016614D02*
X013416Y016614D01*
X013415Y016495D02*
X014358Y016495D01*
X014326Y015784D02*
X013408Y015784D01*
X013407Y015666D02*
X014262Y015666D01*
X014119Y015547D02*
X013405Y015547D01*
X013404Y015429D02*
X014029Y015429D01*
X014010Y015310D02*
X013403Y015310D01*
X013402Y015192D02*
X014046Y015192D01*
X014169Y015073D02*
X013455Y015073D01*
X013409Y015903D02*
X015122Y015903D01*
X015239Y016021D02*
X013410Y016021D01*
X013412Y016140D02*
X015356Y016140D01*
X015254Y016258D02*
X013413Y016258D01*
X013414Y016377D02*
X015161Y016377D01*
X015004Y015784D02*
X014714Y015784D01*
X012680Y017088D02*
X005640Y017088D01*
X005750Y017206D02*
X012567Y017206D01*
X012454Y017325D02*
X005750Y017325D01*
X005750Y017443D02*
X012342Y017443D01*
X012229Y017562D02*
X005750Y017562D01*
X005632Y017680D02*
X012116Y017680D01*
X012003Y017799D02*
X005514Y017799D01*
X005588Y018036D02*
X011778Y018036D01*
X011665Y018154D02*
X005706Y018154D01*
X005750Y018273D02*
X011552Y018273D01*
X011440Y018391D02*
X005750Y018391D01*
X005750Y018510D02*
X011327Y018510D01*
X011214Y018628D02*
X005684Y018628D01*
X005566Y018747D02*
X011101Y018747D01*
X010989Y018865D02*
X004021Y018865D01*
X004022Y018747D02*
X004054Y018747D01*
X004084Y018984D02*
X004021Y018984D01*
X004024Y018036D02*
X004032Y018036D01*
X004024Y017917D02*
X011891Y017917D01*
X010876Y018984D02*
X005536Y018984D01*
X005654Y019102D02*
X010763Y019102D01*
X010650Y019221D02*
X005750Y019221D01*
X005750Y019339D02*
X010566Y019339D01*
X010550Y019458D02*
X005750Y019458D01*
X005736Y019576D02*
X010550Y019576D01*
X010550Y019695D02*
X005618Y019695D01*
X005499Y019813D02*
X010550Y019813D01*
X010550Y020643D02*
X005670Y020643D01*
X005551Y020761D02*
X010550Y020761D01*
X010550Y020880D02*
X004016Y020880D01*
X004015Y020998D02*
X004041Y020998D01*
X004270Y020998D02*
X004350Y020998D01*
X004350Y020920D02*
X004501Y020920D01*
X004770Y021189D01*
X004770Y021340D01*
X004350Y021340D01*
X004350Y020920D01*
X004350Y021117D02*
X004270Y021117D01*
X004270Y021235D02*
X004350Y021235D01*
X004350Y021354D02*
X004870Y021354D01*
X004870Y021472D02*
X004770Y021472D01*
X004750Y021591D02*
X004898Y021591D01*
X005017Y021709D02*
X004631Y021709D01*
X004350Y021709D02*
X004270Y021709D01*
X004270Y021591D02*
X004350Y021591D01*
X004350Y021472D02*
X004270Y021472D01*
X004410Y021410D02*
X004410Y021380D01*
X004770Y021235D02*
X004870Y021235D01*
X004951Y021117D02*
X004697Y021117D01*
X004579Y020998D02*
X005070Y020998D01*
X005069Y020761D02*
X004551Y020761D01*
X004670Y020643D02*
X004950Y020643D01*
X004870Y020524D02*
X004750Y020524D01*
X004750Y020406D02*
X004870Y020406D01*
X004870Y020287D02*
X004750Y020287D01*
X004721Y020169D02*
X004899Y020169D01*
X005018Y020050D02*
X004602Y020050D01*
X004069Y020761D02*
X004016Y020761D01*
X004013Y021828D02*
X004107Y021828D01*
X004122Y021946D02*
X004012Y021946D01*
X004270Y021828D02*
X004350Y021828D01*
X005550Y020998D02*
X010550Y020998D01*
X012240Y022364D02*
X012170Y022451D01*
X012170Y022698D01*
X012193Y022674D01*
X012249Y022634D01*
X012311Y022602D01*
X012377Y022581D01*
X012445Y022570D01*
X012730Y022570D01*
X012730Y022980D01*
X012790Y022980D01*
X012790Y022570D01*
X013075Y022570D01*
X013143Y022581D01*
X013209Y022602D01*
X013260Y022628D01*
X013260Y022373D01*
X013124Y022430D01*
X012396Y022430D01*
X012242Y022366D01*
X012240Y022364D01*
X012195Y022420D02*
X012372Y022420D01*
X012170Y022539D02*
X013260Y022539D01*
X013260Y022420D02*
X013148Y022420D01*
X012790Y022657D02*
X012730Y022657D01*
X012730Y022776D02*
X012790Y022776D01*
X012790Y022894D02*
X012730Y022894D01*
X012730Y023040D02*
X012730Y023450D01*
X012445Y023450D01*
X012377Y023439D01*
X012311Y023418D01*
X012249Y023386D01*
X012193Y023346D01*
X012170Y023322D01*
X012170Y027052D01*
X012888Y027770D01*
X013586Y027770D01*
X013570Y027749D01*
X013550Y027731D01*
X013538Y027708D01*
X013325Y027432D01*
X013300Y027407D01*
X013293Y027392D01*
X013283Y027378D01*
X013273Y027344D01*
X013260Y027312D01*
X013260Y027295D01*
X013256Y027278D01*
X013260Y027244D01*
X013260Y023392D01*
X013209Y023418D01*
X013143Y023439D01*
X013075Y023450D01*
X012790Y023450D01*
X012790Y023040D01*
X012730Y023040D01*
X012730Y023131D02*
X012790Y023131D01*
X012790Y023250D02*
X012730Y023250D01*
X012730Y023368D02*
X012790Y023368D01*
X013260Y023487D02*
X012170Y023487D01*
X012170Y023605D02*
X013260Y023605D01*
X013260Y023724D02*
X012170Y023724D01*
X012170Y023842D02*
X013260Y023842D01*
X013260Y023961D02*
X012170Y023961D01*
X012170Y024079D02*
X013260Y024079D01*
X013260Y024198D02*
X012170Y024198D01*
X012170Y024316D02*
X013260Y024316D01*
X013260Y024435D02*
X012170Y024435D01*
X012170Y024553D02*
X013260Y024553D01*
X013260Y024672D02*
X012170Y024672D01*
X012170Y024790D02*
X013260Y024790D01*
X013260Y024909D02*
X012170Y024909D01*
X012170Y025027D02*
X013260Y025027D01*
X013260Y025146D02*
X012170Y025146D01*
X012170Y025264D02*
X013260Y025264D01*
X013260Y025383D02*
X012170Y025383D01*
X012170Y025501D02*
X013260Y025501D01*
X013260Y025620D02*
X012170Y025620D01*
X012170Y025738D02*
X013260Y025738D01*
X013260Y025857D02*
X012170Y025857D01*
X012170Y025975D02*
X013260Y025975D01*
X013260Y026094D02*
X012170Y026094D01*
X012170Y026212D02*
X013260Y026212D01*
X013260Y026331D02*
X012170Y026331D01*
X012170Y026449D02*
X013260Y026449D01*
X013260Y026568D02*
X012170Y026568D01*
X012170Y026686D02*
X013260Y026686D01*
X013260Y026805D02*
X012170Y026805D01*
X012170Y026923D02*
X013260Y026923D01*
X013260Y027042D02*
X012170Y027042D01*
X012278Y027160D02*
X013260Y027160D01*
X013256Y027279D02*
X012396Y027279D01*
X012515Y027397D02*
X013295Y027397D01*
X013389Y027516D02*
X012633Y027516D01*
X012752Y027634D02*
X013481Y027634D01*
X013573Y027753D02*
X012870Y027753D01*
X014730Y027550D02*
X014937Y027095D01*
X014940Y027250D01*
X014920Y027210D01*
X015313Y028345D02*
X023852Y028345D01*
X023854Y028227D02*
X016371Y028227D01*
X016503Y028108D02*
X017290Y028108D01*
X017172Y027990D02*
X016784Y027990D01*
X016889Y027871D02*
X017053Y027871D01*
X017568Y027650D02*
X017618Y027700D01*
X018046Y027700D01*
X018040Y027694D01*
X017983Y027555D01*
X017983Y027405D01*
X018040Y027266D01*
X018146Y027160D01*
X017951Y027160D01*
X017957Y027175D02*
X017957Y027325D01*
X017900Y027464D01*
X017794Y027570D01*
X017712Y027604D01*
X017700Y027615D01*
X017603Y027652D01*
X017568Y027650D01*
X017650Y027634D02*
X018015Y027634D01*
X017983Y027516D02*
X017848Y027516D01*
X017928Y027397D02*
X017986Y027397D01*
X017957Y027279D02*
X018035Y027279D01*
X017957Y027175D02*
X017900Y027036D01*
X017794Y026930D01*
X017771Y026920D01*
X017751Y026903D01*
X017725Y026875D01*
X017713Y026869D01*
X017703Y026861D01*
X017666Y026848D01*
X017630Y026832D01*
X017618Y026831D01*
X017605Y026827D01*
X017566Y026830D01*
X017527Y026828D01*
X017515Y026833D01*
X017502Y026834D01*
X017478Y026845D01*
X017184Y026656D01*
X017167Y026640D01*
X017141Y026629D01*
X017117Y026613D01*
X017094Y026609D01*
X017072Y026600D01*
X017043Y026600D01*
X017015Y026595D01*
X016992Y026600D01*
X016585Y026600D01*
X014120Y023880D01*
X014120Y023392D01*
X014171Y023418D01*
X014237Y023439D01*
X014305Y023450D01*
X014590Y023450D01*
X014590Y023040D01*
X014650Y023040D01*
X014650Y023450D01*
X014935Y023450D01*
X015003Y023439D01*
X015069Y023418D01*
X015120Y023392D01*
X015120Y023450D01*
X015117Y023492D01*
X015120Y023502D01*
X015120Y023512D01*
X015136Y023550D01*
X015149Y023590D01*
X015156Y023598D01*
X015160Y023607D01*
X015189Y023637D01*
X015706Y024238D01*
X015710Y024247D01*
X015739Y024277D01*
X015767Y024309D01*
X015776Y024313D01*
X015783Y024320D01*
X015821Y024336D01*
X015859Y024355D01*
X015869Y024356D01*
X015878Y024360D01*
X015920Y024360D01*
X015962Y024363D01*
X015972Y024360D01*
X016486Y024360D01*
X016546Y024420D01*
X016685Y024477D01*
X016835Y024477D01*
X016974Y024420D01*
X017080Y024314D01*
X017137Y024175D01*
X017137Y024025D01*
X017080Y023886D01*
X016974Y023780D01*
X016835Y023723D01*
X016685Y023723D01*
X016546Y023780D01*
X016486Y023840D01*
X016049Y023840D01*
X015643Y023367D01*
X015669Y023386D01*
X015731Y023418D01*
X015797Y023439D01*
X015865Y023450D01*
X016150Y023450D01*
X016150Y023040D01*
X016210Y023040D01*
X016210Y023450D01*
X016495Y023450D01*
X016563Y023439D01*
X016629Y023418D01*
X016691Y023386D01*
X016747Y023346D01*
X016796Y023297D01*
X016836Y023241D01*
X016868Y023179D01*
X016889Y023113D01*
X016900Y023045D01*
X016900Y023040D01*
X016210Y023040D01*
X016210Y022980D01*
X016900Y022980D01*
X016900Y022975D01*
X016898Y022966D01*
X019198Y025878D01*
X019192Y026265D01*
X018292Y027103D01*
X018285Y027103D01*
X018146Y027160D01*
X018358Y027042D02*
X017902Y027042D01*
X017777Y026923D02*
X018485Y026923D01*
X018612Y026805D02*
X017415Y026805D01*
X017230Y026686D02*
X018740Y026686D01*
X018867Y026568D02*
X016556Y026568D01*
X016448Y026449D02*
X018994Y026449D01*
X019122Y026331D02*
X016341Y026331D01*
X016234Y026212D02*
X019193Y026212D01*
X019195Y026094D02*
X016126Y026094D01*
X016019Y025975D02*
X019197Y025975D01*
X019181Y025857D02*
X015912Y025857D01*
X015804Y025738D02*
X019088Y025738D01*
X018994Y025620D02*
X015697Y025620D01*
X015589Y025501D02*
X018901Y025501D01*
X018807Y025383D02*
X015482Y025383D01*
X015375Y025264D02*
X018713Y025264D01*
X018620Y025146D02*
X015267Y025146D01*
X015160Y025027D02*
X018526Y025027D01*
X018433Y024909D02*
X015052Y024909D01*
X014945Y024790D02*
X018339Y024790D01*
X018246Y024672D02*
X014838Y024672D01*
X014730Y024553D02*
X018152Y024553D01*
X018058Y024435D02*
X016939Y024435D01*
X017078Y024316D02*
X017965Y024316D01*
X017871Y024198D02*
X017128Y024198D01*
X017137Y024079D02*
X017778Y024079D01*
X017684Y023961D02*
X017111Y023961D01*
X017036Y023842D02*
X017591Y023842D01*
X017497Y023724D02*
X016838Y023724D01*
X016682Y023724D02*
X015949Y023724D01*
X015847Y023605D02*
X017403Y023605D01*
X017310Y023487D02*
X015746Y023487D01*
X015644Y023368D02*
X015644Y023368D01*
X015264Y023724D02*
X014120Y023724D01*
X014120Y023842D02*
X015366Y023842D01*
X015467Y023961D02*
X014193Y023961D01*
X014301Y024079D02*
X015569Y024079D01*
X015671Y024198D02*
X014408Y024198D01*
X014515Y024316D02*
X015778Y024316D01*
X016581Y024435D02*
X014623Y024435D01*
X014120Y023605D02*
X015159Y023605D01*
X015117Y023487D02*
X014120Y023487D01*
X014590Y023368D02*
X014650Y023368D01*
X014650Y023250D02*
X014590Y023250D01*
X014590Y023131D02*
X014650Y023131D01*
X014650Y022980D02*
X014650Y022570D01*
X014935Y022570D01*
X015003Y022581D01*
X015069Y022602D01*
X015120Y022628D01*
X015120Y022373D01*
X014984Y022430D01*
X014537Y022430D01*
X014378Y022570D01*
X014590Y022570D01*
X014590Y022980D01*
X014650Y022980D01*
X014650Y022894D02*
X014590Y022894D01*
X014590Y022776D02*
X014650Y022776D01*
X014650Y022657D02*
X014590Y022657D01*
X014414Y022539D02*
X015120Y022539D01*
X015120Y022420D02*
X015008Y022420D01*
X015640Y022420D02*
X015792Y022420D01*
X015816Y022430D02*
X015662Y022366D01*
X015640Y022344D01*
X015640Y022655D01*
X015669Y022634D01*
X015731Y022602D01*
X015797Y022581D01*
X015865Y022570D01*
X016150Y022570D01*
X016150Y022980D01*
X016210Y022980D01*
X016210Y022570D01*
X016452Y022570D01*
X016282Y022430D01*
X015816Y022430D01*
X015640Y022539D02*
X016414Y022539D01*
X016210Y022657D02*
X016150Y022657D01*
X016150Y022776D02*
X016210Y022776D01*
X016210Y022894D02*
X016150Y022894D01*
X016210Y023013D02*
X016936Y023013D01*
X016883Y023131D02*
X017029Y023131D01*
X017123Y023250D02*
X016830Y023250D01*
X016716Y023368D02*
X017216Y023368D01*
X016210Y023368D02*
X016150Y023368D01*
X016150Y023250D02*
X016210Y023250D01*
X016210Y023131D02*
X016150Y023131D01*
X017390Y024510D02*
X017390Y024990D01*
X017370Y025010D01*
X017210Y024890D02*
X017350Y024750D01*
X017630Y024750D01*
X018926Y027279D02*
X027114Y027279D01*
X026991Y027397D02*
X018941Y027397D01*
X018950Y027516D02*
X026869Y027516D01*
X026747Y027634D02*
X018894Y027634D01*
X020521Y026449D02*
X023453Y026449D01*
X023572Y026331D02*
X020472Y026331D01*
X020410Y026212D02*
X023633Y026212D01*
X024186Y025738D02*
X026980Y025738D01*
X027099Y025857D02*
X024273Y025857D01*
X024406Y025975D02*
X027217Y025975D01*
X027303Y026094D02*
X024440Y026094D01*
X024419Y026212D02*
X027330Y026212D01*
X027407Y026331D02*
X024387Y026331D01*
X024191Y027753D02*
X026624Y027753D01*
X026502Y027871D02*
X024320Y027871D01*
X024320Y028100D02*
X024490Y028430D01*
X024220Y028300D01*
X024070Y027980D01*
X024070Y027960D01*
X024370Y028310D02*
X024490Y028430D01*
X024370Y028310D02*
X024370Y028620D01*
X024170Y028701D02*
X015668Y028701D01*
X015787Y028819D02*
X024286Y028819D01*
X024454Y028819D02*
X025524Y028819D01*
X025646Y028701D02*
X024612Y028701D01*
X024706Y028582D02*
X025768Y028582D01*
X025891Y028464D02*
X024767Y028464D01*
X024819Y028345D02*
X026013Y028345D01*
X026135Y028227D02*
X024810Y028227D01*
X024739Y028108D02*
X026258Y028108D01*
X026380Y027990D02*
X024593Y027990D01*
X024118Y028582D02*
X015550Y028582D01*
X015431Y028464D02*
X023916Y028464D01*
X024912Y029412D02*
X017979Y029412D01*
X018098Y029530D02*
X024790Y029530D01*
X024667Y029649D02*
X018216Y029649D01*
X018335Y029767D02*
X024545Y029767D01*
X024328Y029886D02*
X018453Y029886D01*
X018548Y030004D02*
X024132Y030004D01*
X024058Y030123D02*
X018570Y030123D01*
X018570Y030241D02*
X024033Y030241D01*
X024043Y030360D02*
X018570Y030360D01*
X018570Y030478D02*
X024094Y030478D01*
X024140Y030597D02*
X018570Y030597D01*
X018570Y030715D02*
X024175Y030715D01*
X024333Y030834D02*
X018570Y030834D01*
X018570Y030952D02*
X024616Y030952D01*
X024732Y030834D02*
X024471Y030834D01*
X024627Y030715D02*
X024849Y030715D01*
X024965Y030597D02*
X024661Y030597D01*
X024889Y030478D02*
X025081Y030478D01*
X025198Y030360D02*
X024946Y030360D01*
X024943Y030241D02*
X025273Y030241D01*
X025302Y030123D02*
X024926Y030123D01*
X025048Y030004D02*
X025382Y030004D01*
X025034Y029293D02*
X016261Y029293D01*
X016242Y029275D02*
X016242Y029275D01*
X016142Y029175D02*
X025157Y029175D01*
X025279Y029056D02*
X016024Y029056D01*
X015905Y028938D02*
X025401Y028938D01*
X024440Y030290D02*
X024420Y030290D01*
X024390Y030320D01*
X024410Y030310D01*
X024500Y031071D02*
X018570Y031071D01*
X018570Y031189D02*
X024383Y031189D01*
X024267Y031308D02*
X018570Y031308D01*
X017834Y031782D02*
X017780Y031782D01*
X017780Y031900D02*
X017864Y031900D01*
X017840Y032019D02*
X017780Y032019D01*
X017780Y032137D02*
X017871Y032137D01*
X016789Y032137D02*
X015770Y032137D01*
X015770Y032256D02*
X016788Y032256D01*
X016787Y032374D02*
X015770Y032374D01*
X015770Y032493D02*
X016786Y032493D01*
X016786Y032611D02*
X015770Y032611D01*
X015770Y032730D02*
X016785Y032730D01*
X016784Y032848D02*
X015770Y032848D01*
X015770Y032967D02*
X016783Y032967D01*
X016782Y033085D02*
X015770Y033085D01*
X015770Y033204D02*
X016781Y033204D01*
X016780Y033322D02*
X015770Y033322D01*
X015770Y033441D02*
X016779Y033441D01*
X016778Y033559D02*
X015770Y033559D01*
X015770Y033678D02*
X016777Y033678D01*
X016776Y033796D02*
X015770Y033796D01*
X015770Y033915D02*
X016776Y033915D01*
X016775Y034033D02*
X015770Y034033D01*
X015770Y034152D02*
X016774Y034152D01*
X016773Y034270D02*
X015770Y034270D01*
X015770Y034389D02*
X016772Y034389D01*
X016771Y034507D02*
X015770Y034507D01*
X015770Y034626D02*
X016770Y034626D01*
X016788Y034744D02*
X015770Y034744D01*
X015770Y034863D02*
X016874Y034863D01*
X016993Y034981D02*
X015770Y034981D01*
X015770Y035100D02*
X017112Y035100D01*
X017230Y035218D02*
X015767Y035218D01*
X015701Y035337D02*
X017349Y035337D01*
X017467Y035455D02*
X015583Y035455D01*
X015464Y035574D02*
X017586Y035574D01*
X017704Y035692D02*
X015346Y035692D01*
X015227Y035811D02*
X017823Y035811D01*
X017938Y035870D02*
X017938Y035870D01*
X018084Y035337D02*
X027356Y035337D01*
X027475Y035218D02*
X017966Y035218D01*
X017847Y035100D02*
X027595Y035100D01*
X027423Y035929D02*
X015109Y035929D01*
X015875Y032019D02*
X016790Y032019D01*
X016791Y031900D02*
X016044Y031900D01*
X016081Y031782D02*
X016792Y031782D01*
X016793Y031663D02*
X016062Y031663D01*
X015972Y031545D02*
X016794Y031545D01*
X016795Y031426D02*
X015810Y031426D01*
X015810Y031308D02*
X016795Y031308D01*
X016796Y031189D02*
X015798Y031189D01*
X015718Y031071D02*
X016797Y031071D01*
X015820Y031750D02*
X015820Y031760D01*
X015820Y031750D02*
X015140Y031750D01*
X015480Y031730D02*
X015500Y031730D01*
X015500Y031710D01*
X015500Y031410D01*
X015380Y028413D02*
X015380Y028413D01*
X010550Y027729D02*
X010550Y027729D01*
X010550Y027634D02*
X005678Y027634D01*
X005750Y027516D02*
X010550Y027516D01*
X010550Y027397D02*
X005750Y027397D01*
X005750Y027279D02*
X010550Y027279D01*
X010550Y027160D02*
X005712Y027160D01*
X005594Y027042D02*
X010550Y027042D01*
X010550Y026923D02*
X002860Y026923D01*
X002860Y026805D02*
X004112Y026805D01*
X003994Y026686D02*
X002860Y026686D01*
X002860Y026568D02*
X003875Y026568D01*
X003870Y026449D02*
X002860Y026449D01*
X002860Y026331D02*
X003870Y026331D01*
X003870Y026212D02*
X002860Y026212D01*
X002860Y026094D02*
X003974Y026094D01*
X004093Y025975D02*
X002860Y025975D01*
X002860Y025857D02*
X009039Y025857D01*
X009157Y025975D02*
X005527Y025975D01*
X005646Y026094D02*
X009276Y026094D01*
X009394Y026212D02*
X005750Y026212D01*
X005750Y026331D02*
X009513Y026331D01*
X009540Y026449D02*
X005750Y026449D01*
X005745Y026568D02*
X009509Y026568D01*
X009534Y026686D02*
X005626Y026686D01*
X005508Y026805D02*
X009658Y026805D01*
X009890Y026805D02*
X009967Y026805D01*
X010293Y026805D02*
X010550Y026805D01*
X010550Y026686D02*
X010376Y026686D01*
X010390Y026568D02*
X010550Y026568D01*
X010550Y026449D02*
X010347Y026449D01*
X010372Y026331D02*
X010550Y026331D01*
X010550Y026212D02*
X010380Y026212D01*
X010321Y026094D02*
X010550Y026094D01*
X010550Y025975D02*
X009893Y025975D01*
X009774Y025857D02*
X010550Y025857D01*
X010550Y025738D02*
X009656Y025738D01*
X009537Y025620D02*
X010550Y025620D01*
X010550Y025501D02*
X009419Y025501D01*
X009300Y025383D02*
X010550Y025383D01*
X010550Y025264D02*
X009182Y025264D01*
X009063Y025146D02*
X010550Y025146D01*
X010550Y025027D02*
X008927Y025027D01*
X008786Y024909D02*
X010550Y024909D01*
X010550Y024790D02*
X008668Y024790D01*
X008549Y024672D02*
X010550Y024672D01*
X010550Y024553D02*
X008431Y024553D01*
X008312Y024435D02*
X010550Y024435D01*
X010550Y024316D02*
X008194Y024316D01*
X008075Y024198D02*
X010550Y024198D01*
X010550Y024079D02*
X007957Y024079D01*
X007838Y023961D02*
X010550Y023961D01*
X010550Y023842D02*
X007720Y023842D01*
X007601Y023724D02*
X010550Y023724D01*
X010550Y023605D02*
X007483Y023605D01*
X007364Y023487D02*
X010550Y023487D01*
X010550Y023368D02*
X007246Y023368D01*
X007127Y023250D02*
X010550Y023250D01*
X010550Y023131D02*
X007009Y023131D01*
X006970Y023013D02*
X010550Y023013D01*
X012170Y023368D02*
X012224Y023368D01*
X012217Y022657D02*
X012170Y022657D01*
X008920Y025738D02*
X005574Y025738D01*
X005693Y025620D02*
X008802Y025620D01*
X008673Y025501D02*
X005750Y025501D01*
X005750Y025383D02*
X008525Y025383D01*
X008406Y025264D02*
X005750Y025264D01*
X005698Y025146D02*
X008288Y025146D01*
X008169Y025027D02*
X005579Y025027D01*
X005522Y024790D02*
X007932Y024790D01*
X007814Y024672D02*
X005641Y024672D01*
X005750Y024553D02*
X007695Y024553D01*
X007577Y024435D02*
X005750Y024435D01*
X005750Y024316D02*
X007458Y024316D01*
X007340Y024198D02*
X005750Y024198D01*
X005631Y024079D02*
X007221Y024079D01*
X007103Y023961D02*
X005513Y023961D01*
X004098Y024790D02*
X003951Y024790D01*
X003979Y024672D02*
X003836Y024672D01*
X003870Y024553D02*
X003721Y024553D01*
X003607Y024435D02*
X003870Y024435D01*
X003778Y024316D02*
X003492Y024316D01*
X003377Y024198D02*
X003660Y024198D01*
X003541Y024079D02*
X003263Y024079D01*
X003210Y023961D02*
X003423Y023961D01*
X003304Y023842D02*
X003211Y023842D01*
X002883Y024435D02*
X002860Y024435D01*
X002860Y024553D02*
X002998Y024553D01*
X003112Y024672D02*
X002860Y024672D01*
X002860Y024790D02*
X003227Y024790D01*
X003342Y024909D02*
X002860Y024909D01*
X002860Y025027D02*
X003456Y025027D01*
X003571Y025146D02*
X002860Y025146D01*
X002860Y025264D02*
X003686Y025264D01*
X003801Y025383D02*
X002860Y025383D01*
X002860Y025501D02*
X003870Y025501D01*
X003927Y025620D02*
X002860Y025620D01*
X002860Y025738D02*
X004046Y025738D01*
X004065Y024909D02*
X008051Y024909D01*
X004026Y027042D02*
X002860Y027042D01*
X002860Y027160D02*
X003908Y027160D01*
X003870Y027279D02*
X002860Y027279D01*
X002860Y027397D02*
X003870Y027397D01*
X003870Y027516D02*
X002860Y027516D01*
X002860Y027634D02*
X003942Y027634D01*
X002860Y033915D02*
X009050Y033915D01*
X000659Y036759D02*
X037500Y036759D01*
X037500Y036877D02*
X000659Y036877D01*
X000659Y036996D02*
X037500Y036996D01*
X037500Y037114D02*
X000659Y037114D01*
X000659Y037233D02*
X037500Y037233D01*
X037496Y030952D02*
X029960Y030952D01*
X029960Y030834D02*
X037496Y030834D01*
X037496Y030715D02*
X029960Y030715D01*
X029960Y030597D02*
X037496Y030597D01*
X037496Y030478D02*
X029960Y030478D01*
X029960Y030360D02*
X037496Y030360D01*
X037496Y030241D02*
X029960Y030241D01*
X029960Y030123D02*
X037496Y030123D01*
X037496Y030004D02*
X029960Y030004D01*
X029960Y029886D02*
X037496Y029886D01*
X037496Y029767D02*
X029960Y029767D01*
X029960Y029649D02*
X037496Y029649D01*
X037496Y029530D02*
X029960Y029530D01*
X029960Y029412D02*
X037496Y029412D01*
X037496Y029293D02*
X029960Y029293D01*
X029960Y029175D02*
X037496Y029175D01*
X037495Y029056D02*
X029960Y029056D01*
X029960Y028938D02*
X037495Y028938D01*
X037495Y028819D02*
X029960Y028819D01*
X029960Y028701D02*
X037495Y028701D01*
X037495Y028582D02*
X029960Y028582D01*
X029960Y028464D02*
X037495Y028464D01*
X037495Y028345D02*
X029926Y028345D01*
X029814Y028227D02*
X037495Y028227D01*
X037495Y028108D02*
X029696Y028108D01*
X029577Y027990D02*
X037495Y027990D01*
X037495Y027871D02*
X029459Y027871D01*
X029340Y027753D02*
X037495Y027753D01*
X037495Y027634D02*
X029222Y027634D01*
X029103Y027516D02*
X037495Y027516D01*
X037494Y026212D02*
X028520Y026212D01*
X028520Y026094D02*
X037494Y026094D01*
X037494Y025975D02*
X028520Y025975D01*
X028520Y025857D02*
X037494Y025857D01*
X037494Y025738D02*
X028507Y025738D01*
X028427Y025620D02*
X037494Y025620D01*
X037494Y025501D02*
X028309Y025501D01*
X028191Y025383D02*
X037493Y025383D01*
X033483Y012822D02*
X031836Y012822D01*
X035255Y011992D02*
X035532Y011992D01*
X035532Y011874D02*
X035390Y011874D01*
X035441Y011755D02*
X035532Y011755D01*
X034395Y004408D02*
X011750Y004408D01*
X011868Y004290D02*
X014417Y004290D01*
X014299Y004171D02*
X011987Y004171D01*
X012105Y004053D02*
X014270Y004053D01*
X014270Y003934D02*
X012224Y003934D01*
X012342Y003816D02*
X014270Y003816D01*
X014351Y003697D02*
X012461Y003697D01*
X012579Y003579D02*
X014469Y003579D01*
X014521Y004527D02*
X011631Y004527D01*
X011513Y004645D02*
X014403Y004645D01*
X014270Y005001D02*
X005860Y005001D01*
X005979Y005119D02*
X014270Y005119D01*
X014365Y005238D02*
X006040Y005238D01*
X005679Y004006D02*
X005593Y004020D01*
X005220Y004020D01*
X005220Y003530D01*
X006097Y003530D01*
X006086Y003599D01*
X006060Y003681D01*
X006020Y003758D01*
X005970Y003828D01*
X005908Y003890D01*
X005838Y003940D01*
X005761Y003980D01*
X005679Y004006D01*
X005847Y003934D02*
X011488Y003934D01*
X011607Y003816D02*
X005979Y003816D01*
X006052Y003697D02*
X011725Y003697D01*
X011844Y003579D02*
X006090Y003579D01*
X006087Y003341D02*
X012081Y003341D01*
X012199Y003223D02*
X006041Y003223D01*
X005962Y003104D02*
X012318Y003104D01*
X012436Y002986D02*
X005812Y002986D01*
X005220Y003460D02*
X011962Y003460D01*
X012698Y003460D02*
X019252Y003460D01*
X018210Y008460D02*
X018310Y008560D01*
X018401Y010452D02*
X016632Y010452D01*
X016681Y010570D02*
X018282Y010570D01*
X018164Y010689D02*
X016696Y010689D01*
X016765Y010807D02*
X018045Y010807D01*
X017927Y010926D02*
X016768Y010926D01*
X012381Y014955D02*
X012363Y014955D01*
X012382Y015073D02*
X012245Y015073D01*
X012126Y015192D02*
X012384Y015192D01*
X012385Y015310D02*
X012008Y015310D01*
X011889Y015429D02*
X012387Y015429D01*
X012388Y015547D02*
X011771Y015547D01*
X011652Y015666D02*
X012390Y015666D01*
X012391Y015784D02*
X011534Y015784D01*
X011210Y014362D02*
X007206Y014362D01*
X007324Y014244D02*
X011329Y014244D01*
X011447Y014125D02*
X007443Y014125D01*
X007561Y014007D02*
X011566Y014007D01*
X011684Y013888D02*
X007844Y013888D01*
X008046Y013770D02*
X011803Y013770D01*
X011921Y013651D02*
X008132Y013651D01*
X008175Y013533D02*
X012040Y013533D01*
X012158Y013414D02*
X008175Y013414D01*
X008143Y013296D02*
X010007Y013296D01*
X009839Y013177D02*
X008073Y013177D01*
X007908Y013059D02*
X009721Y013059D01*
X010101Y012703D02*
X011083Y012703D01*
X010960Y012585D02*
X009982Y012585D01*
X009864Y012466D02*
X010837Y012466D01*
X010714Y012348D02*
X009745Y012348D01*
X009627Y012229D02*
X010591Y012229D01*
X010468Y012111D02*
X009508Y012111D01*
X009390Y011992D02*
X010345Y011992D01*
X010222Y011874D02*
X009271Y011874D01*
X009153Y011755D02*
X010099Y011755D01*
X009976Y011637D02*
X009034Y011637D01*
X008916Y011518D02*
X009853Y011518D01*
X009730Y011400D02*
X008797Y011400D01*
X008679Y011281D02*
X009607Y011281D01*
X009483Y011163D02*
X008560Y011163D01*
X008442Y011044D02*
X009360Y011044D01*
X009237Y010926D02*
X008323Y010926D01*
X008205Y010807D02*
X009114Y010807D01*
X008991Y010689D02*
X008086Y010689D01*
X007968Y010570D02*
X008868Y010570D01*
X008745Y010452D02*
X007849Y010452D01*
X007731Y010333D02*
X008622Y010333D01*
X008499Y010215D02*
X007612Y010215D01*
X007494Y010096D02*
X008376Y010096D01*
X008253Y009978D02*
X007375Y009978D01*
X007257Y009859D02*
X008130Y009859D01*
X008007Y009741D02*
X007138Y009741D01*
X007020Y009622D02*
X007884Y009622D01*
X007736Y009504D02*
X006901Y009504D01*
X006931Y008674D02*
X004220Y008674D01*
X004220Y008556D02*
X006813Y008556D01*
X006694Y008437D02*
X004220Y008437D01*
X004220Y008319D02*
X006576Y008319D01*
X006457Y008200D02*
X004220Y008200D01*
X004220Y008082D02*
X006339Y008082D01*
X006220Y007963D02*
X004220Y007963D01*
X004220Y007845D02*
X004455Y007845D01*
X004336Y007726D02*
X004220Y007726D01*
X004220Y007608D02*
X004278Y007608D01*
X004240Y007489D02*
X004220Y007489D01*
X004220Y007371D02*
X004240Y007371D01*
X004220Y007252D02*
X004262Y007252D01*
X004220Y007134D02*
X004311Y007134D01*
X004220Y007015D02*
X004415Y007015D01*
X004220Y006897D02*
X004625Y006897D01*
X005865Y007845D02*
X006102Y007845D01*
X005865Y010926D02*
X006818Y010926D01*
X006936Y011044D02*
X005984Y011044D01*
X006042Y011163D02*
X006960Y011163D01*
X006960Y011281D02*
X006080Y011281D01*
X006080Y011400D02*
X006960Y011400D01*
X006960Y011518D02*
X006058Y011518D01*
X006009Y011637D02*
X006960Y011637D01*
X006960Y011755D02*
X005905Y011755D01*
X005695Y011874D02*
X006960Y011874D01*
X006960Y011992D02*
X000626Y011992D01*
X000626Y012111D02*
X006960Y012111D01*
X006960Y012229D02*
X000626Y012229D01*
X000626Y012348D02*
X006960Y012348D01*
X006960Y012466D02*
X000626Y012466D01*
X000626Y012585D02*
X006960Y012585D01*
X006859Y012703D02*
X000627Y012703D01*
X005707Y012822D02*
X006741Y012822D01*
X006622Y012940D02*
X005910Y012940D01*
X006011Y013059D02*
X006504Y013059D01*
X004106Y017799D02*
X004025Y017799D01*
X011217Y012111D02*
X011812Y012111D01*
X011744Y012229D02*
X011340Y012229D01*
X005220Y003934D02*
X005100Y003934D01*
X005100Y003816D02*
X005220Y003816D01*
X005220Y003697D02*
X005100Y003697D01*
X005100Y003579D02*
X005220Y003579D01*
X028951Y003579D02*
X029469Y003579D01*
X029351Y003697D02*
X029069Y003697D01*
X029150Y003816D02*
X029270Y003816D01*
X029270Y003934D02*
X029150Y003934D01*
X029150Y004053D02*
X029270Y004053D01*
X029299Y004171D02*
X029121Y004171D01*
X029003Y004290D02*
X029417Y004290D01*
X033951Y003579D02*
X034011Y003579D01*
X019542Y033915D02*
X019070Y033915D01*
X019070Y034033D02*
X019493Y034033D01*
X019493Y034152D02*
X019079Y034152D01*
X019198Y034270D02*
X019528Y034270D01*
D17*
X019780Y034110D02*
X019870Y034110D01*
X019780Y034110D02*
X021890Y034100D01*
X025650Y030270D01*
X024690Y030310D02*
X024620Y030320D01*
X024450Y030320D01*
X024400Y030290D02*
X024400Y030460D01*
X024400Y030580D01*
X024390Y030320D01*
X024410Y030260D02*
X028260Y026530D01*
X028260Y025820D01*
X025010Y022560D01*
X025040Y022450D01*
X025030Y022460D01*
X025240Y022230D01*
X025040Y022450D02*
X025000Y022450D01*
X023880Y022450D01*
X023490Y022060D01*
X023470Y022040D01*
X023490Y022060D02*
X023490Y020020D01*
X023680Y019840D01*
X026830Y019840D01*
X027120Y019540D01*
X027120Y016220D01*
X026015Y015085D01*
X025485Y015085D01*
X025060Y014660D01*
X024720Y014660D01*
X025030Y014760D02*
X024820Y014970D01*
X025030Y014760D02*
X025060Y014660D01*
X025070Y014660D01*
X025060Y014660D02*
X025060Y014320D01*
X025560Y013810D01*
X027160Y013810D01*
X027910Y014580D01*
X030440Y014580D01*
X031710Y015560D01*
X031710Y015660D01*
X031960Y015410D01*
X031710Y015660D02*
X031340Y015650D01*
X031230Y016170D02*
X031210Y016460D01*
X031220Y016440D01*
X030850Y016440D01*
X031210Y016460D02*
X031210Y019410D01*
X030610Y020010D01*
X029060Y020010D01*
X027710Y021360D01*
X027850Y021220D01*
X027850Y020240D01*
X027930Y019660D02*
X029010Y019660D01*
X029410Y019260D01*
X029650Y019480D01*
X029580Y019350D01*
X029470Y019220D02*
X029410Y019270D01*
X029580Y019130D01*
X028800Y018860D02*
X028440Y019220D01*
X028400Y019220D01*
X028610Y019060D02*
X028010Y018460D01*
X028010Y015300D01*
X027420Y014710D01*
X027370Y014710D01*
X027470Y014770D02*
X027230Y014520D01*
X027250Y014750D01*
X028040Y013870D02*
X028170Y013880D01*
X029190Y013880D01*
X029170Y013900D01*
X029190Y013880D02*
X029200Y013650D01*
X028180Y013630D02*
X028160Y013710D01*
X028170Y013880D01*
X028170Y013900D02*
X028180Y013630D01*
X026440Y013310D02*
X026420Y013290D01*
X026420Y010700D01*
X026320Y010600D01*
X026420Y010700D02*
X026430Y010710D01*
X026430Y010700D01*
X025110Y009390D01*
X024340Y009380D01*
X024310Y009390D02*
X023990Y009390D01*
X024310Y009390D02*
X024400Y009390D01*
X024350Y009510D02*
X024340Y009100D01*
X023760Y008680D02*
X023750Y008670D01*
X023750Y008320D01*
X024140Y008320D01*
X024160Y008340D01*
X023820Y008350D02*
X023700Y008390D01*
X023710Y008360D02*
X023660Y008310D01*
X019560Y008310D01*
X016370Y011640D01*
X016160Y011610D01*
X013460Y011610D01*
X012770Y012000D01*
X012780Y011980D02*
X012700Y011980D01*
X012530Y011810D01*
X012820Y012030D02*
X012830Y012030D01*
X013130Y012330D01*
X012540Y012580D02*
X012290Y012580D01*
X012000Y012290D01*
X012290Y012580D02*
X011330Y012580D01*
X007260Y008660D01*
X007917Y009317D01*
X007942Y009317D01*
X006035Y007410D01*
X005160Y007410D01*
X005160Y009390D02*
X006420Y009390D01*
X010070Y013040D01*
X016920Y013040D01*
X017240Y012760D01*
X017310Y012760D01*
X017810Y013260D01*
X018060Y013260D01*
X018070Y013250D01*
X017810Y013250D01*
X017780Y013220D01*
X017780Y013000D01*
X017785Y012965D01*
X017780Y012930D01*
X017810Y013260D02*
X017850Y014360D01*
X021080Y017610D01*
X021060Y020980D01*
X019290Y023110D01*
X017870Y023110D01*
X017430Y022510D01*
X017390Y021960D01*
X016680Y021510D01*
X017070Y021380D01*
X017070Y020680D01*
X016710Y020460D01*
X015510Y020460D01*
X015260Y020210D01*
X015260Y018310D01*
X016410Y017160D01*
X016410Y016210D01*
X015110Y014800D01*
X013360Y014800D01*
X013140Y015020D01*
X013160Y016960D01*
X010810Y019430D01*
X010810Y027780D01*
X013260Y030210D01*
X017260Y030210D01*
X017520Y030550D01*
X017520Y034150D01*
X017730Y034140D01*
X017740Y034140D01*
X017730Y034120D02*
X018090Y034120D01*
X017810Y034090D02*
X017810Y033960D01*
X017810Y033820D01*
X017030Y034650D02*
X017990Y035610D01*
X027460Y035600D01*
X029210Y033860D01*
X029210Y031210D01*
X028830Y030810D01*
X028670Y030800D01*
X028690Y028460D01*
X028950Y027730D02*
X028390Y027730D01*
X027900Y028220D01*
X027900Y028700D01*
X021990Y034610D01*
X019170Y034610D01*
X018810Y034250D01*
X018810Y032160D01*
X018310Y031660D01*
X018330Y031640D01*
X018650Y031640D01*
X018620Y031610D02*
X018580Y031570D01*
X018510Y031570D01*
X018380Y031700D01*
X018330Y031700D01*
X018330Y031680D01*
X018310Y031660D01*
X018310Y030110D01*
X017760Y029560D01*
X016160Y029560D01*
X016095Y029495D01*
X016070Y029520D01*
X015560Y029520D01*
X016095Y029495D02*
X015160Y028560D01*
X012410Y028560D01*
X011420Y027680D01*
X011910Y027160D02*
X012780Y028030D01*
X016200Y028030D01*
X016296Y027944D01*
X016560Y027680D01*
X016296Y027944D02*
X016296Y027944D01*
X016750Y027200D02*
X015042Y027200D01*
X014937Y027095D01*
X014880Y027110D02*
X014730Y027550D01*
X014070Y027550D02*
X013760Y027570D01*
X013520Y027260D01*
X013520Y019660D01*
X015910Y017160D01*
X015910Y016330D01*
X015020Y015430D01*
X014821Y015443D01*
X014590Y015300D01*
X014520Y015300D02*
X014520Y015610D01*
X014740Y015390D01*
X014830Y015300D01*
X014830Y015270D01*
X014520Y015300D02*
X014300Y015300D01*
X014270Y015330D01*
X015260Y014450D02*
X018940Y018330D01*
X018960Y019390D01*
X018750Y019620D01*
X018190Y019620D01*
X017169Y018553D01*
X017230Y018614D01*
X017230Y020310D01*
X018410Y021490D01*
X018410Y021530D01*
X018810Y022150D01*
X018790Y022170D02*
X018780Y022160D01*
X019120Y022160D01*
X018830Y022170D02*
X018790Y022170D01*
X018800Y022180D01*
X018790Y022170D02*
X018490Y022170D01*
X018780Y022160D02*
X018800Y022440D01*
X018670Y022750D02*
X018700Y022780D01*
X019000Y022780D01*
X019540Y022240D01*
X019540Y021870D01*
X020640Y020770D01*
X020640Y017780D01*
X018610Y015750D01*
X018580Y015780D01*
X019620Y015060D02*
X019510Y014860D01*
X019280Y014630D01*
X019510Y014860D02*
X019510Y014870D01*
X019500Y014880D02*
X019740Y014640D01*
X019620Y015060D02*
X022360Y017800D01*
X024770Y017810D01*
X025470Y018510D01*
X025470Y019160D01*
X025510Y019280D01*
X025600Y019150D02*
X025320Y019130D01*
X025710Y019160D01*
X024690Y020740D02*
X024140Y020740D01*
X024690Y020740D02*
X026090Y022140D01*
X027990Y022140D01*
X028930Y021490D01*
X029790Y020820D02*
X030220Y021250D01*
X030010Y020960D02*
X028480Y022780D01*
X028470Y024540D01*
X028480Y024540D02*
X028460Y024550D01*
X028480Y024540D02*
X028110Y024570D01*
X028460Y024600D02*
X028460Y024970D01*
X027680Y026070D02*
X026470Y024860D01*
X023980Y024860D01*
X023960Y024840D01*
X020700Y024840D01*
X019460Y025790D02*
X019450Y026380D01*
X018370Y027470D01*
X018690Y027470D01*
X018360Y027480D02*
X019450Y026380D01*
X018290Y027460D01*
X017560Y027390D02*
X017570Y027090D01*
X017580Y027250D01*
X017580Y027220D01*
X017020Y026860D01*
X016470Y026860D01*
X013860Y023980D01*
X013860Y022680D01*
X014620Y022010D01*
X015380Y021760D02*
X015570Y021510D01*
X016680Y021510D01*
X016180Y021010D02*
X014620Y021010D01*
X015380Y021760D02*
X015380Y023460D01*
X015930Y024100D01*
X016760Y024100D01*
X017260Y024660D02*
X017360Y024760D01*
X017260Y024660D02*
X015760Y024660D01*
X014580Y023420D01*
X014620Y023010D01*
X016180Y022010D02*
X017020Y022700D01*
X019460Y025790D01*
X020200Y026370D02*
X020150Y026540D01*
X020150Y026550D01*
X020410Y026810D01*
X023460Y026810D01*
X024010Y026260D01*
X024030Y026260D02*
X024030Y025950D01*
X024180Y026110D02*
X024030Y026260D01*
X024570Y026760D02*
X024020Y027310D01*
X019510Y027310D01*
X019650Y027310D02*
X019520Y027070D01*
X019490Y027480D01*
X019330Y027290D02*
X019780Y027290D01*
X020140Y026740D02*
X020140Y026600D01*
X020150Y026540D02*
X020140Y026740D01*
X017510Y027960D02*
X024030Y027960D01*
X024490Y028430D01*
X024380Y028310D01*
X024370Y028310D02*
X024400Y028550D01*
X024100Y028010D01*
X024110Y028290D02*
X024560Y028300D01*
X024490Y028430D01*
X024380Y028540D01*
X024580Y027060D02*
X024580Y026770D01*
X027080Y030310D02*
X026990Y030430D01*
X023440Y033980D01*
X023440Y034570D01*
X027310Y036410D02*
X029700Y034020D01*
X029700Y028480D01*
X028950Y027730D01*
X024850Y022610D02*
X025000Y022450D01*
X027550Y021270D02*
X027580Y021270D01*
X027790Y021480D01*
X027800Y021490D01*
X027930Y019660D02*
X027580Y019310D01*
X027580Y015880D01*
X026300Y014740D01*
X025910Y014280D01*
X025900Y014360D02*
X025900Y014370D01*
X025810Y014460D01*
X025710Y014560D01*
X025560Y013810D02*
X025410Y013660D01*
X025410Y011260D01*
X024810Y010660D01*
X018560Y010660D01*
X017260Y011960D01*
X017240Y012760D01*
X016640Y011780D02*
X016460Y011600D01*
X016350Y011600D01*
X016320Y011540D02*
X016340Y011520D01*
X016380Y011690D02*
X016380Y012070D01*
X016390Y012080D01*
X016510Y010870D02*
X016310Y010670D01*
X016310Y010660D01*
X016320Y010650D01*
X016320Y010620D01*
X016310Y010660D02*
X016300Y010660D01*
X016120Y010840D01*
X016310Y010660D02*
X016310Y007160D01*
X017660Y005810D01*
X024240Y005810D01*
X024710Y005340D01*
X024710Y004960D01*
X025710Y004960D02*
X025720Y004970D01*
X025720Y005720D01*
X025230Y006210D01*
X018360Y006210D01*
X017550Y007020D01*
X017550Y009040D01*
X017550Y009080D01*
X017550Y009040D02*
X017800Y009040D01*
X017550Y009040D02*
X017560Y009250D01*
X018050Y008590D02*
X018280Y008590D01*
X018310Y008560D01*
X018320Y008550D01*
X018320Y008480D01*
X018310Y008460D02*
X018310Y007210D01*
X019010Y006550D01*
X026170Y006550D01*
X026690Y006030D01*
X026690Y004980D01*
X026710Y004960D01*
X028360Y003260D02*
X028340Y003240D01*
X020020Y003240D01*
X019700Y003560D01*
X019700Y003540D01*
X019320Y003160D01*
X012630Y003160D01*
X011330Y004460D01*
X004320Y004460D01*
X003960Y004770D01*
X003960Y009680D01*
X004670Y010390D01*
X006650Y010390D01*
X007220Y010960D01*
X007220Y012710D01*
X006600Y013330D01*
X005160Y013330D01*
X004800Y013330D01*
X003910Y014180D02*
X003227Y014879D01*
X002600Y015520D01*
X002600Y035050D01*
X003960Y036410D01*
X027310Y036410D01*
X018510Y031570D02*
X017990Y031570D01*
X018290Y031680D02*
X018290Y031820D01*
X018100Y032010D01*
X017060Y030710D02*
X017030Y034650D01*
X015510Y035160D02*
X015510Y031760D01*
X015510Y031720D01*
X015500Y031710D01*
X015550Y031720D02*
X015510Y031760D01*
X015820Y031760D01*
X015620Y031770D01*
X015550Y031720D02*
X015550Y031270D01*
X015510Y031760D02*
X015000Y031760D01*
X016910Y030560D02*
X012830Y030560D01*
X012650Y030380D01*
X005310Y030380D01*
X005310Y031380D02*
X008810Y031360D01*
X009310Y031860D01*
X009310Y034310D01*
X010760Y035760D01*
X014910Y035760D01*
X015510Y035160D01*
X017060Y030710D02*
X016910Y030560D01*
X017510Y027960D02*
X016750Y027200D01*
X020880Y022900D02*
X020880Y022620D01*
X020950Y022550D01*
X020890Y022550D01*
X020860Y022520D01*
X020860Y022220D01*
X020870Y022540D02*
X020860Y022580D01*
X021470Y021740D01*
X021460Y017490D01*
X018730Y014690D01*
X018730Y013260D01*
X020310Y011360D01*
X020290Y011160D01*
X020300Y011150D01*
X020310Y011360D02*
X020670Y011360D01*
X020120Y013560D02*
X023480Y016930D01*
X025670Y016930D01*
X026500Y016500D02*
X025830Y015830D01*
X023880Y015830D01*
X023570Y015520D01*
X023550Y014080D01*
X026430Y013240D02*
X026430Y010710D01*
X024350Y009720D02*
X024350Y009510D01*
X023820Y008350D02*
X026370Y008350D01*
X028710Y006010D01*
X028710Y004960D01*
X028710Y004910D01*
X028360Y003260D02*
X034060Y003260D01*
X034650Y003850D01*
X034720Y011010D01*
X035160Y011420D01*
X035160Y011430D02*
X035160Y011750D01*
X035150Y011740D02*
X035140Y011420D01*
X035140Y011550D01*
X035140Y011740D01*
X035140Y011550D02*
X035160Y011430D01*
X035150Y011420D02*
X035140Y011170D01*
X035140Y011420D01*
X035790Y012940D02*
X031610Y016460D01*
X031210Y016460D01*
X032590Y018150D02*
X034220Y016520D01*
X034220Y016120D01*
X031680Y014660D02*
X031400Y014380D01*
X031590Y014380D01*
X031740Y014300D01*
X031410Y014360D02*
X031410Y012880D01*
X031810Y012480D01*
X033660Y012480D01*
X033660Y012220D01*
X033660Y012480D02*
X033670Y012640D01*
X031400Y014350D02*
X031400Y014380D01*
X035790Y012940D02*
X035810Y003280D01*
X035410Y002880D01*
X029110Y002880D01*
X028900Y002670D01*
X028250Y002020D01*
X004630Y002020D01*
X003230Y003440D01*
X003180Y010140D01*
X004480Y011360D01*
X005160Y011360D01*
X007740Y013460D02*
X007000Y014200D01*
X003910Y014200D01*
X003840Y014860D02*
X002970Y015730D01*
X002950Y024130D01*
X004160Y025380D01*
X004310Y025380D01*
X004310Y024380D02*
X004210Y024380D01*
X003360Y023530D01*
X003360Y015830D01*
X003940Y015250D01*
X011210Y015250D01*
X012710Y013750D01*
X015620Y013750D01*
X019820Y018170D01*
X019820Y018650D01*
X019830Y018700D01*
X020270Y019120D02*
X019830Y019420D01*
X019860Y019450D02*
X019860Y019460D01*
X019850Y019870D01*
X019850Y019900D01*
X019300Y019650D02*
X019320Y018200D01*
X015410Y014110D01*
X015370Y014070D01*
X012880Y014070D01*
X011320Y015630D01*
X004040Y015630D01*
X003770Y015900D01*
X003770Y015930D01*
X003750Y022800D01*
X004310Y023380D01*
X004310Y021380D02*
X004410Y021380D01*
X005310Y021380D02*
X005340Y021350D01*
X006130Y021350D01*
X006710Y021930D01*
X006710Y021960D01*
X006100Y021350D01*
X006710Y021960D02*
X006710Y023200D01*
X008770Y025260D01*
X008810Y025260D01*
X009960Y026410D01*
X009770Y026570D01*
X009960Y026430D02*
X010130Y026600D01*
X009960Y026430D02*
X009960Y026420D01*
X010120Y026260D01*
X009890Y027240D02*
X009750Y027380D01*
X009750Y027390D01*
X009760Y027450D02*
X006850Y029830D01*
X009410Y027130D02*
X009780Y027500D01*
X009410Y027130D02*
X009410Y027100D01*
X011910Y027160D02*
X011910Y022360D01*
X012190Y022010D01*
X012230Y022010D01*
X012760Y022010D01*
X012230Y022010D02*
X011900Y021670D01*
X011910Y019360D01*
X014277Y016928D01*
X014470Y016730D01*
X015460Y016710D01*
X015400Y016480D02*
X015400Y017010D01*
X015400Y016480D02*
X015410Y016470D01*
X014860Y017260D02*
X014610Y017260D01*
X014650Y017260D01*
X014660Y017250D01*
X014610Y017260D02*
X012760Y019110D01*
X012760Y021010D01*
X016100Y018820D02*
X016480Y018830D01*
X016500Y018820D02*
X016500Y019190D01*
X016500Y018820D02*
X016370Y018820D01*
X016100Y018820D01*
X016270Y018720D02*
X016370Y018820D01*
X016500Y018820D02*
X016510Y018820D01*
X016270Y018720D02*
X016270Y018060D01*
X016630Y017680D01*
X017780Y017680D01*
X017885Y017880D01*
X018490Y018450D01*
X018490Y019160D01*
X018440Y019170D02*
X018430Y019170D01*
X018265Y019005D01*
X018210Y018950D01*
X017250Y018230D02*
X016910Y018230D01*
X016870Y018240D01*
X017169Y018553D01*
X016910Y018230D02*
X016870Y018230D01*
X018040Y020140D02*
X018140Y020120D01*
X018130Y020130D01*
X018130Y020150D01*
X018130Y020200D01*
X018150Y020220D01*
X018150Y020580D01*
X018010Y020190D02*
X019000Y020110D01*
X019300Y019650D01*
X020270Y019120D02*
X020270Y018110D01*
X015760Y013420D01*
X012520Y013420D01*
X011080Y014860D01*
X003840Y014860D01*
X009480Y009390D02*
X009500Y009410D01*
X010500Y009410D01*
X011050Y009960D01*
X011310Y009960D01*
X013060Y014450D02*
X015260Y014450D01*
X013060Y014450D02*
X012640Y014870D01*
X012660Y016520D01*
X012660Y016540D01*
X012670Y016800D01*
X012680Y016540D02*
X012660Y016520D01*
X012670Y016520D02*
X012680Y016540D01*
X012670Y016520D02*
X012290Y016520D01*
X017790Y020150D02*
X018130Y020150D01*
X018040Y020140D02*
X018010Y020190D01*
X018190Y022660D02*
X018540Y022660D01*
X018630Y022750D01*
X018670Y022750D01*
X020480Y022570D02*
X020890Y022570D01*
X020910Y022550D01*
X020910Y022870D01*
X020880Y022900D01*
X020730Y022580D02*
X020490Y022580D01*
X020480Y022570D01*
X020950Y022550D02*
X021240Y022550D01*
X026500Y016500D02*
X026510Y016500D01*
X029790Y020730D02*
X029790Y020820D01*
X018320Y008880D02*
X018320Y008550D01*
X018560Y008580D02*
X018050Y008590D01*
X019710Y003960D02*
X019700Y003950D01*
X019700Y003560D01*
X023750Y007930D02*
X023750Y008320D01*
D18*
X024310Y009390D02*
X024310Y009460D01*
X024350Y009510D01*
X024310Y009460D02*
X024340Y009380D01*
X025910Y014280D02*
X025810Y014460D01*
X024820Y014970D02*
X024810Y014960D01*
X029410Y019260D02*
X029310Y019460D01*
X027710Y021360D02*
X027810Y021460D01*
X027790Y021480D01*
X020870Y022540D02*
X020730Y022580D01*
X019860Y019460D02*
X019810Y019460D01*
X019830Y019420D01*
X018310Y018960D02*
X018265Y019005D01*
X018310Y018960D02*
X017810Y018460D01*
X017810Y017960D01*
X017885Y017880D01*
X015400Y016480D02*
X015030Y016770D01*
X014530Y016770D01*
X014310Y016960D01*
X014277Y016928D01*
X014810Y015460D02*
X014821Y015443D01*
X014810Y015460D02*
X014740Y015390D01*
X013810Y012460D02*
X011310Y009960D01*
X013810Y012460D02*
X016310Y012460D01*
X016810Y011960D01*
X017785Y012965D02*
X017810Y012960D01*
X017810Y013260D01*
X017810Y013460D01*
X018320Y008480D02*
X018310Y008460D01*
X033660Y012480D02*
X033810Y012460D01*
X035140Y011550D02*
X035250Y011550D01*
X035160Y011420D01*
X024220Y028300D02*
X024400Y028550D01*
X024410Y030260D02*
X024420Y030420D01*
X024400Y030460D01*
X017810Y033960D02*
X017730Y034140D01*
X016310Y027960D02*
X016296Y027944D01*
X014990Y027190D02*
X014730Y027550D01*
X014990Y027190D02*
X014990Y027170D01*
D19*
X006850Y029830D02*
X006800Y029880D01*
X004810Y029880D01*
X004705Y029985D01*
X004310Y030380D01*
X004810Y029880D02*
X004810Y021830D01*
X004410Y021430D01*
X004410Y021410D01*
X019710Y004960D02*
X019720Y004960D01*
X020230Y004450D01*
X028200Y004450D01*
X028710Y004960D01*
D20*
X028480Y024540D02*
X028432Y024650D01*
X028460Y024600D02*
X028460Y024564D01*
X028461Y024555D01*
X028465Y024547D01*
X028470Y024540D01*
X028470Y024530D02*
X028458Y024547D01*
X028447Y024566D01*
X028439Y024586D01*
X028434Y024607D01*
X028432Y024628D01*
X028433Y024650D01*
D21*
X026430Y013240D03*
X024340Y009380D03*
X035160Y011420D03*
X015560Y029520D03*
X007740Y013460D03*
M02*
