G75*
%MOIN*%
%OFA0B0*%
%FSLAX24Y24*%
%IPPOS*%
%LPD*%
%AMOC8*
5,1,8,0,0,1.08239X$1,22.5*
%
%ADD10R,0.0660X0.0190*%
%ADD11R,0.0190X0.0660*%
%ADD12R,0.0660X0.0220*%
%ADD13R,0.0474X0.0513*%
%ADD14C,0.0640*%
%ADD15R,0.0513X0.0474*%
%ADD16R,0.0680X0.0680*%
%ADD17C,0.0680*%
%ADD18OC8,0.0680*%
%ADD19R,0.0340X0.0880*%
%ADD20C,0.0860*%
%ADD21C,0.0555*%
%ADD22C,0.0671*%
D10*
X013550Y015230D03*
X013550Y015420D03*
X013550Y015620D03*
X013550Y015820D03*
X013550Y016010D03*
X013550Y016210D03*
X013550Y016410D03*
X013550Y016610D03*
X013550Y016800D03*
X013550Y017000D03*
X013550Y017200D03*
X013550Y017390D03*
X016870Y017390D03*
X016870Y017200D03*
X016870Y017000D03*
X016870Y016800D03*
X016870Y016610D03*
X016870Y016410D03*
X016870Y016210D03*
X016870Y016010D03*
X016870Y015820D03*
X016870Y015620D03*
X016870Y015420D03*
X016870Y015230D03*
X015620Y026530D03*
X015620Y026720D03*
X015620Y026920D03*
X015620Y027120D03*
X015620Y027310D03*
X015620Y027510D03*
X015620Y027710D03*
X015620Y027910D03*
X015620Y028100D03*
X015620Y028300D03*
X015620Y028500D03*
X015620Y028690D03*
X012300Y028690D03*
X012300Y028500D03*
X012300Y028300D03*
X012300Y028100D03*
X012300Y027910D03*
X012300Y027710D03*
X012300Y027510D03*
X012300Y027310D03*
X012300Y027120D03*
X012300Y026920D03*
X012300Y026720D03*
X012300Y026530D03*
D11*
X012880Y025950D03*
X013070Y025950D03*
X013270Y025950D03*
X013470Y025950D03*
X013660Y025950D03*
X013860Y025950D03*
X014060Y025950D03*
X014260Y025950D03*
X014450Y025950D03*
X014650Y025950D03*
X014850Y025950D03*
X015040Y025950D03*
X015040Y029270D03*
X014850Y029270D03*
X014650Y029270D03*
X014450Y029270D03*
X014260Y029270D03*
X014060Y029270D03*
X013860Y029270D03*
X013660Y029270D03*
X013470Y029270D03*
X013270Y029270D03*
X013070Y029270D03*
X012880Y029270D03*
X014130Y017970D03*
X014320Y017970D03*
X014520Y017970D03*
X014720Y017970D03*
X014910Y017970D03*
X015110Y017970D03*
X015310Y017970D03*
X015510Y017970D03*
X015700Y017970D03*
X015900Y017970D03*
X016100Y017970D03*
X016290Y017970D03*
X016290Y014650D03*
X016100Y014650D03*
X015900Y014650D03*
X015700Y014650D03*
X015510Y014650D03*
X015310Y014650D03*
X015110Y014650D03*
X014910Y014650D03*
X014720Y014650D03*
X014520Y014650D03*
X014320Y014650D03*
X014130Y014650D03*
D12*
X024400Y014730D03*
X024400Y014480D03*
X024400Y014220D03*
X024400Y013960D03*
X024400Y014990D03*
X024400Y015240D03*
X024400Y015500D03*
X024400Y015760D03*
X026620Y015760D03*
X026620Y015500D03*
X026620Y015240D03*
X026620Y014990D03*
X026620Y014730D03*
X026620Y014480D03*
X026620Y014220D03*
X026620Y013960D03*
X030300Y015160D03*
X030300Y015420D03*
X030300Y015680D03*
X030300Y015930D03*
X030300Y016190D03*
X030300Y016440D03*
X030300Y016700D03*
X030300Y016960D03*
X032520Y016960D03*
X032520Y016700D03*
X032520Y016440D03*
X032520Y016190D03*
X032520Y015930D03*
X032520Y015680D03*
X032520Y015420D03*
X032520Y015160D03*
X032520Y011710D03*
X032520Y011460D03*
X032520Y011200D03*
X032520Y010940D03*
X032520Y010690D03*
X032520Y010430D03*
X032520Y010180D03*
X032520Y009920D03*
X032520Y009660D03*
X032520Y009410D03*
X030300Y009410D03*
X030300Y009660D03*
X030300Y009920D03*
X030300Y010180D03*
X030300Y010430D03*
X030300Y010690D03*
X030300Y010940D03*
X030300Y011200D03*
X030300Y011460D03*
X030300Y011710D03*
X026520Y021860D03*
X026520Y022120D03*
X026520Y022380D03*
X026520Y022630D03*
X026520Y022890D03*
X026520Y023140D03*
X026520Y023400D03*
X026520Y023660D03*
X024300Y023660D03*
X024300Y023400D03*
X024300Y023140D03*
X024300Y022890D03*
X024300Y022630D03*
X024300Y022380D03*
X024300Y022120D03*
X024300Y021860D03*
X024500Y030860D03*
X024500Y031120D03*
X024500Y031380D03*
X024500Y031630D03*
X024500Y031890D03*
X024500Y032140D03*
X024500Y032400D03*
X024500Y032660D03*
X026720Y032660D03*
X026720Y032400D03*
X026720Y032140D03*
X026720Y031890D03*
X026720Y031630D03*
X026720Y031380D03*
X026720Y031120D03*
X026720Y030860D03*
D13*
X027620Y033055D03*
X027620Y033725D03*
X026800Y033765D03*
X026800Y034435D03*
X025730Y034445D03*
X025730Y033775D03*
X017860Y026545D03*
X017860Y025875D03*
X017060Y025875D03*
X017060Y026545D03*
X011460Y026295D03*
X011460Y026965D03*
X010660Y026965D03*
X010660Y026295D03*
X012600Y015875D03*
X012600Y015205D03*
X012120Y014665D03*
X012120Y013995D03*
X016710Y014295D03*
X016710Y013625D03*
X018110Y013965D03*
X018110Y014635D03*
X023510Y015045D03*
X023510Y015715D03*
X025940Y012435D03*
X025940Y011765D03*
X027300Y016155D03*
X027300Y016825D03*
X028110Y016825D03*
X028110Y016155D03*
X026410Y020325D03*
X026410Y020995D03*
X025310Y020995D03*
X025310Y020325D03*
X026400Y024395D03*
X026400Y025065D03*
X027270Y025035D03*
X027270Y024365D03*
X035810Y015195D03*
X035810Y014525D03*
X035810Y013595D03*
X035810Y012925D03*
X034410Y013195D03*
X034410Y012525D03*
D14*
X016460Y021010D02*
X015900Y021010D01*
X015900Y022010D02*
X016460Y022010D01*
X016460Y023010D02*
X015900Y023010D01*
X014900Y023010D02*
X014340Y023010D01*
X014340Y022010D02*
X014900Y022010D01*
X014900Y021010D02*
X014340Y021010D01*
X013040Y021010D02*
X012480Y021010D01*
X012480Y022010D02*
X013040Y022010D01*
X013040Y023010D02*
X012480Y023010D01*
D15*
X021585Y015040D03*
X022255Y015040D03*
X022255Y014160D03*
X021585Y014160D03*
X021585Y013160D03*
X022255Y013160D03*
X022255Y012160D03*
X021585Y012160D03*
X022075Y011160D03*
X022745Y011160D03*
X022745Y010160D03*
X022075Y010160D03*
X022075Y009160D03*
X022745Y009160D03*
X022745Y008160D03*
X022075Y008160D03*
X024525Y011840D03*
X025195Y011840D03*
X024505Y012940D03*
X023835Y012940D03*
X027575Y012060D03*
X028245Y012060D03*
X029515Y012650D03*
X030185Y012650D03*
X031075Y013060D03*
X031745Y013060D03*
X032575Y013060D03*
X033245Y013060D03*
X033245Y014060D03*
X032575Y014060D03*
X034075Y014060D03*
X034745Y014060D03*
X034745Y015060D03*
X034075Y015060D03*
X030845Y018160D03*
X030175Y018160D03*
X029345Y018160D03*
X028675Y018160D03*
X030175Y019260D03*
X030845Y019260D03*
X030835Y023440D03*
X030165Y023440D03*
X029345Y023430D03*
X028675Y023430D03*
X030165Y024860D03*
X030835Y024860D03*
X028675Y026810D03*
X028005Y026810D03*
X025895Y027600D03*
X025225Y027600D03*
X025215Y028410D03*
X025885Y028410D03*
X026195Y029210D03*
X025525Y029210D03*
X022745Y029660D03*
X022075Y029660D03*
X022075Y030660D03*
X022745Y030660D03*
X022745Y031760D03*
X022075Y031760D03*
X022075Y032760D03*
X022745Y032760D03*
X022745Y033860D03*
X022075Y033860D03*
X022075Y034960D03*
X022745Y034960D03*
X028575Y031860D03*
X029245Y031860D03*
X030075Y031860D03*
X030745Y031860D03*
X030745Y032960D03*
X030075Y032960D03*
X022745Y028660D03*
X022075Y028660D03*
X022075Y027660D03*
X022745Y027660D03*
X022925Y025620D03*
X022255Y025620D03*
X022255Y024780D03*
X022925Y024780D03*
X022945Y023960D03*
X022275Y023960D03*
X022055Y022540D03*
X022725Y022540D03*
X022745Y021060D03*
X022075Y021060D03*
X022075Y020060D03*
X022745Y020060D03*
X022745Y019060D03*
X022075Y019060D03*
X022075Y018060D03*
X022745Y018060D03*
X023865Y018310D03*
X024535Y018310D03*
D16*
X028170Y013900D03*
D17*
X029170Y013900D03*
X030170Y013900D03*
D18*
X029710Y004960D03*
X028710Y004960D03*
X028710Y003960D03*
X029710Y003960D03*
X030710Y003960D03*
X031710Y003960D03*
X031710Y004960D03*
X030710Y004960D03*
X032710Y004960D03*
X032710Y003960D03*
X033710Y003960D03*
X033710Y004960D03*
X027710Y004960D03*
X027710Y003960D03*
X026710Y003960D03*
X025710Y003960D03*
X025710Y004960D03*
X026710Y004960D03*
X024710Y004960D03*
X024710Y003960D03*
X023710Y003960D03*
X022710Y003960D03*
X022710Y004960D03*
X023710Y004960D03*
X021710Y004960D03*
X020710Y004960D03*
X020710Y003960D03*
X021710Y003960D03*
X019710Y003960D03*
X019710Y004960D03*
X018710Y004960D03*
X017710Y004960D03*
X017710Y003960D03*
X018710Y003960D03*
X016710Y003960D03*
X015710Y003960D03*
X015710Y004960D03*
X016710Y004960D03*
X014710Y004960D03*
X014710Y003960D03*
X005310Y016380D03*
X005310Y017380D03*
X004310Y017380D03*
X004310Y016380D03*
X004310Y018380D03*
X005310Y018380D03*
X005310Y019380D03*
X005310Y020380D03*
X004310Y020380D03*
X004310Y019380D03*
X004310Y021380D03*
X004310Y022380D03*
X005310Y022380D03*
X005310Y021380D03*
X005310Y023380D03*
X004310Y023380D03*
X004310Y024380D03*
X004310Y025380D03*
X005310Y025380D03*
X005310Y024380D03*
X005310Y026380D03*
X004310Y026380D03*
X004310Y027380D03*
X004310Y028380D03*
X005310Y028380D03*
X005310Y027380D03*
X005310Y029380D03*
X004310Y029380D03*
X004310Y030380D03*
X004310Y031380D03*
X005310Y031380D03*
X005310Y030380D03*
X005310Y032380D03*
X005310Y033380D03*
X004310Y033380D03*
X004310Y032380D03*
X004310Y034380D03*
X005310Y034380D03*
X005310Y035380D03*
X004310Y035380D03*
D19*
X017260Y033070D03*
X017760Y033070D03*
X018260Y033070D03*
X018760Y033070D03*
X019260Y033070D03*
X019760Y033070D03*
X020260Y033070D03*
X020760Y033070D03*
X020760Y030650D03*
X020260Y030650D03*
X019760Y030650D03*
X019260Y030650D03*
X018760Y030650D03*
X018260Y030650D03*
X017760Y030650D03*
X017260Y030650D03*
X018050Y023730D03*
X018550Y023730D03*
X019050Y023730D03*
X019550Y023730D03*
X020050Y023730D03*
X020550Y023730D03*
X021050Y023730D03*
X021550Y023730D03*
X021550Y021310D03*
X021050Y021310D03*
X020550Y021310D03*
X020050Y021310D03*
X019550Y021310D03*
X019050Y021310D03*
X018550Y021310D03*
X018050Y021310D03*
X018260Y012470D03*
X017760Y012470D03*
X017260Y012470D03*
X018760Y012470D03*
X019260Y012470D03*
X019760Y012470D03*
X020260Y012470D03*
X020760Y012470D03*
X020760Y010050D03*
X020260Y010050D03*
X019760Y010050D03*
X019260Y010050D03*
X018760Y010050D03*
X018260Y010050D03*
X017760Y010050D03*
X017260Y010050D03*
D20*
X005550Y003470D02*
X004770Y003470D01*
X004770Y005440D02*
X005550Y005440D01*
X005550Y007410D02*
X004770Y007410D01*
X004770Y009390D02*
X005550Y009390D01*
X005550Y011360D02*
X004770Y011360D01*
X004770Y013330D02*
X005550Y013330D01*
D21*
X009480Y009390D03*
X012770Y012000D03*
X012290Y012580D03*
X014590Y015300D03*
X015910Y016330D03*
X015460Y016710D03*
X014610Y017260D03*
X012660Y016520D03*
X016510Y018820D03*
X016870Y018240D03*
X018490Y019160D03*
X018140Y020120D03*
X019830Y019420D03*
X019830Y018700D03*
X018610Y015750D03*
X019510Y014860D03*
X020120Y013560D03*
X020310Y011360D03*
X017810Y013260D03*
X016370Y011640D03*
X016310Y010660D03*
X017550Y009080D03*
X018310Y008560D03*
X023710Y008360D03*
X023550Y014080D03*
X025060Y014660D03*
X025910Y014280D03*
X027370Y014710D03*
X026510Y016500D03*
X025670Y016930D03*
X025510Y019280D03*
X024140Y020740D03*
X025040Y022450D03*
X027710Y021360D03*
X027850Y020240D03*
X028610Y019060D03*
X029410Y019260D03*
X030010Y020960D03*
X028930Y021490D03*
X028470Y024540D03*
X027680Y026070D03*
X028690Y028460D03*
X027080Y030310D03*
X025650Y030270D03*
X024410Y030260D03*
X024380Y028310D03*
X024570Y026760D03*
X024010Y026260D03*
X020700Y024840D03*
X020150Y026540D03*
X019510Y027310D03*
X018360Y027480D03*
X017580Y027250D03*
X016560Y027680D03*
X014730Y027550D03*
X014070Y027550D03*
X011420Y027680D03*
X009960Y026410D03*
X009760Y027450D03*
X015510Y031760D03*
X017730Y034140D03*
X019870Y034110D03*
X018310Y031660D03*
X023440Y034570D03*
X028510Y032760D03*
X028670Y030800D03*
X020870Y022540D03*
X018810Y022150D03*
X018190Y022660D03*
X016760Y024100D03*
X017360Y024760D03*
X031210Y016460D03*
X031710Y015660D03*
X031410Y014360D03*
X033660Y012480D03*
X034220Y016120D03*
X032590Y018150D03*
X028900Y002670D03*
D22*
X024340Y009380D03*
X026430Y013240D03*
X035160Y011420D03*
X015560Y029520D03*
X007740Y013460D03*
M02*
