G75*
%MOIN*%
%OFA0B0*%
%FSLAX24Y24*%
%IPPOS*%
%LPD*%
%AMOC8*
5,1,8,0,0,1.08239X$1,22.5*
%
%ADD10C,0.0560*%
%ADD11R,0.0600X0.0600*%
%ADD12C,0.0600*%
%ADD13OC8,0.0600*%
%ADD14C,0.0780*%
%ADD15C,0.0475*%
%ADD16C,0.0120*%
%ADD17C,0.0240*%
%ADD18C,0.0100*%
%ADD19C,0.0400*%
%ADD20C,0.0200*%
%ADD21C,0.0591*%
D10*
X012480Y021010D02*
X013040Y021010D01*
X013040Y022010D02*
X012480Y022010D01*
X012480Y023010D02*
X013040Y023010D01*
X014340Y023010D02*
X014900Y023010D01*
X014900Y022010D02*
X014340Y022010D01*
X014340Y021010D02*
X014900Y021010D01*
X015900Y021010D02*
X016460Y021010D01*
X016460Y022010D02*
X015900Y022010D01*
X015900Y023010D02*
X016460Y023010D01*
D11*
X028210Y013060D03*
X034310Y017760D03*
D12*
X033310Y017760D03*
X032310Y017760D03*
X030210Y013060D03*
X029210Y013060D03*
D13*
X028710Y004960D03*
X029710Y004960D03*
X029710Y003960D03*
X028710Y003960D03*
X027710Y003960D03*
X027710Y004960D03*
X026710Y004960D03*
X025710Y004960D03*
X025710Y003960D03*
X026710Y003960D03*
X024710Y003960D03*
X024710Y004960D03*
X023710Y004960D03*
X022710Y004960D03*
X022710Y003960D03*
X023710Y003960D03*
X021710Y003960D03*
X020710Y003960D03*
X020710Y004960D03*
X021710Y004960D03*
X019710Y004960D03*
X019710Y003960D03*
X018710Y003960D03*
X017710Y003960D03*
X017710Y004960D03*
X018710Y004960D03*
X016710Y004960D03*
X015710Y004960D03*
X015710Y003960D03*
X016710Y003960D03*
X014710Y003960D03*
X014710Y004960D03*
X005310Y016380D03*
X005310Y017380D03*
X004310Y017380D03*
X004310Y016380D03*
X004310Y018380D03*
X005310Y018380D03*
X005310Y019380D03*
X005310Y020380D03*
X004310Y020380D03*
X004310Y019380D03*
X004310Y021380D03*
X004310Y022380D03*
X005310Y022380D03*
X005310Y021380D03*
X005310Y023380D03*
X004310Y023380D03*
X004310Y024380D03*
X004310Y025380D03*
X005310Y025380D03*
X005310Y024380D03*
X005310Y026380D03*
X004310Y026380D03*
X004310Y027380D03*
X004310Y028380D03*
X005310Y028380D03*
X005310Y027380D03*
X005310Y029380D03*
X004310Y029380D03*
X004310Y030380D03*
X004310Y031380D03*
X005310Y031380D03*
X005310Y030380D03*
X005310Y032380D03*
X005310Y033380D03*
X004310Y033380D03*
X004310Y032380D03*
X004310Y034380D03*
X005310Y034380D03*
X005310Y035380D03*
X004310Y035380D03*
X030710Y004960D03*
X031710Y004960D03*
X031710Y003960D03*
X030710Y003960D03*
X032710Y003960D03*
X032710Y004960D03*
X033710Y004960D03*
X033710Y003960D03*
D14*
X005550Y003470D02*
X004770Y003470D01*
X004770Y005440D02*
X005550Y005440D01*
X005550Y007410D02*
X004770Y007410D01*
X004770Y009390D02*
X005550Y009390D01*
X005550Y011360D02*
X004770Y011360D01*
X004770Y013330D02*
X005550Y013330D01*
D15*
X002340Y012250D03*
X009480Y009390D03*
X012770Y012000D03*
X012290Y012580D03*
X014590Y015300D03*
X015910Y016330D03*
X015460Y016710D03*
X014610Y017260D03*
X012660Y016520D03*
X016510Y018820D03*
X016870Y018240D03*
X018490Y019160D03*
X018140Y020120D03*
X019830Y019420D03*
X019830Y018700D03*
X019020Y016160D03*
X018610Y015750D03*
X019510Y014860D03*
X019810Y013280D03*
X020310Y011360D03*
X017810Y013260D03*
X016370Y011640D03*
X016310Y010660D03*
X017550Y009080D03*
X018310Y008560D03*
X023710Y008360D03*
X024830Y013280D03*
X025910Y014280D03*
X025060Y014660D03*
X027810Y015360D03*
X031210Y016460D03*
X031710Y015660D03*
X031410Y014360D03*
X033660Y012480D03*
X029410Y019260D03*
X028610Y019060D03*
X030010Y020960D03*
X031810Y020860D03*
X028470Y024540D03*
X027310Y023460D03*
X027710Y021360D03*
X025310Y019760D03*
X025510Y018760D03*
X023960Y021070D03*
X025010Y022460D03*
X024010Y026260D03*
X024570Y026760D03*
X023750Y027960D03*
X023710Y029560D03*
X024410Y030260D03*
X024990Y033320D03*
X027610Y032360D03*
X028510Y032760D03*
X028680Y030810D03*
X028680Y028610D03*
X021710Y026260D03*
X020360Y026760D03*
X018360Y027480D03*
X017580Y027250D03*
X016580Y027690D03*
X014880Y027300D03*
X014290Y027580D03*
X011420Y027680D03*
X009960Y026410D03*
X009760Y027460D03*
X015510Y031760D03*
X017730Y034140D03*
X019810Y033960D03*
X018310Y031660D03*
X017360Y024760D03*
X016760Y024100D03*
X018190Y022660D03*
X018810Y022150D03*
X020870Y022540D03*
X020530Y024620D03*
X011260Y035110D03*
X028900Y002670D03*
D16*
X000611Y000681D02*
X000659Y037297D01*
X037579Y037345D01*
X037481Y000729D01*
X000611Y000681D01*
X000611Y000734D02*
X037481Y000734D01*
X037482Y000853D02*
X000611Y000853D01*
X000611Y000971D02*
X037482Y000971D01*
X037482Y001090D02*
X000611Y001090D01*
X000611Y001208D02*
X037483Y001208D01*
X037483Y001327D02*
X000611Y001327D01*
X000612Y001445D02*
X037483Y001445D01*
X037484Y001564D02*
X000612Y001564D01*
X000612Y001682D02*
X037484Y001682D01*
X037484Y001801D02*
X028399Y001801D01*
X028397Y001800D02*
X028890Y002293D01*
X028975Y002293D01*
X029114Y002350D01*
X029220Y002456D01*
X029277Y002595D01*
X029277Y002620D01*
X035462Y002620D01*
X035557Y002660D01*
X035957Y003060D01*
X035958Y003060D01*
X035994Y003097D01*
X036030Y003133D01*
X036031Y003133D01*
X036050Y003181D01*
X036070Y003228D01*
X036070Y003229D01*
X036070Y003281D01*
X036070Y003332D01*
X036050Y012900D01*
X036053Y012911D01*
X036050Y012951D01*
X036050Y012992D01*
X036046Y013003D01*
X036045Y013014D01*
X036026Y013050D01*
X036010Y013088D01*
X036002Y013096D01*
X035997Y013106D01*
X035966Y013132D01*
X035937Y013161D01*
X035926Y013165D01*
X031786Y016652D01*
X031757Y016680D01*
X031747Y016685D01*
X031738Y016692D01*
X031699Y016704D01*
X031662Y016720D01*
X031650Y016720D01*
X031639Y016723D01*
X031599Y016720D01*
X031484Y016720D01*
X031470Y016734D01*
X031470Y019462D01*
X031430Y019557D01*
X030830Y020157D01*
X030757Y020230D01*
X030662Y020270D01*
X029168Y020270D01*
X028087Y021350D01*
X028087Y021435D01*
X028060Y021501D01*
X028060Y021542D01*
X028020Y021637D01*
X027947Y021710D01*
X027852Y021750D01*
X027748Y021750D01*
X027718Y021737D01*
X027635Y021737D01*
X027496Y021680D01*
X027470Y021654D01*
X027470Y023050D01*
X027552Y023050D01*
X027647Y023090D01*
X027720Y023163D01*
X027760Y023258D01*
X027760Y023362D01*
X027720Y023457D01*
X027687Y023490D01*
X027687Y023500D01*
X027740Y023553D01*
X027770Y023624D01*
X027770Y022128D01*
X027810Y022033D01*
X027883Y021960D01*
X028065Y021777D01*
X028065Y021777D01*
X028065Y021603D01*
X028131Y021443D01*
X028253Y021321D01*
X028413Y021255D01*
X028568Y021255D01*
X028593Y021230D01*
X028688Y021190D01*
X028792Y021190D01*
X028887Y021230D01*
X028960Y021303D01*
X028988Y021369D01*
X029000Y021381D01*
X029000Y021397D01*
X029009Y021409D01*
X029000Y021474D01*
X029000Y021539D01*
X028989Y021550D01*
X028987Y021565D01*
X028968Y021579D01*
X028960Y021597D01*
X028935Y021622D01*
X028935Y021773D01*
X028950Y021808D01*
X028950Y021912D01*
X028910Y022007D01*
X028837Y022080D01*
X028742Y022120D01*
X028608Y022120D01*
X028604Y022118D01*
X028587Y022125D01*
X028452Y022125D01*
X028290Y022288D01*
X028290Y023842D01*
X037543Y023842D01*
X037543Y023724D02*
X028290Y023724D01*
X028290Y023842D02*
X028250Y023937D01*
X027670Y024518D01*
X027670Y028096D01*
X027680Y028073D01*
X027753Y028000D01*
X028243Y027510D01*
X028338Y027470D01*
X029002Y027470D01*
X029097Y027510D01*
X029170Y027583D01*
X029920Y028333D01*
X029960Y028428D01*
X029960Y034072D01*
X029920Y034167D01*
X029847Y034240D01*
X027457Y036630D01*
X027362Y036670D01*
X003908Y036670D01*
X003813Y036630D01*
X003740Y036557D01*
X002380Y035197D01*
X002340Y035102D01*
X002340Y023536D01*
X002319Y023587D01*
X002211Y023695D01*
X002211Y023698D01*
X002210Y023700D01*
X002210Y023702D01*
X002204Y023715D01*
X002203Y023730D01*
X002186Y023761D01*
X002173Y023794D01*
X002171Y023795D01*
X002170Y023797D01*
X002160Y023808D01*
X002153Y023821D01*
X002125Y023843D01*
X002101Y023868D01*
X002099Y023869D01*
X002097Y023870D01*
X002084Y023876D01*
X002072Y023885D01*
X002038Y023895D01*
X002006Y023909D01*
X002004Y023909D01*
X002002Y023910D01*
X001987Y023910D01*
X001973Y023914D01*
X001938Y023910D01*
X001902Y023911D01*
X001900Y023910D01*
X001888Y023910D01*
X001871Y023903D01*
X001870Y023903D01*
X001868Y023901D01*
X001793Y023870D01*
X001720Y023797D01*
X001680Y023702D01*
X001680Y023686D01*
X001638Y023643D01*
X001628Y023644D01*
X001614Y023640D01*
X001598Y023640D01*
X001564Y023626D01*
X001529Y023616D01*
X001517Y023606D01*
X001503Y023600D01*
X001477Y023574D01*
X001448Y023552D01*
X001440Y023538D01*
X001430Y023527D01*
X001416Y023493D01*
X001398Y023461D01*
X001396Y023446D01*
X001390Y023432D01*
X001390Y023395D01*
X001386Y023358D01*
X001390Y023344D01*
X001390Y023328D01*
X001404Y023294D01*
X001414Y023259D01*
X001424Y023247D01*
X001430Y023233D01*
X001456Y023207D01*
X001478Y023178D01*
X001492Y023170D01*
X001503Y023160D01*
X001537Y023146D01*
X001566Y023129D01*
X001581Y023093D01*
X001680Y022994D01*
X001680Y022992D01*
X001679Y022942D01*
X001680Y022940D01*
X001680Y022938D01*
X001699Y022892D01*
X001717Y022846D01*
X001719Y022845D01*
X001720Y022843D01*
X001755Y022808D01*
X001789Y022772D01*
X001791Y022771D01*
X001793Y022770D01*
X001839Y022751D01*
X001879Y022733D01*
X001860Y014780D01*
X001855Y014758D01*
X001860Y014729D01*
X001860Y014699D01*
X001868Y014678D01*
X001872Y014656D01*
X001888Y014631D01*
X001899Y014603D01*
X001915Y014587D01*
X001988Y014471D01*
X002000Y014443D01*
X002015Y014427D01*
X002027Y014408D01*
X002051Y014391D01*
X003260Y013183D01*
X003260Y013183D01*
X003333Y013110D01*
X003428Y013070D01*
X004304Y013070D01*
X004321Y013030D01*
X004470Y012881D01*
X004665Y012800D01*
X005655Y012800D01*
X005850Y012881D01*
X005999Y013030D01*
X006016Y013070D01*
X006492Y013070D01*
X006960Y012602D01*
X006960Y011068D01*
X006542Y010650D01*
X004618Y010650D01*
X004523Y010610D01*
X004450Y010537D01*
X003740Y009827D01*
X003700Y009732D01*
X003700Y004812D01*
X003697Y004802D01*
X003700Y004760D01*
X003700Y004718D01*
X003704Y004709D01*
X003705Y004699D01*
X003724Y004662D01*
X003740Y004623D01*
X003747Y004616D01*
X003751Y004607D01*
X003783Y004579D01*
X003813Y004550D01*
X003822Y004546D01*
X004143Y004269D01*
X004173Y004240D01*
X004182Y004236D01*
X004190Y004229D01*
X004229Y004216D01*
X004268Y004200D01*
X004278Y004200D01*
X004288Y004197D01*
X004330Y004200D01*
X011222Y004200D01*
X012483Y002940D01*
X012578Y002900D01*
X019372Y002900D01*
X019467Y002940D01*
X019540Y003013D01*
X019710Y003182D01*
X019873Y003020D01*
X019968Y002980D01*
X028392Y002980D01*
X028440Y003000D01*
X028710Y003000D01*
X028686Y002990D01*
X028580Y002884D01*
X028523Y002745D01*
X028523Y002660D01*
X028142Y002280D01*
X004739Y002280D01*
X003489Y003547D01*
X003441Y010028D01*
X004427Y010954D01*
X004470Y010911D01*
X004665Y010830D01*
X005655Y010830D01*
X005850Y010911D01*
X005999Y011060D01*
X006080Y011255D01*
X006080Y011465D01*
X005999Y011660D01*
X005850Y011809D01*
X005655Y011890D01*
X004665Y011890D01*
X004470Y011809D01*
X004321Y011660D01*
X004258Y011508D01*
X003036Y010361D01*
X003031Y010359D01*
X002998Y010326D01*
X002964Y010294D01*
X002962Y010289D01*
X002958Y010286D01*
X002941Y010242D01*
X002922Y010200D01*
X002922Y010195D01*
X002920Y010190D01*
X002920Y010143D01*
X002918Y010097D01*
X002920Y010092D01*
X002970Y003440D01*
X002970Y003390D01*
X002970Y003388D01*
X002970Y003386D01*
X002990Y003340D01*
X003009Y003294D01*
X003010Y003293D01*
X003011Y003291D01*
X003046Y003256D01*
X004409Y001874D01*
X004410Y001873D01*
X004445Y001837D01*
X004481Y001801D01*
X000612Y001801D01*
X000612Y001919D02*
X004364Y001919D01*
X004481Y001801D02*
X004482Y001800D01*
X004483Y001800D01*
X004530Y001780D01*
X004576Y001760D01*
X004577Y001760D01*
X004578Y001760D01*
X004629Y001760D01*
X004680Y001760D01*
X004681Y001760D01*
X028302Y001760D01*
X028397Y001800D01*
X028517Y001919D02*
X037484Y001919D01*
X037485Y002038D02*
X028636Y002038D01*
X028754Y002156D02*
X037485Y002156D01*
X037485Y002275D02*
X028873Y002275D01*
X029157Y002393D02*
X037486Y002393D01*
X037486Y002512D02*
X029243Y002512D01*
X028682Y002986D02*
X028406Y002986D01*
X028573Y002867D02*
X004160Y002867D01*
X004276Y002749D02*
X028524Y002749D01*
X028493Y002630D02*
X004393Y002630D01*
X004510Y002512D02*
X028374Y002512D01*
X028256Y002393D02*
X004627Y002393D01*
X004247Y002038D02*
X000612Y002038D01*
X000613Y002156D02*
X004130Y002156D01*
X004013Y002275D02*
X000613Y002275D01*
X000613Y002393D02*
X003897Y002393D01*
X003780Y002512D02*
X000613Y002512D01*
X000613Y002630D02*
X003663Y002630D01*
X003546Y002749D02*
X000613Y002749D01*
X000614Y002867D02*
X003429Y002867D01*
X003312Y002986D02*
X000614Y002986D01*
X000614Y003104D02*
X003196Y003104D01*
X003079Y003223D02*
X000614Y003223D01*
X000614Y003341D02*
X002989Y003341D01*
X002970Y003460D02*
X000614Y003460D01*
X000614Y003579D02*
X002969Y003579D01*
X002968Y003697D02*
X000615Y003697D01*
X000615Y003816D02*
X002967Y003816D01*
X002966Y003934D02*
X000615Y003934D01*
X000615Y004053D02*
X002965Y004053D01*
X002965Y004171D02*
X000615Y004171D01*
X000615Y004290D02*
X002964Y004290D01*
X002963Y004408D02*
X000616Y004408D01*
X000616Y004527D02*
X002962Y004527D01*
X002961Y004645D02*
X000616Y004645D01*
X000616Y004764D02*
X002960Y004764D01*
X002959Y004882D02*
X000616Y004882D01*
X000616Y005001D02*
X002958Y005001D01*
X002957Y005119D02*
X000617Y005119D01*
X000617Y005238D02*
X002957Y005238D01*
X002956Y005356D02*
X000617Y005356D01*
X000617Y005475D02*
X002955Y005475D01*
X002954Y005593D02*
X000617Y005593D01*
X000617Y005712D02*
X002953Y005712D01*
X002952Y005830D02*
X000617Y005830D01*
X000618Y005949D02*
X002951Y005949D01*
X002950Y006067D02*
X000618Y006067D01*
X000618Y006186D02*
X002950Y006186D01*
X002949Y006304D02*
X000618Y006304D01*
X000618Y006423D02*
X002948Y006423D01*
X002947Y006541D02*
X000618Y006541D01*
X000619Y006660D02*
X002946Y006660D01*
X002945Y006778D02*
X000619Y006778D01*
X000619Y006897D02*
X002944Y006897D01*
X002943Y007015D02*
X000619Y007015D01*
X000619Y007134D02*
X002942Y007134D01*
X002942Y007252D02*
X000619Y007252D01*
X000620Y007371D02*
X002941Y007371D01*
X002940Y007489D02*
X000620Y007489D01*
X000620Y007608D02*
X002939Y007608D01*
X002938Y007726D02*
X000620Y007726D01*
X000620Y007845D02*
X002937Y007845D01*
X002936Y007963D02*
X000620Y007963D01*
X000620Y008082D02*
X002935Y008082D01*
X002934Y008200D02*
X000621Y008200D01*
X000621Y008319D02*
X002934Y008319D01*
X002933Y008437D02*
X000621Y008437D01*
X000621Y008556D02*
X002932Y008556D01*
X002931Y008674D02*
X000621Y008674D01*
X000621Y008793D02*
X002930Y008793D01*
X002929Y008911D02*
X000622Y008911D01*
X000622Y009030D02*
X002928Y009030D01*
X002927Y009148D02*
X000622Y009148D01*
X000622Y009267D02*
X002927Y009267D01*
X002926Y009385D02*
X000622Y009385D01*
X000622Y009504D02*
X002925Y009504D01*
X002924Y009622D02*
X000623Y009622D01*
X000623Y009741D02*
X002923Y009741D01*
X002922Y009859D02*
X000623Y009859D01*
X000623Y009978D02*
X002921Y009978D01*
X002919Y010096D02*
X000623Y010096D01*
X000623Y010215D02*
X002928Y010215D01*
X003005Y010333D02*
X000623Y010333D01*
X000624Y010452D02*
X003132Y010452D01*
X003258Y010570D02*
X000624Y010570D01*
X000624Y010689D02*
X003385Y010689D01*
X003511Y010807D02*
X000624Y010807D01*
X000624Y010926D02*
X003637Y010926D01*
X003763Y011044D02*
X000624Y011044D01*
X000625Y011163D02*
X003890Y011163D01*
X004016Y011281D02*
X000625Y011281D01*
X000625Y011400D02*
X004142Y011400D01*
X004262Y011518D02*
X000625Y011518D01*
X000625Y011637D02*
X004311Y011637D01*
X004415Y011755D02*
X000625Y011755D01*
X000626Y011874D02*
X004625Y011874D01*
X004613Y012822D02*
X000627Y012822D01*
X000627Y012940D02*
X004410Y012940D01*
X004309Y013059D02*
X000627Y013059D01*
X000627Y013177D02*
X003265Y013177D01*
X003147Y013296D02*
X000627Y013296D01*
X000628Y013414D02*
X003028Y013414D01*
X002910Y013533D02*
X000628Y013533D01*
X000628Y013651D02*
X002791Y013651D01*
X002673Y013770D02*
X000628Y013770D01*
X000628Y013888D02*
X002554Y013888D01*
X002436Y014007D02*
X000628Y014007D01*
X000629Y014125D02*
X002317Y014125D01*
X002199Y014244D02*
X000629Y014244D01*
X000629Y014362D02*
X002080Y014362D01*
X001982Y014481D02*
X000629Y014481D01*
X000629Y014599D02*
X001903Y014599D01*
X001860Y014718D02*
X000629Y014718D01*
X000629Y014836D02*
X001860Y014836D01*
X001860Y014955D02*
X000630Y014955D01*
X000630Y015073D02*
X001861Y015073D01*
X001861Y015192D02*
X000630Y015192D01*
X000630Y015310D02*
X001861Y015310D01*
X001862Y015429D02*
X000630Y015429D01*
X000630Y015547D02*
X001862Y015547D01*
X001862Y015666D02*
X000631Y015666D01*
X000631Y015784D02*
X001862Y015784D01*
X001863Y015903D02*
X000631Y015903D01*
X000631Y016021D02*
X001863Y016021D01*
X001863Y016140D02*
X000631Y016140D01*
X000631Y016258D02*
X001864Y016258D01*
X001864Y016377D02*
X000632Y016377D01*
X000632Y016495D02*
X001864Y016495D01*
X001865Y016614D02*
X000632Y016614D01*
X000632Y016732D02*
X001865Y016732D01*
X001865Y016851D02*
X000632Y016851D01*
X000632Y016969D02*
X001865Y016969D01*
X001866Y017088D02*
X000632Y017088D01*
X000633Y017206D02*
X001866Y017206D01*
X001866Y017325D02*
X000633Y017325D01*
X000633Y017443D02*
X001867Y017443D01*
X001867Y017562D02*
X000633Y017562D01*
X000633Y017680D02*
X001867Y017680D01*
X001867Y017799D02*
X000633Y017799D01*
X000634Y017917D02*
X001868Y017917D01*
X001868Y018036D02*
X000634Y018036D01*
X000634Y018154D02*
X001868Y018154D01*
X001869Y018273D02*
X000634Y018273D01*
X000634Y018391D02*
X001869Y018391D01*
X001869Y018510D02*
X000634Y018510D01*
X000635Y018628D02*
X001869Y018628D01*
X001870Y018747D02*
X000635Y018747D01*
X000635Y018865D02*
X001870Y018865D01*
X001870Y018984D02*
X000635Y018984D01*
X000635Y019102D02*
X001871Y019102D01*
X001871Y019221D02*
X000635Y019221D01*
X000635Y019339D02*
X001871Y019339D01*
X001871Y019458D02*
X000636Y019458D01*
X000636Y019576D02*
X001872Y019576D01*
X001872Y019695D02*
X000636Y019695D01*
X000636Y019813D02*
X001872Y019813D01*
X001873Y019932D02*
X000636Y019932D01*
X000636Y020050D02*
X001873Y020050D01*
X001873Y020169D02*
X000637Y020169D01*
X000637Y020287D02*
X001873Y020287D01*
X001874Y020406D02*
X000637Y020406D01*
X000637Y020524D02*
X001874Y020524D01*
X001874Y020643D02*
X000637Y020643D01*
X000637Y020761D02*
X001875Y020761D01*
X001875Y020880D02*
X000638Y020880D01*
X000638Y020998D02*
X001875Y020998D01*
X001875Y021117D02*
X000638Y021117D01*
X000638Y021235D02*
X001876Y021235D01*
X001876Y021354D02*
X000638Y021354D01*
X000638Y021472D02*
X001876Y021472D01*
X001877Y021591D02*
X000638Y021591D01*
X000639Y021709D02*
X001877Y021709D01*
X001877Y021828D02*
X000639Y021828D01*
X000639Y021946D02*
X001877Y021946D01*
X001878Y022065D02*
X000639Y022065D01*
X000639Y022183D02*
X001878Y022183D01*
X001878Y022302D02*
X000639Y022302D01*
X000640Y022420D02*
X001879Y022420D01*
X001879Y022539D02*
X000640Y022539D01*
X000640Y022657D02*
X001879Y022657D01*
X001786Y022776D02*
X000640Y022776D01*
X000640Y022894D02*
X001698Y022894D01*
X001662Y023013D02*
X000640Y023013D01*
X000641Y023131D02*
X001563Y023131D01*
X001422Y023250D02*
X000641Y023250D01*
X000641Y023368D02*
X001387Y023368D01*
X001412Y023487D02*
X000641Y023487D01*
X000641Y023605D02*
X001514Y023605D01*
X001689Y023724D02*
X000641Y023724D01*
X000641Y023842D02*
X001764Y023842D01*
X002126Y023842D02*
X002340Y023842D01*
X002340Y023724D02*
X002203Y023724D01*
X002301Y023605D02*
X002340Y023605D01*
X002340Y023961D02*
X000642Y023961D01*
X000642Y024079D02*
X002340Y024079D01*
X002340Y024198D02*
X000642Y024198D01*
X000642Y024316D02*
X002340Y024316D01*
X002340Y024435D02*
X000642Y024435D01*
X000642Y024553D02*
X002340Y024553D01*
X002340Y024672D02*
X000643Y024672D01*
X000643Y024790D02*
X002340Y024790D01*
X002340Y024909D02*
X000643Y024909D01*
X000643Y025027D02*
X002340Y025027D01*
X002340Y025146D02*
X000643Y025146D01*
X000643Y025264D02*
X002340Y025264D01*
X002340Y025383D02*
X000644Y025383D01*
X000644Y025501D02*
X002340Y025501D01*
X002340Y025620D02*
X000644Y025620D01*
X000644Y025738D02*
X002340Y025738D01*
X002340Y025857D02*
X000644Y025857D01*
X000644Y025975D02*
X002340Y025975D01*
X002340Y026094D02*
X000644Y026094D01*
X000645Y026212D02*
X002340Y026212D01*
X002340Y026331D02*
X000645Y026331D01*
X000645Y026449D02*
X002340Y026449D01*
X002340Y026568D02*
X000645Y026568D01*
X000645Y026686D02*
X002340Y026686D01*
X002340Y026805D02*
X000645Y026805D01*
X000646Y026923D02*
X002340Y026923D01*
X002340Y027042D02*
X000646Y027042D01*
X000646Y027160D02*
X002340Y027160D01*
X002340Y027279D02*
X000646Y027279D01*
X000646Y027397D02*
X002340Y027397D01*
X002340Y027516D02*
X000646Y027516D01*
X000647Y027634D02*
X002340Y027634D01*
X002340Y027753D02*
X000647Y027753D01*
X000647Y027871D02*
X002340Y027871D01*
X002340Y027990D02*
X000647Y027990D01*
X000647Y028108D02*
X002340Y028108D01*
X002340Y028227D02*
X000647Y028227D01*
X000647Y028345D02*
X002340Y028345D01*
X002340Y028464D02*
X000648Y028464D01*
X000648Y028582D02*
X002340Y028582D01*
X002340Y028701D02*
X000648Y028701D01*
X000648Y028819D02*
X002340Y028819D01*
X002340Y028938D02*
X000648Y028938D01*
X000648Y029056D02*
X002340Y029056D01*
X002340Y029175D02*
X000649Y029175D01*
X000649Y029293D02*
X002340Y029293D01*
X002340Y029412D02*
X000649Y029412D01*
X000649Y029530D02*
X002340Y029530D01*
X002340Y029649D02*
X000649Y029649D01*
X000649Y029767D02*
X002340Y029767D01*
X002340Y029886D02*
X000650Y029886D01*
X000650Y030004D02*
X002340Y030004D01*
X002340Y030123D02*
X000650Y030123D01*
X000650Y030241D02*
X002340Y030241D01*
X002340Y030360D02*
X000650Y030360D01*
X000650Y030478D02*
X002340Y030478D01*
X002340Y030597D02*
X000650Y030597D01*
X000651Y030715D02*
X002340Y030715D01*
X002340Y030834D02*
X000651Y030834D01*
X000651Y030952D02*
X002340Y030952D01*
X002340Y031071D02*
X000651Y031071D01*
X000651Y031189D02*
X002340Y031189D01*
X002340Y031308D02*
X000651Y031308D01*
X000652Y031426D02*
X002340Y031426D01*
X002340Y031545D02*
X000652Y031545D01*
X000652Y031663D02*
X002340Y031663D01*
X002340Y031782D02*
X000652Y031782D01*
X000652Y031900D02*
X002340Y031900D01*
X002340Y032019D02*
X000652Y032019D01*
X000653Y032137D02*
X002340Y032137D01*
X002340Y032256D02*
X000653Y032256D01*
X000653Y032374D02*
X002340Y032374D01*
X002340Y032493D02*
X000653Y032493D01*
X000653Y032611D02*
X002340Y032611D01*
X002340Y032730D02*
X000653Y032730D01*
X000653Y032848D02*
X002340Y032848D01*
X002340Y032967D02*
X000654Y032967D01*
X000654Y033085D02*
X002340Y033085D01*
X002340Y033204D02*
X000654Y033204D01*
X000654Y033322D02*
X002340Y033322D01*
X002340Y033441D02*
X000654Y033441D01*
X000654Y033559D02*
X002340Y033559D01*
X002340Y033678D02*
X000655Y033678D01*
X000655Y033796D02*
X002340Y033796D01*
X002340Y033915D02*
X000655Y033915D01*
X000655Y034033D02*
X002340Y034033D01*
X002340Y034152D02*
X000655Y034152D01*
X000655Y034270D02*
X002340Y034270D01*
X002340Y034389D02*
X000656Y034389D01*
X000656Y034507D02*
X002340Y034507D01*
X002340Y034626D02*
X000656Y034626D01*
X000656Y034744D02*
X002340Y034744D01*
X002340Y034863D02*
X000656Y034863D01*
X000656Y034981D02*
X002340Y034981D01*
X002340Y035100D02*
X000656Y035100D01*
X000657Y035218D02*
X002400Y035218D01*
X002519Y035337D02*
X000657Y035337D01*
X000657Y035455D02*
X002637Y035455D01*
X002756Y035574D02*
X000657Y035574D01*
X000657Y035692D02*
X002874Y035692D01*
X002993Y035811D02*
X000657Y035811D01*
X000658Y035929D02*
X003111Y035929D01*
X003230Y036048D02*
X000658Y036048D01*
X000658Y036166D02*
X003348Y036166D01*
X003467Y036285D02*
X000658Y036285D01*
X000658Y036403D02*
X003585Y036403D01*
X003704Y036522D02*
X000658Y036522D01*
X000659Y036640D02*
X003836Y036640D01*
X004068Y036150D02*
X027202Y036150D01*
X027822Y035530D01*
X027790Y035530D01*
X017968Y035530D01*
X017873Y035490D01*
X017800Y035417D01*
X016840Y034457D01*
X016800Y034362D01*
X016800Y030820D01*
X012778Y030820D01*
X012683Y030780D01*
X012542Y030640D01*
X005672Y030640D01*
X005492Y030820D01*
X005128Y030820D01*
X004870Y030562D01*
X004870Y030198D01*
X005128Y029940D01*
X005492Y029940D01*
X005672Y030120D01*
X012702Y030120D01*
X012797Y030160D01*
X012870Y030233D01*
X012938Y030300D01*
X012982Y030300D01*
X010663Y028001D01*
X010663Y028000D01*
X010626Y027964D01*
X010590Y027928D01*
X010590Y027928D01*
X010590Y027927D01*
X010570Y027880D01*
X010550Y027833D01*
X010550Y027832D01*
X010550Y027781D01*
X010550Y027729D01*
X010550Y019433D01*
X010549Y019385D01*
X010550Y019382D01*
X010550Y019378D01*
X010569Y019333D01*
X010586Y019288D01*
X010588Y019286D01*
X010590Y019283D01*
X010624Y019248D01*
X012735Y017030D01*
X012662Y017060D01*
X012558Y017060D01*
X012463Y017020D01*
X012390Y016947D01*
X012350Y016852D01*
X012350Y016840D01*
X012248Y016840D01*
X012153Y016800D01*
X012080Y016727D01*
X012040Y016632D01*
X012040Y016528D01*
X012080Y016433D01*
X012153Y016360D01*
X012248Y016320D01*
X012334Y016320D01*
X012340Y016306D01*
X012397Y016249D01*
X012381Y014937D01*
X011467Y015850D01*
X011372Y015890D01*
X004148Y015890D01*
X004030Y016008D01*
X004030Y016038D01*
X004128Y015940D01*
X004492Y015940D01*
X004750Y016198D01*
X004750Y016562D01*
X004492Y016820D01*
X004128Y016820D01*
X004028Y016720D01*
X004027Y017041D01*
X004128Y016940D01*
X004492Y016940D01*
X004750Y017198D01*
X004750Y017562D01*
X004492Y017820D01*
X004128Y017820D01*
X004025Y017717D01*
X004024Y018044D01*
X004128Y017940D01*
X004492Y017940D01*
X004750Y018198D01*
X004750Y018562D01*
X004492Y018820D01*
X004128Y018820D01*
X004022Y018714D01*
X004021Y019047D01*
X004128Y018940D01*
X004492Y018940D01*
X004750Y019198D01*
X004750Y019562D01*
X004492Y019820D01*
X004128Y019820D01*
X004019Y019711D01*
X004018Y020050D01*
X004128Y019940D01*
X004492Y019940D01*
X004750Y020198D01*
X004750Y020562D01*
X004492Y020820D01*
X004128Y020820D01*
X004016Y020708D01*
X004015Y021024D01*
X004119Y020920D01*
X004270Y020920D01*
X004270Y021340D01*
X004350Y021340D01*
X004350Y021420D01*
X004270Y021420D01*
X004270Y021840D01*
X004119Y021840D01*
X004013Y021734D01*
X004012Y022056D01*
X004128Y021940D01*
X004492Y021940D01*
X004750Y022198D01*
X004750Y022562D01*
X004492Y022820D01*
X004131Y022820D01*
X004247Y022940D01*
X004492Y022940D01*
X004750Y023198D01*
X004750Y023562D01*
X004492Y023820D01*
X004128Y023820D01*
X003870Y023562D01*
X003870Y023299D01*
X003620Y023040D01*
X003620Y023422D01*
X004138Y023940D01*
X004492Y023940D01*
X004750Y024198D01*
X004750Y024562D01*
X004492Y024820D01*
X004128Y024820D01*
X003870Y024562D01*
X003870Y024408D01*
X003213Y023750D01*
X003211Y023749D01*
X003210Y024025D01*
X004112Y024956D01*
X004128Y024940D01*
X004492Y024940D01*
X004750Y025198D01*
X004750Y025562D01*
X004492Y025820D01*
X004128Y025820D01*
X003870Y025562D01*
X003870Y025454D01*
X002860Y024411D01*
X002860Y034942D01*
X004068Y036150D01*
X003965Y036048D02*
X027305Y036048D01*
X027423Y035929D02*
X015109Y035929D01*
X015057Y035980D02*
X014962Y036020D01*
X010708Y036020D01*
X010613Y035980D01*
X010540Y035907D01*
X009090Y034457D01*
X009050Y034362D01*
X009050Y031968D01*
X008703Y031621D01*
X005674Y031638D01*
X005492Y031820D01*
X005128Y031820D01*
X004870Y031562D01*
X004870Y031198D01*
X005128Y030940D01*
X005492Y030940D01*
X005670Y031118D01*
X008758Y031100D01*
X008809Y031100D01*
X008860Y031100D01*
X008861Y031100D01*
X008862Y031100D01*
X008909Y031120D01*
X008956Y031139D01*
X008957Y031139D01*
X008957Y031140D01*
X008993Y031176D01*
X009030Y031211D01*
X009030Y031212D01*
X009457Y031640D01*
X009530Y031713D01*
X009570Y031808D01*
X009570Y034202D01*
X010868Y035500D01*
X014802Y035500D01*
X015250Y035052D01*
X015250Y032034D01*
X015236Y032020D01*
X014948Y032020D01*
X014853Y031980D01*
X014780Y031907D01*
X014740Y031812D01*
X014740Y031708D01*
X014780Y031613D01*
X014853Y031540D01*
X014948Y031500D01*
X015236Y031500D01*
X015290Y031446D01*
X015290Y031218D01*
X015330Y031123D01*
X015403Y031050D01*
X015498Y031010D01*
X015602Y031010D01*
X015697Y031050D01*
X015770Y031123D01*
X015810Y031218D01*
X015810Y031500D01*
X015814Y031500D01*
X015859Y031498D01*
X015865Y031500D01*
X015872Y031500D01*
X015913Y031517D01*
X015956Y031533D01*
X015961Y031537D01*
X015967Y031540D01*
X015999Y031572D01*
X016033Y031602D01*
X016036Y031608D01*
X016040Y031613D01*
X016058Y031655D01*
X016077Y031695D01*
X016077Y031702D01*
X016080Y031708D01*
X016080Y031754D01*
X016082Y031799D01*
X016080Y031805D01*
X016080Y031812D01*
X016063Y031853D01*
X016047Y031896D01*
X016043Y031901D01*
X016040Y031907D01*
X016008Y031939D01*
X015978Y031973D01*
X015972Y031976D01*
X015967Y031980D01*
X015925Y031998D01*
X015885Y032017D01*
X015878Y032017D01*
X015872Y032020D01*
X015826Y032020D01*
X015782Y032022D01*
X015770Y032034D01*
X015770Y035212D01*
X015730Y035307D01*
X015057Y035980D01*
X015227Y035811D02*
X027542Y035811D01*
X027660Y035692D02*
X015346Y035692D01*
X015464Y035574D02*
X027779Y035574D01*
X028159Y035929D02*
X037575Y035929D01*
X037575Y035811D02*
X028277Y035811D01*
X028396Y035692D02*
X037574Y035692D01*
X037574Y035574D02*
X028514Y035574D01*
X028633Y035455D02*
X037574Y035455D01*
X037573Y035337D02*
X028751Y035337D01*
X028870Y035218D02*
X037573Y035218D01*
X037573Y035100D02*
X028988Y035100D01*
X029107Y034981D02*
X037573Y034981D01*
X037572Y034863D02*
X029225Y034863D01*
X029344Y034744D02*
X037572Y034744D01*
X037572Y034626D02*
X029462Y034626D01*
X029581Y034507D02*
X037571Y034507D01*
X037571Y034389D02*
X029699Y034389D01*
X029818Y034270D02*
X037571Y034270D01*
X037570Y034152D02*
X029927Y034152D01*
X029960Y034033D02*
X037570Y034033D01*
X037570Y033915D02*
X029960Y033915D01*
X029960Y033796D02*
X037569Y033796D01*
X037569Y033678D02*
X029960Y033678D01*
X029960Y033559D02*
X037569Y033559D01*
X037568Y033441D02*
X029960Y033441D01*
X029960Y033322D02*
X037568Y033322D01*
X037568Y033204D02*
X029960Y033204D01*
X029960Y033085D02*
X037568Y033085D01*
X037567Y032967D02*
X029960Y032967D01*
X029960Y032848D02*
X037567Y032848D01*
X037567Y032730D02*
X029960Y032730D01*
X029960Y032611D02*
X037566Y032611D01*
X037566Y032493D02*
X029960Y032493D01*
X029960Y032374D02*
X037566Y032374D01*
X037565Y032256D02*
X029960Y032256D01*
X029960Y032137D02*
X037565Y032137D01*
X037565Y032019D02*
X029960Y032019D01*
X029960Y031900D02*
X037564Y031900D01*
X037564Y031782D02*
X029960Y031782D01*
X029960Y031663D02*
X037564Y031663D01*
X037563Y031545D02*
X029960Y031545D01*
X029960Y031426D02*
X037563Y031426D01*
X037563Y031308D02*
X029960Y031308D01*
X029960Y031189D02*
X037562Y031189D01*
X037562Y031071D02*
X029960Y031071D01*
X029960Y030952D02*
X037562Y030952D01*
X037562Y030834D02*
X029960Y030834D01*
X029960Y030715D02*
X037561Y030715D01*
X037561Y030597D02*
X029960Y030597D01*
X029960Y030478D02*
X037561Y030478D01*
X037560Y030360D02*
X029960Y030360D01*
X029960Y030241D02*
X037560Y030241D01*
X037560Y030123D02*
X029960Y030123D01*
X029960Y030004D02*
X037559Y030004D01*
X037559Y029886D02*
X029960Y029886D01*
X029960Y029767D02*
X037559Y029767D01*
X037558Y029649D02*
X029960Y029649D01*
X029960Y029530D02*
X037558Y029530D01*
X037558Y029412D02*
X029960Y029412D01*
X029960Y029293D02*
X037557Y029293D01*
X037557Y029175D02*
X029960Y029175D01*
X029960Y029056D02*
X037557Y029056D01*
X037556Y028938D02*
X029960Y028938D01*
X029960Y028819D02*
X037556Y028819D01*
X037556Y028701D02*
X029960Y028701D01*
X029960Y028582D02*
X037556Y028582D01*
X037555Y028464D02*
X029960Y028464D01*
X029926Y028345D02*
X037555Y028345D01*
X037555Y028227D02*
X029814Y028227D01*
X029696Y028108D02*
X037554Y028108D01*
X037554Y027990D02*
X029577Y027990D01*
X029459Y027871D02*
X037554Y027871D01*
X037553Y027753D02*
X029340Y027753D01*
X029222Y027634D02*
X037553Y027634D01*
X037553Y027516D02*
X029103Y027516D01*
X028670Y028260D02*
X028670Y028590D01*
X029010Y028590D01*
X029010Y028570D01*
X028670Y028590D02*
X028270Y028590D01*
X028157Y028760D02*
X028120Y028847D01*
X022210Y034757D01*
X022137Y034830D01*
X022042Y034870D01*
X019118Y034870D01*
X019023Y034830D01*
X018663Y034470D01*
X018590Y034397D01*
X018550Y034302D01*
X018550Y032268D01*
X018448Y032165D01*
X018393Y032220D01*
X018258Y032220D01*
X018247Y032230D01*
X018152Y032270D01*
X018048Y032270D01*
X017953Y032230D01*
X017880Y032157D01*
X017840Y032062D01*
X017840Y031958D01*
X017880Y031863D01*
X017902Y031840D01*
X017837Y031840D01*
X017780Y031783D01*
X017780Y033573D01*
X017788Y033570D01*
X017892Y033570D01*
X017987Y033610D01*
X018060Y033683D01*
X018100Y033778D01*
X018100Y033830D01*
X018152Y033830D01*
X018247Y033870D01*
X018320Y033943D01*
X018360Y034038D01*
X018360Y034142D01*
X018320Y034237D01*
X018217Y034340D01*
X018122Y034380D01*
X018024Y034380D01*
X017944Y034460D01*
X017908Y034475D01*
X017813Y034570D01*
X017688Y034570D01*
X018128Y035010D01*
X027683Y035010D01*
X028950Y033752D01*
X028950Y031314D01*
X028870Y031230D01*
X028870Y031253D01*
X028753Y031370D01*
X028587Y031370D01*
X028470Y031253D01*
X028470Y031132D01*
X028466Y031130D01*
X028366Y031030D01*
X028217Y031030D01*
X028100Y030913D01*
X028100Y030747D01*
X028217Y030630D01*
X028346Y030630D01*
X028360Y030596D01*
X028420Y030536D01*
X028420Y028884D01*
X028360Y028824D01*
X028346Y028790D01*
X028187Y028790D01*
X028157Y028760D01*
X028132Y028819D02*
X028358Y028819D01*
X028420Y028938D02*
X028030Y028938D01*
X027912Y029056D02*
X028420Y029056D01*
X028420Y029175D02*
X027793Y029175D01*
X027675Y029293D02*
X028420Y029293D01*
X028420Y029412D02*
X027556Y029412D01*
X027438Y029530D02*
X028420Y029530D01*
X028420Y029649D02*
X027319Y029649D01*
X027201Y029767D02*
X028420Y029767D01*
X028420Y029886D02*
X027082Y029886D01*
X026964Y030004D02*
X028420Y030004D01*
X028420Y030123D02*
X026845Y030123D01*
X026727Y030241D02*
X028420Y030241D01*
X028420Y030360D02*
X026608Y030360D01*
X026490Y030478D02*
X028420Y030478D01*
X028360Y030597D02*
X026371Y030597D01*
X026253Y030715D02*
X028132Y030715D01*
X028100Y030834D02*
X026134Y030834D01*
X026016Y030952D02*
X028139Y030952D01*
X028300Y030830D02*
X028660Y030830D01*
X028660Y030840D02*
X028670Y030840D01*
X028670Y031170D01*
X028815Y031308D02*
X028944Y031308D01*
X028950Y031426D02*
X025542Y031426D01*
X025660Y031308D02*
X028525Y031308D01*
X028470Y031189D02*
X025779Y031189D01*
X025897Y031071D02*
X028407Y031071D01*
X028950Y031545D02*
X025423Y031545D01*
X025305Y031663D02*
X028950Y031663D01*
X028950Y031782D02*
X027779Y031782D01*
X027757Y031760D02*
X027830Y031833D01*
X027870Y031928D01*
X027870Y032050D01*
X027992Y032050D01*
X028087Y032090D01*
X028160Y032163D01*
X028200Y032258D01*
X028200Y032362D01*
X028190Y032386D01*
X028190Y032453D01*
X028073Y032570D01*
X027932Y032570D01*
X027930Y032574D01*
X027870Y032634D01*
X027870Y032772D01*
X027830Y032867D01*
X027757Y032940D01*
X027662Y032980D01*
X027558Y032980D01*
X027463Y032940D01*
X027390Y032867D01*
X027350Y032772D01*
X027350Y032634D01*
X027290Y032574D01*
X027288Y032570D01*
X025794Y032570D01*
X025658Y032668D01*
X025442Y033050D01*
X025537Y033090D01*
X025610Y033163D01*
X025650Y033258D01*
X025650Y033362D01*
X025610Y033457D01*
X025537Y033530D01*
X025442Y033570D01*
X025320Y033570D01*
X025320Y033732D01*
X025280Y033827D01*
X025167Y033940D01*
X025072Y033980D01*
X024968Y033980D01*
X024873Y033940D01*
X024800Y033867D01*
X024760Y033772D01*
X024760Y033668D01*
X024773Y033637D01*
X024706Y033570D01*
X024488Y033570D01*
X024393Y033530D01*
X024320Y033457D01*
X024280Y033362D01*
X024280Y033258D01*
X024320Y033163D01*
X024393Y033090D01*
X024488Y033050D01*
X024726Y033050D01*
X024776Y033000D01*
X024902Y032948D01*
X025211Y032402D01*
X025212Y032397D01*
X025236Y032357D01*
X025259Y032317D01*
X025263Y032314D01*
X025266Y032309D01*
X025304Y032282D01*
X025341Y032253D01*
X025346Y032252D01*
X025541Y032111D01*
X025563Y032090D01*
X025583Y032081D01*
X025600Y032069D01*
X025630Y032062D01*
X025658Y032050D01*
X025680Y032050D01*
X025701Y032045D01*
X025731Y032050D01*
X027350Y032050D01*
X027350Y031928D01*
X027390Y031833D01*
X027463Y031760D01*
X027558Y031720D01*
X027662Y031720D01*
X027757Y031760D01*
X027858Y031900D02*
X028950Y031900D01*
X028950Y032019D02*
X027870Y032019D01*
X027600Y031970D02*
X027590Y031970D01*
X027590Y032740D01*
X027382Y032848D02*
X025556Y032848D01*
X025623Y032730D02*
X027350Y032730D01*
X027327Y032611D02*
X025737Y032611D01*
X025489Y032967D02*
X027526Y032967D01*
X027694Y032967D02*
X028950Y032967D01*
X028950Y033085D02*
X025526Y033085D01*
X025442Y033050D02*
X025442Y033050D01*
X025627Y033204D02*
X028950Y033204D01*
X028950Y033322D02*
X025650Y033322D01*
X025617Y033441D02*
X028950Y033441D01*
X028950Y033559D02*
X025468Y033559D01*
X025320Y033678D02*
X028950Y033678D01*
X028905Y033796D02*
X025293Y033796D01*
X025193Y033915D02*
X028786Y033915D01*
X028667Y034033D02*
X022935Y034033D01*
X023053Y033915D02*
X024847Y033915D01*
X024770Y033796D02*
X023172Y033796D01*
X023290Y033678D02*
X024760Y033678D01*
X024990Y033690D02*
X024990Y033330D01*
X024970Y033330D01*
X024610Y033300D02*
X025380Y033300D01*
X025380Y033320D01*
X024958Y032848D02*
X024120Y032848D01*
X024238Y032730D02*
X025026Y032730D01*
X025093Y032611D02*
X024357Y032611D01*
X024475Y032493D02*
X025160Y032493D01*
X025226Y032374D02*
X024594Y032374D01*
X024712Y032256D02*
X025338Y032256D01*
X025505Y032137D02*
X024831Y032137D01*
X024949Y032019D02*
X027350Y032019D01*
X027362Y031900D02*
X025068Y031900D01*
X025186Y031782D02*
X027441Y031782D01*
X027660Y032360D02*
X027990Y032360D01*
X027990Y032370D01*
X028150Y032493D02*
X028950Y032493D01*
X028950Y032611D02*
X027893Y032611D01*
X027870Y032730D02*
X028950Y032730D01*
X028950Y032848D02*
X027838Y032848D01*
X028195Y032374D02*
X028950Y032374D01*
X028950Y032256D02*
X028199Y032256D01*
X028135Y032137D02*
X028950Y032137D01*
X028547Y034152D02*
X022816Y034152D01*
X022698Y034270D02*
X028428Y034270D01*
X028309Y034389D02*
X022579Y034389D01*
X022461Y034507D02*
X028189Y034507D01*
X028070Y034626D02*
X022342Y034626D01*
X022224Y034744D02*
X027951Y034744D01*
X027831Y034863D02*
X022060Y034863D01*
X023409Y033559D02*
X024462Y033559D01*
X024313Y033441D02*
X023527Y033441D01*
X023646Y033322D02*
X024280Y033322D01*
X024303Y033204D02*
X023764Y033204D01*
X023883Y033085D02*
X024404Y033085D01*
X024001Y032967D02*
X024857Y032967D01*
X024640Y030320D02*
X024190Y030320D01*
X024390Y030320D02*
X024410Y030310D01*
X024420Y030290D02*
X024390Y030320D01*
X024420Y030290D02*
X024440Y030290D01*
X024010Y029570D02*
X023730Y029570D01*
X023700Y029530D02*
X023700Y029210D01*
X023470Y029175D02*
X016142Y029175D01*
X016242Y029275D02*
X016242Y029275D01*
X016268Y029300D01*
X017812Y029300D01*
X017907Y029340D01*
X017980Y029413D01*
X018457Y029890D01*
X018530Y029963D01*
X018570Y030058D01*
X018570Y031310D01*
X018632Y031310D01*
X018727Y031350D01*
X018840Y031463D01*
X018880Y031558D01*
X018880Y031662D01*
X018850Y031734D01*
X018850Y031743D01*
X018844Y031749D01*
X018840Y031757D01*
X018808Y031790D01*
X019030Y032013D01*
X019070Y032108D01*
X019070Y034142D01*
X019278Y034350D01*
X019590Y034350D01*
X019590Y034348D01*
X019550Y034307D01*
X019510Y034212D01*
X019510Y034200D01*
X019418Y034200D01*
X019323Y034160D01*
X019250Y034087D01*
X019210Y033992D01*
X019210Y033888D01*
X019250Y033793D01*
X019363Y033680D01*
X019450Y033643D01*
X019450Y029908D01*
X019490Y029813D01*
X019563Y029740D01*
X019963Y029340D01*
X020058Y029300D01*
X023436Y029300D01*
X023470Y029266D01*
X023470Y029156D01*
X023460Y029132D01*
X023460Y029028D01*
X023500Y028933D01*
X023573Y028860D01*
X023668Y028820D01*
X023772Y028820D01*
X023867Y028860D01*
X023950Y028943D01*
X023975Y029001D01*
X023978Y029000D01*
X024082Y029000D01*
X024177Y029040D01*
X024250Y029113D01*
X024290Y029208D01*
X024290Y029312D01*
X024275Y029347D01*
X024380Y029243D01*
X024453Y029170D01*
X024470Y029163D01*
X025020Y028612D01*
X025020Y026088D01*
X024178Y025245D01*
X024023Y025245D01*
X023863Y025179D01*
X023741Y025057D01*
X023675Y024897D01*
X023675Y024723D01*
X023741Y024563D01*
X023863Y024441D01*
X024023Y024375D01*
X024197Y024375D01*
X024357Y024441D01*
X024479Y024563D01*
X024545Y024723D01*
X024545Y024878D01*
X025450Y025782D01*
X025450Y023368D01*
X022101Y023368D01*
X021987Y023487D02*
X025450Y023487D01*
X025450Y023605D02*
X021872Y023605D01*
X021758Y023724D02*
X025450Y023724D01*
X025450Y023842D02*
X021643Y023842D01*
X021529Y023961D02*
X025450Y023961D01*
X025450Y024079D02*
X021414Y024079D01*
X021300Y024198D02*
X025450Y024198D01*
X025450Y024316D02*
X021185Y024316D01*
X021071Y024435D02*
X023879Y024435D01*
X023751Y024553D02*
X020956Y024553D01*
X020950Y024559D02*
X020950Y024703D01*
X020872Y024781D01*
X020850Y024834D01*
X020744Y024940D01*
X020640Y024983D01*
X020593Y025030D01*
X020427Y025030D01*
X020352Y024955D01*
X020316Y024940D01*
X020210Y024834D01*
X020195Y024798D01*
X020100Y024703D01*
X020100Y024537D01*
X020195Y024442D01*
X020210Y024406D01*
X020316Y024300D01*
X020455Y024243D01*
X020533Y024243D01*
X023583Y021087D01*
X023583Y021050D01*
X023470Y020937D01*
X023430Y020842D01*
X023430Y020738D01*
X023470Y020643D01*
X023543Y020570D01*
X023638Y020530D01*
X023742Y020530D01*
X023837Y020570D01*
X023960Y020693D01*
X023970Y020693D01*
X024023Y020640D01*
X024118Y020600D01*
X024222Y020600D01*
X024317Y020640D01*
X024390Y020713D01*
X024430Y020808D01*
X024430Y020912D01*
X024390Y021007D01*
X024337Y021060D01*
X024337Y021070D01*
X024430Y021163D01*
X024470Y021258D01*
X024470Y021392D01*
X024430Y021487D01*
X024357Y021560D01*
X024262Y021600D01*
X024158Y021600D01*
X024063Y021560D01*
X023990Y021487D01*
X023973Y021447D01*
X023957Y021447D01*
X020950Y024559D01*
X020950Y024672D02*
X023696Y024672D01*
X023675Y024790D02*
X020868Y024790D01*
X020775Y024909D02*
X023680Y024909D01*
X023729Y025027D02*
X020596Y025027D01*
X020424Y025027D02*
X019189Y025027D01*
X019282Y025146D02*
X023830Y025146D01*
X024196Y025264D02*
X019376Y025264D01*
X019470Y025383D02*
X024315Y025383D01*
X024433Y025501D02*
X019563Y025501D01*
X019656Y025619D02*
X019683Y025646D01*
X019688Y025659D01*
X019696Y025669D01*
X019707Y025707D01*
X019721Y025743D01*
X019721Y025756D01*
X019724Y025769D01*
X019720Y025807D01*
X019711Y026335D01*
X019712Y026338D01*
X019712Y026339D01*
X019712Y026340D02*
X019710Y026385D01*
X019710Y026431D01*
X019709Y026433D01*
X019709Y026436D01*
X019708Y026438D01*
X019708Y026441D01*
X019708Y026442D01*
X019708Y026443D01*
X019688Y026484D01*
X019671Y026526D01*
X019669Y026528D01*
X019668Y026531D01*
X019666Y026533D01*
X019665Y026535D01*
X019664Y026536D01*
X019664Y026537D01*
X019630Y026567D01*
X018737Y027468D01*
X018737Y027555D01*
X018680Y027694D01*
X018674Y027700D01*
X023476Y027700D01*
X023497Y027679D01*
X023490Y027662D01*
X023490Y027558D01*
X023530Y027463D01*
X023603Y027390D01*
X023698Y027350D01*
X023802Y027350D01*
X023897Y027390D01*
X023980Y027473D01*
X024020Y027568D01*
X024020Y027696D01*
X024041Y027718D01*
X024108Y027690D01*
X024212Y027690D01*
X024307Y027730D01*
X024380Y027803D01*
X024420Y027898D01*
X024420Y028002D01*
X024380Y028097D01*
X024247Y028230D01*
X024152Y028270D01*
X024020Y028270D01*
X024020Y028422D01*
X023980Y028517D01*
X023907Y028590D01*
X023812Y028630D01*
X023708Y028630D01*
X023613Y028590D01*
X023540Y028517D01*
X023500Y028422D01*
X023500Y028244D01*
X023476Y028220D01*
X017458Y028220D01*
X017363Y028180D01*
X017104Y027922D01*
X017140Y028008D01*
X017140Y028112D01*
X017100Y028207D01*
X017027Y028280D01*
X016932Y028320D01*
X016828Y028320D01*
X016733Y028280D01*
X016672Y028220D01*
X016507Y028220D01*
X016446Y028159D01*
X016431Y028172D01*
X016431Y028172D01*
X016379Y028219D01*
X016347Y028250D01*
X016340Y028253D01*
X016335Y028258D01*
X016293Y028273D01*
X016252Y028290D01*
X016244Y028290D01*
X016237Y028292D01*
X016193Y028290D01*
X012728Y028290D01*
X012633Y028250D01*
X012560Y028177D01*
X011690Y027307D01*
X011650Y027212D01*
X011650Y022308D01*
X011690Y022213D01*
X011763Y022140D01*
X011817Y022085D01*
X011690Y021957D01*
X011650Y021862D01*
X011650Y019362D01*
X011649Y019312D01*
X011650Y019310D01*
X011650Y019308D01*
X011669Y019262D01*
X011688Y019216D01*
X011689Y019214D01*
X011690Y019213D01*
X011725Y019177D01*
X014127Y016710D01*
X014283Y016549D01*
X014318Y016513D01*
X014319Y016512D01*
X014320Y016512D01*
X014367Y016491D01*
X014413Y016471D01*
X014414Y016471D01*
X014415Y016471D01*
X014466Y016470D01*
X014533Y016469D01*
X014731Y016270D01*
X015242Y016270D01*
X015263Y016250D01*
X015358Y016210D01*
X015370Y016210D01*
X014856Y015771D01*
X014776Y015721D01*
X014740Y015757D01*
X014667Y015830D01*
X014572Y015870D01*
X014468Y015870D01*
X014373Y015830D01*
X014300Y015757D01*
X014260Y015662D01*
X014260Y015590D01*
X014218Y015590D01*
X014123Y015550D01*
X014050Y015477D01*
X014010Y015382D01*
X014010Y015278D01*
X014050Y015183D01*
X014153Y015080D01*
X014200Y015060D01*
X013468Y015060D01*
X013401Y015127D01*
X013420Y016955D01*
X013421Y017005D01*
X013420Y017007D01*
X013421Y017009D01*
X013402Y017055D01*
X013384Y017102D01*
X013383Y017103D01*
X013382Y017105D01*
X013347Y017141D01*
X011070Y019534D01*
X011070Y027527D01*
X011078Y027519D01*
X011100Y027466D01*
X011206Y027360D01*
X011276Y027331D01*
X011326Y027275D01*
X011492Y027266D01*
X011565Y027332D01*
X011634Y027360D01*
X011740Y027466D01*
X011765Y027528D01*
X011822Y027546D01*
X011896Y027695D01*
X011880Y027741D01*
X012509Y028300D01*
X015212Y028300D01*
X015307Y028340D01*
X015380Y028413D01*
X016242Y029275D01*
X016261Y029293D02*
X023443Y029293D01*
X023460Y029056D02*
X016024Y029056D01*
X015905Y028938D02*
X023498Y028938D01*
X023604Y028582D02*
X015550Y028582D01*
X015668Y028701D02*
X024932Y028701D01*
X025020Y028582D02*
X023916Y028582D01*
X024003Y028464D02*
X025020Y028464D01*
X025020Y028345D02*
X024020Y028345D01*
X024251Y028227D02*
X025020Y028227D01*
X025020Y028108D02*
X024370Y028108D01*
X024420Y027990D02*
X025020Y027990D01*
X025020Y027871D02*
X024409Y027871D01*
X024330Y027753D02*
X025020Y027753D01*
X025020Y027634D02*
X024020Y027634D01*
X023998Y027516D02*
X025020Y027516D01*
X025020Y027397D02*
X023905Y027397D01*
X023760Y027630D02*
X023760Y027960D01*
X023760Y028010D01*
X023760Y028320D01*
X023500Y028345D02*
X015313Y028345D01*
X015380Y028413D02*
X015380Y028413D01*
X015431Y028464D02*
X023517Y028464D01*
X023483Y028227D02*
X017081Y028227D01*
X017140Y028108D02*
X017290Y028108D01*
X017172Y027990D02*
X017132Y027990D01*
X016890Y027990D02*
X016610Y027710D01*
X016590Y027710D01*
X016590Y027720D01*
X016590Y028020D01*
X016460Y027910D02*
X016580Y027690D01*
X016580Y027710D02*
X016590Y027710D01*
X016820Y027660D02*
X016200Y027660D01*
X016371Y028227D02*
X016679Y028227D01*
X017560Y027643D02*
X017618Y027700D01*
X018046Y027700D01*
X018040Y027694D01*
X017983Y027555D01*
X017983Y027405D01*
X018040Y027266D01*
X018146Y027160D01*
X017951Y027160D01*
X017957Y027175D02*
X017957Y027325D01*
X017900Y027464D01*
X017794Y027570D01*
X017655Y027627D01*
X017653Y027627D01*
X017649Y027630D01*
X017560Y027643D01*
X017619Y027634D02*
X018015Y027634D01*
X017983Y027516D02*
X017848Y027516D01*
X017928Y027397D02*
X017986Y027397D01*
X017957Y027279D02*
X018035Y027279D01*
X017957Y027175D02*
X017920Y027084D01*
X017920Y027012D01*
X017925Y026993D01*
X017920Y026961D01*
X017920Y026928D01*
X017912Y026910D01*
X017910Y026891D01*
X017893Y026863D01*
X017880Y026833D01*
X017866Y026819D01*
X017856Y026802D01*
X017830Y026783D01*
X017807Y026760D01*
X017789Y026752D01*
X017773Y026740D01*
X017742Y026732D01*
X017712Y026720D01*
X017692Y026720D01*
X017673Y026715D01*
X017641Y026720D01*
X017608Y026720D01*
X017590Y026728D01*
X017571Y026730D01*
X017543Y026747D01*
X017513Y026760D01*
X017499Y026774D01*
X017482Y026784D01*
X017463Y026810D01*
X017447Y026825D01*
X017184Y026656D01*
X017167Y026640D01*
X017141Y026629D01*
X017117Y026613D01*
X017094Y026609D01*
X017072Y026600D01*
X017043Y026600D01*
X017015Y026595D01*
X016992Y026600D01*
X016585Y026600D01*
X014120Y023880D01*
X014120Y023392D01*
X014171Y023418D01*
X014237Y023439D01*
X014305Y023450D01*
X014590Y023450D01*
X014590Y023040D01*
X014650Y023040D01*
X014650Y023450D01*
X014935Y023450D01*
X015003Y023439D01*
X015069Y023418D01*
X015120Y023392D01*
X015120Y023450D01*
X015117Y023492D01*
X015120Y023502D01*
X015120Y023512D01*
X015136Y023550D01*
X015149Y023590D01*
X015156Y023598D01*
X015160Y023607D01*
X015189Y023637D01*
X015706Y024238D01*
X015710Y024247D01*
X015739Y024277D01*
X015767Y024309D01*
X015776Y024313D01*
X015783Y024320D01*
X015821Y024336D01*
X015859Y024355D01*
X015869Y024356D01*
X015878Y024360D01*
X015920Y024360D01*
X015962Y024363D01*
X015972Y024360D01*
X016486Y024360D01*
X016546Y024420D01*
X016685Y024477D01*
X016835Y024477D01*
X016974Y024420D01*
X017080Y024314D01*
X017137Y024175D01*
X017137Y024025D01*
X017080Y023886D01*
X016974Y023780D01*
X016835Y023723D01*
X016685Y023723D01*
X016546Y023780D01*
X016486Y023840D01*
X016049Y023840D01*
X015643Y023367D01*
X015669Y023386D01*
X015731Y023418D01*
X015797Y023439D01*
X015865Y023450D01*
X016150Y023450D01*
X016150Y023040D01*
X016210Y023040D01*
X016210Y023450D01*
X016495Y023450D01*
X016563Y023439D01*
X016629Y023418D01*
X016691Y023386D01*
X016747Y023346D01*
X016796Y023297D01*
X016836Y023241D01*
X016868Y023179D01*
X016889Y023113D01*
X016900Y023045D01*
X016900Y023040D01*
X016210Y023040D01*
X016210Y022980D01*
X016900Y022980D01*
X016900Y022975D01*
X016898Y022966D01*
X019198Y025878D01*
X019192Y026264D01*
X018272Y027108D01*
X018146Y027160D01*
X018344Y027042D02*
X017920Y027042D01*
X017918Y026923D02*
X018473Y026923D01*
X018603Y026805D02*
X017858Y026805D01*
X017466Y026805D02*
X017415Y026805D01*
X017230Y026686D02*
X018732Y026686D01*
X018861Y026568D02*
X016556Y026568D01*
X016448Y026449D02*
X018990Y026449D01*
X019119Y026331D02*
X016341Y026331D01*
X016234Y026212D02*
X019193Y026212D01*
X019195Y026094D02*
X016126Y026094D01*
X016019Y025975D02*
X019197Y025975D01*
X019181Y025857D02*
X015912Y025857D01*
X015804Y025738D02*
X019088Y025738D01*
X018994Y025620D02*
X015697Y025620D01*
X015589Y025501D02*
X018901Y025501D01*
X018807Y025383D02*
X015482Y025383D01*
X015375Y025264D02*
X018713Y025264D01*
X018620Y025146D02*
X015267Y025146D01*
X015160Y025027D02*
X018526Y025027D01*
X018433Y024909D02*
X015052Y024909D01*
X014945Y024790D02*
X018339Y024790D01*
X018246Y024672D02*
X014838Y024672D01*
X014730Y024553D02*
X018152Y024553D01*
X018058Y024435D02*
X016939Y024435D01*
X017078Y024316D02*
X017965Y024316D01*
X017871Y024198D02*
X017128Y024198D01*
X017137Y024079D02*
X017778Y024079D01*
X017684Y023961D02*
X017111Y023961D01*
X017036Y023842D02*
X017591Y023842D01*
X017497Y023724D02*
X016838Y023724D01*
X016682Y023724D02*
X015949Y023724D01*
X015847Y023605D02*
X017403Y023605D01*
X017310Y023487D02*
X015746Y023487D01*
X015644Y023368D02*
X015644Y023368D01*
X015264Y023724D02*
X014120Y023724D01*
X014120Y023842D02*
X015366Y023842D01*
X015467Y023961D02*
X014193Y023961D01*
X014301Y024079D02*
X015569Y024079D01*
X015671Y024198D02*
X014408Y024198D01*
X014515Y024316D02*
X015778Y024316D01*
X016581Y024435D02*
X014623Y024435D01*
X014120Y023605D02*
X015159Y023605D01*
X015117Y023487D02*
X014120Y023487D01*
X014590Y023368D02*
X014650Y023368D01*
X014650Y023250D02*
X014590Y023250D01*
X014590Y023131D02*
X014650Y023131D01*
X014650Y022980D02*
X014650Y022570D01*
X014935Y022570D01*
X015003Y022581D01*
X015069Y022602D01*
X015120Y022628D01*
X015120Y022373D01*
X014984Y022430D01*
X014537Y022430D01*
X014378Y022570D01*
X014590Y022570D01*
X014590Y022980D01*
X014650Y022980D01*
X014650Y022894D02*
X014590Y022894D01*
X014590Y022776D02*
X014650Y022776D01*
X014650Y022657D02*
X014590Y022657D01*
X014414Y022539D02*
X015120Y022539D01*
X015120Y022420D02*
X015008Y022420D01*
X015640Y022420D02*
X015792Y022420D01*
X015816Y022430D02*
X015662Y022366D01*
X015640Y022344D01*
X015640Y022655D01*
X015669Y022634D01*
X015731Y022602D01*
X015797Y022581D01*
X015865Y022570D01*
X016150Y022570D01*
X016150Y022980D01*
X016210Y022980D01*
X016210Y022570D01*
X016452Y022570D01*
X016282Y022430D01*
X015816Y022430D01*
X015640Y022539D02*
X016414Y022539D01*
X016210Y022657D02*
X016150Y022657D01*
X016150Y022776D02*
X016210Y022776D01*
X016210Y022894D02*
X016150Y022894D01*
X016210Y023013D02*
X016936Y023013D01*
X016883Y023131D02*
X017029Y023131D01*
X017123Y023250D02*
X016830Y023250D01*
X016716Y023368D02*
X017216Y023368D01*
X017884Y023374D02*
X019656Y025619D01*
X019657Y025620D02*
X021563Y025620D01*
X021583Y025600D02*
X021678Y025560D01*
X021782Y025560D01*
X021877Y025600D01*
X021950Y025673D01*
X021990Y025768D01*
X021990Y026000D01*
X023736Y026000D01*
X023760Y025976D01*
X023760Y025898D01*
X023800Y025803D01*
X023873Y025730D01*
X023968Y025690D01*
X024072Y025690D01*
X024167Y025730D01*
X024250Y025813D01*
X024266Y025850D01*
X024272Y025850D01*
X024367Y025890D01*
X024440Y025963D01*
X024480Y026058D01*
X024480Y026162D01*
X024440Y026257D01*
X024387Y026310D01*
X024387Y026335D01*
X024330Y026474D01*
X024224Y026580D01*
X024085Y026637D01*
X023935Y026637D01*
X023796Y026580D01*
X023736Y026520D01*
X021984Y026520D01*
X021924Y026580D01*
X021785Y026637D01*
X021635Y026637D01*
X021496Y026580D01*
X021406Y026490D01*
X021188Y026490D01*
X021093Y026450D01*
X021020Y026377D01*
X020980Y026282D01*
X020980Y026178D01*
X021020Y026083D01*
X021093Y026010D01*
X021188Y025970D01*
X021466Y025970D01*
X021470Y025966D01*
X021470Y025768D01*
X021510Y025673D01*
X021583Y025600D01*
X021483Y025738D02*
X019719Y025738D01*
X019719Y025857D02*
X021470Y025857D01*
X021690Y025890D02*
X021710Y025870D01*
X021690Y025890D02*
X021690Y026240D01*
X021670Y026240D01*
X021660Y026230D01*
X021300Y026230D01*
X021176Y025975D02*
X019717Y025975D01*
X019715Y026094D02*
X021015Y026094D01*
X020980Y026212D02*
X019713Y026212D01*
X019711Y026331D02*
X021000Y026331D01*
X021091Y026449D02*
X019705Y026449D01*
X019712Y026340D02*
X019712Y026339D01*
X019630Y026568D02*
X021484Y026568D01*
X021936Y026568D02*
X023784Y026568D01*
X024236Y026568D02*
X025020Y026568D01*
X025020Y026686D02*
X019513Y026686D01*
X019395Y026805D02*
X025020Y026805D01*
X025020Y026923D02*
X019278Y026923D01*
X019160Y027042D02*
X025020Y027042D01*
X025020Y027160D02*
X019043Y027160D01*
X018926Y027279D02*
X025020Y027279D01*
X025020Y026449D02*
X024340Y026449D01*
X024387Y026331D02*
X025020Y026331D01*
X025020Y026212D02*
X024459Y026212D01*
X024480Y026094D02*
X025020Y026094D01*
X024907Y025975D02*
X024446Y025975D01*
X024288Y025857D02*
X024789Y025857D01*
X024670Y025738D02*
X024176Y025738D01*
X023864Y025738D02*
X021977Y025738D01*
X021990Y025857D02*
X023777Y025857D01*
X023760Y025975D02*
X021990Y025975D01*
X021897Y025620D02*
X024552Y025620D01*
X024932Y025264D02*
X025450Y025264D01*
X025450Y025146D02*
X024813Y025146D01*
X024695Y025027D02*
X025450Y025027D01*
X025450Y024909D02*
X024576Y024909D01*
X024545Y024790D02*
X025450Y024790D01*
X025450Y024672D02*
X024524Y024672D01*
X024469Y024553D02*
X025450Y024553D01*
X025450Y024435D02*
X024341Y024435D01*
X025050Y025383D02*
X025450Y025383D01*
X025450Y025501D02*
X025169Y025501D01*
X025287Y025620D02*
X025450Y025620D01*
X025450Y025738D02*
X025406Y025738D01*
X023595Y027397D02*
X018808Y027397D01*
X018737Y027516D02*
X023508Y027516D01*
X023490Y027634D02*
X018705Y027634D01*
X020010Y026760D02*
X020040Y026730D01*
X020370Y026730D01*
X020380Y026390D02*
X020380Y027120D01*
X020370Y027130D01*
X020285Y024909D02*
X019095Y024909D01*
X019002Y024790D02*
X020187Y024790D01*
X020100Y024672D02*
X018908Y024672D01*
X018815Y024553D02*
X020100Y024553D01*
X020198Y024435D02*
X018721Y024435D01*
X018627Y024316D02*
X020300Y024316D01*
X020577Y024198D02*
X018534Y024198D01*
X018440Y024079D02*
X020691Y024079D01*
X020806Y023961D02*
X018347Y023961D01*
X018253Y023842D02*
X020920Y023842D01*
X021035Y023724D02*
X018160Y023724D01*
X018066Y023605D02*
X021149Y023605D01*
X021264Y023487D02*
X017972Y023487D01*
X017901Y023370D02*
X017884Y023374D01*
X017901Y023370D02*
X019251Y023370D01*
X019262Y023374D01*
X019302Y023370D01*
X019342Y023370D01*
X019353Y023365D01*
X019365Y023364D01*
X019401Y023346D01*
X019437Y023330D01*
X019446Y023322D01*
X019457Y023316D01*
X019482Y023285D01*
X019510Y023257D01*
X019515Y023246D01*
X021210Y021206D01*
X021210Y021656D01*
X020974Y021980D01*
X020902Y021950D01*
X020798Y021950D01*
X020703Y021990D01*
X020630Y022063D01*
X020590Y022158D01*
X020590Y022262D01*
X020597Y022279D01*
X020566Y022310D01*
X020428Y022310D01*
X020333Y022350D01*
X020260Y022423D01*
X020220Y022518D01*
X020220Y022622D01*
X020260Y022717D01*
X020333Y022790D01*
X020343Y022800D01*
X020438Y022840D01*
X020620Y022840D01*
X020620Y022952D01*
X020660Y023047D01*
X020733Y023120D01*
X020828Y023160D01*
X020932Y023160D01*
X021027Y023120D01*
X021057Y023090D01*
X021057Y023090D01*
X021130Y023017D01*
X021170Y022922D01*
X021170Y022810D01*
X021292Y022810D01*
X021387Y022770D01*
X021460Y022697D01*
X021500Y022602D01*
X021500Y022498D01*
X021460Y022403D01*
X021387Y022330D01*
X021369Y022322D01*
X021668Y021909D01*
X021690Y021887D01*
X021698Y021868D01*
X021711Y021851D01*
X021718Y021821D01*
X021730Y021792D01*
X021730Y021771D01*
X021735Y021750D01*
X021730Y021720D01*
X021730Y017698D01*
X021730Y017697D01*
X021770Y017602D01*
X021770Y017498D01*
X021730Y017403D01*
X021657Y017330D01*
X021657Y017330D01*
X018990Y014662D01*
X018990Y013354D01*
X020334Y011737D01*
X020385Y011737D01*
X020524Y011680D01*
X020614Y011590D01*
X020842Y011590D01*
X020937Y011550D01*
X021010Y011477D01*
X021050Y011382D01*
X021050Y011278D01*
X021010Y011183D01*
X020937Y011110D01*
X020842Y011070D01*
X020554Y011070D01*
X020544Y011061D01*
X020520Y011003D01*
X020447Y010930D01*
X020424Y010920D01*
X024702Y010920D01*
X025150Y011368D01*
X025150Y013066D01*
X025044Y012960D01*
X025020Y012950D01*
X025020Y012888D01*
X024980Y012793D01*
X024907Y012720D01*
X024812Y012680D01*
X024708Y012680D01*
X024613Y012720D01*
X024540Y012793D01*
X024500Y012888D01*
X024500Y013020D01*
X020084Y013020D01*
X020070Y013006D01*
X020070Y012768D01*
X020030Y012673D01*
X019957Y012600D01*
X019862Y012560D01*
X019758Y012560D01*
X019663Y012600D01*
X019590Y012673D01*
X019550Y012768D01*
X019550Y013000D01*
X019548Y013000D01*
X019453Y013040D01*
X019320Y013173D01*
X019280Y013268D01*
X019280Y013372D01*
X019320Y013467D01*
X019393Y013540D01*
X019488Y013580D01*
X019550Y013580D01*
X019550Y013712D01*
X019590Y013807D01*
X019683Y013900D01*
X019778Y013940D01*
X019882Y013940D01*
X019977Y013900D01*
X020050Y013827D01*
X020090Y013732D01*
X020090Y013628D01*
X020070Y013580D01*
X020070Y013554D01*
X020084Y013540D01*
X024500Y013540D01*
X024500Y013742D01*
X024540Y013837D01*
X024613Y013910D01*
X024708Y013950D01*
X024812Y013950D01*
X024907Y013910D01*
X024980Y013837D01*
X025020Y013742D01*
X025020Y013610D01*
X025044Y013600D01*
X025150Y013494D01*
X025150Y013712D01*
X025190Y013807D01*
X025194Y013812D01*
X024875Y014137D01*
X024840Y014173D01*
X024839Y014174D01*
X024838Y014175D01*
X024819Y014222D01*
X024800Y014268D01*
X024800Y014270D01*
X024800Y014271D01*
X024800Y014321D01*
X024800Y014386D01*
X024790Y014396D01*
X024752Y014380D01*
X024648Y014380D01*
X024553Y014420D01*
X024480Y014493D01*
X024440Y014588D01*
X024440Y014692D01*
X024480Y014787D01*
X024573Y014880D01*
X024575Y014881D01*
X024560Y014918D01*
X024560Y015022D01*
X024600Y015117D01*
X024673Y015190D01*
X024768Y015230D01*
X024872Y015230D01*
X024967Y015190D01*
X025008Y015150D01*
X025182Y015150D01*
X025188Y015155D01*
X025800Y015768D01*
X025800Y018902D01*
X025652Y019050D01*
X024908Y019050D01*
X024813Y019090D01*
X024740Y019163D01*
X024540Y019363D01*
X024500Y019458D01*
X024500Y022262D01*
X024540Y022357D01*
X024613Y022430D01*
X024633Y022450D01*
X024633Y022462D01*
X024625Y022470D01*
X024588Y022567D01*
X024592Y022670D01*
X024600Y022688D01*
X024600Y022733D01*
X024717Y022850D01*
X024750Y022850D01*
X024807Y022872D01*
X024910Y022868D01*
X024938Y022856D01*
X025450Y023368D01*
X025332Y023250D02*
X022216Y023250D01*
X022330Y023131D02*
X025213Y023131D01*
X025095Y023013D02*
X022445Y023013D01*
X022559Y022894D02*
X024976Y022894D01*
X024840Y022650D02*
X025030Y022460D01*
X025210Y022280D01*
X024840Y022650D02*
X024800Y022650D01*
X024643Y022776D02*
X022674Y022776D01*
X022788Y022657D02*
X024591Y022657D01*
X024599Y022539D02*
X022903Y022539D01*
X023017Y022420D02*
X024602Y022420D01*
X024516Y022302D02*
X023132Y022302D01*
X023246Y022183D02*
X024500Y022183D01*
X024500Y022065D02*
X023361Y022065D01*
X023475Y021946D02*
X024500Y021946D01*
X024500Y021828D02*
X023590Y021828D01*
X023704Y021709D02*
X024500Y021709D01*
X024500Y021591D02*
X024285Y021591D01*
X024135Y021591D02*
X023819Y021591D01*
X023933Y021472D02*
X023983Y021472D01*
X024437Y021472D02*
X024500Y021472D01*
X024500Y021354D02*
X024470Y021354D01*
X024460Y021235D02*
X024500Y021235D01*
X024500Y021117D02*
X024384Y021117D01*
X024394Y020998D02*
X024500Y020998D01*
X024500Y020880D02*
X024430Y020880D01*
X024410Y020761D02*
X024500Y020761D01*
X024500Y020643D02*
X024320Y020643D01*
X024500Y020524D02*
X021730Y020524D01*
X021730Y020406D02*
X024500Y020406D01*
X024500Y020287D02*
X021730Y020287D01*
X021730Y020169D02*
X024500Y020169D01*
X024500Y020050D02*
X021730Y020050D01*
X021730Y019932D02*
X024500Y019932D01*
X024500Y019813D02*
X021730Y019813D01*
X021730Y019695D02*
X024500Y019695D01*
X024500Y019576D02*
X021730Y019576D01*
X021730Y019458D02*
X024500Y019458D01*
X024563Y019339D02*
X021730Y019339D01*
X021730Y019221D02*
X024682Y019221D01*
X024800Y019102D02*
X021730Y019102D01*
X021730Y018984D02*
X025719Y018984D01*
X025800Y018865D02*
X021730Y018865D01*
X021730Y018747D02*
X025800Y018747D01*
X025800Y018628D02*
X021730Y018628D01*
X021730Y018510D02*
X025800Y018510D01*
X025800Y018391D02*
X021730Y018391D01*
X021730Y018273D02*
X025800Y018273D01*
X025800Y018154D02*
X021730Y018154D01*
X021730Y018036D02*
X025800Y018036D01*
X025800Y017917D02*
X021730Y017917D01*
X021730Y017799D02*
X025800Y017799D01*
X025800Y017680D02*
X021738Y017680D01*
X021770Y017562D02*
X025800Y017562D01*
X025800Y017443D02*
X021747Y017443D01*
X021652Y017325D02*
X025800Y017325D01*
X025800Y017206D02*
X021534Y017206D01*
X021415Y017088D02*
X025800Y017088D01*
X025800Y016969D02*
X021297Y016969D01*
X021178Y016851D02*
X025800Y016851D01*
X025800Y016732D02*
X021060Y016732D01*
X020941Y016614D02*
X025800Y016614D01*
X025800Y016495D02*
X020823Y016495D01*
X020704Y016377D02*
X025800Y016377D01*
X025800Y016258D02*
X020586Y016258D01*
X020467Y016140D02*
X025800Y016140D01*
X025800Y016021D02*
X020349Y016021D01*
X020230Y015903D02*
X025800Y015903D01*
X025800Y015784D02*
X020112Y015784D01*
X019993Y015666D02*
X025698Y015666D01*
X025579Y015547D02*
X019875Y015547D01*
X019756Y015429D02*
X025461Y015429D01*
X025342Y015310D02*
X019638Y015310D01*
X019519Y015192D02*
X024675Y015192D01*
X024581Y015073D02*
X019401Y015073D01*
X019282Y014955D02*
X024560Y014955D01*
X024528Y014836D02*
X019164Y014836D01*
X019045Y014718D02*
X024451Y014718D01*
X024440Y014599D02*
X018990Y014599D01*
X018990Y014481D02*
X024492Y014481D01*
X024800Y014362D02*
X018990Y014362D01*
X018990Y014244D02*
X024810Y014244D01*
X024887Y014125D02*
X018990Y014125D01*
X018990Y014007D02*
X025003Y014007D01*
X024930Y013888D02*
X025119Y013888D01*
X025174Y013770D02*
X025008Y013770D01*
X025020Y013651D02*
X025150Y013651D01*
X025150Y013533D02*
X025111Y013533D01*
X025142Y013059D02*
X025150Y013059D01*
X025150Y012940D02*
X025020Y012940D01*
X024992Y012822D02*
X025150Y012822D01*
X025150Y012703D02*
X024867Y012703D01*
X024653Y012703D02*
X020043Y012703D01*
X020070Y012822D02*
X024528Y012822D01*
X024500Y012940D02*
X020070Y012940D01*
X019921Y012585D02*
X025150Y012585D01*
X025150Y012466D02*
X019728Y012466D01*
X019699Y012585D02*
X019630Y012585D01*
X019577Y012703D02*
X019531Y012703D01*
X019550Y012822D02*
X019433Y012822D01*
X019334Y012940D02*
X019550Y012940D01*
X019434Y013059D02*
X019236Y013059D01*
X019318Y013177D02*
X019137Y013177D01*
X019039Y013296D02*
X019280Y013296D01*
X019298Y013414D02*
X018990Y013414D01*
X018990Y013533D02*
X019385Y013533D01*
X019550Y013651D02*
X018990Y013651D01*
X018990Y013770D02*
X019574Y013770D01*
X019670Y013888D02*
X018990Y013888D01*
X018470Y013888D02*
X018093Y013888D01*
X018089Y013770D02*
X018470Y013770D01*
X018470Y013651D02*
X018084Y013651D01*
X018080Y013533D02*
X018470Y013533D01*
X018470Y013414D02*
X018274Y013414D01*
X018290Y013397D02*
X018217Y013470D01*
X018207Y013480D01*
X018112Y013520D01*
X018084Y013520D01*
X018080Y013524D01*
X018106Y014249D01*
X018470Y014615D01*
X018470Y013272D01*
X018466Y013232D01*
X018470Y013221D01*
X018470Y013208D01*
X018485Y013172D01*
X018497Y013134D01*
X018505Y013124D01*
X018510Y013113D01*
X018538Y013085D01*
X019790Y011578D01*
X019720Y011507D01*
X019680Y011412D01*
X019680Y011308D01*
X019720Y011213D01*
X019823Y011110D01*
X019918Y011070D01*
X020046Y011070D01*
X020070Y011013D01*
X020153Y010930D01*
X020176Y010920D01*
X018668Y010920D01*
X017517Y012070D01*
X017501Y012720D01*
X017503Y012726D01*
X017500Y012772D01*
X017499Y012818D01*
X017496Y012823D01*
X017496Y012829D01*
X017475Y012870D01*
X017457Y012913D01*
X017453Y012917D01*
X017450Y012922D01*
X017415Y012952D01*
X017382Y012984D01*
X017377Y012986D01*
X017098Y013230D01*
X017067Y013260D01*
X017059Y013264D01*
X017052Y013270D01*
X017012Y013284D01*
X016972Y013300D01*
X016963Y013300D01*
X016954Y013303D01*
X016911Y013300D01*
X016005Y013300D01*
X020456Y017928D01*
X020490Y017963D01*
X020491Y017965D01*
X020493Y017967D01*
X020511Y018013D01*
X020530Y018058D01*
X020530Y018061D01*
X020531Y018063D01*
X020530Y018113D01*
X020530Y019093D01*
X020535Y019118D01*
X020530Y019144D01*
X020530Y019172D01*
X020520Y019195D01*
X020516Y019219D01*
X020501Y019242D01*
X020490Y019267D01*
X020473Y019285D01*
X020459Y019306D01*
X020437Y019321D01*
X020417Y019340D01*
X020394Y019350D01*
X020207Y019477D01*
X020207Y019495D01*
X020150Y019634D01*
X020120Y019664D01*
X020120Y019942D01*
X020080Y020037D01*
X019997Y020120D01*
X019902Y020160D01*
X019798Y020160D01*
X019703Y020120D01*
X019630Y020047D01*
X019590Y019952D01*
X019590Y019848D01*
X019600Y019824D01*
X019600Y019724D01*
X019560Y019683D01*
X019559Y019705D01*
X019550Y019726D01*
X019546Y019749D01*
X019530Y019773D01*
X019518Y019800D01*
X019502Y019816D01*
X019237Y020223D01*
X019232Y020239D01*
X019209Y020266D01*
X019190Y020295D01*
X019176Y020305D01*
X019165Y020318D01*
X019133Y020334D01*
X019104Y020354D01*
X019088Y020357D01*
X019072Y020365D01*
X019037Y020368D01*
X019003Y020375D01*
X018986Y020372D01*
X018410Y020419D01*
X018410Y020612D01*
X018370Y020707D01*
X018277Y020800D01*
X018182Y020840D01*
X018128Y020840D01*
X018630Y021343D01*
X018670Y021438D01*
X018670Y021453D01*
X018876Y021773D01*
X018885Y021773D01*
X019024Y021830D01*
X019114Y021920D01*
X019152Y021920D01*
X019247Y021960D01*
X019320Y022033D01*
X019360Y022128D01*
X019360Y022232D01*
X019320Y022327D01*
X019217Y022430D01*
X019122Y022470D01*
X019060Y022470D01*
X019060Y022492D01*
X019020Y022587D01*
X018947Y022660D01*
X018852Y022700D01*
X018748Y022700D01*
X018653Y022660D01*
X018580Y022587D01*
X018540Y022492D01*
X018540Y022430D01*
X018438Y022430D01*
X018343Y022390D01*
X018270Y022317D01*
X018230Y022222D01*
X018230Y022118D01*
X018270Y022023D01*
X018343Y021950D01*
X018365Y021940D01*
X018207Y021694D01*
X018190Y021677D01*
X018179Y021651D01*
X018163Y021627D01*
X018160Y021608D01*
X017330Y020778D01*
X017330Y021338D01*
X017333Y021347D01*
X017330Y021389D01*
X017330Y021432D01*
X017326Y021441D01*
X017326Y021450D01*
X017307Y021488D01*
X017290Y021527D01*
X017284Y021534D01*
X017279Y021543D01*
X017253Y021565D01*
X017502Y021723D01*
X017521Y021729D01*
X017545Y021751D01*
X017573Y021768D01*
X017584Y021784D01*
X017599Y021797D01*
X017614Y021826D01*
X017632Y021853D01*
X017637Y021872D01*
X017646Y021890D01*
X017648Y021922D01*
X017655Y021954D01*
X017652Y021973D01*
X017684Y022417D01*
X018002Y022850D01*
X019168Y022850D01*
X020801Y020885D01*
X020819Y017717D01*
X017669Y014547D01*
X017635Y014515D01*
X017633Y014510D01*
X017629Y014507D01*
X017611Y014463D01*
X017592Y014421D01*
X017592Y014416D01*
X017590Y014411D01*
X017590Y014364D01*
X017560Y013544D01*
X017536Y013520D01*
X017458Y013520D01*
X017363Y013480D01*
X017290Y013407D01*
X017250Y013312D01*
X017250Y013208D01*
X017290Y013113D01*
X017363Y013040D01*
X017458Y013000D01*
X017520Y013000D01*
X017520Y012948D01*
X017560Y012853D01*
X017595Y012818D01*
X017693Y012720D01*
X017788Y012680D01*
X017892Y012680D01*
X017987Y012720D01*
X018060Y012793D01*
X018100Y012888D01*
X018100Y012990D01*
X018122Y012990D01*
X018217Y013030D01*
X018290Y013103D01*
X018330Y013198D01*
X018330Y013302D01*
X018290Y013397D01*
X018217Y013470D02*
X018217Y013470D01*
X018330Y013296D02*
X018470Y013296D01*
X018483Y013177D02*
X018321Y013177D01*
X018246Y013059D02*
X018559Y013059D01*
X018658Y012940D02*
X018100Y012940D01*
X018072Y012822D02*
X018756Y012822D01*
X018855Y012703D02*
X017947Y012703D01*
X017733Y012703D02*
X017502Y012703D01*
X017504Y012585D02*
X018954Y012585D01*
X019052Y012466D02*
X017507Y012466D01*
X017510Y012348D02*
X019151Y012348D01*
X019249Y012229D02*
X017513Y012229D01*
X017516Y012111D02*
X019348Y012111D01*
X019446Y011992D02*
X017596Y011992D01*
X017714Y011874D02*
X019545Y011874D01*
X019643Y011755D02*
X017833Y011755D01*
X017951Y011637D02*
X019742Y011637D01*
X019730Y011518D02*
X018070Y011518D01*
X018188Y011400D02*
X019680Y011400D01*
X019691Y011281D02*
X018307Y011281D01*
X018425Y011163D02*
X019770Y011163D01*
X020057Y011044D02*
X018544Y011044D01*
X018662Y010926D02*
X020163Y010926D01*
X020437Y010926D02*
X024708Y010926D01*
X024826Y011044D02*
X020538Y011044D01*
X020990Y011163D02*
X024945Y011163D01*
X025063Y011281D02*
X021050Y011281D01*
X021043Y011400D02*
X025150Y011400D01*
X025150Y011518D02*
X020970Y011518D01*
X020567Y011637D02*
X025150Y011637D01*
X025150Y011755D02*
X020320Y011755D01*
X020221Y011874D02*
X025150Y011874D01*
X025150Y011992D02*
X020123Y011992D01*
X020024Y012111D02*
X025150Y012111D01*
X025150Y012229D02*
X019925Y012229D01*
X019827Y012348D02*
X025150Y012348D01*
X025670Y012348D02*
X026160Y012348D01*
X026160Y012466D02*
X025670Y012466D01*
X025670Y012585D02*
X026160Y012585D01*
X026160Y012703D02*
X025670Y012703D01*
X025670Y012822D02*
X026160Y012822D01*
X026160Y012894D02*
X026160Y010808D01*
X026100Y010747D01*
X026093Y010730D01*
X025436Y010073D01*
X024601Y009757D01*
X024477Y009880D01*
X024382Y009920D01*
X024278Y009920D01*
X024183Y009880D01*
X024110Y009807D01*
X024080Y009735D01*
X024014Y009670D01*
X023938Y009670D01*
X023843Y009630D01*
X023770Y009557D01*
X023730Y009462D01*
X023730Y009358D01*
X023770Y009263D01*
X023863Y009170D01*
X023958Y009130D01*
X023974Y009130D01*
X024093Y009011D01*
X024141Y008991D01*
X024170Y008923D01*
X024243Y008850D01*
X024338Y008810D01*
X024442Y008810D01*
X024537Y008850D01*
X024610Y008923D01*
X024650Y009018D01*
X024650Y009074D01*
X024709Y009133D01*
X024762Y009262D01*
X025628Y009590D01*
X025632Y009590D01*
X025676Y009608D01*
X025721Y009625D01*
X025723Y009628D01*
X025727Y009630D01*
X025761Y009663D01*
X025796Y009696D01*
X025798Y009700D01*
X026650Y010553D01*
X026690Y010648D01*
X026690Y012884D01*
X026799Y012993D01*
X026865Y013153D01*
X026865Y013327D01*
X026799Y013487D01*
X026736Y013550D01*
X030012Y013550D01*
X030107Y013590D01*
X030180Y013663D01*
X031089Y014571D01*
X031033Y014435D01*
X031033Y014285D01*
X031090Y014146D01*
X031150Y014086D01*
X031150Y012828D01*
X031190Y012733D01*
X031263Y012660D01*
X031663Y012260D01*
X031758Y012220D01*
X033386Y012220D01*
X033430Y012176D01*
X033430Y012138D01*
X033470Y012043D01*
X033543Y011970D01*
X033638Y011930D01*
X033742Y011930D01*
X033837Y011970D01*
X033920Y012053D01*
X033960Y012148D01*
X033960Y012246D01*
X033980Y012266D01*
X034037Y012405D01*
X034037Y012555D01*
X033980Y012694D01*
X033960Y012714D01*
X033960Y012992D01*
X033920Y013087D01*
X033847Y013160D01*
X033752Y013200D01*
X033648Y013200D01*
X033553Y013160D01*
X033480Y013087D01*
X033440Y012992D01*
X033440Y012794D01*
X033386Y012740D01*
X031918Y012740D01*
X031670Y012988D01*
X031670Y014048D01*
X031688Y014040D01*
X031792Y014040D01*
X031887Y014080D01*
X031960Y014153D01*
X032000Y014248D01*
X032000Y014352D01*
X031960Y014447D01*
X031898Y014510D01*
X031900Y014513D01*
X031940Y014608D01*
X031940Y014712D01*
X031900Y014807D01*
X031827Y014880D01*
X031732Y014920D01*
X031628Y014920D01*
X031533Y014880D01*
X031390Y014737D01*
X031335Y014737D01*
X031199Y014681D01*
X031770Y015252D01*
X031843Y015180D01*
X031938Y015140D01*
X032042Y015140D01*
X032137Y015180D01*
X032210Y015253D01*
X032250Y015348D01*
X032250Y015452D01*
X032210Y015547D01*
X032087Y015670D01*
X032087Y015718D01*
X035530Y012819D01*
X035533Y011658D01*
X035529Y011667D01*
X035420Y011776D01*
X035420Y011802D01*
X035380Y011897D01*
X035307Y011970D01*
X035212Y012010D01*
X035108Y012010D01*
X035013Y011970D01*
X035010Y011967D01*
X034993Y011960D01*
X034920Y011887D01*
X034880Y011792D01*
X034880Y011756D01*
X034791Y011667D01*
X034776Y011630D01*
X034688Y011630D01*
X034593Y011590D01*
X034520Y011517D01*
X034480Y011422D01*
X034480Y011318D01*
X034520Y011223D01*
X034542Y011200D01*
X034540Y011198D01*
X034505Y011165D01*
X034503Y011162D01*
X034501Y011159D01*
X034482Y011115D01*
X034462Y011071D01*
X034462Y011067D01*
X034461Y011064D01*
X034460Y011016D01*
X034458Y010967D01*
X034460Y010964D01*
X034391Y003959D01*
X033952Y003520D01*
X028308Y003520D01*
X028260Y003500D01*
X020128Y003500D01*
X020000Y003628D01*
X020150Y003778D01*
X020150Y004142D01*
X019892Y004400D01*
X019528Y004400D01*
X019270Y004142D01*
X019270Y003778D01*
X019420Y003628D01*
X019212Y003420D01*
X012738Y003420D01*
X011550Y004607D01*
X011477Y004680D01*
X011382Y004720D01*
X004417Y004720D01*
X004220Y004889D01*
X004220Y009572D01*
X004309Y009661D01*
X004240Y009495D01*
X004240Y009285D01*
X004321Y009090D01*
X004470Y008941D01*
X004665Y008860D01*
X005655Y008860D01*
X005850Y008941D01*
X005999Y009090D01*
X006016Y009130D01*
X006472Y009130D01*
X006567Y009170D01*
X010178Y012780D01*
X011162Y012780D01*
X011148Y012766D01*
X007816Y009557D01*
X007770Y009537D01*
X007078Y008846D01*
X007042Y008811D01*
X007041Y008809D01*
X007040Y008807D01*
X007022Y008764D01*
X005983Y007726D01*
X005850Y007859D01*
X005655Y007940D01*
X004665Y007940D01*
X004470Y007859D01*
X004321Y007710D01*
X004240Y007515D01*
X004240Y007305D01*
X004321Y007110D01*
X004470Y006961D01*
X004665Y006880D01*
X005655Y006880D01*
X005850Y006961D01*
X005999Y007110D01*
X006016Y007150D01*
X006087Y007150D01*
X006182Y007190D01*
X008089Y009097D01*
X008124Y009131D01*
X011435Y012320D01*
X011730Y012320D01*
X011730Y012258D01*
X011770Y012163D01*
X011843Y012090D01*
X011938Y012050D01*
X012042Y012050D01*
X012137Y012090D01*
X012250Y012203D01*
X012365Y012203D01*
X012504Y012260D01*
X012574Y012330D01*
X012622Y012330D01*
X012717Y012370D01*
X012810Y012463D01*
X012850Y012558D01*
X012850Y012662D01*
X012810Y012757D01*
X012788Y012780D01*
X016822Y012780D01*
X016983Y012639D01*
X017000Y011957D01*
X017000Y011908D01*
X017001Y011905D01*
X017001Y011902D01*
X017021Y011857D01*
X017040Y011813D01*
X017042Y011810D01*
X017043Y011807D01*
X017078Y011774D01*
X018413Y010440D01*
X018508Y010400D01*
X024862Y010400D01*
X024957Y010440D01*
X025030Y010513D01*
X025557Y011040D01*
X025630Y011113D01*
X025670Y011208D01*
X025670Y013550D01*
X026124Y013550D01*
X026061Y013487D01*
X025995Y013327D01*
X025995Y013153D01*
X026061Y012993D01*
X026160Y012894D01*
X026114Y012940D02*
X025670Y012940D01*
X025670Y013059D02*
X026034Y013059D01*
X025995Y013177D02*
X025670Y013177D01*
X025670Y013296D02*
X025995Y013296D01*
X026031Y013414D02*
X025670Y013414D01*
X025670Y013533D02*
X026107Y013533D01*
X026753Y013533D02*
X031150Y013533D01*
X031150Y013651D02*
X030169Y013651D01*
X030122Y013500D02*
X029961Y013433D01*
X029837Y013309D01*
X029770Y013148D01*
X029770Y012972D01*
X029837Y012811D01*
X029961Y012687D01*
X030122Y012620D01*
X030298Y012620D01*
X030459Y012687D01*
X030583Y012811D01*
X030650Y012972D01*
X030650Y013148D01*
X030583Y013309D01*
X030459Y013433D01*
X030298Y013500D01*
X030122Y013500D01*
X029942Y013414D02*
X029478Y013414D01*
X029459Y013433D02*
X029578Y013314D01*
X029587Y013310D01*
X029660Y013237D01*
X029700Y013142D01*
X029700Y013038D01*
X029660Y012943D01*
X029622Y012904D01*
X029583Y012811D01*
X029500Y012728D01*
X029500Y012718D01*
X029460Y012623D01*
X029357Y012520D01*
X029262Y012480D01*
X029158Y012480D01*
X029063Y012520D01*
X028990Y012593D01*
X028950Y012688D01*
X028950Y012698D01*
X028848Y012800D01*
X028650Y012800D01*
X028650Y012702D01*
X028568Y012620D01*
X028426Y012620D01*
X028410Y012583D01*
X028317Y012490D01*
X028222Y012450D01*
X028118Y012450D01*
X028023Y012490D01*
X027950Y012563D01*
X027926Y012620D01*
X027852Y012620D01*
X027770Y012702D01*
X027770Y012912D01*
X027760Y012923D01*
X027720Y013018D01*
X027720Y013122D01*
X027760Y013217D01*
X027770Y013228D01*
X027770Y013418D01*
X027852Y013500D01*
X028568Y013500D01*
X028650Y013418D01*
X028650Y013350D01*
X028878Y013350D01*
X028961Y013433D01*
X029122Y013500D01*
X029298Y013500D01*
X029459Y013433D01*
X029602Y013296D02*
X029831Y013296D01*
X029782Y013177D02*
X029685Y013177D01*
X029700Y013059D02*
X029770Y013059D01*
X029783Y012940D02*
X029658Y012940D01*
X029587Y012822D02*
X029833Y012822D01*
X029945Y012703D02*
X029494Y012703D01*
X029422Y012585D02*
X031338Y012585D01*
X031219Y012703D02*
X030475Y012703D01*
X030587Y012822D02*
X031153Y012822D01*
X031150Y012940D02*
X030637Y012940D01*
X030650Y013059D02*
X031150Y013059D01*
X031150Y013177D02*
X030638Y013177D01*
X030589Y013296D02*
X031150Y013296D01*
X031150Y013414D02*
X030478Y013414D01*
X030287Y013770D02*
X031150Y013770D01*
X031150Y013888D02*
X030406Y013888D01*
X030524Y014007D02*
X031150Y014007D01*
X031111Y014125D02*
X030643Y014125D01*
X030761Y014244D02*
X031050Y014244D01*
X031033Y014362D02*
X030880Y014362D01*
X030998Y014481D02*
X031051Y014481D01*
X031235Y014718D02*
X031287Y014718D01*
X031354Y014836D02*
X031488Y014836D01*
X031472Y014955D02*
X032994Y014955D01*
X032853Y015073D02*
X031591Y015073D01*
X031709Y015192D02*
X031831Y015192D01*
X032149Y015192D02*
X032713Y015192D01*
X032572Y015310D02*
X032234Y015310D01*
X032250Y015429D02*
X032431Y015429D01*
X032291Y015547D02*
X032211Y015547D01*
X032150Y015666D02*
X032092Y015666D01*
X031708Y016037D02*
X031635Y016037D01*
X031496Y015980D01*
X031426Y015910D01*
X031288Y015910D01*
X031193Y015870D01*
X031120Y015797D01*
X031080Y015702D01*
X031080Y015598D01*
X031120Y015503D01*
X031193Y015430D01*
X031206Y015424D01*
X029852Y014070D01*
X026232Y014070D01*
X026287Y014205D01*
X026287Y014323D01*
X026496Y014569D01*
X026868Y014981D01*
X026900Y015013D01*
X026903Y015019D01*
X026907Y015024D01*
X026923Y015067D01*
X026940Y015108D01*
X026940Y015115D01*
X026942Y015121D01*
X026940Y015166D01*
X026940Y019202D01*
X027138Y019400D01*
X028902Y019400D01*
X029033Y019270D01*
X029033Y019185D01*
X029060Y019119D01*
X029060Y019078D01*
X029100Y018983D01*
X029173Y018910D01*
X029268Y018870D01*
X029372Y018870D01*
X029402Y018883D01*
X029410Y018883D01*
X029483Y018810D01*
X029578Y018770D01*
X029682Y018770D01*
X029777Y018810D01*
X029850Y018883D01*
X029890Y018978D01*
X029890Y019082D01*
X029850Y019177D01*
X029793Y019235D01*
X029813Y019255D01*
X029823Y019260D01*
X029836Y019256D01*
X029860Y019270D01*
X029889Y019270D01*
X029926Y019308D01*
X029973Y019334D01*
X029980Y019361D01*
X030000Y019381D01*
X030000Y019435D01*
X030014Y019486D01*
X030000Y019510D01*
X030000Y019539D01*
X029962Y019576D01*
X029936Y019623D01*
X029925Y019625D01*
X029920Y019637D01*
X029847Y019710D01*
X029752Y019750D01*
X029628Y019750D01*
X029533Y019710D01*
X029472Y019650D01*
X029388Y019650D01*
X029288Y019750D01*
X030502Y019750D01*
X030950Y019302D01*
X030950Y016734D01*
X030933Y016717D01*
X030902Y016730D01*
X030798Y016730D01*
X030703Y016690D01*
X030630Y016617D01*
X030590Y016522D01*
X030590Y016418D01*
X030630Y016323D01*
X030733Y016220D01*
X030828Y016180D01*
X030956Y016180D01*
X030970Y016166D01*
X030970Y016118D01*
X031010Y016023D01*
X031083Y015950D01*
X031178Y015910D01*
X031282Y015910D01*
X031377Y015950D01*
X031450Y016023D01*
X031490Y016118D01*
X031490Y016200D01*
X031515Y016200D01*
X031708Y016037D01*
X031595Y016021D02*
X031449Y016021D01*
X031490Y016140D02*
X031587Y016140D01*
X031270Y015903D02*
X026940Y015903D01*
X026940Y016021D02*
X031011Y016021D01*
X030970Y016140D02*
X026940Y016140D01*
X026940Y016258D02*
X030694Y016258D01*
X030607Y016377D02*
X026940Y016377D01*
X026940Y016495D02*
X030590Y016495D01*
X030628Y016614D02*
X026940Y016614D01*
X026940Y016732D02*
X030948Y016732D01*
X030950Y016851D02*
X026940Y016851D01*
X026940Y016969D02*
X030950Y016969D01*
X030950Y017088D02*
X026940Y017088D01*
X026940Y017206D02*
X030950Y017206D01*
X030950Y017325D02*
X026940Y017325D01*
X026940Y017443D02*
X030950Y017443D01*
X030950Y017562D02*
X026940Y017562D01*
X026940Y017680D02*
X030950Y017680D01*
X030950Y017799D02*
X026940Y017799D01*
X026940Y017917D02*
X030950Y017917D01*
X030950Y018036D02*
X026940Y018036D01*
X026940Y018154D02*
X030950Y018154D01*
X030950Y018273D02*
X026940Y018273D01*
X026940Y018391D02*
X030950Y018391D01*
X030950Y018510D02*
X026940Y018510D01*
X026940Y018628D02*
X030950Y018628D01*
X030950Y018747D02*
X026940Y018747D01*
X026940Y018865D02*
X029427Y018865D01*
X029099Y018984D02*
X026940Y018984D01*
X026940Y019102D02*
X029060Y019102D01*
X029033Y019221D02*
X026958Y019221D01*
X027077Y019339D02*
X028963Y019339D01*
X029343Y019695D02*
X029517Y019695D01*
X029863Y019695D02*
X030558Y019695D01*
X030676Y019576D02*
X029963Y019576D01*
X030006Y019458D02*
X030795Y019458D01*
X030913Y019339D02*
X029974Y019339D01*
X029807Y019221D02*
X030950Y019221D01*
X030950Y019102D02*
X029882Y019102D01*
X029890Y018984D02*
X030950Y018984D01*
X030950Y018865D02*
X029833Y018865D01*
X030938Y020050D02*
X037533Y020050D01*
X037532Y019932D02*
X031056Y019932D01*
X031175Y019813D02*
X037532Y019813D01*
X037532Y019695D02*
X031293Y019695D01*
X031412Y019576D02*
X037532Y019576D01*
X037531Y019458D02*
X031470Y019458D01*
X031470Y019339D02*
X037531Y019339D01*
X037531Y019221D02*
X031470Y019221D01*
X031470Y019102D02*
X037530Y019102D01*
X037530Y018984D02*
X031470Y018984D01*
X031470Y018865D02*
X037530Y018865D01*
X037529Y018747D02*
X031470Y018747D01*
X031470Y018628D02*
X037529Y018628D01*
X037529Y018510D02*
X031470Y018510D01*
X031470Y018391D02*
X034133Y018391D01*
X034130Y018387D02*
X034090Y018292D01*
X034090Y018200D01*
X033952Y018200D01*
X033870Y018118D01*
X033870Y018020D01*
X033672Y018020D01*
X033600Y018092D01*
X033600Y018142D01*
X033560Y018237D01*
X033457Y018340D01*
X033362Y018380D01*
X033258Y018380D01*
X033163Y018340D01*
X033090Y018267D01*
X033050Y018172D01*
X033050Y018122D01*
X032937Y018009D01*
X032870Y017848D01*
X032870Y017672D01*
X032937Y017511D01*
X033061Y017387D01*
X033080Y017379D01*
X033080Y017278D01*
X033120Y017183D01*
X033193Y017110D01*
X033288Y017070D01*
X033392Y017070D01*
X033487Y017110D01*
X033560Y017183D01*
X033600Y017278D01*
X033600Y017428D01*
X033672Y017500D01*
X033870Y017500D01*
X033870Y017402D01*
X033952Y017320D01*
X034060Y017320D01*
X034060Y017268D01*
X034100Y017173D01*
X034173Y017100D01*
X034268Y017060D01*
X034372Y017060D01*
X034467Y017100D01*
X034570Y017203D01*
X034610Y017298D01*
X034610Y017320D01*
X034668Y017320D01*
X034750Y017402D01*
X034750Y018118D01*
X034668Y018200D01*
X034610Y018200D01*
X034610Y018292D01*
X034570Y018387D01*
X034497Y018460D01*
X034402Y018500D01*
X034298Y018500D01*
X034203Y018460D01*
X034130Y018387D01*
X034090Y018273D02*
X033525Y018273D01*
X033595Y018154D02*
X033906Y018154D01*
X033870Y018036D02*
X033657Y018036D01*
X033095Y018273D02*
X031470Y018273D01*
X031470Y018154D02*
X032112Y018154D01*
X032061Y018133D02*
X031937Y018009D01*
X031870Y017848D01*
X031870Y017672D01*
X031937Y017511D01*
X032061Y017387D01*
X032222Y017320D01*
X032398Y017320D01*
X032559Y017387D01*
X032683Y017511D01*
X032750Y017672D01*
X032750Y017848D01*
X032683Y018009D01*
X032559Y018133D01*
X032398Y018200D01*
X032222Y018200D01*
X032061Y018133D01*
X031963Y018036D02*
X031470Y018036D01*
X031470Y017917D02*
X031899Y017917D01*
X031870Y017799D02*
X031470Y017799D01*
X031470Y017680D02*
X031870Y017680D01*
X031916Y017562D02*
X031470Y017562D01*
X031470Y017443D02*
X032005Y017443D01*
X032212Y017325D02*
X031470Y017325D01*
X031470Y017206D02*
X033110Y017206D01*
X033080Y017325D02*
X032408Y017325D01*
X032615Y017443D02*
X033005Y017443D01*
X032916Y017562D02*
X032704Y017562D01*
X032750Y017680D02*
X032870Y017680D01*
X032870Y017799D02*
X032750Y017799D01*
X032721Y017917D02*
X032899Y017917D01*
X032963Y018036D02*
X032657Y018036D01*
X032508Y018154D02*
X033050Y018154D01*
X033615Y017443D02*
X033870Y017443D01*
X033947Y017325D02*
X033600Y017325D01*
X033570Y017206D02*
X034086Y017206D01*
X034202Y017088D02*
X033434Y017088D01*
X033246Y017088D02*
X031470Y017088D01*
X031470Y016969D02*
X037525Y016969D01*
X037524Y016851D02*
X031470Y016851D01*
X031472Y016732D02*
X037524Y016732D01*
X037524Y016614D02*
X031831Y016614D01*
X031972Y016495D02*
X037523Y016495D01*
X037523Y016377D02*
X032113Y016377D01*
X032253Y016258D02*
X037523Y016258D01*
X037522Y016140D02*
X032394Y016140D01*
X032535Y016021D02*
X037522Y016021D01*
X037522Y015903D02*
X032676Y015903D01*
X032816Y015784D02*
X037521Y015784D01*
X037521Y015666D02*
X032957Y015666D01*
X033098Y015547D02*
X037521Y015547D01*
X037520Y015429D02*
X033239Y015429D01*
X033379Y015310D02*
X037520Y015310D01*
X037520Y015192D02*
X033520Y015192D01*
X033661Y015073D02*
X037520Y015073D01*
X037519Y014955D02*
X033801Y014955D01*
X033942Y014836D02*
X037519Y014836D01*
X037519Y014718D02*
X034083Y014718D01*
X034224Y014599D02*
X037518Y014599D01*
X037518Y014481D02*
X034364Y014481D01*
X034505Y014362D02*
X037518Y014362D01*
X037517Y014244D02*
X034646Y014244D01*
X034786Y014125D02*
X037517Y014125D01*
X037517Y014007D02*
X034927Y014007D01*
X035068Y013888D02*
X037516Y013888D01*
X037516Y013770D02*
X035209Y013770D01*
X035349Y013651D02*
X037516Y013651D01*
X037515Y013533D02*
X035490Y013533D01*
X035631Y013414D02*
X037515Y013414D01*
X037515Y013296D02*
X035771Y013296D01*
X035912Y013177D02*
X037514Y013177D01*
X037514Y013059D02*
X036022Y013059D01*
X036051Y012940D02*
X037514Y012940D01*
X037514Y012822D02*
X036050Y012822D01*
X036050Y012703D02*
X037513Y012703D01*
X037513Y012585D02*
X036051Y012585D01*
X036051Y012466D02*
X037513Y012466D01*
X037512Y012348D02*
X036051Y012348D01*
X036051Y012229D02*
X037512Y012229D01*
X037512Y012111D02*
X036052Y012111D01*
X036052Y011992D02*
X037511Y011992D01*
X037511Y011874D02*
X036052Y011874D01*
X036052Y011755D02*
X037511Y011755D01*
X037510Y011637D02*
X036053Y011637D01*
X036053Y011518D02*
X037510Y011518D01*
X037510Y011400D02*
X036053Y011400D01*
X036053Y011281D02*
X037509Y011281D01*
X037509Y011163D02*
X036054Y011163D01*
X036054Y011044D02*
X037509Y011044D01*
X037508Y010926D02*
X036054Y010926D01*
X036054Y010807D02*
X037508Y010807D01*
X037508Y010689D02*
X036055Y010689D01*
X036055Y010570D02*
X037508Y010570D01*
X037507Y010452D02*
X036055Y010452D01*
X036055Y010333D02*
X037507Y010333D01*
X037507Y010215D02*
X036056Y010215D01*
X036056Y010096D02*
X037506Y010096D01*
X037506Y009978D02*
X036056Y009978D01*
X036056Y009859D02*
X037506Y009859D01*
X037505Y009741D02*
X036057Y009741D01*
X036057Y009622D02*
X037505Y009622D01*
X037505Y009504D02*
X036057Y009504D01*
X036057Y009385D02*
X037504Y009385D01*
X037504Y009267D02*
X036058Y009267D01*
X036058Y009148D02*
X037504Y009148D01*
X037503Y009030D02*
X036058Y009030D01*
X036058Y008911D02*
X037503Y008911D01*
X037503Y008793D02*
X036059Y008793D01*
X036059Y008674D02*
X037502Y008674D01*
X037502Y008556D02*
X036059Y008556D01*
X036059Y008437D02*
X037502Y008437D01*
X037502Y008319D02*
X036060Y008319D01*
X036060Y008200D02*
X037501Y008200D01*
X037501Y008082D02*
X036060Y008082D01*
X036060Y007963D02*
X037501Y007963D01*
X037500Y007845D02*
X036061Y007845D01*
X036061Y007726D02*
X037500Y007726D01*
X037500Y007608D02*
X036061Y007608D01*
X036061Y007489D02*
X037499Y007489D01*
X037499Y007371D02*
X036062Y007371D01*
X036062Y007252D02*
X037499Y007252D01*
X037498Y007134D02*
X036062Y007134D01*
X036062Y007015D02*
X037498Y007015D01*
X037498Y006897D02*
X036063Y006897D01*
X036063Y006778D02*
X037497Y006778D01*
X037497Y006660D02*
X036063Y006660D01*
X036063Y006541D02*
X037497Y006541D01*
X037496Y006423D02*
X036063Y006423D01*
X036064Y006304D02*
X037496Y006304D01*
X037496Y006186D02*
X036064Y006186D01*
X036064Y006067D02*
X037496Y006067D01*
X037495Y005949D02*
X036064Y005949D01*
X036065Y005830D02*
X037495Y005830D01*
X037495Y005712D02*
X036065Y005712D01*
X036065Y005593D02*
X037494Y005593D01*
X037494Y005475D02*
X036065Y005475D01*
X036066Y005356D02*
X037494Y005356D01*
X037493Y005238D02*
X036066Y005238D01*
X036066Y005119D02*
X037493Y005119D01*
X037493Y005001D02*
X036066Y005001D01*
X036067Y004882D02*
X037492Y004882D01*
X037492Y004764D02*
X036067Y004764D01*
X036067Y004645D02*
X037492Y004645D01*
X037491Y004527D02*
X036067Y004527D01*
X036068Y004408D02*
X037491Y004408D01*
X037491Y004290D02*
X036068Y004290D01*
X036068Y004171D02*
X037490Y004171D01*
X037490Y004053D02*
X036068Y004053D01*
X036069Y003934D02*
X037490Y003934D01*
X037490Y003816D02*
X036069Y003816D01*
X036069Y003697D02*
X037489Y003697D01*
X037489Y003579D02*
X036069Y003579D01*
X036070Y003460D02*
X037489Y003460D01*
X037488Y003341D02*
X036070Y003341D01*
X036070Y003332D02*
X036070Y003332D01*
X036070Y003229D02*
X036070Y003229D01*
X036068Y003223D02*
X037488Y003223D01*
X037488Y003104D02*
X036002Y003104D01*
X036031Y003133D02*
X036031Y003133D01*
X035884Y002986D02*
X037487Y002986D01*
X037487Y002867D02*
X035765Y002867D01*
X035647Y002749D02*
X037487Y002749D01*
X037486Y002630D02*
X035487Y002630D01*
X034129Y003697D02*
X034069Y003697D01*
X034150Y003778D02*
X033892Y003520D01*
X033528Y003520D01*
X033270Y003778D01*
X033270Y004142D01*
X033528Y004400D01*
X033892Y004400D01*
X034150Y004142D01*
X034150Y003778D01*
X034150Y003816D02*
X034248Y003816D01*
X034150Y003934D02*
X034366Y003934D01*
X034392Y004053D02*
X034150Y004053D01*
X034121Y004171D02*
X034393Y004171D01*
X034394Y004290D02*
X034003Y004290D01*
X033892Y004520D02*
X034150Y004778D01*
X034150Y005142D01*
X033892Y005400D01*
X033528Y005400D01*
X033270Y005142D01*
X033270Y004778D01*
X033528Y004520D01*
X033892Y004520D01*
X033899Y004527D02*
X034397Y004527D01*
X034398Y004645D02*
X034017Y004645D01*
X034136Y004764D02*
X034399Y004764D01*
X034400Y004882D02*
X034150Y004882D01*
X034150Y005001D02*
X034401Y005001D01*
X034402Y005119D02*
X034150Y005119D01*
X034055Y005238D02*
X034404Y005238D01*
X034405Y005356D02*
X033936Y005356D01*
X033484Y005356D02*
X032936Y005356D01*
X032892Y005400D02*
X033150Y005142D01*
X033150Y004778D01*
X032892Y004520D01*
X032528Y004520D01*
X032270Y004778D01*
X032270Y005142D01*
X032528Y005400D01*
X032892Y005400D01*
X033055Y005238D02*
X033365Y005238D01*
X033270Y005119D02*
X033150Y005119D01*
X033150Y005001D02*
X033270Y005001D01*
X033270Y004882D02*
X033150Y004882D01*
X033136Y004764D02*
X033284Y004764D01*
X033403Y004645D02*
X033017Y004645D01*
X032899Y004527D02*
X033521Y004527D01*
X033417Y004290D02*
X033003Y004290D01*
X032892Y004400D02*
X033150Y004142D01*
X033150Y003778D01*
X032892Y003520D01*
X032528Y003520D01*
X032270Y003778D01*
X032270Y004142D01*
X032528Y004400D01*
X032892Y004400D01*
X033121Y004171D02*
X033299Y004171D01*
X033270Y004053D02*
X033150Y004053D01*
X033150Y003934D02*
X033270Y003934D01*
X033270Y003816D02*
X033150Y003816D01*
X033069Y003697D02*
X033351Y003697D01*
X033469Y003579D02*
X032951Y003579D01*
X032469Y003579D02*
X031951Y003579D01*
X031892Y003520D02*
X032150Y003778D01*
X032150Y004142D01*
X031892Y004400D01*
X031528Y004400D01*
X031270Y004142D01*
X031270Y003778D01*
X031528Y003520D01*
X031892Y003520D01*
X032069Y003697D02*
X032351Y003697D01*
X032270Y003816D02*
X032150Y003816D01*
X032150Y003934D02*
X032270Y003934D01*
X032270Y004053D02*
X032150Y004053D01*
X032121Y004171D02*
X032299Y004171D01*
X032417Y004290D02*
X032003Y004290D01*
X031892Y004520D02*
X032150Y004778D01*
X032150Y005142D01*
X031892Y005400D01*
X031528Y005400D01*
X031270Y005142D01*
X031270Y004778D01*
X031528Y004520D01*
X031892Y004520D01*
X031899Y004527D02*
X032521Y004527D01*
X032403Y004645D02*
X032017Y004645D01*
X032136Y004764D02*
X032284Y004764D01*
X032270Y004882D02*
X032150Y004882D01*
X032150Y005001D02*
X032270Y005001D01*
X032270Y005119D02*
X032150Y005119D01*
X032055Y005238D02*
X032365Y005238D01*
X032484Y005356D02*
X031936Y005356D01*
X031484Y005356D02*
X030936Y005356D01*
X030892Y005400D02*
X030528Y005400D01*
X030270Y005142D01*
X030270Y004778D01*
X030528Y004520D01*
X030892Y004520D01*
X031150Y004778D01*
X031150Y005142D01*
X030892Y005400D01*
X031055Y005238D02*
X031365Y005238D01*
X031270Y005119D02*
X031150Y005119D01*
X031150Y005001D02*
X031270Y005001D01*
X031270Y004882D02*
X031150Y004882D01*
X031136Y004764D02*
X031284Y004764D01*
X031403Y004645D02*
X031017Y004645D01*
X030899Y004527D02*
X031521Y004527D01*
X031417Y004290D02*
X031003Y004290D01*
X030892Y004400D02*
X030528Y004400D01*
X030270Y004142D01*
X030270Y003778D01*
X030528Y003520D01*
X030892Y003520D01*
X031150Y003778D01*
X031150Y004142D01*
X030892Y004400D01*
X031121Y004171D02*
X031299Y004171D01*
X031270Y004053D02*
X031150Y004053D01*
X031150Y003934D02*
X031270Y003934D01*
X031270Y003816D02*
X031150Y003816D01*
X031069Y003697D02*
X031351Y003697D01*
X031469Y003579D02*
X030951Y003579D01*
X030469Y003579D02*
X029951Y003579D01*
X029892Y003520D02*
X030150Y003778D01*
X030150Y004142D01*
X029892Y004400D01*
X029528Y004400D01*
X029270Y004142D01*
X029270Y003778D01*
X029528Y003520D01*
X029892Y003520D01*
X030069Y003697D02*
X030351Y003697D01*
X030270Y003816D02*
X030150Y003816D01*
X030150Y003934D02*
X030270Y003934D01*
X030270Y004053D02*
X030150Y004053D01*
X030121Y004171D02*
X030299Y004171D01*
X030417Y004290D02*
X030003Y004290D01*
X029892Y004520D02*
X030150Y004778D01*
X030150Y005142D01*
X029892Y005400D01*
X029528Y005400D01*
X029270Y005142D01*
X029270Y004778D01*
X029528Y004520D01*
X029892Y004520D01*
X029899Y004527D02*
X030521Y004527D01*
X030403Y004645D02*
X030017Y004645D01*
X030136Y004764D02*
X030284Y004764D01*
X030270Y004882D02*
X030150Y004882D01*
X030150Y005001D02*
X030270Y005001D01*
X030270Y005119D02*
X030150Y005119D01*
X030055Y005238D02*
X030365Y005238D01*
X030484Y005356D02*
X029936Y005356D01*
X029484Y005356D02*
X028965Y005356D01*
X028901Y005420D02*
X028750Y005420D01*
X028750Y005000D01*
X029170Y005000D01*
X029170Y005151D01*
X028901Y005420D01*
X028750Y005356D02*
X028670Y005356D01*
X028670Y005420D02*
X028519Y005420D01*
X028250Y005151D01*
X028250Y005000D01*
X028670Y005000D01*
X028670Y005420D01*
X028670Y005238D02*
X028750Y005238D01*
X028750Y005119D02*
X028670Y005119D01*
X028670Y005001D02*
X028750Y005001D01*
X028750Y005000D02*
X028670Y005000D01*
X028670Y004920D01*
X028750Y004920D01*
X028750Y005000D01*
X028750Y004920D02*
X029170Y004920D01*
X029170Y004769D01*
X028901Y004500D01*
X028750Y004500D01*
X028750Y004920D01*
X028750Y004882D02*
X028670Y004882D01*
X028670Y004920D02*
X028670Y004500D01*
X028519Y004500D01*
X028250Y004769D01*
X028250Y004920D01*
X028670Y004920D01*
X028670Y004764D02*
X028750Y004764D01*
X028750Y004645D02*
X028670Y004645D01*
X028670Y004527D02*
X028750Y004527D01*
X028927Y004527D02*
X029521Y004527D01*
X029403Y004645D02*
X029046Y004645D01*
X029164Y004764D02*
X029284Y004764D01*
X029270Y004882D02*
X029170Y004882D01*
X029170Y005001D02*
X029270Y005001D01*
X029270Y005119D02*
X029170Y005119D01*
X029083Y005238D02*
X029365Y005238D01*
X028455Y005356D02*
X027936Y005356D01*
X027892Y005400D02*
X027528Y005400D01*
X027270Y005142D01*
X027270Y004778D01*
X027528Y004520D01*
X027892Y004520D01*
X028150Y004778D01*
X028150Y005142D01*
X027892Y005400D01*
X028055Y005238D02*
X028337Y005238D01*
X028250Y005119D02*
X028150Y005119D01*
X028150Y005001D02*
X028250Y005001D01*
X028250Y004882D02*
X028150Y004882D01*
X028136Y004764D02*
X028256Y004764D01*
X028374Y004645D02*
X028017Y004645D01*
X027899Y004527D02*
X028493Y004527D01*
X028528Y004400D02*
X028270Y004142D01*
X028270Y003778D01*
X028528Y003520D01*
X028892Y003520D01*
X029150Y003778D01*
X029150Y004142D01*
X028892Y004400D01*
X028528Y004400D01*
X028417Y004290D02*
X028003Y004290D01*
X027892Y004400D02*
X028150Y004142D01*
X028150Y003778D01*
X027892Y003520D01*
X027528Y003520D01*
X027270Y003778D01*
X027270Y004142D01*
X027528Y004400D01*
X027892Y004400D01*
X028121Y004171D02*
X028299Y004171D01*
X028270Y004053D02*
X028150Y004053D01*
X028150Y003934D02*
X028270Y003934D01*
X028270Y003816D02*
X028150Y003816D01*
X028069Y003697D02*
X028351Y003697D01*
X028469Y003579D02*
X027951Y003579D01*
X027469Y003579D02*
X026951Y003579D01*
X026892Y003520D02*
X027150Y003778D01*
X027150Y004142D01*
X026892Y004400D01*
X026528Y004400D01*
X026270Y004142D01*
X026270Y003778D01*
X026528Y003520D01*
X026892Y003520D01*
X027069Y003697D02*
X027351Y003697D01*
X027270Y003816D02*
X027150Y003816D01*
X027150Y003934D02*
X027270Y003934D01*
X027270Y004053D02*
X027150Y004053D01*
X027121Y004171D02*
X027299Y004171D01*
X027417Y004290D02*
X027003Y004290D01*
X026892Y004520D02*
X027150Y004778D01*
X027150Y005142D01*
X026950Y005342D01*
X026950Y006082D01*
X026910Y006177D01*
X026837Y006250D01*
X026317Y006770D01*
X026222Y006810D01*
X019113Y006810D01*
X018570Y007322D01*
X018570Y008286D01*
X018614Y008330D01*
X018634Y008330D01*
X018658Y008320D01*
X018762Y008320D01*
X018857Y008360D01*
X018930Y008433D01*
X018970Y008528D01*
X018970Y008632D01*
X018930Y008727D01*
X018847Y008810D01*
X018752Y008850D01*
X018590Y008850D01*
X018590Y008932D01*
X018550Y009027D01*
X018477Y009100D01*
X018382Y009140D01*
X018278Y009140D01*
X018183Y009100D01*
X018118Y009036D01*
X018140Y009088D01*
X018140Y009192D01*
X018100Y009287D01*
X018027Y009360D01*
X017932Y009400D01*
X017764Y009400D01*
X017764Y009400D01*
X017625Y009457D01*
X017475Y009457D01*
X017336Y009400D01*
X017098Y009400D01*
X017003Y009360D01*
X016930Y009287D01*
X016890Y009192D01*
X016890Y009088D01*
X016930Y008993D01*
X017003Y008920D01*
X017098Y008880D01*
X017224Y008880D01*
X017230Y008866D01*
X017290Y008806D01*
X017290Y006968D01*
X017330Y006873D01*
X018132Y006070D01*
X017768Y006070D01*
X016570Y007268D01*
X016570Y010386D01*
X016630Y010446D01*
X016687Y010585D01*
X016687Y010636D01*
X016697Y010640D01*
X016770Y010713D01*
X016810Y010808D01*
X016810Y010912D01*
X016770Y011007D01*
X016697Y011080D01*
X016602Y011120D01*
X016448Y011120D01*
X016353Y011080D01*
X016310Y011037D01*
X016290Y011037D01*
X016217Y011110D01*
X016122Y011150D01*
X016018Y011150D01*
X015923Y011110D01*
X015850Y011037D01*
X015810Y010942D01*
X015810Y010838D01*
X015850Y010743D01*
X015932Y010660D01*
X015870Y010597D01*
X015830Y010502D01*
X015830Y010398D01*
X015870Y010303D01*
X015943Y010230D01*
X016038Y010190D01*
X016050Y010190D01*
X016050Y007108D01*
X016090Y007013D01*
X017440Y005663D01*
X017513Y005590D01*
X017608Y005550D01*
X024132Y005550D01*
X024405Y005277D01*
X024270Y005142D01*
X024270Y004778D01*
X024528Y004520D01*
X024892Y004520D01*
X025150Y004778D01*
X025150Y005142D01*
X024970Y005322D01*
X024970Y005392D01*
X024930Y005487D01*
X024857Y005560D01*
X024468Y005950D01*
X025122Y005950D01*
X025460Y005612D01*
X025460Y005332D01*
X025270Y005142D01*
X025270Y004778D01*
X025528Y004520D01*
X025892Y004520D01*
X026150Y004778D01*
X026150Y005142D01*
X025980Y005312D01*
X025980Y005772D01*
X025940Y005867D01*
X025867Y005940D01*
X025518Y006290D01*
X026062Y006290D01*
X026430Y005922D01*
X026430Y005302D01*
X026270Y005142D01*
X026270Y004778D01*
X026528Y004520D01*
X026892Y004520D01*
X026899Y004527D02*
X027521Y004527D01*
X027403Y004645D02*
X027017Y004645D01*
X027136Y004764D02*
X027284Y004764D01*
X027270Y004882D02*
X027150Y004882D01*
X027150Y005001D02*
X027270Y005001D01*
X027270Y005119D02*
X027150Y005119D01*
X027055Y005238D02*
X027365Y005238D01*
X027484Y005356D02*
X026950Y005356D01*
X026950Y005475D02*
X034406Y005475D01*
X034407Y005593D02*
X026950Y005593D01*
X026950Y005712D02*
X034408Y005712D01*
X034409Y005830D02*
X026950Y005830D01*
X026950Y005949D02*
X034411Y005949D01*
X034412Y006067D02*
X026950Y006067D01*
X026902Y006186D02*
X034413Y006186D01*
X034414Y006304D02*
X026784Y006304D01*
X026665Y006423D02*
X034415Y006423D01*
X034416Y006541D02*
X026547Y006541D01*
X026428Y006660D02*
X034417Y006660D01*
X034419Y006778D02*
X026299Y006778D01*
X026167Y006186D02*
X025622Y006186D01*
X025741Y006067D02*
X026285Y006067D01*
X026404Y005949D02*
X025859Y005949D01*
X025956Y005830D02*
X026430Y005830D01*
X026430Y005712D02*
X025980Y005712D01*
X025980Y005593D02*
X026430Y005593D01*
X026430Y005475D02*
X025980Y005475D01*
X025980Y005356D02*
X026430Y005356D01*
X026365Y005238D02*
X026055Y005238D01*
X026150Y005119D02*
X026270Y005119D01*
X026270Y005001D02*
X026150Y005001D01*
X026150Y004882D02*
X026270Y004882D01*
X026284Y004764D02*
X026136Y004764D01*
X026017Y004645D02*
X026403Y004645D01*
X026521Y004527D02*
X025899Y004527D01*
X025892Y004400D02*
X025528Y004400D01*
X025270Y004142D01*
X025270Y003778D01*
X025528Y003520D01*
X025892Y003520D01*
X026150Y003778D01*
X026150Y004142D01*
X025892Y004400D01*
X026003Y004290D02*
X026417Y004290D01*
X026299Y004171D02*
X026121Y004171D01*
X026150Y004053D02*
X026270Y004053D01*
X026270Y003934D02*
X026150Y003934D01*
X026150Y003816D02*
X026270Y003816D01*
X026351Y003697D02*
X026069Y003697D01*
X025951Y003579D02*
X026469Y003579D01*
X025469Y003579D02*
X024951Y003579D01*
X024892Y003520D02*
X025150Y003778D01*
X025150Y004142D01*
X024892Y004400D01*
X024528Y004400D01*
X024270Y004142D01*
X024270Y003778D01*
X024528Y003520D01*
X024892Y003520D01*
X025069Y003697D02*
X025351Y003697D01*
X025270Y003816D02*
X025150Y003816D01*
X025150Y003934D02*
X025270Y003934D01*
X025270Y004053D02*
X025150Y004053D01*
X025121Y004171D02*
X025299Y004171D01*
X025417Y004290D02*
X025003Y004290D01*
X024899Y004527D02*
X025521Y004527D01*
X025403Y004645D02*
X025017Y004645D01*
X025136Y004764D02*
X025284Y004764D01*
X025270Y004882D02*
X025150Y004882D01*
X025150Y005001D02*
X025270Y005001D01*
X025270Y005119D02*
X025150Y005119D01*
X025055Y005238D02*
X025365Y005238D01*
X025460Y005356D02*
X024970Y005356D01*
X024936Y005475D02*
X025460Y005475D01*
X025460Y005593D02*
X024825Y005593D01*
X024857Y005560D02*
X024857Y005560D01*
X024706Y005712D02*
X025361Y005712D01*
X025242Y005830D02*
X024588Y005830D01*
X024469Y005949D02*
X025124Y005949D01*
X024326Y005356D02*
X023936Y005356D01*
X023892Y005400D02*
X023528Y005400D01*
X023270Y005142D01*
X023270Y004778D01*
X023528Y004520D01*
X023892Y004520D01*
X024150Y004778D01*
X024150Y005142D01*
X023892Y005400D01*
X024055Y005238D02*
X024365Y005238D01*
X024270Y005119D02*
X024150Y005119D01*
X024150Y005001D02*
X024270Y005001D01*
X024270Y004882D02*
X024150Y004882D01*
X024136Y004764D02*
X024284Y004764D01*
X024403Y004645D02*
X024017Y004645D01*
X023899Y004527D02*
X024521Y004527D01*
X024417Y004290D02*
X024003Y004290D01*
X023892Y004400D02*
X023528Y004400D01*
X023270Y004142D01*
X023270Y003778D01*
X023528Y003520D01*
X023892Y003520D01*
X024150Y003778D01*
X024150Y004142D01*
X023892Y004400D01*
X024121Y004171D02*
X024299Y004171D01*
X024270Y004053D02*
X024150Y004053D01*
X024150Y003934D02*
X024270Y003934D01*
X024270Y003816D02*
X024150Y003816D01*
X024069Y003697D02*
X024351Y003697D01*
X024469Y003579D02*
X023951Y003579D01*
X023469Y003579D02*
X022951Y003579D01*
X022892Y003520D02*
X023150Y003778D01*
X023150Y004142D01*
X022892Y004400D01*
X022528Y004400D01*
X022270Y004142D01*
X022270Y003778D01*
X022528Y003520D01*
X022892Y003520D01*
X023069Y003697D02*
X023351Y003697D01*
X023270Y003816D02*
X023150Y003816D01*
X023150Y003934D02*
X023270Y003934D01*
X023270Y004053D02*
X023150Y004053D01*
X023121Y004171D02*
X023299Y004171D01*
X023417Y004290D02*
X023003Y004290D01*
X022892Y004520D02*
X023150Y004778D01*
X023150Y005142D01*
X022892Y005400D01*
X022528Y005400D01*
X022270Y005142D01*
X022270Y004778D01*
X022528Y004520D01*
X022892Y004520D01*
X022899Y004527D02*
X023521Y004527D01*
X023403Y004645D02*
X023017Y004645D01*
X023136Y004764D02*
X023284Y004764D01*
X023270Y004882D02*
X023150Y004882D01*
X023150Y005001D02*
X023270Y005001D01*
X023270Y005119D02*
X023150Y005119D01*
X023055Y005238D02*
X023365Y005238D01*
X023484Y005356D02*
X022936Y005356D01*
X022484Y005356D02*
X021936Y005356D01*
X021892Y005400D02*
X021528Y005400D01*
X021270Y005142D01*
X021270Y004778D01*
X021528Y004520D01*
X021892Y004520D01*
X022150Y004778D01*
X022150Y005142D01*
X021892Y005400D01*
X022055Y005238D02*
X022365Y005238D01*
X022270Y005119D02*
X022150Y005119D01*
X022150Y005001D02*
X022270Y005001D01*
X022270Y004882D02*
X022150Y004882D01*
X022136Y004764D02*
X022284Y004764D01*
X022403Y004645D02*
X022017Y004645D01*
X021899Y004527D02*
X022521Y004527D01*
X022417Y004290D02*
X022003Y004290D01*
X021892Y004400D02*
X021528Y004400D01*
X021270Y004142D01*
X021270Y003778D01*
X021528Y003520D01*
X021892Y003520D01*
X022150Y003778D01*
X022150Y004142D01*
X021892Y004400D01*
X022121Y004171D02*
X022299Y004171D01*
X022270Y004053D02*
X022150Y004053D01*
X022150Y003934D02*
X022270Y003934D01*
X022270Y003816D02*
X022150Y003816D01*
X022069Y003697D02*
X022351Y003697D01*
X022469Y003579D02*
X021951Y003579D01*
X021469Y003579D02*
X020951Y003579D01*
X020892Y003520D02*
X021150Y003778D01*
X021150Y004142D01*
X020892Y004400D01*
X020528Y004400D01*
X020270Y004142D01*
X020270Y003778D01*
X020528Y003520D01*
X020892Y003520D01*
X021069Y003697D02*
X021351Y003697D01*
X021270Y003816D02*
X021150Y003816D01*
X021150Y003934D02*
X021270Y003934D01*
X021270Y004053D02*
X021150Y004053D01*
X021121Y004171D02*
X021299Y004171D01*
X021417Y004290D02*
X021003Y004290D01*
X020892Y004520D02*
X021150Y004778D01*
X021150Y005142D01*
X020892Y005400D01*
X020528Y005400D01*
X020270Y005142D01*
X020270Y004778D01*
X020528Y004520D01*
X020892Y004520D01*
X020899Y004527D02*
X021521Y004527D01*
X021403Y004645D02*
X021017Y004645D01*
X021136Y004764D02*
X021284Y004764D01*
X021270Y004882D02*
X021150Y004882D01*
X021150Y005001D02*
X021270Y005001D01*
X021270Y005119D02*
X021150Y005119D01*
X021055Y005238D02*
X021365Y005238D01*
X021484Y005356D02*
X020936Y005356D01*
X020484Y005356D02*
X019965Y005356D01*
X019901Y005420D02*
X020170Y005151D01*
X020170Y005000D01*
X019750Y005000D01*
X019750Y004920D01*
X020170Y004920D01*
X020170Y004769D01*
X019901Y004500D01*
X019750Y004500D01*
X019750Y004920D01*
X019670Y004920D01*
X019670Y004500D01*
X019519Y004500D01*
X019250Y004769D01*
X019250Y004920D01*
X019670Y004920D01*
X019670Y005000D01*
X019670Y005420D01*
X019519Y005420D01*
X019250Y005151D01*
X019250Y005000D01*
X019670Y005000D01*
X019750Y005000D01*
X019750Y005420D01*
X019901Y005420D01*
X019750Y005356D02*
X019670Y005356D01*
X019670Y005238D02*
X019750Y005238D01*
X019750Y005119D02*
X019670Y005119D01*
X019670Y005001D02*
X019750Y005001D01*
X019750Y004882D02*
X019670Y004882D01*
X019670Y004764D02*
X019750Y004764D01*
X019750Y004645D02*
X019670Y004645D01*
X019670Y004527D02*
X019750Y004527D01*
X019927Y004527D02*
X020521Y004527D01*
X020403Y004645D02*
X020046Y004645D01*
X020164Y004764D02*
X020284Y004764D01*
X020270Y004882D02*
X020170Y004882D01*
X020170Y005001D02*
X020270Y005001D01*
X020270Y005119D02*
X020170Y005119D01*
X020083Y005238D02*
X020365Y005238D01*
X020417Y004290D02*
X020003Y004290D01*
X020121Y004171D02*
X020299Y004171D01*
X020270Y004053D02*
X020150Y004053D01*
X020150Y003934D02*
X020270Y003934D01*
X020270Y003816D02*
X020150Y003816D01*
X020069Y003697D02*
X020351Y003697D01*
X020469Y003579D02*
X020049Y003579D01*
X019788Y003104D02*
X019632Y003104D01*
X019514Y002986D02*
X019954Y002986D01*
X019371Y003579D02*
X018951Y003579D01*
X018892Y003520D02*
X019150Y003778D01*
X019150Y004142D01*
X018892Y004400D01*
X018528Y004400D01*
X018270Y004142D01*
X018270Y003778D01*
X018528Y003520D01*
X018892Y003520D01*
X019069Y003697D02*
X019351Y003697D01*
X019270Y003816D02*
X019150Y003816D01*
X019150Y003934D02*
X019270Y003934D01*
X019270Y004053D02*
X019150Y004053D01*
X019121Y004171D02*
X019299Y004171D01*
X019417Y004290D02*
X019003Y004290D01*
X018892Y004520D02*
X019150Y004778D01*
X019150Y005142D01*
X018892Y005400D01*
X018528Y005400D01*
X018270Y005142D01*
X018270Y004778D01*
X018528Y004520D01*
X018892Y004520D01*
X018899Y004527D02*
X019493Y004527D01*
X019374Y004645D02*
X019017Y004645D01*
X019136Y004764D02*
X019256Y004764D01*
X019250Y004882D02*
X019150Y004882D01*
X019150Y005001D02*
X019250Y005001D01*
X019250Y005119D02*
X019150Y005119D01*
X019055Y005238D02*
X019337Y005238D01*
X019455Y005356D02*
X018936Y005356D01*
X018484Y005356D02*
X017936Y005356D01*
X017892Y005400D02*
X017528Y005400D01*
X017270Y005142D01*
X017270Y004778D01*
X017528Y004520D01*
X017892Y004520D01*
X018150Y004778D01*
X018150Y005142D01*
X017892Y005400D01*
X018055Y005238D02*
X018365Y005238D01*
X018270Y005119D02*
X018150Y005119D01*
X018150Y005001D02*
X018270Y005001D01*
X018270Y004882D02*
X018150Y004882D01*
X018136Y004764D02*
X018284Y004764D01*
X018403Y004645D02*
X018017Y004645D01*
X017899Y004527D02*
X018521Y004527D01*
X018417Y004290D02*
X018003Y004290D01*
X017892Y004400D02*
X018150Y004142D01*
X018150Y003778D01*
X017892Y003520D01*
X017528Y003520D01*
X017270Y003778D01*
X017270Y004142D01*
X017528Y004400D01*
X017892Y004400D01*
X018121Y004171D02*
X018299Y004171D01*
X018270Y004053D02*
X018150Y004053D01*
X018150Y003934D02*
X018270Y003934D01*
X018270Y003816D02*
X018150Y003816D01*
X018069Y003697D02*
X018351Y003697D01*
X018469Y003579D02*
X017951Y003579D01*
X017469Y003579D02*
X016951Y003579D01*
X016892Y003520D02*
X017150Y003778D01*
X017150Y004142D01*
X016892Y004400D01*
X016528Y004400D01*
X016270Y004142D01*
X016270Y003778D01*
X016528Y003520D01*
X016892Y003520D01*
X017069Y003697D02*
X017351Y003697D01*
X017270Y003816D02*
X017150Y003816D01*
X017150Y003934D02*
X017270Y003934D01*
X017270Y004053D02*
X017150Y004053D01*
X017121Y004171D02*
X017299Y004171D01*
X017417Y004290D02*
X017003Y004290D01*
X016892Y004520D02*
X017150Y004778D01*
X017150Y005142D01*
X016892Y005400D01*
X016528Y005400D01*
X016270Y005142D01*
X016270Y004778D01*
X016528Y004520D01*
X016892Y004520D01*
X016899Y004527D02*
X017521Y004527D01*
X017403Y004645D02*
X017017Y004645D01*
X017136Y004764D02*
X017284Y004764D01*
X017270Y004882D02*
X017150Y004882D01*
X017150Y005001D02*
X017270Y005001D01*
X017270Y005119D02*
X017150Y005119D01*
X017055Y005238D02*
X017365Y005238D01*
X017484Y005356D02*
X016936Y005356D01*
X016484Y005356D02*
X015936Y005356D01*
X015892Y005400D02*
X015528Y005400D01*
X015270Y005142D01*
X015270Y004778D01*
X015528Y004520D01*
X015892Y004520D01*
X016150Y004778D01*
X016150Y005142D01*
X015892Y005400D01*
X016055Y005238D02*
X016365Y005238D01*
X016270Y005119D02*
X016150Y005119D01*
X016150Y005001D02*
X016270Y005001D01*
X016270Y004882D02*
X016150Y004882D01*
X016136Y004764D02*
X016284Y004764D01*
X016403Y004645D02*
X016017Y004645D01*
X015899Y004527D02*
X016521Y004527D01*
X016417Y004290D02*
X016003Y004290D01*
X015892Y004400D02*
X015528Y004400D01*
X015270Y004142D01*
X015270Y003778D01*
X015528Y003520D01*
X015892Y003520D01*
X016150Y003778D01*
X016150Y004142D01*
X015892Y004400D01*
X016121Y004171D02*
X016299Y004171D01*
X016270Y004053D02*
X016150Y004053D01*
X016150Y003934D02*
X016270Y003934D01*
X016270Y003816D02*
X016150Y003816D01*
X016069Y003697D02*
X016351Y003697D01*
X016469Y003579D02*
X015951Y003579D01*
X015469Y003579D02*
X014951Y003579D01*
X014892Y003520D02*
X015150Y003778D01*
X015150Y004142D01*
X014892Y004400D01*
X014528Y004400D01*
X014270Y004142D01*
X014270Y003778D01*
X014528Y003520D01*
X014892Y003520D01*
X015069Y003697D02*
X015351Y003697D01*
X015270Y003816D02*
X015150Y003816D01*
X015150Y003934D02*
X015270Y003934D01*
X015270Y004053D02*
X015150Y004053D01*
X015121Y004171D02*
X015299Y004171D01*
X015417Y004290D02*
X015003Y004290D01*
X014892Y004520D02*
X015150Y004778D01*
X015150Y005142D01*
X014892Y005400D01*
X014528Y005400D01*
X014270Y005142D01*
X014270Y004778D01*
X014528Y004520D01*
X014892Y004520D01*
X014899Y004527D02*
X015521Y004527D01*
X015403Y004645D02*
X015017Y004645D01*
X015136Y004764D02*
X015284Y004764D01*
X015270Y004882D02*
X015150Y004882D01*
X015150Y005001D02*
X015270Y005001D01*
X015270Y005119D02*
X015150Y005119D01*
X015055Y005238D02*
X015365Y005238D01*
X015484Y005356D02*
X014936Y005356D01*
X014484Y005356D02*
X006080Y005356D01*
X006080Y005335D02*
X006080Y005545D01*
X005999Y005740D01*
X005850Y005889D01*
X005655Y005970D01*
X004665Y005970D01*
X004470Y005889D01*
X004321Y005740D01*
X004240Y005545D01*
X004240Y005335D01*
X004321Y005140D01*
X004470Y004991D01*
X004665Y004910D01*
X005655Y004910D01*
X005850Y004991D01*
X005999Y005140D01*
X006080Y005335D01*
X006040Y005238D02*
X014365Y005238D01*
X014270Y005119D02*
X005979Y005119D01*
X005860Y005001D02*
X014270Y005001D01*
X014270Y004882D02*
X004228Y004882D01*
X004220Y005001D02*
X004460Y005001D01*
X004341Y005119D02*
X004220Y005119D01*
X004220Y005238D02*
X004280Y005238D01*
X004240Y005356D02*
X004220Y005356D01*
X004220Y005475D02*
X004240Y005475D01*
X004220Y005593D02*
X004260Y005593D01*
X004220Y005712D02*
X004309Y005712D01*
X004220Y005830D02*
X004410Y005830D01*
X004220Y005949D02*
X004613Y005949D01*
X004220Y006067D02*
X017035Y006067D01*
X016917Y006186D02*
X004220Y006186D01*
X004220Y006304D02*
X016798Y006304D01*
X016680Y006423D02*
X004220Y006423D01*
X004220Y006541D02*
X016561Y006541D01*
X016443Y006660D02*
X004220Y006660D01*
X004220Y006778D02*
X016324Y006778D01*
X016206Y006897D02*
X005695Y006897D01*
X005905Y007015D02*
X016089Y007015D01*
X016050Y007134D02*
X006009Y007134D01*
X006245Y007252D02*
X016050Y007252D01*
X016050Y007371D02*
X006363Y007371D01*
X006482Y007489D02*
X016050Y007489D01*
X016050Y007608D02*
X006600Y007608D01*
X006719Y007726D02*
X016050Y007726D01*
X016050Y007845D02*
X006837Y007845D01*
X006956Y007963D02*
X016050Y007963D01*
X016050Y008082D02*
X007074Y008082D01*
X007193Y008200D02*
X016050Y008200D01*
X016050Y008319D02*
X007311Y008319D01*
X007430Y008437D02*
X016050Y008437D01*
X016050Y008556D02*
X007548Y008556D01*
X007667Y008674D02*
X016050Y008674D01*
X016050Y008793D02*
X007785Y008793D01*
X007904Y008911D02*
X016050Y008911D01*
X016050Y009030D02*
X008022Y009030D01*
X008141Y009148D02*
X016050Y009148D01*
X016050Y009267D02*
X008265Y009267D01*
X008388Y009385D02*
X016050Y009385D01*
X016050Y009504D02*
X008511Y009504D01*
X008634Y009622D02*
X016050Y009622D01*
X016050Y009741D02*
X008757Y009741D01*
X008880Y009859D02*
X016050Y009859D01*
X016050Y009978D02*
X009003Y009978D01*
X009126Y010096D02*
X016050Y010096D01*
X015979Y010215D02*
X009249Y010215D01*
X009372Y010333D02*
X015857Y010333D01*
X015830Y010452D02*
X009495Y010452D01*
X009618Y010570D02*
X015858Y010570D01*
X015904Y010689D02*
X009741Y010689D01*
X009864Y010807D02*
X015823Y010807D01*
X015810Y010926D02*
X009987Y010926D01*
X010110Y011044D02*
X015856Y011044D01*
X016284Y011044D02*
X016316Y011044D01*
X016734Y011044D02*
X017808Y011044D01*
X017690Y011163D02*
X010233Y011163D01*
X010356Y011281D02*
X017571Y011281D01*
X017453Y011400D02*
X010479Y011400D01*
X010602Y011518D02*
X017334Y011518D01*
X017216Y011637D02*
X010725Y011637D01*
X010848Y011755D02*
X017097Y011755D01*
X017014Y011874D02*
X010971Y011874D01*
X011094Y011992D02*
X016999Y011992D01*
X016996Y012111D02*
X012158Y012111D01*
X012429Y012229D02*
X016993Y012229D01*
X016990Y012348D02*
X012664Y012348D01*
X012812Y012466D02*
X016987Y012466D01*
X016984Y012585D02*
X012850Y012585D01*
X012833Y012703D02*
X016910Y012703D01*
X017294Y013059D02*
X017344Y013059D01*
X017263Y013177D02*
X017158Y013177D01*
X017250Y013296D02*
X016983Y013296D01*
X017296Y013414D02*
X016115Y013414D01*
X016229Y013533D02*
X017549Y013533D01*
X017564Y013651D02*
X016343Y013651D01*
X016457Y013770D02*
X017568Y013770D01*
X017573Y013888D02*
X016571Y013888D01*
X016685Y014007D02*
X017577Y014007D01*
X017581Y014125D02*
X016799Y014125D01*
X016913Y014244D02*
X017586Y014244D01*
X017590Y014362D02*
X017027Y014362D01*
X017141Y014481D02*
X017618Y014481D01*
X017721Y014599D02*
X017254Y014599D01*
X017368Y014718D02*
X017839Y014718D01*
X017957Y014836D02*
X017482Y014836D01*
X017596Y014955D02*
X018074Y014955D01*
X018192Y015073D02*
X017710Y015073D01*
X017824Y015192D02*
X018310Y015192D01*
X018428Y015310D02*
X017938Y015310D01*
X018052Y015429D02*
X018545Y015429D01*
X018663Y015547D02*
X018166Y015547D01*
X018280Y015666D02*
X018781Y015666D01*
X018899Y015784D02*
X018394Y015784D01*
X018508Y015903D02*
X019016Y015903D01*
X019134Y016021D02*
X018622Y016021D01*
X018736Y016140D02*
X019252Y016140D01*
X019370Y016258D02*
X018850Y016258D01*
X018964Y016377D02*
X019488Y016377D01*
X019605Y016495D02*
X019078Y016495D01*
X019192Y016614D02*
X019723Y016614D01*
X019841Y016732D02*
X019306Y016732D01*
X019420Y016851D02*
X019959Y016851D01*
X020076Y016969D02*
X019534Y016969D01*
X019647Y017088D02*
X020194Y017088D01*
X020312Y017206D02*
X019761Y017206D01*
X019875Y017325D02*
X020430Y017325D01*
X020547Y017443D02*
X019989Y017443D01*
X020103Y017562D02*
X020665Y017562D01*
X020783Y017680D02*
X020217Y017680D01*
X020331Y017799D02*
X020819Y017799D01*
X020818Y017917D02*
X020445Y017917D01*
X020521Y018036D02*
X020817Y018036D01*
X020817Y018154D02*
X020530Y018154D01*
X020530Y018273D02*
X020816Y018273D01*
X020815Y018391D02*
X020530Y018391D01*
X020530Y018510D02*
X020815Y018510D01*
X020814Y018628D02*
X020530Y018628D01*
X020530Y018747D02*
X020813Y018747D01*
X020813Y018865D02*
X020530Y018865D01*
X020530Y018984D02*
X020812Y018984D01*
X020811Y019102D02*
X020532Y019102D01*
X020515Y019221D02*
X020810Y019221D01*
X020810Y019339D02*
X020419Y019339D01*
X020236Y019458D02*
X020809Y019458D01*
X020808Y019576D02*
X020174Y019576D01*
X020120Y019695D02*
X020808Y019695D01*
X020807Y019813D02*
X020120Y019813D01*
X020120Y019932D02*
X020806Y019932D01*
X020806Y020050D02*
X020068Y020050D01*
X019632Y020050D02*
X019350Y020050D01*
X019427Y019932D02*
X019590Y019932D01*
X019600Y019813D02*
X019505Y019813D01*
X019559Y019695D02*
X019571Y019695D01*
X020270Y019120D02*
X020290Y019080D01*
X019830Y018700D02*
X019790Y018660D01*
X019272Y020169D02*
X020805Y020169D01*
X020804Y020287D02*
X019195Y020287D01*
X018571Y020406D02*
X020803Y020406D01*
X020803Y020524D02*
X018410Y020524D01*
X018397Y020643D02*
X020802Y020643D01*
X020801Y020761D02*
X018317Y020761D01*
X018167Y020880D02*
X020801Y020880D01*
X020707Y020998D02*
X018286Y020998D01*
X018404Y021117D02*
X020608Y021117D01*
X020510Y021235D02*
X018523Y021235D01*
X018635Y021354D02*
X020412Y021354D01*
X020313Y021472D02*
X018682Y021472D01*
X018758Y021591D02*
X020215Y021591D01*
X020116Y021709D02*
X018835Y021709D01*
X019018Y021828D02*
X020018Y021828D01*
X019919Y021946D02*
X019215Y021946D01*
X019334Y022065D02*
X019821Y022065D01*
X019722Y022183D02*
X019360Y022183D01*
X019331Y022302D02*
X019624Y022302D01*
X019525Y022420D02*
X019228Y022420D01*
X019041Y022539D02*
X019427Y022539D01*
X019328Y022657D02*
X018951Y022657D01*
X018649Y022657D02*
X017860Y022657D01*
X017773Y022539D02*
X018559Y022539D01*
X018414Y022420D02*
X017686Y022420D01*
X017676Y022302D02*
X018263Y022302D01*
X018230Y022183D02*
X017667Y022183D01*
X017658Y022065D02*
X018252Y022065D01*
X018351Y021946D02*
X017653Y021946D01*
X017615Y021828D02*
X018293Y021828D01*
X018216Y021709D02*
X017480Y021709D01*
X017293Y021591D02*
X018143Y021591D01*
X018024Y021472D02*
X017315Y021472D01*
X017333Y021354D02*
X017906Y021354D01*
X017787Y021235D02*
X017330Y021235D01*
X017330Y021117D02*
X017669Y021117D01*
X017550Y020998D02*
X017330Y020998D01*
X017330Y020880D02*
X017432Y020880D01*
X017980Y022520D02*
X018150Y022660D01*
X018150Y022690D01*
X017947Y022776D02*
X019230Y022776D01*
X019611Y023131D02*
X020758Y023131D01*
X020645Y023013D02*
X019709Y023013D01*
X019808Y022894D02*
X020620Y022894D01*
X020318Y022776D02*
X019906Y022776D01*
X020004Y022657D02*
X020235Y022657D01*
X020220Y022539D02*
X020103Y022539D01*
X020201Y022420D02*
X020262Y022420D01*
X020300Y022302D02*
X020575Y022302D01*
X020590Y022183D02*
X020398Y022183D01*
X020497Y022065D02*
X020629Y022065D01*
X020595Y021946D02*
X020999Y021946D01*
X021085Y021828D02*
X020694Y021828D01*
X020792Y021709D02*
X021171Y021709D01*
X021210Y021591D02*
X020891Y021591D01*
X020989Y021472D02*
X021210Y021472D01*
X021210Y021354D02*
X021088Y021354D01*
X021186Y021235D02*
X021210Y021235D01*
X021730Y021235D02*
X023439Y021235D01*
X023554Y021117D02*
X021730Y021117D01*
X021730Y020998D02*
X023530Y020998D01*
X023446Y020880D02*
X021730Y020880D01*
X021730Y020761D02*
X023430Y020761D01*
X023470Y020643D02*
X021730Y020643D01*
X021730Y021354D02*
X023325Y021354D01*
X023210Y021472D02*
X021730Y021472D01*
X021730Y021591D02*
X023096Y021591D01*
X022981Y021709D02*
X021730Y021709D01*
X021716Y021828D02*
X022867Y021828D01*
X022752Y021946D02*
X021642Y021946D01*
X021556Y022065D02*
X022638Y022065D01*
X022523Y022183D02*
X021470Y022183D01*
X021384Y022302D02*
X022409Y022302D01*
X022294Y022420D02*
X021468Y022420D01*
X021500Y022539D02*
X022180Y022539D01*
X022065Y022657D02*
X021477Y022657D01*
X021375Y022776D02*
X021951Y022776D01*
X021836Y022894D02*
X021170Y022894D01*
X021132Y023013D02*
X021722Y023013D01*
X021607Y023131D02*
X021002Y023131D01*
X021378Y023368D02*
X019346Y023368D01*
X019514Y023250D02*
X021493Y023250D01*
X020750Y024620D02*
X020300Y024620D01*
X020510Y024680D02*
X020510Y024830D01*
X017630Y024750D02*
X017350Y024750D01*
X017210Y024890D01*
X017370Y025010D02*
X017390Y024990D01*
X017390Y024510D01*
X016210Y023368D02*
X016150Y023368D01*
X016150Y023250D02*
X016210Y023250D01*
X016210Y023131D02*
X016150Y023131D01*
X013260Y023392D02*
X013209Y023418D01*
X013143Y023439D01*
X013075Y023450D01*
X012790Y023450D01*
X012790Y023040D01*
X012730Y023040D01*
X012730Y023450D01*
X012445Y023450D01*
X012377Y023439D01*
X012311Y023418D01*
X012249Y023386D01*
X012193Y023346D01*
X012170Y023322D01*
X012170Y027052D01*
X012888Y027770D01*
X013586Y027770D01*
X013563Y027740D01*
X013537Y027713D01*
X013532Y027700D01*
X013325Y027432D01*
X013300Y027407D01*
X013293Y027392D01*
X013283Y027378D01*
X013273Y027344D01*
X013260Y027312D01*
X013260Y027295D01*
X013256Y027278D01*
X013260Y027244D01*
X013260Y023392D01*
X013260Y023487D02*
X012170Y023487D01*
X012170Y023605D02*
X013260Y023605D01*
X013260Y023724D02*
X012170Y023724D01*
X012170Y023842D02*
X013260Y023842D01*
X013260Y023961D02*
X012170Y023961D01*
X012170Y024079D02*
X013260Y024079D01*
X013260Y024198D02*
X012170Y024198D01*
X012170Y024316D02*
X013260Y024316D01*
X013260Y024435D02*
X012170Y024435D01*
X012170Y024553D02*
X013260Y024553D01*
X013260Y024672D02*
X012170Y024672D01*
X012170Y024790D02*
X013260Y024790D01*
X013260Y024909D02*
X012170Y024909D01*
X012170Y025027D02*
X013260Y025027D01*
X013260Y025146D02*
X012170Y025146D01*
X012170Y025264D02*
X013260Y025264D01*
X013260Y025383D02*
X012170Y025383D01*
X012170Y025501D02*
X013260Y025501D01*
X013260Y025620D02*
X012170Y025620D01*
X012170Y025738D02*
X013260Y025738D01*
X013260Y025857D02*
X012170Y025857D01*
X012170Y025975D02*
X013260Y025975D01*
X013260Y026094D02*
X012170Y026094D01*
X012170Y026212D02*
X013260Y026212D01*
X013260Y026331D02*
X012170Y026331D01*
X012170Y026449D02*
X013260Y026449D01*
X013260Y026568D02*
X012170Y026568D01*
X012170Y026686D02*
X013260Y026686D01*
X013260Y026805D02*
X012170Y026805D01*
X012170Y026923D02*
X013260Y026923D01*
X013260Y027042D02*
X012170Y027042D01*
X012278Y027160D02*
X013260Y027160D01*
X013256Y027279D02*
X012396Y027279D01*
X012515Y027397D02*
X013295Y027397D01*
X013389Y027516D02*
X012633Y027516D01*
X012752Y027634D02*
X013481Y027634D01*
X013573Y027753D02*
X012870Y027753D01*
X012490Y028108D02*
X012293Y028108D01*
X012372Y027990D02*
X012160Y027990D01*
X012253Y027871D02*
X012026Y027871D01*
X012135Y027753D02*
X011893Y027753D01*
X011866Y027634D02*
X012016Y027634D01*
X011898Y027516D02*
X011760Y027516D01*
X011779Y027397D02*
X011671Y027397D01*
X011678Y027279D02*
X011506Y027279D01*
X011323Y027279D02*
X011070Y027279D01*
X011070Y027397D02*
X011169Y027397D01*
X011080Y027516D02*
X011070Y027516D01*
X011200Y027680D02*
X011380Y027680D01*
X011430Y027680D02*
X011430Y027650D01*
X011620Y027690D01*
X011680Y027710D01*
X011430Y027650D02*
X011420Y027470D01*
X011650Y027160D02*
X011070Y027160D01*
X011070Y027042D02*
X011650Y027042D01*
X011650Y026923D02*
X011070Y026923D01*
X011070Y026805D02*
X011650Y026805D01*
X011650Y026686D02*
X011070Y026686D01*
X011070Y026568D02*
X011650Y026568D01*
X011650Y026449D02*
X011070Y026449D01*
X011070Y026331D02*
X011650Y026331D01*
X011650Y026212D02*
X011070Y026212D01*
X011070Y026094D02*
X011650Y026094D01*
X011650Y025975D02*
X011070Y025975D01*
X011070Y025857D02*
X011650Y025857D01*
X011650Y025738D02*
X011070Y025738D01*
X011070Y025620D02*
X011650Y025620D01*
X011650Y025501D02*
X011070Y025501D01*
X011070Y025383D02*
X011650Y025383D01*
X011650Y025264D02*
X011070Y025264D01*
X011070Y025146D02*
X011650Y025146D01*
X011650Y025027D02*
X011070Y025027D01*
X011070Y024909D02*
X011650Y024909D01*
X011650Y024790D02*
X011070Y024790D01*
X011070Y024672D02*
X011650Y024672D01*
X011650Y024553D02*
X011070Y024553D01*
X011070Y024435D02*
X011650Y024435D01*
X011650Y024316D02*
X011070Y024316D01*
X011070Y024198D02*
X011650Y024198D01*
X011650Y024079D02*
X011070Y024079D01*
X011070Y023961D02*
X011650Y023961D01*
X011650Y023842D02*
X011070Y023842D01*
X011070Y023724D02*
X011650Y023724D01*
X011650Y023605D02*
X011070Y023605D01*
X011070Y023487D02*
X011650Y023487D01*
X011650Y023368D02*
X011070Y023368D01*
X011070Y023250D02*
X011650Y023250D01*
X011650Y023131D02*
X011070Y023131D01*
X011070Y023013D02*
X011650Y023013D01*
X011650Y022894D02*
X011070Y022894D01*
X011070Y022776D02*
X011650Y022776D01*
X011650Y022657D02*
X011070Y022657D01*
X011070Y022539D02*
X011650Y022539D01*
X011650Y022420D02*
X011070Y022420D01*
X011070Y022302D02*
X011653Y022302D01*
X011719Y022183D02*
X011070Y022183D01*
X011070Y022065D02*
X011797Y022065D01*
X011685Y021946D02*
X011070Y021946D01*
X011070Y021828D02*
X011650Y021828D01*
X011650Y021709D02*
X011070Y021709D01*
X011070Y021591D02*
X011650Y021591D01*
X011650Y021472D02*
X011070Y021472D01*
X011070Y021354D02*
X011650Y021354D01*
X011650Y021235D02*
X011070Y021235D01*
X011070Y021117D02*
X011650Y021117D01*
X011650Y020998D02*
X011070Y020998D01*
X011070Y020880D02*
X011650Y020880D01*
X011650Y020761D02*
X011070Y020761D01*
X011070Y020643D02*
X011650Y020643D01*
X011650Y020524D02*
X011070Y020524D01*
X011070Y020406D02*
X011650Y020406D01*
X011650Y020287D02*
X011070Y020287D01*
X011070Y020169D02*
X011650Y020169D01*
X011650Y020050D02*
X011070Y020050D01*
X011070Y019932D02*
X011650Y019932D01*
X011650Y019813D02*
X011070Y019813D01*
X011070Y019695D02*
X011650Y019695D01*
X011650Y019576D02*
X011070Y019576D01*
X011143Y019458D02*
X011650Y019458D01*
X011650Y019339D02*
X011255Y019339D01*
X011368Y019221D02*
X011686Y019221D01*
X011798Y019102D02*
X011481Y019102D01*
X011594Y018984D02*
X011914Y018984D01*
X012029Y018865D02*
X011706Y018865D01*
X011819Y018747D02*
X012144Y018747D01*
X012260Y018628D02*
X011932Y018628D01*
X012045Y018510D02*
X012375Y018510D01*
X012490Y018391D02*
X012157Y018391D01*
X012270Y018273D02*
X012606Y018273D01*
X012721Y018154D02*
X012383Y018154D01*
X012496Y018036D02*
X012836Y018036D01*
X012952Y017917D02*
X012608Y017917D01*
X012721Y017799D02*
X013067Y017799D01*
X013182Y017680D02*
X012834Y017680D01*
X012947Y017562D02*
X013298Y017562D01*
X013413Y017443D02*
X013059Y017443D01*
X013172Y017325D02*
X013528Y017325D01*
X013644Y017206D02*
X013285Y017206D01*
X013389Y017088D02*
X013759Y017088D01*
X013874Y016969D02*
X013420Y016969D01*
X013419Y016851D02*
X013990Y016851D01*
X014105Y016732D02*
X013418Y016732D01*
X013416Y016614D02*
X014221Y016614D01*
X014127Y016710D02*
X014127Y016710D01*
X014358Y016495D02*
X013415Y016495D01*
X013414Y016377D02*
X014625Y016377D01*
X015149Y016021D02*
X013410Y016021D01*
X013409Y015903D02*
X015010Y015903D01*
X014872Y015784D02*
X014714Y015784D01*
X014326Y015784D02*
X013408Y015784D01*
X013407Y015666D02*
X014262Y015666D01*
X014119Y015547D02*
X013405Y015547D01*
X013404Y015429D02*
X014029Y015429D01*
X014010Y015310D02*
X013403Y015310D01*
X013402Y015192D02*
X014046Y015192D01*
X014169Y015073D02*
X013455Y015073D01*
X013412Y016140D02*
X015287Y016140D01*
X015254Y016258D02*
X013413Y016258D01*
X012395Y016140D02*
X005692Y016140D01*
X005750Y016198D02*
X005492Y015940D01*
X005128Y015940D01*
X004870Y016198D01*
X004870Y016562D01*
X005128Y016820D01*
X005492Y016820D01*
X005750Y016562D01*
X005750Y016198D01*
X005750Y016258D02*
X012388Y016258D01*
X012394Y016021D02*
X005573Y016021D01*
X005750Y016377D02*
X012136Y016377D01*
X012054Y016495D02*
X005750Y016495D01*
X005699Y016614D02*
X012040Y016614D01*
X012084Y016732D02*
X005580Y016732D01*
X005492Y016940D02*
X005750Y017198D01*
X005750Y017562D01*
X005492Y017820D01*
X005128Y017820D01*
X004870Y017562D01*
X004870Y017198D01*
X005128Y016940D01*
X005492Y016940D01*
X005521Y016969D02*
X012411Y016969D01*
X012350Y016851D02*
X004027Y016851D01*
X004027Y016969D02*
X004099Y016969D01*
X004040Y016732D02*
X004028Y016732D01*
X004521Y016969D02*
X005099Y016969D01*
X004980Y017088D02*
X004640Y017088D01*
X004750Y017206D02*
X004870Y017206D01*
X004870Y017325D02*
X004750Y017325D01*
X004750Y017443D02*
X004870Y017443D01*
X004870Y017562D02*
X004750Y017562D01*
X004632Y017680D02*
X004988Y017680D01*
X005106Y017799D02*
X004514Y017799D01*
X004588Y018036D02*
X005032Y018036D01*
X005128Y017940D02*
X005492Y017940D01*
X005750Y018198D01*
X005750Y018562D01*
X005492Y018820D01*
X005128Y018820D01*
X004870Y018562D01*
X004870Y018198D01*
X005128Y017940D01*
X004914Y018154D02*
X004706Y018154D01*
X004750Y018273D02*
X004870Y018273D01*
X004870Y018391D02*
X004750Y018391D01*
X004750Y018510D02*
X004870Y018510D01*
X004936Y018628D02*
X004684Y018628D01*
X004566Y018747D02*
X005054Y018747D01*
X005128Y018940D02*
X005492Y018940D01*
X005750Y019198D01*
X005750Y019562D01*
X005492Y019820D01*
X005128Y019820D01*
X004870Y019562D01*
X004870Y019198D01*
X005128Y018940D01*
X005084Y018984D02*
X004536Y018984D01*
X004654Y019102D02*
X004966Y019102D01*
X004870Y019221D02*
X004750Y019221D01*
X004750Y019339D02*
X004870Y019339D01*
X004870Y019458D02*
X004750Y019458D01*
X004736Y019576D02*
X004884Y019576D01*
X005002Y019695D02*
X004618Y019695D01*
X004499Y019813D02*
X005121Y019813D01*
X005128Y019940D02*
X005492Y019940D01*
X005750Y020198D01*
X005750Y020562D01*
X005492Y020820D01*
X005128Y020820D01*
X004870Y020562D01*
X004870Y020198D01*
X005128Y019940D01*
X005018Y020050D02*
X004602Y020050D01*
X004721Y020169D02*
X004899Y020169D01*
X004870Y020287D02*
X004750Y020287D01*
X004750Y020406D02*
X004870Y020406D01*
X004870Y020524D02*
X004750Y020524D01*
X004670Y020643D02*
X004950Y020643D01*
X005069Y020761D02*
X004551Y020761D01*
X004501Y020920D02*
X004770Y021189D01*
X004770Y021340D01*
X004350Y021340D01*
X004350Y020920D01*
X004501Y020920D01*
X004579Y020998D02*
X005070Y020998D01*
X005128Y020940D02*
X005492Y020940D01*
X005642Y021090D01*
X006182Y021090D01*
X006277Y021130D01*
X006350Y021203D01*
X006930Y021783D01*
X006970Y021878D01*
X006970Y023092D01*
X008889Y025011D01*
X008957Y025040D01*
X009950Y026033D01*
X010035Y026033D01*
X010174Y026090D01*
X010280Y026196D01*
X010337Y026335D01*
X010337Y026485D01*
X010280Y026624D01*
X010174Y026730D01*
X010035Y026787D01*
X009885Y026787D01*
X009746Y026730D01*
X009666Y026650D01*
X009548Y026650D01*
X009453Y026610D01*
X009380Y026537D01*
X009340Y026442D01*
X009340Y026338D01*
X009380Y026243D01*
X009402Y026220D01*
X008691Y025509D01*
X008623Y025480D01*
X006563Y023420D01*
X006490Y023347D01*
X006450Y023252D01*
X006450Y022068D01*
X005992Y021610D01*
X005702Y021610D01*
X005492Y021820D01*
X005128Y021820D01*
X004870Y021562D01*
X004870Y021198D01*
X005128Y020940D01*
X004951Y021117D02*
X004697Y021117D01*
X004770Y021235D02*
X004870Y021235D01*
X004870Y021354D02*
X004350Y021354D01*
X004410Y021380D02*
X004410Y021410D01*
X004350Y021420D02*
X004770Y021420D01*
X004770Y021571D01*
X004501Y021840D01*
X004350Y021840D01*
X004350Y021420D01*
X004350Y021472D02*
X004270Y021472D01*
X004270Y021591D02*
X004350Y021591D01*
X004350Y021709D02*
X004270Y021709D01*
X004270Y021828D02*
X004350Y021828D01*
X004513Y021828D02*
X006210Y021828D01*
X006328Y021946D02*
X005498Y021946D01*
X005492Y021940D02*
X005750Y022198D01*
X005750Y022562D01*
X005492Y022820D01*
X005128Y022820D01*
X004870Y022562D01*
X004870Y022198D01*
X005128Y021940D01*
X005492Y021940D01*
X005617Y022065D02*
X006447Y022065D01*
X006450Y022183D02*
X005735Y022183D01*
X005750Y022302D02*
X006450Y022302D01*
X006450Y022420D02*
X005750Y022420D01*
X005750Y022539D02*
X006450Y022539D01*
X006450Y022657D02*
X005655Y022657D01*
X005537Y022776D02*
X006450Y022776D01*
X006450Y022894D02*
X004202Y022894D01*
X004537Y022776D02*
X005083Y022776D01*
X004965Y022657D02*
X004655Y022657D01*
X004750Y022539D02*
X004870Y022539D01*
X004870Y022420D02*
X004750Y022420D01*
X004750Y022302D02*
X004870Y022302D01*
X004885Y022183D02*
X004735Y022183D01*
X004617Y022065D02*
X005003Y022065D01*
X005122Y021946D02*
X004498Y021946D01*
X004631Y021709D02*
X005017Y021709D01*
X004898Y021591D02*
X004750Y021591D01*
X004770Y021472D02*
X004870Y021472D01*
X004350Y021235D02*
X004270Y021235D01*
X004270Y021117D02*
X004350Y021117D01*
X004350Y020998D02*
X004270Y020998D01*
X004041Y020998D02*
X004015Y020998D01*
X004016Y020880D02*
X010550Y020880D01*
X010550Y020998D02*
X005550Y020998D01*
X005551Y020761D02*
X010550Y020761D01*
X010550Y020643D02*
X005670Y020643D01*
X005750Y020524D02*
X010550Y020524D01*
X010550Y020406D02*
X005750Y020406D01*
X005750Y020287D02*
X010550Y020287D01*
X010550Y020169D02*
X005721Y020169D01*
X005602Y020050D02*
X010550Y020050D01*
X010550Y019932D02*
X004018Y019932D01*
X004019Y019813D02*
X004121Y019813D01*
X004069Y020761D02*
X004016Y020761D01*
X004013Y021828D02*
X004107Y021828D01*
X004122Y021946D02*
X004012Y021946D01*
X004565Y023013D02*
X005055Y023013D01*
X005128Y022940D02*
X005492Y022940D01*
X005750Y023198D01*
X005750Y023562D01*
X005492Y023820D01*
X005128Y023820D01*
X004870Y023562D01*
X004870Y023198D01*
X005128Y022940D01*
X004937Y023131D02*
X004683Y023131D01*
X004750Y023250D02*
X004870Y023250D01*
X004870Y023368D02*
X004750Y023368D01*
X004750Y023487D02*
X004870Y023487D01*
X004913Y023605D02*
X004707Y023605D01*
X004589Y023724D02*
X005031Y023724D01*
X005128Y023940D02*
X004870Y024198D01*
X004870Y024562D01*
X005128Y024820D01*
X005492Y024820D01*
X005750Y024562D01*
X005750Y024198D01*
X005492Y023940D01*
X005128Y023940D01*
X005107Y023961D02*
X004513Y023961D01*
X004631Y024079D02*
X004989Y024079D01*
X004870Y024198D02*
X004750Y024198D01*
X004750Y024316D02*
X004870Y024316D01*
X004870Y024435D02*
X004750Y024435D01*
X004750Y024553D02*
X004870Y024553D01*
X004979Y024672D02*
X004641Y024672D01*
X004522Y024790D02*
X005098Y024790D01*
X005128Y024940D02*
X005492Y024940D01*
X005750Y025198D01*
X005750Y025562D01*
X005492Y025820D01*
X005128Y025820D01*
X004870Y025562D01*
X004870Y025198D01*
X005128Y024940D01*
X005041Y025027D02*
X004579Y025027D01*
X004698Y025146D02*
X004922Y025146D01*
X004870Y025264D02*
X004750Y025264D01*
X004750Y025383D02*
X004870Y025383D01*
X004870Y025501D02*
X004750Y025501D01*
X004693Y025620D02*
X004927Y025620D01*
X005046Y025738D02*
X004574Y025738D01*
X004492Y025940D02*
X004128Y025940D01*
X003870Y026198D01*
X003870Y026562D01*
X004128Y026820D01*
X004492Y026820D01*
X004750Y026562D01*
X004750Y026198D01*
X004492Y025940D01*
X004527Y025975D02*
X005093Y025975D01*
X005128Y025940D02*
X005492Y025940D01*
X005750Y026198D01*
X005750Y026562D01*
X005492Y026820D01*
X005128Y026820D01*
X004870Y026562D01*
X004870Y026198D01*
X005128Y025940D01*
X004974Y026094D02*
X004646Y026094D01*
X004750Y026212D02*
X004870Y026212D01*
X004870Y026331D02*
X004750Y026331D01*
X004750Y026449D02*
X004870Y026449D01*
X004875Y026568D02*
X004745Y026568D01*
X004626Y026686D02*
X004994Y026686D01*
X005112Y026805D02*
X004508Y026805D01*
X004492Y026940D02*
X004750Y027198D01*
X004750Y027562D01*
X004492Y027820D01*
X004128Y027820D01*
X003870Y027562D01*
X003870Y027198D01*
X004128Y026940D01*
X004492Y026940D01*
X004594Y027042D02*
X005026Y027042D01*
X005128Y026940D02*
X005492Y026940D01*
X005750Y027198D01*
X005750Y027562D01*
X005492Y027820D01*
X005128Y027820D01*
X004870Y027562D01*
X004870Y027198D01*
X005128Y026940D01*
X004908Y027160D02*
X004712Y027160D01*
X004750Y027279D02*
X004870Y027279D01*
X004870Y027397D02*
X004750Y027397D01*
X004750Y027516D02*
X004870Y027516D01*
X004942Y027634D02*
X004678Y027634D01*
X004560Y027753D02*
X005060Y027753D01*
X005128Y027940D02*
X005492Y027940D01*
X005750Y028198D01*
X005750Y028562D01*
X005492Y028820D01*
X005128Y028820D01*
X004870Y028562D01*
X004870Y028198D01*
X005128Y027940D01*
X005078Y027990D02*
X004542Y027990D01*
X004492Y027940D02*
X004750Y028198D01*
X004750Y028562D01*
X004492Y028820D01*
X004128Y028820D01*
X003870Y028562D01*
X003870Y028198D01*
X004128Y027940D01*
X004492Y027940D01*
X004660Y028108D02*
X004960Y028108D01*
X004870Y028227D02*
X004750Y028227D01*
X004750Y028345D02*
X004870Y028345D01*
X004870Y028464D02*
X004750Y028464D01*
X004730Y028582D02*
X004890Y028582D01*
X005008Y028701D02*
X004612Y028701D01*
X004493Y028819D02*
X005127Y028819D01*
X005128Y028940D02*
X004870Y029198D01*
X004870Y029562D01*
X005128Y029820D01*
X005492Y029820D01*
X005750Y029562D01*
X005750Y029198D01*
X005492Y028940D01*
X005128Y028940D01*
X005012Y029056D02*
X004608Y029056D01*
X004492Y028940D02*
X004750Y029198D01*
X004750Y029562D01*
X004492Y029820D01*
X004128Y029820D01*
X003870Y029562D01*
X003870Y029198D01*
X004128Y028940D01*
X004492Y028940D01*
X004727Y029175D02*
X004893Y029175D01*
X004870Y029293D02*
X004750Y029293D01*
X004750Y029412D02*
X004870Y029412D01*
X004870Y029530D02*
X004750Y029530D01*
X004664Y029649D02*
X004956Y029649D01*
X005075Y029767D02*
X004545Y029767D01*
X004501Y029920D02*
X004770Y030189D01*
X004770Y030340D01*
X004350Y030340D01*
X004350Y030420D01*
X004270Y030420D01*
X004270Y030840D01*
X004119Y030840D01*
X003850Y030571D01*
X003850Y030420D01*
X004270Y030420D01*
X004270Y030340D01*
X003850Y030340D01*
X003850Y030189D01*
X004119Y029920D01*
X004270Y029920D01*
X004270Y030340D01*
X004350Y030340D01*
X004350Y029920D01*
X004501Y029920D01*
X004585Y030004D02*
X005064Y030004D01*
X004945Y030123D02*
X004703Y030123D01*
X004770Y030241D02*
X004870Y030241D01*
X004870Y030360D02*
X004350Y030360D01*
X004350Y030420D02*
X004770Y030420D01*
X004770Y030571D01*
X004501Y030840D01*
X004350Y030840D01*
X004350Y030420D01*
X004350Y030478D02*
X004270Y030478D01*
X004270Y030360D02*
X002860Y030360D01*
X002860Y030478D02*
X003850Y030478D01*
X003876Y030597D02*
X002860Y030597D01*
X002860Y030715D02*
X003995Y030715D01*
X004113Y030834D02*
X002860Y030834D01*
X002860Y030952D02*
X004116Y030952D01*
X004128Y030940D02*
X004492Y030940D01*
X004750Y031198D01*
X004750Y031562D01*
X004492Y031820D01*
X004128Y031820D01*
X003870Y031562D01*
X003870Y031198D01*
X004128Y030940D01*
X004270Y030834D02*
X004350Y030834D01*
X004350Y030715D02*
X004270Y030715D01*
X004270Y030597D02*
X004350Y030597D01*
X004507Y030834D02*
X016800Y030834D01*
X016800Y030952D02*
X005504Y030952D01*
X005623Y031071D02*
X015382Y031071D01*
X015302Y031189D02*
X009007Y031189D01*
X009125Y031308D02*
X015290Y031308D01*
X015290Y031426D02*
X009244Y031426D01*
X009362Y031545D02*
X014848Y031545D01*
X014759Y031663D02*
X009481Y031663D01*
X009559Y031782D02*
X014740Y031782D01*
X014777Y031900D02*
X009570Y031900D01*
X009570Y032019D02*
X014945Y032019D01*
X015250Y032137D02*
X009570Y032137D01*
X009570Y032256D02*
X015250Y032256D01*
X015250Y032374D02*
X009570Y032374D01*
X009570Y032493D02*
X015250Y032493D01*
X015250Y032611D02*
X009570Y032611D01*
X009570Y032730D02*
X015250Y032730D01*
X015250Y032848D02*
X009570Y032848D01*
X009570Y032967D02*
X015250Y032967D01*
X015250Y033085D02*
X009570Y033085D01*
X009570Y033204D02*
X015250Y033204D01*
X015250Y033322D02*
X009570Y033322D01*
X009570Y033441D02*
X015250Y033441D01*
X015250Y033559D02*
X009570Y033559D01*
X009570Y033678D02*
X015250Y033678D01*
X015250Y033796D02*
X009570Y033796D01*
X009570Y033915D02*
X015250Y033915D01*
X015250Y034033D02*
X009570Y034033D01*
X009570Y034152D02*
X015250Y034152D01*
X015250Y034270D02*
X009638Y034270D01*
X009756Y034389D02*
X015250Y034389D01*
X015250Y034507D02*
X009875Y034507D01*
X009993Y034626D02*
X015250Y034626D01*
X015250Y034744D02*
X010112Y034744D01*
X010230Y034863D02*
X015250Y034863D01*
X015250Y034981D02*
X010349Y034981D01*
X010467Y035100D02*
X015203Y035100D01*
X015084Y035218D02*
X010586Y035218D01*
X010704Y035337D02*
X014966Y035337D01*
X014847Y035455D02*
X010823Y035455D01*
X010443Y035811D02*
X005502Y035811D01*
X005492Y035820D02*
X005128Y035820D01*
X004870Y035562D01*
X004870Y035198D01*
X005128Y034940D01*
X005492Y034940D01*
X005750Y035198D01*
X005750Y035562D01*
X005492Y035820D01*
X005620Y035692D02*
X010324Y035692D01*
X010206Y035574D02*
X005739Y035574D01*
X005750Y035455D02*
X010087Y035455D01*
X009969Y035337D02*
X005750Y035337D01*
X005750Y035218D02*
X009850Y035218D01*
X009732Y035100D02*
X005652Y035100D01*
X005533Y034981D02*
X009613Y034981D01*
X009495Y034863D02*
X002860Y034863D01*
X002860Y034744D02*
X004052Y034744D01*
X004128Y034820D02*
X003870Y034562D01*
X003870Y034198D01*
X004128Y033940D01*
X004492Y033940D01*
X004750Y034198D01*
X004750Y034562D01*
X004492Y034820D01*
X004128Y034820D01*
X004128Y034940D02*
X004492Y034940D01*
X004750Y035198D01*
X004750Y035562D01*
X004492Y035820D01*
X004128Y035820D01*
X003870Y035562D01*
X003870Y035198D01*
X004128Y034940D01*
X004087Y034981D02*
X002899Y034981D01*
X003017Y035100D02*
X003968Y035100D01*
X003870Y035218D02*
X003136Y035218D01*
X003254Y035337D02*
X003870Y035337D01*
X003870Y035455D02*
X003373Y035455D01*
X003491Y035574D02*
X003881Y035574D01*
X004000Y035692D02*
X003610Y035692D01*
X003728Y035811D02*
X004118Y035811D01*
X003847Y035929D02*
X010561Y035929D01*
X009376Y034744D02*
X005568Y034744D01*
X005492Y034820D02*
X005128Y034820D01*
X004870Y034562D01*
X004870Y034198D01*
X005128Y033940D01*
X005492Y033940D01*
X005750Y034198D01*
X005750Y034562D01*
X005492Y034820D01*
X005687Y034626D02*
X009258Y034626D01*
X009139Y034507D02*
X005750Y034507D01*
X005750Y034389D02*
X009061Y034389D01*
X009050Y034270D02*
X005750Y034270D01*
X005704Y034152D02*
X009050Y034152D01*
X009050Y034033D02*
X005585Y034033D01*
X005492Y033820D02*
X005128Y033820D01*
X004870Y033562D01*
X004870Y033198D01*
X005128Y032940D01*
X005492Y032940D01*
X005750Y033198D01*
X005750Y033562D01*
X005492Y033820D01*
X005516Y033796D02*
X009050Y033796D01*
X009050Y033678D02*
X005635Y033678D01*
X005750Y033559D02*
X009050Y033559D01*
X009050Y033441D02*
X005750Y033441D01*
X005750Y033322D02*
X009050Y033322D01*
X009050Y033204D02*
X005750Y033204D01*
X005637Y033085D02*
X009050Y033085D01*
X009050Y032967D02*
X005519Y032967D01*
X005492Y032820D02*
X005128Y032820D01*
X004870Y032562D01*
X004870Y032198D01*
X005128Y031940D01*
X005492Y031940D01*
X005750Y032198D01*
X005750Y032562D01*
X005492Y032820D01*
X005583Y032730D02*
X009050Y032730D01*
X009050Y032848D02*
X002860Y032848D01*
X002860Y032730D02*
X004037Y032730D01*
X004128Y032820D02*
X003870Y032562D01*
X003870Y032198D01*
X004128Y031940D01*
X004492Y031940D01*
X004750Y032198D01*
X004750Y032562D01*
X004492Y032820D01*
X004128Y032820D01*
X004128Y032940D02*
X004492Y032940D01*
X004750Y033198D01*
X004750Y033562D01*
X004492Y033820D01*
X004128Y033820D01*
X003870Y033562D01*
X003870Y033198D01*
X004128Y032940D01*
X004101Y032967D02*
X002860Y032967D01*
X002860Y033085D02*
X003983Y033085D01*
X003870Y033204D02*
X002860Y033204D01*
X002860Y033322D02*
X003870Y033322D01*
X003870Y033441D02*
X002860Y033441D01*
X002860Y033559D02*
X003870Y033559D01*
X003985Y033678D02*
X002860Y033678D01*
X002860Y033796D02*
X004104Y033796D01*
X004035Y034033D02*
X002860Y034033D01*
X002860Y033915D02*
X009050Y033915D01*
X009050Y032611D02*
X005701Y032611D01*
X005750Y032493D02*
X009050Y032493D01*
X009050Y032374D02*
X005750Y032374D01*
X005750Y032256D02*
X009050Y032256D01*
X009050Y032137D02*
X005689Y032137D01*
X005571Y032019D02*
X009050Y032019D01*
X008982Y031900D02*
X002860Y031900D01*
X002860Y031782D02*
X004089Y031782D01*
X003971Y031663D02*
X002860Y031663D01*
X002860Y031545D02*
X003870Y031545D01*
X003870Y031426D02*
X002860Y031426D01*
X002860Y031308D02*
X003870Y031308D01*
X003879Y031189D02*
X002860Y031189D01*
X002860Y031071D02*
X003997Y031071D01*
X004504Y030952D02*
X005116Y030952D01*
X004997Y031071D02*
X004623Y031071D01*
X004741Y031189D02*
X004879Y031189D01*
X004870Y031308D02*
X004750Y031308D01*
X004750Y031426D02*
X004870Y031426D01*
X004870Y031545D02*
X004750Y031545D01*
X004649Y031663D02*
X004971Y031663D01*
X005089Y031782D02*
X004531Y031782D01*
X004571Y032019D02*
X005049Y032019D01*
X004931Y032137D02*
X004689Y032137D01*
X004750Y032256D02*
X004870Y032256D01*
X004870Y032374D02*
X004750Y032374D01*
X004750Y032493D02*
X004870Y032493D01*
X004919Y032611D02*
X004701Y032611D01*
X004583Y032730D02*
X005037Y032730D01*
X005101Y032967D02*
X004519Y032967D01*
X004637Y033085D02*
X004983Y033085D01*
X004870Y033204D02*
X004750Y033204D01*
X004750Y033322D02*
X004870Y033322D01*
X004870Y033441D02*
X004750Y033441D01*
X004750Y033559D02*
X004870Y033559D01*
X004985Y033678D02*
X004635Y033678D01*
X004516Y033796D02*
X005104Y033796D01*
X005035Y034033D02*
X004585Y034033D01*
X004704Y034152D02*
X004916Y034152D01*
X004870Y034270D02*
X004750Y034270D01*
X004750Y034389D02*
X004870Y034389D01*
X004870Y034507D02*
X004750Y034507D01*
X004687Y034626D02*
X004933Y034626D01*
X005052Y034744D02*
X004568Y034744D01*
X004533Y034981D02*
X005087Y034981D01*
X004968Y035100D02*
X004652Y035100D01*
X004750Y035218D02*
X004870Y035218D01*
X004870Y035337D02*
X004750Y035337D01*
X004750Y035455D02*
X004870Y035455D01*
X004881Y035574D02*
X004739Y035574D01*
X004620Y035692D02*
X005000Y035692D01*
X005118Y035811D02*
X004502Y035811D01*
X003933Y034626D02*
X002860Y034626D01*
X002860Y034507D02*
X003870Y034507D01*
X003870Y034389D02*
X002860Y034389D01*
X002860Y034270D02*
X003870Y034270D01*
X003916Y034152D02*
X002860Y034152D01*
X002860Y032611D02*
X003919Y032611D01*
X003870Y032493D02*
X002860Y032493D01*
X002860Y032374D02*
X003870Y032374D01*
X003870Y032256D02*
X002860Y032256D01*
X002860Y032137D02*
X003931Y032137D01*
X004049Y032019D02*
X002860Y032019D01*
X002860Y030241D02*
X003850Y030241D01*
X003917Y030123D02*
X002860Y030123D01*
X002860Y030004D02*
X004035Y030004D01*
X004270Y030004D02*
X004350Y030004D01*
X004350Y030123D02*
X004270Y030123D01*
X004270Y030241D02*
X004350Y030241D01*
X004705Y029985D02*
X004830Y029860D01*
X004870Y030478D02*
X004770Y030478D01*
X004744Y030597D02*
X004904Y030597D01*
X005023Y030715D02*
X004625Y030715D01*
X005597Y030715D02*
X012617Y030715D01*
X012879Y030241D02*
X012922Y030241D01*
X012870Y030233D02*
X012870Y030233D01*
X012803Y030123D02*
X012708Y030123D01*
X012683Y030004D02*
X005556Y030004D01*
X005545Y029767D02*
X012444Y029767D01*
X012325Y029649D02*
X005664Y029649D01*
X005750Y029530D02*
X012205Y029530D01*
X012086Y029412D02*
X005750Y029412D01*
X005750Y029293D02*
X011966Y029293D01*
X011847Y029175D02*
X005727Y029175D01*
X005608Y029056D02*
X011727Y029056D01*
X011608Y028938D02*
X002860Y028938D01*
X002860Y029056D02*
X004012Y029056D01*
X003893Y029175D02*
X002860Y029175D01*
X002860Y029293D02*
X003870Y029293D01*
X003870Y029412D02*
X002860Y029412D01*
X002860Y029530D02*
X003870Y029530D01*
X003956Y029649D02*
X002860Y029649D01*
X002860Y029767D02*
X004075Y029767D01*
X004127Y028819D02*
X002860Y028819D01*
X002860Y028701D02*
X004008Y028701D01*
X003890Y028582D02*
X002860Y028582D01*
X002860Y028464D02*
X003870Y028464D01*
X003870Y028345D02*
X002860Y028345D01*
X002860Y028227D02*
X003870Y028227D01*
X003960Y028108D02*
X002860Y028108D01*
X002860Y027990D02*
X004078Y027990D01*
X004060Y027753D02*
X002860Y027753D01*
X002860Y027871D02*
X010566Y027871D01*
X010550Y027832D02*
X010550Y027832D01*
X010550Y027753D02*
X005560Y027753D01*
X005678Y027634D02*
X010550Y027634D01*
X010550Y027729D02*
X010550Y027729D01*
X010550Y027516D02*
X005750Y027516D01*
X005750Y027397D02*
X010550Y027397D01*
X010550Y027279D02*
X005750Y027279D01*
X005712Y027160D02*
X010550Y027160D01*
X010550Y027042D02*
X005594Y027042D01*
X005508Y026805D02*
X010550Y026805D01*
X010550Y026923D02*
X002860Y026923D01*
X002860Y026805D02*
X004112Y026805D01*
X003994Y026686D02*
X002860Y026686D01*
X002860Y026568D02*
X003875Y026568D01*
X003870Y026449D02*
X002860Y026449D01*
X002860Y026331D02*
X003870Y026331D01*
X003870Y026212D02*
X002860Y026212D01*
X002860Y026094D02*
X003974Y026094D01*
X004093Y025975D02*
X002860Y025975D01*
X002860Y025857D02*
X009039Y025857D01*
X009157Y025975D02*
X005527Y025975D01*
X005646Y026094D02*
X009276Y026094D01*
X009394Y026212D02*
X005750Y026212D01*
X005750Y026331D02*
X009343Y026331D01*
X009343Y026449D02*
X005750Y026449D01*
X005745Y026568D02*
X009410Y026568D01*
X009702Y026686D02*
X005626Y026686D01*
X005574Y025738D02*
X008920Y025738D01*
X008802Y025620D02*
X005693Y025620D01*
X005750Y025501D02*
X008673Y025501D01*
X008525Y025383D02*
X005750Y025383D01*
X005750Y025264D02*
X008406Y025264D01*
X008288Y025146D02*
X005698Y025146D01*
X005579Y025027D02*
X008169Y025027D01*
X008051Y024909D02*
X004065Y024909D01*
X004098Y024790D02*
X003951Y024790D01*
X003979Y024672D02*
X003836Y024672D01*
X003870Y024553D02*
X003721Y024553D01*
X003607Y024435D02*
X003870Y024435D01*
X003778Y024316D02*
X003492Y024316D01*
X003377Y024198D02*
X003660Y024198D01*
X003541Y024079D02*
X003263Y024079D01*
X003210Y023961D02*
X003423Y023961D01*
X003304Y023842D02*
X003211Y023842D01*
X003684Y023487D02*
X003870Y023487D01*
X003870Y023368D02*
X003620Y023368D01*
X003620Y023250D02*
X003823Y023250D01*
X003708Y023131D02*
X003620Y023131D01*
X003803Y023605D02*
X003913Y023605D01*
X003921Y023724D02*
X004031Y023724D01*
X004040Y023842D02*
X006984Y023842D01*
X006866Y023724D02*
X005589Y023724D01*
X005707Y023605D02*
X006747Y023605D01*
X006629Y023487D02*
X005750Y023487D01*
X005750Y023368D02*
X006510Y023368D01*
X006450Y023250D02*
X005750Y023250D01*
X005683Y023131D02*
X006450Y023131D01*
X006450Y023013D02*
X005565Y023013D01*
X005513Y023961D02*
X007103Y023961D01*
X007221Y024079D02*
X005631Y024079D01*
X005750Y024198D02*
X007340Y024198D01*
X007458Y024316D02*
X005750Y024316D01*
X005750Y024435D02*
X007577Y024435D01*
X007695Y024553D02*
X005750Y024553D01*
X005641Y024672D02*
X007814Y024672D01*
X007932Y024790D02*
X005522Y024790D01*
X004046Y025738D02*
X002860Y025738D01*
X002860Y025620D02*
X003927Y025620D01*
X003870Y025501D02*
X002860Y025501D01*
X002860Y025383D02*
X003801Y025383D01*
X003686Y025264D02*
X002860Y025264D01*
X002860Y025146D02*
X003571Y025146D01*
X003456Y025027D02*
X002860Y025027D01*
X002860Y024909D02*
X003342Y024909D01*
X003227Y024790D02*
X002860Y024790D01*
X002860Y024672D02*
X003112Y024672D01*
X002998Y024553D02*
X002860Y024553D01*
X002860Y024435D02*
X002883Y024435D01*
X002860Y027042D02*
X004026Y027042D01*
X003908Y027160D02*
X002860Y027160D01*
X002860Y027279D02*
X003870Y027279D01*
X003870Y027397D02*
X002860Y027397D01*
X002860Y027516D02*
X003870Y027516D01*
X003942Y027634D02*
X002860Y027634D01*
X002860Y029886D02*
X012564Y029886D01*
X011488Y028819D02*
X005493Y028819D01*
X005612Y028701D02*
X011369Y028701D01*
X011249Y028582D02*
X005730Y028582D01*
X005750Y028464D02*
X011130Y028464D01*
X011010Y028345D02*
X005750Y028345D01*
X005750Y028227D02*
X010891Y028227D01*
X010772Y028108D02*
X005660Y028108D01*
X005542Y027990D02*
X010652Y027990D01*
X010550Y026686D02*
X010218Y026686D01*
X010303Y026568D02*
X010550Y026568D01*
X010550Y026449D02*
X010337Y026449D01*
X010336Y026331D02*
X010550Y026331D01*
X010550Y026212D02*
X010287Y026212D01*
X010177Y026094D02*
X010550Y026094D01*
X010550Y025975D02*
X009893Y025975D01*
X009774Y025857D02*
X010550Y025857D01*
X010550Y025738D02*
X009656Y025738D01*
X009537Y025620D02*
X010550Y025620D01*
X010550Y025501D02*
X009419Y025501D01*
X009300Y025383D02*
X010550Y025383D01*
X010550Y025264D02*
X009182Y025264D01*
X009063Y025146D02*
X010550Y025146D01*
X010550Y025027D02*
X008927Y025027D01*
X008786Y024909D02*
X010550Y024909D01*
X010550Y024790D02*
X008668Y024790D01*
X008549Y024672D02*
X010550Y024672D01*
X010550Y024553D02*
X008431Y024553D01*
X008312Y024435D02*
X010550Y024435D01*
X010550Y024316D02*
X008194Y024316D01*
X008075Y024198D02*
X010550Y024198D01*
X010550Y024079D02*
X007957Y024079D01*
X007838Y023961D02*
X010550Y023961D01*
X010550Y023842D02*
X007720Y023842D01*
X007601Y023724D02*
X010550Y023724D01*
X010550Y023605D02*
X007483Y023605D01*
X007364Y023487D02*
X010550Y023487D01*
X010550Y023368D02*
X007246Y023368D01*
X007127Y023250D02*
X010550Y023250D01*
X010550Y023131D02*
X007009Y023131D01*
X006970Y023013D02*
X010550Y023013D01*
X010550Y022894D02*
X006970Y022894D01*
X006970Y022776D02*
X010550Y022776D01*
X010550Y022657D02*
X006970Y022657D01*
X006970Y022539D02*
X010550Y022539D01*
X010550Y022420D02*
X006970Y022420D01*
X006970Y022302D02*
X010550Y022302D01*
X010550Y022183D02*
X006970Y022183D01*
X006970Y022065D02*
X010550Y022065D01*
X010550Y021946D02*
X006970Y021946D01*
X006949Y021828D02*
X010550Y021828D01*
X010550Y021709D02*
X006857Y021709D01*
X006738Y021591D02*
X010550Y021591D01*
X010550Y021472D02*
X006620Y021472D01*
X006501Y021354D02*
X010550Y021354D01*
X010550Y021235D02*
X006383Y021235D01*
X006246Y021117D02*
X010550Y021117D01*
X010550Y019813D02*
X005499Y019813D01*
X005618Y019695D02*
X010550Y019695D01*
X010550Y019576D02*
X005736Y019576D01*
X005750Y019458D02*
X010550Y019458D01*
X010566Y019339D02*
X005750Y019339D01*
X005750Y019221D02*
X010650Y019221D01*
X010763Y019102D02*
X005654Y019102D01*
X005536Y018984D02*
X010876Y018984D01*
X010989Y018865D02*
X004021Y018865D01*
X004022Y018747D02*
X004054Y018747D01*
X004084Y018984D02*
X004021Y018984D01*
X004024Y018036D02*
X004032Y018036D01*
X004024Y017917D02*
X011891Y017917D01*
X012003Y017799D02*
X005514Y017799D01*
X005632Y017680D02*
X012116Y017680D01*
X012229Y017562D02*
X005750Y017562D01*
X005750Y017443D02*
X012342Y017443D01*
X012454Y017325D02*
X005750Y017325D01*
X005750Y017206D02*
X012567Y017206D01*
X012680Y017088D02*
X005640Y017088D01*
X005040Y016732D02*
X004580Y016732D01*
X004699Y016614D02*
X004921Y016614D01*
X004870Y016495D02*
X004750Y016495D01*
X004750Y016377D02*
X004870Y016377D01*
X004870Y016258D02*
X004750Y016258D01*
X004692Y016140D02*
X004928Y016140D01*
X005047Y016021D02*
X004573Y016021D01*
X004135Y015903D02*
X012392Y015903D01*
X012391Y015784D02*
X011534Y015784D01*
X011652Y015666D02*
X012390Y015666D01*
X012388Y015547D02*
X011771Y015547D01*
X011889Y015429D02*
X012387Y015429D01*
X012385Y015310D02*
X012008Y015310D01*
X012126Y015192D02*
X012384Y015192D01*
X012382Y015073D02*
X012245Y015073D01*
X012363Y014955D02*
X012381Y014955D01*
X011083Y012703D02*
X010101Y012703D01*
X009982Y012585D02*
X010960Y012585D01*
X010837Y012466D02*
X009864Y012466D01*
X009745Y012348D02*
X010714Y012348D01*
X010591Y012229D02*
X009627Y012229D01*
X009508Y012111D02*
X010468Y012111D01*
X010345Y011992D02*
X009390Y011992D01*
X009271Y011874D02*
X010222Y011874D01*
X010099Y011755D02*
X009153Y011755D01*
X009034Y011637D02*
X009976Y011637D01*
X009853Y011518D02*
X008916Y011518D01*
X008797Y011400D02*
X009730Y011400D01*
X009607Y011281D02*
X008679Y011281D01*
X008560Y011163D02*
X009483Y011163D01*
X009360Y011044D02*
X008442Y011044D01*
X008323Y010926D02*
X009237Y010926D01*
X009114Y010807D02*
X008205Y010807D01*
X008086Y010689D02*
X008991Y010689D01*
X008868Y010570D02*
X007968Y010570D01*
X007849Y010452D02*
X008745Y010452D01*
X008622Y010333D02*
X007731Y010333D01*
X007612Y010215D02*
X008499Y010215D01*
X008376Y010096D02*
X007494Y010096D01*
X007375Y009978D02*
X008253Y009978D01*
X008130Y009859D02*
X007257Y009859D01*
X007138Y009741D02*
X008007Y009741D01*
X007884Y009622D02*
X007020Y009622D01*
X006901Y009504D02*
X007736Y009504D01*
X007617Y009385D02*
X006783Y009385D01*
X006664Y009267D02*
X007499Y009267D01*
X007380Y009148D02*
X006515Y009148D01*
X005939Y009030D02*
X007262Y009030D01*
X007143Y008911D02*
X005779Y008911D01*
X006457Y008200D02*
X004220Y008200D01*
X004220Y008082D02*
X006339Y008082D01*
X006220Y007963D02*
X004220Y007963D01*
X004220Y007845D02*
X004455Y007845D01*
X004336Y007726D02*
X004220Y007726D01*
X004220Y007608D02*
X004278Y007608D01*
X004240Y007489D02*
X004220Y007489D01*
X004220Y007371D02*
X004240Y007371D01*
X004220Y007252D02*
X004262Y007252D01*
X004220Y007134D02*
X004311Y007134D01*
X004220Y007015D02*
X004415Y007015D01*
X004220Y006897D02*
X004625Y006897D01*
X003700Y006897D02*
X003464Y006897D01*
X003463Y007015D02*
X003700Y007015D01*
X003700Y007134D02*
X003462Y007134D01*
X003462Y007252D02*
X003700Y007252D01*
X003700Y007371D02*
X003461Y007371D01*
X003460Y007489D02*
X003700Y007489D01*
X003700Y007608D02*
X003459Y007608D01*
X003458Y007726D02*
X003700Y007726D01*
X003700Y007845D02*
X003457Y007845D01*
X003456Y007963D02*
X003700Y007963D01*
X003700Y008082D02*
X003455Y008082D01*
X003454Y008200D02*
X003700Y008200D01*
X003700Y008319D02*
X003454Y008319D01*
X003453Y008437D02*
X003700Y008437D01*
X003700Y008556D02*
X003452Y008556D01*
X003451Y008674D02*
X003700Y008674D01*
X003700Y008793D02*
X003450Y008793D01*
X003449Y008911D02*
X003700Y008911D01*
X003700Y009030D02*
X003448Y009030D01*
X003447Y009148D02*
X003700Y009148D01*
X003700Y009267D02*
X003447Y009267D01*
X003446Y009385D02*
X003700Y009385D01*
X003700Y009504D02*
X003445Y009504D01*
X003444Y009622D02*
X003700Y009622D01*
X003704Y009741D02*
X003443Y009741D01*
X003442Y009859D02*
X003771Y009859D01*
X003890Y009978D02*
X003441Y009978D01*
X003513Y010096D02*
X004008Y010096D01*
X004127Y010215D02*
X003639Y010215D01*
X003766Y010333D02*
X004245Y010333D01*
X004364Y010452D02*
X003892Y010452D01*
X004018Y010570D02*
X004482Y010570D01*
X004271Y010807D02*
X006699Y010807D01*
X006581Y010689D02*
X004144Y010689D01*
X004397Y010926D02*
X004455Y010926D01*
X004292Y009622D02*
X004270Y009622D01*
X004243Y009504D02*
X004220Y009504D01*
X004220Y009385D02*
X004240Y009385D01*
X004247Y009267D02*
X004220Y009267D01*
X004220Y009148D02*
X004297Y009148D01*
X004220Y009030D02*
X004381Y009030D01*
X004541Y008911D02*
X004220Y008911D01*
X004220Y008793D02*
X007033Y008793D01*
X006931Y008674D02*
X004220Y008674D01*
X004220Y008556D02*
X006813Y008556D01*
X006694Y008437D02*
X004220Y008437D01*
X004220Y008319D02*
X006576Y008319D01*
X006102Y007845D02*
X005865Y007845D01*
X005707Y005949D02*
X017154Y005949D01*
X017272Y005830D02*
X005910Y005830D01*
X006011Y005712D02*
X017391Y005712D01*
X017509Y005593D02*
X006060Y005593D01*
X006080Y005475D02*
X024208Y005475D01*
X024181Y008911D02*
X018590Y008911D01*
X018548Y009030D02*
X024075Y009030D01*
X023915Y009148D02*
X018140Y009148D01*
X018109Y009267D02*
X023768Y009267D01*
X023730Y009385D02*
X017968Y009385D01*
X017336Y009400D02*
X017336Y009400D01*
X017062Y009385D02*
X016570Y009385D01*
X016570Y009267D02*
X016921Y009267D01*
X016890Y009148D02*
X016570Y009148D01*
X016570Y009030D02*
X016914Y009030D01*
X017023Y008911D02*
X016570Y008911D01*
X016570Y008793D02*
X017290Y008793D01*
X017290Y008674D02*
X016570Y008674D01*
X016570Y008556D02*
X017290Y008556D01*
X017290Y008437D02*
X016570Y008437D01*
X016570Y008319D02*
X017290Y008319D01*
X017290Y008200D02*
X016570Y008200D01*
X016570Y008082D02*
X017290Y008082D01*
X017290Y007963D02*
X016570Y007963D01*
X016570Y007845D02*
X017290Y007845D01*
X017290Y007726D02*
X016570Y007726D01*
X016570Y007608D02*
X017290Y007608D01*
X017290Y007489D02*
X016570Y007489D01*
X016570Y007371D02*
X017290Y007371D01*
X017290Y007252D02*
X016586Y007252D01*
X016704Y007134D02*
X017290Y007134D01*
X017290Y007015D02*
X016823Y007015D01*
X016941Y006897D02*
X017320Y006897D01*
X017424Y006778D02*
X017060Y006778D01*
X017178Y006660D02*
X017543Y006660D01*
X017661Y006541D02*
X017297Y006541D01*
X017415Y006423D02*
X017780Y006423D01*
X017898Y006304D02*
X017534Y006304D01*
X017652Y006186D02*
X018017Y006186D01*
X018896Y007015D02*
X034421Y007015D01*
X034420Y006897D02*
X019021Y006897D01*
X018770Y007134D02*
X034422Y007134D01*
X034423Y007252D02*
X018644Y007252D01*
X018570Y007371D02*
X034424Y007371D01*
X034426Y007489D02*
X018570Y007489D01*
X018570Y007608D02*
X034427Y007608D01*
X034428Y007726D02*
X018570Y007726D01*
X018570Y007845D02*
X034429Y007845D01*
X034430Y007963D02*
X018570Y007963D01*
X018570Y008082D02*
X034431Y008082D01*
X034433Y008200D02*
X018570Y008200D01*
X018602Y008319D02*
X034434Y008319D01*
X034435Y008437D02*
X018932Y008437D01*
X018970Y008556D02*
X034436Y008556D01*
X034437Y008674D02*
X018952Y008674D01*
X018865Y008793D02*
X034438Y008793D01*
X034439Y008911D02*
X024599Y008911D01*
X024650Y009030D02*
X034441Y009030D01*
X034442Y009148D02*
X024715Y009148D01*
X024774Y009267D02*
X034443Y009267D01*
X034444Y009385D02*
X025087Y009385D01*
X025399Y009504D02*
X034445Y009504D01*
X034446Y009622D02*
X025712Y009622D01*
X025838Y009741D02*
X034448Y009741D01*
X034449Y009859D02*
X025957Y009859D01*
X026075Y009978D02*
X034450Y009978D01*
X034451Y010096D02*
X026194Y010096D01*
X026312Y010215D02*
X034452Y010215D01*
X034453Y010333D02*
X026431Y010333D01*
X026549Y010452D02*
X034455Y010452D01*
X034456Y010570D02*
X026658Y010570D01*
X026690Y010689D02*
X034457Y010689D01*
X034458Y010807D02*
X026690Y010807D01*
X026690Y010926D02*
X034459Y010926D01*
X034460Y011044D02*
X026690Y011044D01*
X026690Y011163D02*
X034504Y011163D01*
X034495Y011281D02*
X026690Y011281D01*
X026690Y011400D02*
X034480Y011400D01*
X034520Y011518D02*
X026690Y011518D01*
X026690Y011637D02*
X034779Y011637D01*
X034879Y011755D02*
X026690Y011755D01*
X026690Y011874D02*
X034914Y011874D01*
X035065Y011992D02*
X033860Y011992D01*
X033944Y012111D02*
X035532Y012111D01*
X035531Y012229D02*
X033960Y012229D01*
X034014Y012348D02*
X035531Y012348D01*
X035531Y012466D02*
X034037Y012466D01*
X034025Y012585D02*
X035531Y012585D01*
X035530Y012703D02*
X033971Y012703D01*
X033960Y012822D02*
X035527Y012822D01*
X035386Y012940D02*
X033960Y012940D01*
X033932Y013059D02*
X035246Y013059D01*
X035105Y013177D02*
X033807Y013177D01*
X033593Y013177D02*
X031670Y013177D01*
X031670Y013059D02*
X033468Y013059D01*
X033440Y012940D02*
X031718Y012940D01*
X031836Y012822D02*
X033440Y012822D01*
X033441Y012111D02*
X026690Y012111D01*
X026690Y012229D02*
X031737Y012229D01*
X031575Y012348D02*
X026690Y012348D01*
X026690Y012466D02*
X028080Y012466D01*
X028260Y012466D02*
X031456Y012466D01*
X031670Y013296D02*
X034964Y013296D01*
X034823Y013414D02*
X031670Y013414D01*
X031670Y013533D02*
X034683Y013533D01*
X034542Y013651D02*
X031670Y013651D01*
X031670Y013770D02*
X034401Y013770D01*
X034261Y013888D02*
X031670Y013888D01*
X031670Y014007D02*
X034120Y014007D01*
X033979Y014125D02*
X031933Y014125D01*
X031998Y014244D02*
X033838Y014244D01*
X033698Y014362D02*
X031996Y014362D01*
X031927Y014481D02*
X033557Y014481D01*
X033416Y014599D02*
X031936Y014599D01*
X031938Y014718D02*
X033276Y014718D01*
X033135Y014836D02*
X031872Y014836D01*
X031195Y015429D02*
X026940Y015429D01*
X026940Y015547D02*
X031101Y015547D01*
X031080Y015666D02*
X026940Y015666D01*
X026940Y015784D02*
X031114Y015784D01*
X031092Y015310D02*
X026940Y015310D01*
X026940Y015192D02*
X030974Y015192D01*
X030855Y015073D02*
X026925Y015073D01*
X026845Y014955D02*
X030737Y014955D01*
X030618Y014836D02*
X026738Y014836D01*
X026630Y014718D02*
X030500Y014718D01*
X030381Y014599D02*
X026523Y014599D01*
X026421Y014481D02*
X030263Y014481D01*
X030144Y014362D02*
X026320Y014362D01*
X026287Y014244D02*
X030026Y014244D01*
X029907Y014125D02*
X026254Y014125D01*
X026829Y013414D02*
X027770Y013414D01*
X027770Y013296D02*
X026865Y013296D01*
X026865Y013177D02*
X027743Y013177D01*
X027720Y013059D02*
X026826Y013059D01*
X026746Y012940D02*
X027752Y012940D01*
X027770Y012822D02*
X026690Y012822D01*
X026690Y012703D02*
X027770Y012703D01*
X027941Y012585D02*
X026690Y012585D01*
X026160Y012229D02*
X025670Y012229D01*
X025670Y012111D02*
X026160Y012111D01*
X026160Y011992D02*
X025670Y011992D01*
X025670Y011874D02*
X026160Y011874D01*
X026160Y011755D02*
X025670Y011755D01*
X025670Y011637D02*
X026160Y011637D01*
X026160Y011518D02*
X025670Y011518D01*
X025670Y011400D02*
X026160Y011400D01*
X026160Y011281D02*
X025670Y011281D01*
X025651Y011163D02*
X026160Y011163D01*
X026160Y011044D02*
X025562Y011044D01*
X025557Y011040D02*
X025557Y011040D01*
X025443Y010926D02*
X026160Y010926D01*
X026159Y010807D02*
X025325Y010807D01*
X025206Y010689D02*
X026051Y010689D01*
X025932Y010570D02*
X025088Y010570D01*
X024969Y010452D02*
X025814Y010452D01*
X025695Y010333D02*
X016570Y010333D01*
X016570Y010215D02*
X025577Y010215D01*
X025458Y010096D02*
X016570Y010096D01*
X016570Y009978D02*
X025183Y009978D01*
X024870Y009859D02*
X024499Y009859D01*
X024161Y009859D02*
X016570Y009859D01*
X016570Y009741D02*
X024082Y009741D01*
X023834Y009622D02*
X016570Y009622D01*
X016570Y009504D02*
X023747Y009504D01*
X026690Y011992D02*
X033520Y011992D01*
X035255Y011992D02*
X035532Y011992D01*
X035532Y011874D02*
X035390Y011874D01*
X035441Y011755D02*
X035532Y011755D01*
X034438Y017088D02*
X037525Y017088D01*
X037525Y017206D02*
X034572Y017206D01*
X034673Y017325D02*
X037526Y017325D01*
X037526Y017443D02*
X034750Y017443D01*
X034750Y017562D02*
X037526Y017562D01*
X037526Y017680D02*
X034750Y017680D01*
X034750Y017799D02*
X037527Y017799D01*
X037527Y017917D02*
X034750Y017917D01*
X034750Y018036D02*
X037527Y018036D01*
X037528Y018154D02*
X034714Y018154D01*
X034610Y018273D02*
X037528Y018273D01*
X037528Y018391D02*
X034567Y018391D01*
X037533Y020169D02*
X030819Y020169D01*
X030010Y020960D02*
X030010Y021060D01*
X029151Y020287D02*
X037533Y020287D01*
X037534Y020406D02*
X029032Y020406D01*
X028914Y020524D02*
X037534Y020524D01*
X037534Y020643D02*
X028795Y020643D01*
X028677Y020761D02*
X037535Y020761D01*
X037535Y020880D02*
X028558Y020880D01*
X028440Y020998D02*
X037535Y020998D01*
X037536Y021117D02*
X028321Y021117D01*
X028203Y021235D02*
X028587Y021235D01*
X028893Y021235D02*
X037536Y021235D01*
X037536Y021354D02*
X028981Y021354D01*
X029000Y021472D02*
X037537Y021472D01*
X037537Y021591D02*
X028963Y021591D01*
X028935Y021709D02*
X037537Y021709D01*
X037538Y021828D02*
X028950Y021828D01*
X028936Y021946D02*
X037538Y021946D01*
X037538Y022065D02*
X028853Y022065D01*
X028395Y022183D02*
X037538Y022183D01*
X037539Y022302D02*
X028290Y022302D01*
X028290Y022420D02*
X037539Y022420D01*
X037539Y022539D02*
X028290Y022539D01*
X028290Y022657D02*
X037540Y022657D01*
X037540Y022776D02*
X028290Y022776D01*
X028290Y022894D02*
X037540Y022894D01*
X037541Y023013D02*
X028290Y023013D01*
X028290Y023131D02*
X037541Y023131D01*
X037541Y023250D02*
X028290Y023250D01*
X028290Y023368D02*
X037542Y023368D01*
X037542Y023487D02*
X028290Y023487D01*
X028290Y023605D02*
X037542Y023605D01*
X037543Y023961D02*
X028227Y023961D01*
X028109Y024079D02*
X037544Y024079D01*
X037544Y024198D02*
X027990Y024198D01*
X027872Y024316D02*
X037544Y024316D01*
X037544Y024435D02*
X027753Y024435D01*
X027670Y024553D02*
X037545Y024553D01*
X037545Y024672D02*
X027670Y024672D01*
X027670Y024790D02*
X037545Y024790D01*
X037546Y024909D02*
X027670Y024909D01*
X027670Y025027D02*
X037546Y025027D01*
X037546Y025146D02*
X027670Y025146D01*
X027670Y025264D02*
X037547Y025264D01*
X037547Y025383D02*
X027670Y025383D01*
X027670Y025501D02*
X037547Y025501D01*
X037548Y025620D02*
X027670Y025620D01*
X027670Y025738D02*
X037548Y025738D01*
X037548Y025857D02*
X027670Y025857D01*
X027670Y025975D02*
X037549Y025975D01*
X037549Y026094D02*
X027670Y026094D01*
X027670Y026212D02*
X037549Y026212D01*
X037550Y026331D02*
X027670Y026331D01*
X027670Y026449D02*
X037550Y026449D01*
X037550Y026568D02*
X027670Y026568D01*
X027670Y026686D02*
X037550Y026686D01*
X037551Y026805D02*
X027670Y026805D01*
X027670Y026923D02*
X037551Y026923D01*
X037551Y027042D02*
X027670Y027042D01*
X027670Y027160D02*
X037552Y027160D01*
X037552Y027279D02*
X027670Y027279D01*
X027670Y027397D02*
X037552Y027397D01*
X037575Y036048D02*
X028040Y036048D01*
X027922Y036166D02*
X037576Y036166D01*
X037576Y036285D02*
X027803Y036285D01*
X027685Y036403D02*
X037576Y036403D01*
X037577Y036522D02*
X027566Y036522D01*
X027434Y036640D02*
X037577Y036640D01*
X037577Y036759D02*
X000659Y036759D01*
X000659Y036877D02*
X037578Y036877D01*
X037578Y036996D02*
X000659Y036996D01*
X000659Y037114D02*
X037578Y037114D01*
X037579Y037233D02*
X000659Y037233D01*
X005531Y031782D02*
X008864Y031782D01*
X008745Y031663D02*
X005649Y031663D01*
X008758Y031100D02*
X008758Y031100D01*
X012426Y028227D02*
X012609Y028227D01*
X014210Y027420D02*
X014280Y027490D01*
X014350Y027700D01*
X014530Y027750D02*
X014210Y027420D01*
X014880Y027300D02*
X014937Y027095D01*
X014940Y027250D01*
X014920Y027210D01*
X015787Y028819D02*
X024813Y028819D01*
X024695Y028938D02*
X023945Y028938D01*
X024194Y029056D02*
X024576Y029056D01*
X024448Y029175D02*
X024276Y029175D01*
X024290Y029293D02*
X024329Y029293D01*
X023700Y029530D02*
X023700Y029890D01*
X023730Y027980D02*
X023810Y027980D01*
X024070Y027980D01*
X024070Y027960D01*
X027670Y027990D02*
X027763Y027990D01*
X027670Y027871D02*
X027881Y027871D01*
X028000Y027753D02*
X027670Y027753D01*
X027670Y027634D02*
X028118Y027634D01*
X028237Y027516D02*
X027670Y027516D01*
X027762Y023605D02*
X027770Y023605D01*
X027770Y023487D02*
X027691Y023487D01*
X027757Y023368D02*
X027770Y023368D01*
X027756Y023250D02*
X027770Y023250D01*
X027770Y023131D02*
X027689Y023131D01*
X027770Y023013D02*
X027470Y023013D01*
X027470Y022894D02*
X027770Y022894D01*
X027770Y022776D02*
X027470Y022776D01*
X027470Y022657D02*
X027770Y022657D01*
X027770Y022539D02*
X027470Y022539D01*
X027470Y022420D02*
X027770Y022420D01*
X027770Y022302D02*
X027470Y022302D01*
X027470Y022183D02*
X027770Y022183D01*
X027796Y022065D02*
X027470Y022065D01*
X027470Y021946D02*
X027896Y021946D01*
X028015Y021828D02*
X027470Y021828D01*
X027470Y021709D02*
X027566Y021709D01*
X027949Y021709D02*
X028065Y021709D01*
X028070Y021591D02*
X028040Y021591D01*
X028072Y021472D02*
X028119Y021472D01*
X028087Y021354D02*
X028221Y021354D01*
X024020Y020643D02*
X023910Y020643D01*
X024965Y015192D02*
X025224Y015192D01*
X024590Y013888D02*
X019990Y013888D01*
X020074Y013770D02*
X024512Y013770D01*
X024500Y013651D02*
X020090Y013651D01*
X018470Y014007D02*
X018097Y014007D01*
X018102Y014125D02*
X018470Y014125D01*
X018470Y014244D02*
X018106Y014244D01*
X018219Y014362D02*
X018470Y014362D01*
X018470Y014481D02*
X018336Y014481D01*
X018454Y014599D02*
X018470Y014599D01*
X017523Y012940D02*
X017429Y012940D01*
X017497Y012822D02*
X017591Y012822D01*
X017927Y010926D02*
X016804Y010926D01*
X016809Y010807D02*
X018045Y010807D01*
X018164Y010689D02*
X016746Y010689D01*
X016681Y010570D02*
X018282Y010570D01*
X018401Y010452D02*
X016632Y010452D01*
X018310Y008560D02*
X018210Y008460D01*
X014403Y004645D02*
X011513Y004645D01*
X011631Y004527D02*
X014521Y004527D01*
X014417Y004290D02*
X011868Y004290D01*
X011750Y004408D02*
X034395Y004408D01*
X034011Y003579D02*
X033951Y003579D01*
X029469Y003579D02*
X028951Y003579D01*
X029069Y003697D02*
X029351Y003697D01*
X029270Y003816D02*
X029150Y003816D01*
X029150Y003934D02*
X029270Y003934D01*
X029270Y004053D02*
X029150Y004053D01*
X029121Y004171D02*
X029299Y004171D01*
X029417Y004290D02*
X029003Y004290D01*
X028998Y012585D02*
X028411Y012585D01*
X028650Y012703D02*
X028945Y012703D01*
X029210Y013060D02*
X028210Y013060D01*
X028650Y013414D02*
X028942Y013414D01*
X019252Y003460D02*
X012698Y003460D01*
X012579Y003579D02*
X014469Y003579D01*
X014351Y003697D02*
X012461Y003697D01*
X012342Y003816D02*
X014270Y003816D01*
X014270Y003934D02*
X012224Y003934D01*
X012105Y004053D02*
X014270Y004053D01*
X014299Y004171D02*
X011987Y004171D01*
X011607Y003816D02*
X005979Y003816D01*
X005970Y003828D02*
X005908Y003890D01*
X005838Y003940D01*
X005761Y003980D01*
X005679Y004006D01*
X005593Y004020D01*
X005220Y004020D01*
X005220Y003530D01*
X005100Y003530D01*
X005100Y004020D01*
X004727Y004020D01*
X004641Y004006D01*
X004559Y003980D01*
X004482Y003940D01*
X004412Y003890D01*
X004350Y003828D01*
X004300Y003758D01*
X004260Y003681D01*
X004234Y003599D01*
X004223Y003530D01*
X005100Y003530D01*
X005100Y003410D01*
X005220Y003410D01*
X005220Y003530D01*
X006097Y003530D01*
X006086Y003599D01*
X006060Y003681D01*
X006020Y003758D01*
X005970Y003828D01*
X006052Y003697D02*
X011725Y003697D01*
X011844Y003579D02*
X006090Y003579D01*
X006097Y003410D02*
X005220Y003410D01*
X005220Y002920D01*
X005593Y002920D01*
X005679Y002934D01*
X005761Y002960D01*
X005838Y003000D01*
X005908Y003050D01*
X005970Y003112D01*
X006020Y003182D01*
X006060Y003259D01*
X006086Y003341D01*
X006097Y003410D01*
X006087Y003341D02*
X012081Y003341D01*
X012199Y003223D02*
X006041Y003223D01*
X005962Y003104D02*
X012318Y003104D01*
X012436Y002986D02*
X005812Y002986D01*
X005220Y002986D02*
X005100Y002986D01*
X005100Y002920D02*
X005100Y003410D01*
X004223Y003410D01*
X004234Y003341D01*
X004260Y003259D01*
X004300Y003182D01*
X004350Y003112D01*
X004412Y003050D01*
X004482Y003000D01*
X004559Y002960D01*
X004641Y002934D01*
X004727Y002920D01*
X005100Y002920D01*
X005100Y003104D02*
X005220Y003104D01*
X005220Y003223D02*
X005100Y003223D01*
X005100Y003341D02*
X005220Y003341D01*
X005220Y003460D02*
X011962Y003460D01*
X011488Y003934D02*
X005847Y003934D01*
X005220Y003934D02*
X005100Y003934D01*
X005100Y003816D02*
X005220Y003816D01*
X005220Y003697D02*
X005100Y003697D01*
X005100Y003579D02*
X005220Y003579D01*
X005100Y003460D02*
X003575Y003460D01*
X003489Y003579D02*
X004230Y003579D01*
X004268Y003697D02*
X003488Y003697D01*
X003487Y003816D02*
X004341Y003816D01*
X004473Y003934D02*
X003486Y003934D01*
X003485Y004053D02*
X011370Y004053D01*
X011251Y004171D02*
X003485Y004171D01*
X003484Y004290D02*
X004120Y004290D01*
X003982Y004408D02*
X003483Y004408D01*
X003482Y004527D02*
X003844Y004527D01*
X003730Y004645D02*
X003481Y004645D01*
X003480Y004764D02*
X003700Y004764D01*
X003700Y004882D02*
X003479Y004882D01*
X003478Y005001D02*
X003700Y005001D01*
X003700Y005119D02*
X003477Y005119D01*
X003477Y005238D02*
X003700Y005238D01*
X003700Y005356D02*
X003476Y005356D01*
X003475Y005475D02*
X003700Y005475D01*
X003700Y005593D02*
X003474Y005593D01*
X003473Y005712D02*
X003700Y005712D01*
X003700Y005830D02*
X003472Y005830D01*
X003471Y005949D02*
X003700Y005949D01*
X003700Y006067D02*
X003470Y006067D01*
X003470Y006186D02*
X003700Y006186D01*
X003700Y006304D02*
X003469Y006304D01*
X003468Y006423D02*
X003700Y006423D01*
X003700Y006541D02*
X003467Y006541D01*
X003466Y006660D02*
X003700Y006660D01*
X003700Y006778D02*
X003465Y006778D01*
X004366Y004764D02*
X014284Y004764D01*
X011822Y012111D02*
X011217Y012111D01*
X011340Y012229D02*
X011742Y012229D01*
X006960Y012229D02*
X000626Y012229D01*
X000626Y012111D02*
X006960Y012111D01*
X006960Y011992D02*
X000626Y011992D01*
X000626Y012348D02*
X006960Y012348D01*
X006960Y012466D02*
X000626Y012466D01*
X000626Y012585D02*
X006960Y012585D01*
X006859Y012703D02*
X000627Y012703D01*
X004030Y016021D02*
X004047Y016021D01*
X004025Y017799D02*
X004106Y017799D01*
X005588Y018036D02*
X011778Y018036D01*
X011665Y018154D02*
X005706Y018154D01*
X005750Y018273D02*
X011552Y018273D01*
X011440Y018391D02*
X005750Y018391D01*
X005750Y018510D02*
X011327Y018510D01*
X011214Y018628D02*
X005684Y018628D01*
X005566Y018747D02*
X011101Y018747D01*
X012263Y022375D02*
X012170Y022468D01*
X012170Y022698D01*
X012193Y022674D01*
X012249Y022634D01*
X012311Y022602D01*
X012377Y022581D01*
X012445Y022570D01*
X012730Y022570D01*
X012730Y022980D01*
X012790Y022980D01*
X012790Y022570D01*
X013075Y022570D01*
X013143Y022581D01*
X013209Y022602D01*
X013260Y022628D01*
X013260Y022373D01*
X013124Y022430D01*
X012396Y022430D01*
X012263Y022375D01*
X012218Y022420D02*
X012372Y022420D01*
X012170Y022539D02*
X013260Y022539D01*
X013260Y022420D02*
X013148Y022420D01*
X012790Y022657D02*
X012730Y022657D01*
X012730Y022776D02*
X012790Y022776D01*
X012790Y022894D02*
X012730Y022894D01*
X012730Y023131D02*
X012790Y023131D01*
X012790Y023250D02*
X012730Y023250D01*
X012730Y023368D02*
X012790Y023368D01*
X012224Y023368D02*
X012170Y023368D01*
X012170Y022657D02*
X012217Y022657D01*
X016910Y018510D02*
X016870Y018240D01*
X006960Y011874D02*
X005695Y011874D01*
X005905Y011755D02*
X006960Y011755D01*
X006960Y011637D02*
X006009Y011637D01*
X006058Y011518D02*
X006960Y011518D01*
X006960Y011400D02*
X006080Y011400D01*
X006080Y011281D02*
X006960Y011281D01*
X006960Y011163D02*
X006042Y011163D01*
X005984Y011044D02*
X006936Y011044D01*
X006818Y010926D02*
X005865Y010926D01*
X005707Y012822D02*
X006741Y012822D01*
X006622Y012940D02*
X005910Y012940D01*
X006011Y013059D02*
X006504Y013059D01*
X006091Y021709D02*
X005603Y021709D01*
X015140Y031750D02*
X015820Y031750D01*
X015820Y031760D01*
X016062Y031663D02*
X016800Y031663D01*
X016800Y031545D02*
X015972Y031545D01*
X015810Y031426D02*
X016800Y031426D01*
X016800Y031308D02*
X015810Y031308D01*
X015798Y031189D02*
X016800Y031189D01*
X016800Y031071D02*
X015718Y031071D01*
X015500Y031410D02*
X015500Y031710D01*
X015500Y031730D01*
X015480Y031730D01*
X015875Y032019D02*
X016800Y032019D01*
X016800Y032137D02*
X015770Y032137D01*
X015770Y032256D02*
X016800Y032256D01*
X016800Y032374D02*
X015770Y032374D01*
X015770Y032493D02*
X016800Y032493D01*
X016800Y032611D02*
X015770Y032611D01*
X015770Y032730D02*
X016800Y032730D01*
X016800Y032848D02*
X015770Y032848D01*
X015770Y032967D02*
X016800Y032967D01*
X016800Y033085D02*
X015770Y033085D01*
X015770Y033204D02*
X016800Y033204D01*
X016800Y033322D02*
X015770Y033322D01*
X015770Y033441D02*
X016800Y033441D01*
X016800Y033559D02*
X015770Y033559D01*
X015770Y033678D02*
X016800Y033678D01*
X016800Y033796D02*
X015770Y033796D01*
X015770Y033915D02*
X016800Y033915D01*
X016800Y034033D02*
X015770Y034033D01*
X015770Y034152D02*
X016800Y034152D01*
X016800Y034270D02*
X015770Y034270D01*
X015770Y034389D02*
X016811Y034389D01*
X016889Y034507D02*
X015770Y034507D01*
X015770Y034626D02*
X017008Y034626D01*
X017126Y034744D02*
X015770Y034744D01*
X015770Y034863D02*
X017245Y034863D01*
X017363Y034981D02*
X015770Y034981D01*
X015770Y035100D02*
X017482Y035100D01*
X017600Y035218D02*
X015767Y035218D01*
X015701Y035337D02*
X017719Y035337D01*
X017800Y035417D02*
X017800Y035417D01*
X017837Y035455D02*
X015583Y035455D01*
X017743Y034626D02*
X018818Y034626D01*
X018936Y034744D02*
X017862Y034744D01*
X017980Y034863D02*
X019100Y034863D01*
X018699Y034507D02*
X017876Y034507D01*
X018015Y034389D02*
X018586Y034389D01*
X018550Y034270D02*
X018288Y034270D01*
X018356Y034152D02*
X018550Y034152D01*
X018550Y034033D02*
X018358Y034033D01*
X018292Y033915D02*
X018550Y033915D01*
X018550Y033796D02*
X018100Y033796D01*
X018055Y033678D02*
X018550Y033678D01*
X018550Y033559D02*
X017780Y033559D01*
X017780Y033441D02*
X018550Y033441D01*
X018550Y033322D02*
X017780Y033322D01*
X017780Y033204D02*
X018550Y033204D01*
X018550Y033085D02*
X017780Y033085D01*
X017780Y032967D02*
X018550Y032967D01*
X018550Y032848D02*
X017780Y032848D01*
X017780Y032730D02*
X018550Y032730D01*
X018550Y032611D02*
X017780Y032611D01*
X017780Y032493D02*
X018550Y032493D01*
X018550Y032374D02*
X017780Y032374D01*
X017780Y032256D02*
X018013Y032256D01*
X018187Y032256D02*
X018538Y032256D01*
X018310Y032020D02*
X018310Y031960D01*
X018310Y031700D01*
X018330Y031700D01*
X018650Y031660D02*
X018650Y031640D01*
X017920Y031640D01*
X017864Y031900D02*
X017780Y031900D01*
X017780Y032019D02*
X017840Y032019D01*
X017871Y032137D02*
X017780Y032137D01*
X018570Y031308D02*
X019450Y031308D01*
X019450Y031426D02*
X018804Y031426D01*
X018874Y031545D02*
X019450Y031545D01*
X019450Y031663D02*
X018879Y031663D01*
X018816Y031782D02*
X019450Y031782D01*
X019450Y031900D02*
X018918Y031900D01*
X019033Y032019D02*
X019450Y032019D01*
X019450Y032137D02*
X019070Y032137D01*
X019070Y032256D02*
X019450Y032256D01*
X019450Y032374D02*
X019070Y032374D01*
X019070Y032493D02*
X019450Y032493D01*
X019450Y032611D02*
X019070Y032611D01*
X019070Y032730D02*
X019450Y032730D01*
X019450Y032848D02*
X019070Y032848D01*
X019070Y032967D02*
X019450Y032967D01*
X019450Y033085D02*
X019070Y033085D01*
X019070Y033204D02*
X019450Y033204D01*
X019450Y033322D02*
X019070Y033322D01*
X019070Y033441D02*
X019450Y033441D01*
X019450Y033559D02*
X019070Y033559D01*
X019070Y033678D02*
X019368Y033678D01*
X019248Y033796D02*
X019070Y033796D01*
X019070Y033915D02*
X019210Y033915D01*
X019227Y034033D02*
X019070Y034033D01*
X019079Y034152D02*
X019314Y034152D01*
X019198Y034270D02*
X019534Y034270D01*
X019790Y034280D02*
X019790Y033960D01*
X019790Y033830D01*
X019810Y033930D02*
X020210Y033930D01*
X020210Y033990D01*
X019810Y033930D02*
X019440Y033930D01*
X018000Y034180D02*
X017760Y034180D01*
X017730Y034140D02*
X017730Y034370D01*
X017730Y034140D02*
X017730Y034120D01*
X017730Y033900D01*
X017740Y033900D01*
X018099Y034981D02*
X027712Y034981D01*
X019891Y029412D02*
X017979Y029412D01*
X017980Y029413D02*
X017980Y029413D01*
X018098Y029530D02*
X019772Y029530D01*
X019654Y029649D02*
X018216Y029649D01*
X018335Y029767D02*
X019535Y029767D01*
X019459Y029886D02*
X018453Y029886D01*
X018457Y029890D02*
X018457Y029890D01*
X018548Y030004D02*
X019450Y030004D01*
X019450Y030123D02*
X018570Y030123D01*
X018570Y030241D02*
X019450Y030241D01*
X019450Y030360D02*
X018570Y030360D01*
X018570Y030478D02*
X019450Y030478D01*
X019450Y030597D02*
X018570Y030597D01*
X018570Y030715D02*
X019450Y030715D01*
X019450Y030834D02*
X018570Y030834D01*
X018570Y030952D02*
X019450Y030952D01*
X019450Y031071D02*
X018570Y031071D01*
X018570Y031189D02*
X019450Y031189D01*
X016800Y031782D02*
X016081Y031782D01*
X016044Y031900D02*
X016800Y031900D01*
X004233Y003341D02*
X003692Y003341D01*
X003809Y003223D02*
X004279Y003223D01*
X004358Y003104D02*
X003926Y003104D01*
X004043Y002986D02*
X004508Y002986D01*
D17*
X004630Y002020D02*
X028250Y002020D01*
X028900Y002670D01*
X029110Y002880D01*
X035410Y002880D01*
X035810Y003280D01*
X035790Y012940D01*
X031610Y016460D01*
X031310Y016460D01*
X031210Y016460D01*
X031210Y019410D01*
X030610Y020010D01*
X029060Y020010D01*
X027710Y021360D01*
X027790Y021480D02*
X027800Y021490D01*
X027790Y021480D02*
X027580Y021270D01*
X027550Y021270D01*
X027210Y020710D02*
X027210Y023360D01*
X027310Y023460D01*
X027350Y023460D01*
X027500Y023310D01*
X027490Y023310D01*
X027120Y023680D01*
X027310Y023500D02*
X027320Y023500D01*
X027520Y023700D01*
X028030Y023790D02*
X027410Y024410D01*
X027410Y028560D01*
X024660Y031310D01*
X024040Y031310D01*
X023680Y030950D01*
X023680Y030310D01*
X024600Y029390D01*
X024610Y029390D01*
X025280Y028720D01*
X025280Y025980D01*
X024110Y024810D01*
X024020Y025950D02*
X024030Y025960D01*
X024030Y026230D01*
X024030Y026260D02*
X024070Y026260D01*
X024220Y026110D01*
X024010Y026260D02*
X021710Y026260D01*
X021730Y026230D02*
X021240Y026230D01*
X021730Y026220D02*
X021730Y025960D01*
X021730Y025820D01*
X020330Y026410D02*
X020330Y027120D01*
X020360Y026760D02*
X024570Y026760D01*
X024580Y026770D02*
X024580Y027060D01*
X024550Y027090D01*
X024160Y027950D02*
X024100Y028010D01*
X023810Y028010D01*
X023760Y028010D01*
X023760Y027960D02*
X023760Y027620D01*
X023750Y027610D01*
X023750Y027960D02*
X017510Y027960D01*
X016750Y027200D01*
X015042Y027200D01*
X014937Y027095D01*
X014870Y026970D02*
X014870Y027590D01*
X014290Y027580D02*
X013760Y027570D01*
X013520Y027260D01*
X013520Y019660D01*
X015910Y017160D01*
X015910Y016330D01*
X015010Y015560D01*
X014821Y015443D01*
X014590Y015300D01*
X014520Y015300D02*
X014520Y015610D01*
X014740Y015390D01*
X014830Y015300D01*
X014830Y015270D01*
X014520Y015300D02*
X014300Y015300D01*
X014270Y015330D01*
X015110Y014800D02*
X016410Y016210D01*
X016410Y017160D01*
X015260Y018310D01*
X015260Y020210D01*
X015510Y020460D01*
X016710Y020460D01*
X017070Y020680D01*
X017070Y021380D01*
X016680Y021510D01*
X017390Y021960D01*
X017430Y022510D01*
X017870Y023110D01*
X019290Y023110D01*
X021060Y020980D01*
X021080Y017610D01*
X017850Y014360D01*
X017810Y013260D01*
X018060Y013260D01*
X018070Y013250D01*
X017810Y013250D01*
X017780Y013220D01*
X017780Y013000D01*
X017815Y012965D01*
X017840Y012940D01*
X017810Y013260D02*
X017510Y013260D01*
X017240Y012760D02*
X016920Y013040D01*
X010070Y013040D01*
X006420Y009390D01*
X005160Y009390D01*
X004670Y010390D02*
X006650Y010390D01*
X007220Y010960D01*
X007220Y012710D01*
X006600Y013330D01*
X005160Y013330D01*
X003480Y013330D01*
X002220Y014590D01*
X002120Y014750D01*
X002140Y023030D01*
X001950Y023340D01*
X001910Y023350D02*
X001650Y023380D01*
X001980Y023380D01*
X001950Y023650D01*
X001950Y023040D01*
X001940Y022990D02*
X001950Y023650D01*
X001940Y023650D02*
X001940Y022990D01*
X003360Y023530D02*
X003360Y015830D01*
X003940Y015250D01*
X011210Y015250D01*
X012710Y013750D01*
X015620Y013750D01*
X019820Y018170D01*
X019820Y018650D01*
X019830Y018700D01*
X020270Y019120D02*
X019830Y019420D01*
X019860Y019450D02*
X019860Y019460D01*
X019860Y019890D01*
X019850Y019900D01*
X019300Y019650D02*
X019320Y018200D01*
X015410Y014110D01*
X015370Y014070D01*
X012880Y014070D01*
X011320Y015630D01*
X004040Y015630D01*
X003770Y015900D01*
X003770Y015930D01*
X003750Y022800D01*
X004310Y023380D01*
X003360Y023530D02*
X004210Y024380D01*
X004310Y024380D01*
X004310Y025380D02*
X004160Y025380D01*
X002950Y024130D01*
X002970Y015730D01*
X003840Y014860D01*
X011080Y014860D01*
X012520Y013420D01*
X015760Y013420D01*
X020270Y018110D01*
X020270Y019120D01*
X019300Y019650D02*
X019000Y020110D01*
X018010Y020190D01*
X018040Y020140D01*
X018140Y020120D01*
X018130Y020150D02*
X017800Y020150D01*
X017770Y020120D01*
X018150Y020220D02*
X018150Y020560D01*
X018130Y020580D01*
X017230Y020310D02*
X018410Y021490D01*
X018410Y021530D01*
X018810Y022150D01*
X018790Y022170D02*
X018800Y022180D01*
X018800Y022210D01*
X019070Y022210D01*
X019100Y022180D01*
X018830Y022170D02*
X018790Y022170D01*
X018490Y022170D01*
X018800Y022210D02*
X018800Y022440D01*
X018670Y022750D02*
X018700Y022780D01*
X019000Y022780D01*
X019540Y022240D01*
X019540Y021870D01*
X020640Y020770D01*
X020640Y017780D01*
X019020Y016160D01*
X019620Y015060D02*
X019510Y014860D01*
X019280Y014630D01*
X019510Y014860D02*
X019510Y014870D01*
X019500Y014880D02*
X019740Y014640D01*
X019620Y015060D02*
X020420Y015860D01*
X024960Y015860D01*
X025410Y016310D01*
X025410Y018660D01*
X025510Y018760D01*
X025540Y018790D02*
X025160Y018790D01*
X025090Y018720D01*
X024960Y019310D02*
X025760Y019310D01*
X026060Y019010D01*
X026060Y015660D01*
X025335Y014935D01*
X025060Y014660D01*
X025060Y014320D01*
X025560Y013810D01*
X025410Y013660D01*
X025410Y011260D01*
X024810Y010660D01*
X018560Y010660D01*
X017260Y011960D01*
X017240Y012760D01*
X016640Y011780D02*
X016460Y011600D01*
X016350Y011600D01*
X016370Y011640D02*
X019560Y008310D01*
X023660Y008310D01*
X023710Y008360D01*
X023700Y008390D02*
X023820Y008350D01*
X026370Y008350D01*
X028710Y006010D01*
X028710Y004960D01*
X028710Y004910D01*
X028360Y003260D02*
X028340Y003240D01*
X020020Y003240D01*
X019700Y003560D01*
X019700Y003540D01*
X019320Y003160D01*
X012630Y003160D01*
X011330Y004460D01*
X004320Y004460D01*
X003960Y004770D01*
X003960Y009680D01*
X004670Y010390D01*
X004480Y011360D02*
X003180Y010140D01*
X003230Y003440D01*
X004630Y002020D01*
X005160Y007410D02*
X006035Y007410D01*
X007942Y009317D01*
X007917Y009317D01*
X007260Y008660D01*
X011330Y012580D01*
X012290Y012580D01*
X012280Y012600D02*
X011990Y012310D01*
X012340Y012590D02*
X012570Y012590D01*
X012590Y012610D01*
X013130Y012330D02*
X012830Y012030D01*
X012820Y012030D01*
X012770Y012000D02*
X013460Y011610D01*
X016160Y011610D01*
X016370Y011640D01*
X016380Y011690D02*
X016380Y012070D01*
X016390Y012080D01*
X016320Y011540D02*
X016340Y011520D01*
X016340Y011330D01*
X016500Y010860D02*
X016090Y010450D01*
X016320Y010620D02*
X016320Y010640D01*
X016070Y010890D01*
X016310Y010660D02*
X016310Y007160D01*
X017660Y005810D01*
X024240Y005810D01*
X024710Y005340D01*
X024710Y004960D01*
X025710Y004960D02*
X025720Y004970D01*
X025720Y005720D01*
X025230Y006210D01*
X018360Y006210D01*
X017550Y007020D01*
X017550Y009080D01*
X017880Y009140D02*
X017150Y009140D01*
X018050Y008590D02*
X018700Y008590D01*
X018710Y008580D01*
X018310Y008560D02*
X018310Y008460D01*
X018310Y007210D01*
X019010Y006550D01*
X026170Y006550D01*
X026690Y006030D01*
X026690Y004980D01*
X026710Y004960D01*
X028360Y003260D02*
X034060Y003260D01*
X034650Y003850D01*
X034720Y011010D01*
X035160Y011420D01*
X035160Y011430D02*
X035160Y011750D01*
X035150Y011740D02*
X035140Y011420D01*
X035140Y011550D01*
X035140Y011710D01*
X035140Y011740D01*
X035140Y011710D02*
X035190Y011370D01*
X034740Y011370D01*
X035160Y011430D02*
X035140Y011550D01*
X033700Y012200D02*
X033690Y012190D01*
X033700Y012200D02*
X033700Y012460D01*
X033700Y012940D01*
X033660Y012480D02*
X031810Y012480D01*
X031410Y012880D01*
X031410Y014360D01*
X031400Y014350D02*
X031400Y014380D01*
X031680Y014660D01*
X031660Y014380D02*
X031740Y014300D01*
X031660Y014380D02*
X031470Y014380D01*
X031990Y015400D02*
X031870Y015520D01*
X031740Y015650D01*
X031340Y015650D01*
X031710Y015660D02*
X031710Y015560D01*
X029960Y013810D01*
X025560Y013810D01*
X025910Y014280D02*
X026300Y014740D01*
X026680Y015160D01*
X026680Y019310D01*
X027030Y019660D01*
X029010Y019660D01*
X029410Y019260D01*
X029470Y019220D02*
X029470Y019190D01*
X029630Y019030D01*
X029320Y019130D02*
X029680Y019490D01*
X029700Y019490D01*
X028800Y018860D02*
X028440Y019220D01*
X028400Y019220D01*
X028610Y019060D02*
X027810Y018260D01*
X027810Y015360D01*
X027800Y015330D02*
X027800Y015080D01*
X027820Y015060D01*
X028140Y015340D02*
X027370Y015340D01*
X028140Y015340D02*
X028170Y015310D01*
X026440Y013310D02*
X026420Y013290D01*
X026420Y010700D01*
X026320Y010600D01*
X026420Y010700D02*
X026430Y010710D01*
X026430Y010700D01*
X025580Y009850D01*
X024340Y009380D01*
X024310Y009390D02*
X024010Y009390D01*
X023990Y009410D01*
X024310Y009390D02*
X024400Y009390D01*
X024390Y009460D02*
X024390Y009600D01*
X024330Y009660D01*
X024390Y009460D02*
X024390Y009070D01*
X023760Y008680D02*
X023750Y008670D01*
X023750Y008320D01*
X024140Y008320D01*
X024160Y008340D01*
X023750Y008320D02*
X023750Y007930D01*
X026430Y010710D02*
X026430Y013240D01*
X025900Y014360D02*
X025900Y014370D01*
X025810Y014460D01*
X025710Y014560D01*
X025070Y014660D02*
X024720Y014660D01*
X024700Y014640D01*
X025030Y014690D02*
X025030Y014760D01*
X024820Y014970D01*
X024760Y013690D02*
X024760Y013460D01*
X024760Y012940D01*
X024830Y013280D02*
X019810Y013280D01*
X019810Y013460D01*
X019810Y013660D01*
X019830Y013680D01*
X019540Y013320D02*
X019600Y013260D01*
X019840Y013260D01*
X019810Y013280D02*
X019810Y012820D01*
X018730Y013260D02*
X020310Y011360D01*
X020290Y011310D02*
X020290Y011160D01*
X020300Y011150D01*
X019970Y011330D02*
X019940Y011360D01*
X019970Y011330D02*
X020790Y011330D01*
X018730Y013260D02*
X018730Y014770D01*
X021510Y017550D01*
X021470Y017590D01*
X021470Y021740D01*
X020860Y022580D01*
X020870Y022540D01*
X020860Y022520D02*
X020860Y022220D01*
X020850Y022210D01*
X020860Y022520D02*
X020890Y022550D01*
X020950Y022550D01*
X021240Y022550D01*
X020950Y022550D02*
X020880Y022620D01*
X020880Y022900D01*
X020910Y022870D01*
X020910Y022550D01*
X020890Y022570D01*
X020480Y022570D01*
X020490Y022580D01*
X020730Y022580D01*
X020530Y024620D02*
X023960Y021070D01*
X023950Y021080D01*
X023960Y021070D02*
X024170Y020860D01*
X023835Y020935D02*
X023690Y020790D01*
X023835Y020935D02*
X024210Y021310D01*
X024210Y021340D01*
X024760Y022210D02*
X024760Y019510D01*
X024960Y019310D01*
X025310Y019760D02*
X026260Y019760D01*
X027210Y020710D01*
X028380Y021580D02*
X028660Y021860D01*
X028690Y021860D01*
X028500Y021710D02*
X028280Y021930D01*
X028030Y022180D01*
X028030Y023790D01*
X028110Y024570D02*
X028800Y024570D01*
X028810Y024560D01*
X028470Y024540D02*
X028480Y022780D01*
X030010Y020960D01*
X031710Y020960D01*
X031810Y020860D01*
X031860Y020780D02*
X031930Y020780D01*
X032110Y020600D01*
X031630Y020590D02*
X032160Y021120D01*
X031630Y020590D02*
X031590Y020590D01*
X030220Y021250D02*
X029790Y020820D01*
X029790Y020730D01*
X028740Y021450D02*
X028560Y021630D01*
X028490Y021630D01*
X028500Y021690D02*
X028500Y021710D01*
X028460Y024600D02*
X028460Y024970D01*
X025710Y023260D02*
X025710Y028960D01*
X024410Y030260D01*
X024400Y030290D02*
X024400Y030460D01*
X024400Y030580D01*
X024390Y030320D01*
X024450Y030320D02*
X024620Y030320D01*
X024690Y030310D01*
X023820Y029470D02*
X024030Y029260D01*
X023820Y029470D02*
X023760Y029530D01*
X023700Y029530D01*
X023710Y029560D02*
X020110Y029560D01*
X019710Y029960D01*
X019710Y033860D01*
X019810Y033960D01*
X019770Y033960D02*
X019770Y034160D01*
X019770Y033960D02*
X019770Y033940D01*
X019810Y033900D02*
X019510Y033900D01*
X019470Y033940D01*
X019810Y033900D02*
X020360Y033900D01*
X019170Y034610D02*
X018810Y034250D01*
X018810Y032160D01*
X018310Y031660D01*
X018310Y030110D01*
X017760Y029560D01*
X016160Y029560D01*
X016095Y029495D01*
X016070Y029520D01*
X015560Y029520D01*
X016095Y029495D02*
X015160Y028560D01*
X012410Y028560D01*
X011420Y027680D01*
X010810Y027780D02*
X013260Y030210D01*
X017260Y030210D01*
X017520Y030550D01*
X017520Y034150D01*
X017730Y034140D01*
X017730Y034120D02*
X018070Y034120D01*
X018100Y034090D01*
X017810Y034090D02*
X017810Y033960D01*
X017810Y033860D01*
X017840Y033830D01*
X017060Y034310D02*
X018020Y035270D01*
X027790Y035270D01*
X029210Y033860D01*
X029210Y031210D01*
X028830Y030810D01*
X028680Y030810D01*
X028680Y028610D01*
X027900Y028700D02*
X027900Y028220D01*
X028390Y027730D01*
X028950Y027730D01*
X029700Y028480D01*
X029700Y034020D01*
X027310Y036410D01*
X003960Y036410D01*
X002600Y035050D01*
X002600Y015520D01*
X003227Y014879D01*
X003910Y014180D01*
X003910Y014200D02*
X007000Y014200D01*
X007740Y013460D01*
X005160Y013330D02*
X004800Y013330D01*
X004480Y011360D02*
X005160Y011360D01*
X002340Y012250D02*
X000810Y013780D01*
X000810Y015460D01*
X004310Y021380D02*
X004410Y021380D01*
X005310Y021380D02*
X005340Y021350D01*
X006130Y021350D01*
X006710Y021930D01*
X006710Y021960D01*
X006100Y021350D01*
X006710Y021960D02*
X006710Y023200D01*
X008770Y025260D01*
X008810Y025260D01*
X009960Y026410D01*
X009930Y026390D02*
X009810Y026390D01*
X009600Y026390D01*
X009410Y027100D02*
X009410Y027130D01*
X009780Y027500D01*
X009760Y027460D02*
X006850Y029830D01*
X006100Y030900D02*
X009330Y030880D01*
X009350Y030900D01*
X009360Y030900D01*
X009760Y031300D01*
X009760Y033660D01*
X011110Y035010D01*
X011160Y035010D01*
X011230Y035080D01*
X011230Y034820D01*
X011340Y034710D01*
X011230Y035080D02*
X011260Y035110D01*
X010890Y035080D02*
X011640Y035080D01*
X011670Y035050D01*
X010760Y035760D02*
X014910Y035760D01*
X015510Y035160D01*
X015510Y031760D01*
X015510Y031720D01*
X015500Y031710D01*
X015550Y031720D02*
X015510Y031760D01*
X015820Y031760D01*
X015620Y031770D01*
X015550Y031720D02*
X015550Y031270D01*
X015510Y031760D02*
X015000Y031760D01*
X016910Y030560D02*
X012830Y030560D01*
X012650Y030380D01*
X005310Y030380D01*
X005310Y031380D02*
X008810Y031360D01*
X009310Y031860D01*
X009310Y034310D01*
X010760Y035760D01*
X017060Y034310D02*
X017060Y030710D01*
X016910Y030560D01*
X017990Y031570D02*
X018580Y031570D01*
X018620Y031610D01*
X018290Y031680D02*
X018290Y031820D01*
X018230Y031880D01*
X018100Y032010D01*
X019170Y034610D02*
X021990Y034610D01*
X027900Y028700D01*
X027610Y031980D02*
X027610Y032720D01*
X027610Y032360D02*
X027560Y032310D01*
X027940Y032310D01*
X027560Y032310D02*
X025710Y032310D01*
X025460Y032490D01*
X024990Y033320D01*
X025060Y033310D02*
X025060Y033680D01*
X025020Y033720D01*
X025060Y033310D02*
X024540Y033310D01*
X025060Y033310D02*
X025390Y033310D01*
X023730Y029650D02*
X023730Y029460D01*
X023730Y029090D01*
X023720Y029080D01*
X023760Y028370D02*
X023760Y027960D01*
X020350Y026710D02*
X019900Y026710D01*
X019450Y026380D02*
X018360Y027380D01*
X018440Y027550D01*
X018360Y027480D02*
X019450Y026380D01*
X018290Y027460D01*
X017660Y027240D02*
X017660Y026980D01*
X017560Y027380D01*
X017580Y027250D02*
X017580Y027220D01*
X017020Y026860D01*
X016470Y026860D01*
X013860Y023980D01*
X013860Y022680D01*
X014620Y022010D01*
X015380Y021760D02*
X015570Y021510D01*
X016680Y021510D01*
X016180Y021010D02*
X014620Y021010D01*
X015380Y021760D02*
X015380Y023460D01*
X015930Y024100D01*
X016760Y024100D01*
X017260Y024660D02*
X017360Y024760D01*
X017260Y024660D02*
X015760Y024660D01*
X014580Y023420D01*
X014620Y023010D01*
X016180Y022010D02*
X017020Y022700D01*
X019460Y025790D01*
X019450Y026380D01*
X020300Y026380D02*
X020330Y026410D01*
X016880Y028060D02*
X016795Y027975D01*
X016590Y027770D01*
X016590Y027720D01*
X016590Y027690D02*
X016140Y027690D01*
X016296Y027944D02*
X016580Y027690D01*
X016296Y027944D02*
X016200Y028030D01*
X012780Y028030D01*
X011910Y027160D01*
X011910Y022360D01*
X012160Y022110D01*
X012760Y022010D01*
X012210Y022110D01*
X011910Y021810D01*
X011910Y019360D01*
X014277Y016928D01*
X014470Y016730D01*
X015460Y016710D01*
X015400Y016480D02*
X015400Y017010D01*
X015400Y016480D02*
X015410Y016470D01*
X014840Y017230D02*
X014940Y017330D01*
X014840Y017230D02*
X014660Y017230D01*
X014660Y017250D02*
X014650Y017260D01*
X014610Y017260D01*
X012760Y019110D01*
X012760Y021010D01*
X010810Y019430D02*
X013160Y016960D01*
X013140Y015020D01*
X013360Y014800D01*
X015110Y014800D01*
X015260Y014450D02*
X018940Y018330D01*
X018960Y019390D01*
X018750Y019620D01*
X018190Y019620D01*
X017169Y018553D01*
X017230Y018614D01*
X017230Y020310D01*
X016500Y019190D02*
X016500Y018820D01*
X016370Y018820D01*
X016100Y018820D01*
X016090Y018810D01*
X016270Y018720D02*
X016370Y018820D01*
X016500Y018820D02*
X016510Y018820D01*
X016270Y018720D02*
X016270Y018060D01*
X016630Y017680D01*
X017780Y017680D01*
X017885Y017880D01*
X018490Y018450D01*
X018490Y019160D01*
X018440Y019170D02*
X018430Y019170D01*
X018265Y019005D01*
X018210Y018950D01*
X017250Y018230D02*
X016900Y018210D01*
X016910Y018230D02*
X016870Y018240D01*
X017169Y018553D01*
X017250Y018230D02*
X016910Y018230D01*
X015260Y014450D02*
X013060Y014450D01*
X012640Y014870D01*
X012660Y016520D01*
X012610Y016570D01*
X012610Y016800D01*
X012680Y016580D02*
X012300Y016580D01*
X012660Y016520D02*
X012680Y016540D01*
X012680Y016580D01*
X010810Y019430D02*
X010810Y027780D01*
X009890Y027240D02*
X009750Y027380D01*
X009750Y027390D01*
X018190Y022660D02*
X018540Y022660D01*
X018630Y022750D01*
X018670Y022750D01*
X024760Y022210D02*
X025000Y022450D01*
X024850Y022610D01*
X025010Y022560D02*
X025710Y023260D01*
X025010Y022560D02*
X025010Y022460D01*
X025000Y022450D01*
X025020Y022450D01*
X025030Y022460D02*
X025050Y022460D01*
X025290Y022220D01*
X025610Y020200D02*
X025350Y019940D01*
X025350Y019830D01*
X030850Y016470D02*
X030880Y016440D01*
X031220Y016440D01*
X031230Y016430D01*
X031230Y016170D01*
X033340Y017330D02*
X033340Y017960D01*
X033340Y018090D01*
X033310Y018120D01*
X033310Y017760D02*
X034310Y017760D01*
X034350Y017960D02*
X034350Y017350D01*
X034320Y017320D01*
X034350Y017960D02*
X034350Y018240D01*
X029440Y013090D02*
X028000Y013090D01*
X027980Y013070D01*
X028190Y013060D02*
X028190Y012730D01*
X028170Y012710D01*
X028190Y013060D02*
X029210Y013060D01*
X029240Y013060D02*
X029240Y012960D01*
X029240Y012770D01*
X029210Y012740D01*
X019710Y003960D02*
X019700Y003950D01*
X019700Y003560D01*
X018320Y008480D02*
X018320Y008870D01*
X018330Y008880D01*
X016550Y010860D02*
X016500Y010860D01*
X012780Y011980D02*
X012700Y011980D01*
X012530Y011810D01*
X011310Y009960D02*
X011050Y009960D01*
X010500Y009410D01*
X009500Y009410D01*
X009480Y009390D01*
D18*
X011310Y009960D02*
X013810Y012460D01*
X016310Y012460D01*
X016810Y011960D01*
X017810Y012960D02*
X017815Y012965D01*
X017810Y012960D02*
X017810Y013260D01*
X017810Y013460D01*
X014821Y015443D02*
X014810Y015460D01*
X014740Y015390D01*
X014810Y016460D02*
X014310Y016960D01*
X014277Y016928D01*
X014810Y016460D02*
X015310Y016460D01*
X015400Y016480D01*
X017810Y017960D02*
X017885Y017880D01*
X017810Y017960D02*
X017810Y018460D01*
X018310Y018960D01*
X018265Y019005D01*
X019810Y019460D02*
X019860Y019460D01*
X019810Y019460D02*
X019830Y019420D01*
X020730Y022580D02*
X020870Y022540D01*
X023810Y020960D02*
X023960Y021070D01*
X023835Y020935D02*
X023810Y020960D01*
X025310Y019960D02*
X025350Y019940D01*
X025310Y019960D02*
X025310Y019760D01*
X027710Y021360D02*
X027810Y021460D01*
X027790Y021480D01*
X028280Y021930D02*
X028310Y021960D01*
X028810Y021460D01*
X028740Y021450D01*
X029310Y019460D02*
X029410Y019260D01*
X029310Y019460D02*
X029810Y019460D01*
X029700Y019490D01*
X031220Y016440D02*
X031310Y016460D01*
X031710Y015660D02*
X031810Y015460D01*
X031870Y015520D01*
X033310Y017760D02*
X033310Y017960D01*
X033340Y017960D01*
X034310Y017960D02*
X034310Y017760D01*
X034310Y017960D02*
X034350Y017960D01*
X029310Y012960D02*
X029210Y013060D01*
X029240Y012960D02*
X029310Y012960D01*
X025910Y014280D02*
X025810Y014460D01*
X025335Y014935D02*
X025310Y014960D01*
X024810Y014960D01*
X024820Y014970D01*
X024810Y013460D02*
X024830Y013280D01*
X024810Y013460D02*
X024760Y013460D01*
X024390Y009460D02*
X024310Y009460D01*
X024340Y009380D01*
X024310Y009390D02*
X024310Y009460D01*
X018320Y008480D02*
X018310Y008460D01*
X027310Y023460D02*
X027320Y023500D01*
X023810Y027960D02*
X023750Y027960D01*
X023760Y027960D01*
X023810Y027960D02*
X023810Y027980D01*
X023810Y028010D01*
X023810Y029460D02*
X023710Y029560D01*
X023730Y029460D02*
X023810Y029460D01*
X023820Y029470D01*
X024410Y030260D02*
X024420Y030420D01*
X024400Y030460D01*
X021700Y026430D02*
X021710Y026260D01*
X021700Y026430D02*
X021720Y025960D01*
X021730Y025960D01*
X016810Y027960D02*
X016795Y027975D01*
X016810Y027960D02*
X016310Y027960D01*
X016296Y027944D01*
X014990Y027190D02*
X014880Y027300D01*
X014990Y027190D02*
X014990Y027170D01*
X014310Y027460D02*
X014280Y027490D01*
X014310Y027460D02*
X014290Y027580D01*
X009960Y026410D02*
X009810Y026460D01*
X009810Y026390D01*
X001980Y023380D02*
X001940Y022990D01*
X001950Y023340D01*
X000810Y015460D02*
X000810Y036960D01*
X009810Y036960D01*
X017730Y034140D02*
X017810Y033960D01*
X019770Y033960D02*
X019810Y033960D01*
X019810Y033900D01*
X019810Y033930D02*
X019810Y033960D01*
X019790Y033960D01*
X018310Y031960D02*
X018230Y031880D01*
X018310Y031960D02*
X018310Y031660D01*
X033660Y012480D02*
X033810Y012460D01*
X033700Y012460D01*
X035140Y011550D02*
X035250Y011550D01*
X035160Y011420D01*
D19*
X009810Y036960D03*
D20*
X006100Y030900D02*
X006080Y030880D01*
X004850Y030880D01*
X004350Y030380D01*
X004310Y030380D01*
X004705Y029985D01*
X004810Y029880D01*
X004810Y021830D01*
X004410Y021430D01*
X004410Y021410D01*
X004810Y029880D02*
X006800Y029880D01*
X006850Y029830D01*
X019710Y004960D02*
X019720Y004960D01*
X020230Y004450D01*
X028200Y004450D01*
X028710Y004960D01*
D21*
X024340Y009380D03*
X026430Y013240D03*
X035160Y011420D03*
X028500Y021690D03*
X024110Y024810D03*
X015560Y029520D03*
X001950Y023340D03*
X007740Y013460D03*
M02*
