G75*
%MOIN*%
%OFA0B0*%
%FSLAX24Y24*%
%IPPOS*%
%LPD*%
%AMOC8*
5,1,8,0,0,1.08239X$1,22.5*
%
%ADD10C,0.0000*%
%ADD11R,0.0580X0.0110*%
%ADD12R,0.0110X0.0580*%
%ADD13R,0.0580X0.0140*%
%ADD14R,0.0394X0.0433*%
%ADD15C,0.0560*%
%ADD16R,0.0433X0.0394*%
%ADD17R,0.0600X0.0600*%
%ADD18C,0.0600*%
%ADD19OC8,0.0600*%
%ADD20R,0.0260X0.0800*%
%ADD21C,0.0780*%
%ADD22C,0.0320*%
%ADD23C,0.0475*%
%ADD24C,0.0120*%
%ADD25C,0.0240*%
%ADD26C,0.0110*%
%ADD27C,0.0100*%
%ADD28C,0.0200*%
%ADD29C,0.0591*%
%ADD30C,0.0160*%
D10*
X000150Y000220D02*
X000200Y037756D01*
X037960Y037756D01*
X037940Y000270D01*
X000150Y000220D01*
D11*
X013550Y015230D03*
X013550Y015420D03*
X013550Y015620D03*
X013550Y015820D03*
X013550Y016010D03*
X013550Y016210D03*
X013550Y016410D03*
X013550Y016610D03*
X013550Y016800D03*
X013550Y017000D03*
X013550Y017200D03*
X013550Y017390D03*
X016870Y017390D03*
X016870Y017200D03*
X016870Y017000D03*
X016870Y016800D03*
X016870Y016610D03*
X016870Y016410D03*
X016870Y016210D03*
X016870Y016010D03*
X016870Y015820D03*
X016870Y015620D03*
X016870Y015420D03*
X016870Y015230D03*
X015620Y026530D03*
X015620Y026720D03*
X015620Y026920D03*
X015620Y027120D03*
X015620Y027310D03*
X015620Y027510D03*
X015620Y027710D03*
X015620Y027910D03*
X015620Y028100D03*
X015620Y028300D03*
X015620Y028500D03*
X015620Y028690D03*
X012300Y028690D03*
X012300Y028500D03*
X012300Y028300D03*
X012300Y028100D03*
X012300Y027910D03*
X012300Y027710D03*
X012300Y027510D03*
X012300Y027310D03*
X012300Y027120D03*
X012300Y026920D03*
X012300Y026720D03*
X012300Y026530D03*
D12*
X012880Y025950D03*
X013070Y025950D03*
X013270Y025950D03*
X013470Y025950D03*
X013660Y025950D03*
X013860Y025950D03*
X014060Y025950D03*
X014260Y025950D03*
X014450Y025950D03*
X014650Y025950D03*
X014850Y025950D03*
X015040Y025950D03*
X015040Y029270D03*
X014850Y029270D03*
X014650Y029270D03*
X014450Y029270D03*
X014260Y029270D03*
X014060Y029270D03*
X013860Y029270D03*
X013660Y029270D03*
X013470Y029270D03*
X013270Y029270D03*
X013070Y029270D03*
X012880Y029270D03*
X014130Y017970D03*
X014320Y017970D03*
X014520Y017970D03*
X014720Y017970D03*
X014910Y017970D03*
X015110Y017970D03*
X015310Y017970D03*
X015510Y017970D03*
X015700Y017970D03*
X015900Y017970D03*
X016100Y017970D03*
X016290Y017970D03*
X016290Y014650D03*
X016100Y014650D03*
X015900Y014650D03*
X015700Y014650D03*
X015510Y014650D03*
X015310Y014650D03*
X015110Y014650D03*
X014910Y014650D03*
X014720Y014650D03*
X014520Y014650D03*
X014320Y014650D03*
X014130Y014650D03*
D13*
X024400Y014730D03*
X024400Y014480D03*
X024400Y014220D03*
X024400Y013960D03*
X024400Y014990D03*
X024400Y015240D03*
X024400Y015500D03*
X024400Y015760D03*
X026620Y015760D03*
X026620Y015500D03*
X026620Y015240D03*
X026620Y014990D03*
X026620Y014730D03*
X026620Y014480D03*
X026620Y014220D03*
X026620Y013960D03*
X030300Y015160D03*
X030300Y015420D03*
X030300Y015680D03*
X030300Y015930D03*
X030300Y016190D03*
X030300Y016440D03*
X030300Y016700D03*
X030300Y016960D03*
X032520Y016960D03*
X032520Y016700D03*
X032520Y016440D03*
X032520Y016190D03*
X032520Y015930D03*
X032520Y015680D03*
X032520Y015420D03*
X032520Y015160D03*
X032520Y011710D03*
X032520Y011460D03*
X032520Y011200D03*
X032520Y010940D03*
X032520Y010690D03*
X032520Y010430D03*
X032520Y010180D03*
X032520Y009920D03*
X032520Y009660D03*
X032520Y009410D03*
X030300Y009410D03*
X030300Y009660D03*
X030300Y009920D03*
X030300Y010180D03*
X030300Y010430D03*
X030300Y010690D03*
X030300Y010940D03*
X030300Y011200D03*
X030300Y011460D03*
X030300Y011710D03*
X026520Y021860D03*
X026520Y022120D03*
X026520Y022380D03*
X026520Y022630D03*
X026520Y022890D03*
X026520Y023140D03*
X026520Y023400D03*
X026520Y023660D03*
X024300Y023660D03*
X024300Y023400D03*
X024300Y023140D03*
X024300Y022890D03*
X024300Y022630D03*
X024300Y022380D03*
X024300Y022120D03*
X024300Y021860D03*
X024500Y030860D03*
X024500Y031120D03*
X024500Y031380D03*
X024500Y031630D03*
X024500Y031890D03*
X024500Y032140D03*
X024500Y032400D03*
X024500Y032660D03*
X026720Y032660D03*
X026720Y032400D03*
X026720Y032140D03*
X026720Y031890D03*
X026720Y031630D03*
X026720Y031380D03*
X026720Y031120D03*
X026720Y030860D03*
D14*
X027620Y033055D03*
X027620Y033725D03*
X026800Y033765D03*
X026800Y034435D03*
X025730Y034445D03*
X025730Y033775D03*
X017860Y026545D03*
X017860Y025875D03*
X017060Y025875D03*
X017060Y026545D03*
X011460Y026295D03*
X011460Y026965D03*
X010660Y026965D03*
X010660Y026295D03*
X012600Y015875D03*
X012600Y015205D03*
X012120Y014665D03*
X012120Y013995D03*
X016710Y014295D03*
X016710Y013625D03*
X018110Y013965D03*
X018110Y014635D03*
X023510Y015045D03*
X023510Y015715D03*
X025940Y012435D03*
X025940Y011765D03*
X027300Y016155D03*
X027300Y016825D03*
X028110Y016825D03*
X028110Y016155D03*
X026410Y020325D03*
X026410Y020995D03*
X025310Y020995D03*
X025310Y020325D03*
X026400Y024395D03*
X026400Y025065D03*
X027270Y025035D03*
X027270Y024365D03*
X035810Y015195D03*
X035810Y014525D03*
X035810Y013595D03*
X035810Y012925D03*
X034410Y013195D03*
X034410Y012525D03*
D15*
X016460Y021010D02*
X015900Y021010D01*
X015900Y022010D02*
X016460Y022010D01*
X016460Y023010D02*
X015900Y023010D01*
X014900Y023010D02*
X014340Y023010D01*
X014340Y022010D02*
X014900Y022010D01*
X014900Y021010D02*
X014340Y021010D01*
X013040Y021010D02*
X012480Y021010D01*
X012480Y022010D02*
X013040Y022010D01*
X013040Y023010D02*
X012480Y023010D01*
D16*
X021585Y015040D03*
X022255Y015040D03*
X022255Y014160D03*
X021585Y014160D03*
X021585Y013160D03*
X022255Y013160D03*
X022255Y012160D03*
X021585Y012160D03*
X022075Y011160D03*
X022745Y011160D03*
X022745Y010160D03*
X022075Y010160D03*
X022075Y009160D03*
X022745Y009160D03*
X022745Y008160D03*
X022075Y008160D03*
X024525Y011840D03*
X025195Y011840D03*
X024505Y012940D03*
X023835Y012940D03*
X027575Y012060D03*
X028245Y012060D03*
X029515Y012650D03*
X030185Y012650D03*
X031075Y013060D03*
X031745Y013060D03*
X032575Y013060D03*
X033245Y013060D03*
X033245Y014060D03*
X032575Y014060D03*
X034075Y014060D03*
X034745Y014060D03*
X034745Y015060D03*
X034075Y015060D03*
X030845Y018160D03*
X030175Y018160D03*
X029345Y018160D03*
X028675Y018160D03*
X030175Y019260D03*
X030845Y019260D03*
X030835Y023440D03*
X030165Y023440D03*
X029345Y023430D03*
X028675Y023430D03*
X030165Y024860D03*
X030835Y024860D03*
X028675Y026810D03*
X028005Y026810D03*
X025895Y027600D03*
X025225Y027600D03*
X025215Y028410D03*
X025885Y028410D03*
X026195Y029210D03*
X025525Y029210D03*
X022745Y029660D03*
X022075Y029660D03*
X022075Y030660D03*
X022745Y030660D03*
X022745Y031760D03*
X022075Y031760D03*
X022075Y032760D03*
X022745Y032760D03*
X022745Y033860D03*
X022075Y033860D03*
X022075Y034960D03*
X022745Y034960D03*
X028575Y031860D03*
X029245Y031860D03*
X030075Y031860D03*
X030745Y031860D03*
X030745Y032960D03*
X030075Y032960D03*
X022745Y028660D03*
X022075Y028660D03*
X022075Y027660D03*
X022745Y027660D03*
X022925Y025620D03*
X022255Y025620D03*
X022255Y024780D03*
X022925Y024780D03*
X022945Y023960D03*
X022275Y023960D03*
X022055Y022540D03*
X022725Y022540D03*
X022745Y021060D03*
X022075Y021060D03*
X022075Y020060D03*
X022745Y020060D03*
X022745Y019060D03*
X022075Y019060D03*
X022075Y018060D03*
X022745Y018060D03*
X023865Y018310D03*
X024535Y018310D03*
D17*
X028170Y013900D03*
D18*
X029170Y013900D03*
X030170Y013900D03*
D19*
X029710Y004960D03*
X028710Y004960D03*
X028710Y003960D03*
X029710Y003960D03*
X030710Y003960D03*
X031710Y003960D03*
X031710Y004960D03*
X030710Y004960D03*
X032710Y004960D03*
X032710Y003960D03*
X033710Y003960D03*
X033710Y004960D03*
X027710Y004960D03*
X027710Y003960D03*
X026710Y003960D03*
X025710Y003960D03*
X025710Y004960D03*
X026710Y004960D03*
X024710Y004960D03*
X024710Y003960D03*
X023710Y003960D03*
X022710Y003960D03*
X022710Y004960D03*
X023710Y004960D03*
X021710Y004960D03*
X020710Y004960D03*
X020710Y003960D03*
X021710Y003960D03*
X019710Y003960D03*
X019710Y004960D03*
X018710Y004960D03*
X017710Y004960D03*
X017710Y003960D03*
X018710Y003960D03*
X016710Y003960D03*
X015710Y003960D03*
X015710Y004960D03*
X016710Y004960D03*
X014710Y004960D03*
X014710Y003960D03*
X005310Y016380D03*
X005310Y017380D03*
X004310Y017380D03*
X004310Y016380D03*
X004310Y018380D03*
X005310Y018380D03*
X005310Y019380D03*
X005310Y020380D03*
X004310Y020380D03*
X004310Y019380D03*
X004310Y021380D03*
X004310Y022380D03*
X005310Y022380D03*
X005310Y021380D03*
X005310Y023380D03*
X004310Y023380D03*
X004310Y024380D03*
X004310Y025380D03*
X005310Y025380D03*
X005310Y024380D03*
X005310Y026380D03*
X004310Y026380D03*
X004310Y027380D03*
X004310Y028380D03*
X005310Y028380D03*
X005310Y027380D03*
X005310Y029380D03*
X004310Y029380D03*
X004310Y030380D03*
X004310Y031380D03*
X005310Y031380D03*
X005310Y030380D03*
X005310Y032380D03*
X005310Y033380D03*
X004310Y033380D03*
X004310Y032380D03*
X004310Y034380D03*
X005310Y034380D03*
X005310Y035380D03*
X004310Y035380D03*
D20*
X017260Y033070D03*
X017760Y033070D03*
X018260Y033070D03*
X018760Y033070D03*
X019260Y033070D03*
X019760Y033070D03*
X020260Y033070D03*
X020760Y033070D03*
X020760Y030650D03*
X020260Y030650D03*
X019760Y030650D03*
X019260Y030650D03*
X018760Y030650D03*
X018260Y030650D03*
X017760Y030650D03*
X017260Y030650D03*
X018050Y023730D03*
X018550Y023730D03*
X019050Y023730D03*
X019550Y023730D03*
X020050Y023730D03*
X020550Y023730D03*
X021050Y023730D03*
X021550Y023730D03*
X021550Y021310D03*
X021050Y021310D03*
X020550Y021310D03*
X020050Y021310D03*
X019550Y021310D03*
X019050Y021310D03*
X018550Y021310D03*
X018050Y021310D03*
X018260Y012470D03*
X017760Y012470D03*
X017260Y012470D03*
X018760Y012470D03*
X019260Y012470D03*
X019760Y012470D03*
X020260Y012470D03*
X020760Y012470D03*
X020760Y010050D03*
X020260Y010050D03*
X019760Y010050D03*
X019260Y010050D03*
X018760Y010050D03*
X018260Y010050D03*
X017760Y010050D03*
X017260Y010050D03*
D21*
X005550Y009390D02*
X004770Y009390D01*
X004770Y011360D02*
X005550Y011360D01*
X005550Y013330D02*
X004770Y013330D01*
X004770Y007410D02*
X005550Y007410D01*
X005550Y005440D02*
X004770Y005440D01*
X004770Y003470D02*
X005550Y003470D01*
D22*
X028610Y018160D02*
X028610Y019060D01*
X028610Y018160D02*
X028675Y018160D01*
X032575Y014060D02*
X032575Y013060D01*
X031745Y013060D01*
X033245Y013060D02*
X034275Y013060D01*
X034410Y013195D01*
X034075Y014060D02*
X033245Y014060D01*
X030165Y023440D02*
X029345Y023430D01*
X028675Y023430D02*
X028480Y023640D01*
X028470Y024540D01*
X028510Y031860D02*
X028510Y032760D01*
X028510Y031860D02*
X028575Y031860D01*
D23*
X028670Y030800D03*
X027080Y030310D03*
X025650Y030270D03*
X024410Y030260D03*
X024380Y028310D03*
X024570Y026760D03*
X024010Y026260D03*
X020700Y024840D03*
X020150Y026540D03*
X019510Y027310D03*
X018360Y027480D03*
X017580Y027250D03*
X016560Y027680D03*
X014730Y027550D03*
X014070Y027550D03*
X011420Y027680D03*
X009960Y026410D03*
X009760Y027450D03*
X015510Y031760D03*
X017730Y034140D03*
X019870Y034110D03*
X018310Y031660D03*
X023440Y034570D03*
X028510Y032760D03*
X028690Y028460D03*
X027680Y026070D03*
X028470Y024540D03*
X028930Y021490D03*
X030010Y020960D03*
X029410Y019260D03*
X028610Y019060D03*
X027850Y020240D03*
X027710Y021360D03*
X025510Y019280D03*
X024140Y020740D03*
X025040Y022450D03*
X020870Y022540D03*
X018810Y022150D03*
X018190Y022660D03*
X016760Y024100D03*
X017360Y024760D03*
X018140Y020120D03*
X018490Y019160D03*
X019830Y019420D03*
X019830Y018700D03*
X016870Y018240D03*
X016510Y018820D03*
X015460Y016710D03*
X015910Y016330D03*
X014610Y017260D03*
X014590Y015300D03*
X012660Y016520D03*
X012290Y012580D03*
X012770Y012000D03*
X016370Y011640D03*
X016310Y010660D03*
X017550Y009080D03*
X018310Y008560D03*
X020310Y011360D03*
X020120Y013560D03*
X019510Y014860D03*
X018610Y015750D03*
X017810Y013260D03*
X023550Y014080D03*
X025060Y014660D03*
X025910Y014280D03*
X027370Y014710D03*
X026510Y016500D03*
X025670Y016930D03*
X031210Y016460D03*
X031710Y015660D03*
X031410Y014360D03*
X033660Y012480D03*
X034220Y016120D03*
X032590Y018150D03*
X023710Y008360D03*
X028900Y002670D03*
X009480Y009390D03*
D24*
X013710Y013670D02*
X014030Y014040D01*
X014270Y013950D02*
X014060Y013620D01*
X014410Y013610D02*
X014450Y013650D01*
X014760Y013610D02*
X014760Y013710D01*
X015110Y013650D02*
X015110Y014650D01*
X015310Y014650D02*
X015310Y013870D01*
X015460Y013720D01*
X015460Y013660D01*
X015900Y014650D02*
X015900Y015120D01*
X016110Y015020D02*
X016110Y015440D01*
X016320Y015540D02*
X016390Y015610D01*
X016320Y015540D02*
X016320Y015300D01*
X016400Y015230D01*
X016760Y015120D02*
X016810Y015160D01*
X016710Y014460D02*
X016710Y014295D01*
X017350Y015420D02*
X017470Y015470D01*
X017450Y015820D02*
X017710Y016080D01*
X017710Y016170D01*
X017360Y016120D02*
X017360Y016310D01*
X017260Y016410D01*
X016870Y016410D01*
X017360Y016320D02*
X017360Y016310D01*
X017360Y016120D02*
X017260Y016020D01*
X017320Y017000D02*
X016870Y017000D01*
X016860Y017400D02*
X016860Y017610D01*
X017360Y017390D02*
X017430Y017320D01*
X017430Y017110D01*
X017320Y017000D01*
X015900Y017600D02*
X015900Y017970D01*
X015710Y018550D02*
X015720Y018720D01*
X015780Y018750D01*
X015830Y018780D01*
X015510Y018840D02*
X015760Y019150D01*
X015760Y019230D01*
X015440Y019210D02*
X015440Y019090D01*
X015310Y018940D01*
X015310Y017970D01*
X015110Y017970D02*
X015110Y019150D01*
X014910Y018910D02*
X014910Y018810D01*
X014910Y018910D02*
X014790Y019030D01*
X014710Y018710D02*
X014350Y019070D01*
X014250Y019150D01*
X014270Y018810D02*
X014220Y018810D01*
X014270Y018810D02*
X014520Y018560D01*
X014520Y017970D01*
X014020Y017970D02*
X014010Y017960D01*
X014200Y018470D02*
X014320Y018450D01*
X013550Y017000D02*
X013120Y017000D01*
X012840Y015910D02*
X012980Y015820D01*
X013130Y015620D02*
X012710Y015220D01*
X013130Y015620D02*
X013550Y015620D01*
X014250Y015620D01*
X014050Y015160D02*
X013790Y014900D01*
X014450Y014100D02*
X014270Y013950D01*
X015470Y016660D02*
X015460Y016670D01*
X015460Y016710D01*
X015460Y016720D01*
X015440Y016740D01*
X015440Y016750D01*
X018055Y014660D02*
X018110Y014635D01*
X018260Y012470D02*
X018310Y012420D01*
X018710Y012520D02*
X018760Y012470D01*
X019810Y010260D02*
X019810Y010100D01*
X019760Y010050D01*
X019710Y010160D02*
X019810Y010260D01*
X020260Y010050D02*
X020310Y010000D01*
X019260Y010050D02*
X019210Y010000D01*
X018760Y010050D02*
X018710Y010000D01*
X021910Y008160D02*
X022075Y008160D01*
X025940Y011765D02*
X025940Y011770D01*
X026010Y011840D01*
X026320Y013910D02*
X026660Y013920D01*
X026620Y013960D01*
X026620Y014220D02*
X027090Y014220D01*
X027180Y014130D01*
X026620Y014480D02*
X026050Y014480D01*
X026000Y014460D01*
X026300Y014990D02*
X026620Y014990D01*
X026620Y015240D02*
X027710Y015240D01*
X027790Y015180D01*
X027220Y015500D02*
X027220Y015550D01*
X027300Y015630D01*
X027220Y015500D02*
X026620Y015500D01*
X026060Y015450D02*
X025990Y015520D01*
X026060Y015450D02*
X026060Y015300D01*
X025470Y014940D02*
X025470Y013950D01*
X025090Y014720D02*
X025030Y014700D01*
X025090Y014720D02*
X024400Y014730D01*
X024400Y014990D02*
X024870Y014990D01*
X024980Y015100D01*
X025310Y015100D01*
X025470Y014940D01*
X024400Y015240D02*
X023805Y015240D01*
X023510Y015045D01*
X023570Y015500D02*
X024400Y015500D01*
X021595Y014170D02*
X021585Y014160D01*
X022010Y021060D02*
X022075Y021060D01*
X021070Y021220D02*
X021050Y021310D01*
X021990Y022560D02*
X022055Y022540D01*
X022190Y023965D02*
X022275Y023960D01*
X023610Y023390D02*
X023730Y023400D01*
X023680Y023400D01*
X023730Y023400D02*
X024300Y023400D01*
X024300Y023140D02*
X024760Y023140D01*
X025050Y023430D01*
X025090Y023040D02*
X024900Y022890D01*
X024300Y022890D01*
X024300Y022630D02*
X024850Y022630D01*
X025020Y022510D01*
X025910Y022510D02*
X026030Y022630D01*
X026040Y022630D01*
X025910Y022760D01*
X026040Y022630D02*
X026520Y022630D01*
X026520Y022380D02*
X027110Y022390D01*
X027310Y022500D01*
X027400Y022160D02*
X027360Y022110D01*
X027180Y022120D01*
X026520Y022120D01*
X026520Y021860D02*
X027930Y021860D01*
X028020Y021770D01*
X027710Y022860D02*
X027680Y022890D01*
X026520Y022890D01*
X026520Y023140D02*
X027430Y023140D01*
X027540Y023250D01*
X027260Y023580D02*
X027080Y023400D01*
X026520Y023400D01*
X028510Y024060D02*
X028470Y024540D01*
X029345Y023430D02*
X029340Y023185D01*
X025360Y021045D02*
X025310Y020995D01*
X028606Y018229D02*
X028675Y018160D01*
X029345Y018160D02*
X029345Y017995D01*
X030280Y016990D02*
X030300Y016960D01*
X030300Y016700D02*
X029760Y016700D01*
X029640Y016610D01*
X030300Y016190D02*
X030740Y016190D01*
X030950Y016200D01*
X030820Y015930D02*
X030300Y015930D01*
X030300Y015680D02*
X030300Y015420D01*
X030780Y015410D01*
X030900Y015160D01*
X030970Y015710D02*
X030820Y015930D01*
X031810Y016190D02*
X032520Y016190D01*
X032520Y015930D02*
X033170Y015930D01*
X033270Y016000D01*
X032710Y015560D02*
X032670Y015600D01*
X032520Y015680D02*
X032520Y015420D01*
X035810Y014525D02*
X035975Y014525D01*
X033260Y011670D02*
X033090Y011620D01*
X032930Y011460D01*
X032520Y011460D01*
X032520Y011710D02*
X031930Y011710D01*
X031860Y011740D01*
X031850Y011720D02*
X032040Y011720D01*
X032520Y011710D01*
X032810Y011710D01*
X033080Y011200D02*
X032520Y011200D01*
X032510Y010950D02*
X032030Y010950D01*
X031850Y011140D01*
X032510Y010950D02*
X032520Y010940D01*
X032520Y010690D02*
X032920Y010690D01*
X033070Y010820D01*
X033210Y010840D01*
X033230Y010480D02*
X033000Y010440D01*
X032830Y010430D01*
X032520Y010430D01*
X032520Y010180D02*
X033170Y010180D01*
X033210Y010140D01*
X033030Y009920D02*
X033130Y009820D01*
X033190Y009820D01*
X033210Y009800D01*
X033030Y009920D02*
X032520Y009920D01*
X032520Y009660D02*
X032970Y009660D01*
X033170Y009460D01*
X032540Y009330D02*
X032550Y009120D01*
X032540Y009330D02*
X032520Y009410D01*
X033080Y011200D02*
X033220Y011250D01*
X030310Y011460D02*
X030300Y011460D01*
X030210Y011460D01*
X030170Y011360D01*
X030300Y011450D02*
X030300Y011200D01*
X030300Y011450D02*
X030310Y011460D01*
X030300Y011710D02*
X030200Y011810D01*
X030200Y011920D01*
X029720Y011030D02*
X029930Y010940D01*
X030300Y010940D01*
X030300Y010690D02*
X029650Y010690D01*
X029550Y010430D02*
X029510Y010360D01*
X029550Y010430D02*
X030300Y010430D01*
X030300Y010180D02*
X030280Y010160D01*
X029720Y010160D01*
X029600Y010040D01*
X029450Y010040D01*
X029560Y009730D02*
X029610Y009730D01*
X029810Y009910D01*
X030290Y009910D01*
X030300Y009920D01*
X030300Y009660D02*
X029870Y009660D01*
X029810Y009500D01*
X029810Y009460D01*
X030300Y009410D02*
X030310Y009400D01*
X030300Y009330D01*
X020550Y023730D02*
X020510Y023980D01*
X017060Y026545D02*
X016955Y026670D01*
X016430Y026650D02*
X016080Y026920D01*
X015620Y026920D01*
X015210Y026920D01*
X015100Y027040D01*
X015100Y027430D01*
X015180Y027510D01*
X015620Y027510D01*
X015620Y027710D02*
X015170Y027710D01*
X015620Y027710D02*
X016010Y027710D01*
X015620Y028300D02*
X015170Y028300D01*
X014975Y028495D01*
X014650Y028840D02*
X014550Y028740D01*
X014650Y028840D02*
X014650Y029270D01*
X014260Y029690D02*
X014350Y029780D01*
X014510Y029860D01*
X014560Y029910D01*
X014310Y030150D02*
X014350Y030280D01*
X014310Y030150D02*
X014060Y029860D01*
X014060Y029270D01*
X013860Y029270D02*
X013860Y029940D01*
X014010Y030110D01*
X014010Y030410D01*
X014020Y030240D01*
X013680Y030410D02*
X013660Y030430D01*
X013680Y030410D02*
X013680Y030040D01*
X013370Y030130D02*
X013370Y030240D01*
X013140Y029980D02*
X013270Y029770D01*
X013270Y029270D01*
X013070Y029630D02*
X013060Y029660D01*
X012860Y029780D01*
X012720Y029110D02*
X012710Y029110D01*
X011570Y027110D02*
X011470Y027080D01*
X011460Y026965D02*
X011485Y026920D01*
X011810Y026830D02*
X011880Y026920D01*
X012300Y026920D01*
X011810Y026830D02*
X011810Y026570D01*
X011560Y026310D02*
X011525Y026275D01*
X011460Y026295D01*
X010625Y026910D02*
X010460Y026910D01*
X012770Y025850D02*
X012810Y025860D01*
X013010Y025460D02*
X013070Y025470D01*
X013270Y025320D02*
X013090Y025140D01*
X013270Y025320D02*
X013270Y025950D01*
X013860Y025950D02*
X013860Y024460D01*
X013630Y024170D01*
X013510Y024500D02*
X013660Y024710D01*
X013360Y024860D02*
X013360Y025090D01*
X013460Y025200D01*
X013360Y024860D02*
X013310Y024820D01*
X014060Y024090D02*
X013950Y023980D01*
X014060Y024090D02*
X014060Y025950D01*
X014650Y025950D02*
X014650Y026340D01*
X014860Y025590D02*
X014860Y025570D01*
X014970Y025460D01*
X015060Y025460D01*
X014300Y025070D02*
X014260Y025030D01*
X014330Y024980D01*
X017710Y030600D02*
X017760Y030650D01*
X018760Y030650D02*
X018810Y030600D01*
X020760Y030650D02*
X020810Y030700D01*
X021910Y030660D02*
X022075Y030660D01*
X023580Y031790D02*
X023680Y031890D01*
X024500Y031890D01*
X024500Y032140D02*
X023880Y032140D01*
X023860Y032160D01*
X024010Y031630D02*
X023920Y031450D01*
X024010Y031630D02*
X024500Y031630D01*
X024500Y032400D02*
X024970Y032400D01*
X025110Y032410D01*
X025160Y032630D01*
X025780Y031950D02*
X025970Y032090D01*
X025970Y032140D01*
X026720Y032140D01*
X027360Y032140D01*
X027400Y032180D01*
X027570Y031880D02*
X027770Y031880D01*
X027570Y031880D02*
X026720Y031890D01*
X026720Y031630D02*
X027540Y031630D01*
X027556Y031628D01*
X027570Y031623D01*
X027584Y031615D01*
X027595Y031604D01*
X027603Y031590D01*
X027608Y031576D01*
X027610Y031560D01*
X027230Y031380D02*
X026720Y031380D01*
X026530Y031380D01*
X026720Y031120D02*
X026250Y031120D01*
X026110Y030980D01*
X026720Y030860D02*
X027270Y030860D01*
X027400Y030730D01*
X027420Y031180D02*
X027230Y031380D01*
X026720Y032400D02*
X026120Y032400D01*
X026070Y032450D01*
X028510Y032060D02*
X028510Y031860D01*
X029245Y031860D02*
X030075Y031860D01*
X030710Y032925D02*
X030745Y032960D01*
X022075Y032760D02*
X022010Y032660D01*
X022010Y032860D01*
X020310Y033120D02*
X020260Y033070D01*
X017770Y033160D02*
X017760Y033070D01*
X021975Y028760D02*
X022075Y028660D01*
X005410Y017380D02*
X005310Y017380D01*
D25*
X005310Y017580D01*
X005810Y018080D01*
X006030Y018530D01*
X006310Y019310D01*
X009670Y022480D01*
X009690Y024830D01*
X010960Y025860D01*
X012810Y025860D01*
X012660Y025460D02*
X012490Y025540D01*
X011110Y025540D01*
X010010Y024620D01*
X009990Y022310D01*
X006610Y019130D01*
X006390Y018510D01*
X005970Y017640D01*
X005930Y017620D01*
X005910Y016980D01*
X005310Y016380D01*
X005560Y015830D02*
X004410Y015830D01*
X004310Y015930D01*
X004310Y016380D01*
X003710Y016030D02*
X003710Y016780D01*
X004310Y017380D01*
X004310Y018380D02*
X003860Y018380D01*
X003390Y017870D01*
X003390Y015820D01*
X004060Y015170D01*
X005860Y015170D01*
X006890Y016260D01*
X006950Y017140D01*
X007390Y018200D01*
X007490Y018500D01*
X010970Y021840D01*
X011010Y023960D01*
X011660Y024500D01*
X013510Y024500D01*
X013630Y024170D02*
X011880Y024170D01*
X011330Y023760D01*
X011290Y021630D01*
X007850Y018330D01*
X007610Y017800D01*
X007310Y017020D01*
X007270Y016170D01*
X006010Y014850D01*
X003910Y014850D01*
X003030Y015690D01*
X003030Y018180D01*
X004310Y019380D01*
X004310Y020380D02*
X004210Y020380D01*
X002670Y018980D01*
X002670Y015550D01*
X003750Y014510D01*
X006130Y014510D01*
X007810Y016160D01*
X007850Y017440D01*
X007990Y017800D01*
X008130Y018050D01*
X011630Y021470D01*
X011670Y023510D01*
X012030Y023850D01*
X013830Y023850D01*
X013830Y023860D01*
X013950Y023980D01*
X014330Y023860D02*
X014330Y024980D01*
X014760Y024760D02*
X014760Y023410D01*
X014620Y023010D01*
X013710Y022330D01*
X013710Y021690D01*
X013910Y021510D01*
X015130Y021510D01*
X015400Y021340D01*
X015400Y020760D01*
X015410Y020590D01*
X016130Y019770D01*
X016370Y019410D01*
X016350Y019380D01*
X016660Y019390D01*
X017410Y018460D01*
X017410Y018040D01*
X016860Y017610D01*
X016560Y017990D02*
X016870Y018240D01*
X016940Y018270D01*
X016560Y017990D02*
X016420Y017990D01*
X016100Y018440D02*
X016470Y018800D01*
X016310Y018660D01*
X016350Y018660D01*
X016510Y018820D01*
X016480Y018820D01*
X016420Y018760D01*
X015850Y018800D02*
X015830Y018780D01*
X015780Y018730D01*
X015850Y018800D02*
X016350Y019380D01*
X015760Y019230D02*
X015760Y019570D01*
X014820Y020490D01*
X012170Y020490D01*
X008970Y017330D01*
X008950Y011360D01*
X010560Y009970D01*
X010560Y004810D01*
X013710Y001660D01*
X020110Y001660D01*
X021710Y003260D01*
X021710Y003960D01*
X020710Y003960D02*
X020710Y003410D01*
X019310Y001990D01*
X013860Y001990D01*
X010910Y004940D01*
X010910Y010140D01*
X009300Y011510D01*
X009300Y017160D01*
X012330Y020170D01*
X014640Y020170D01*
X015440Y019390D01*
X015440Y019210D01*
X015110Y019250D02*
X014530Y019830D01*
X012460Y019830D01*
X009640Y017010D01*
X009640Y011710D01*
X011260Y010270D01*
X011260Y005060D01*
X014010Y002310D01*
X017210Y002310D01*
X018710Y003810D01*
X018710Y003960D01*
X017710Y003960D02*
X017710Y003410D01*
X016960Y002660D01*
X014160Y002660D01*
X011610Y005210D01*
X011610Y010410D01*
X009980Y011860D01*
X009980Y016860D01*
X012610Y019490D01*
X014410Y019490D01*
X014790Y019090D01*
X014790Y019030D01*
X015110Y019150D02*
X015110Y019250D01*
X014250Y019150D02*
X012730Y019150D01*
X010320Y016720D01*
X010320Y012060D01*
X011960Y010560D01*
X011960Y005360D01*
X014310Y002990D01*
X016210Y002990D01*
X016710Y003510D01*
X016710Y003960D01*
X015710Y003960D02*
X015710Y003610D01*
X015410Y003310D01*
X014460Y003310D01*
X012310Y005480D01*
X012310Y010710D01*
X010660Y012280D01*
X010660Y016580D01*
X012890Y018810D01*
X014220Y018810D01*
X014200Y018470D02*
X013010Y018470D01*
X011000Y016440D01*
X011000Y012460D01*
X012660Y010860D01*
X012660Y006010D01*
X014710Y003960D01*
X014710Y004960D02*
X014860Y005110D01*
X014860Y007140D01*
X013010Y008990D01*
X013010Y011010D01*
X011340Y012660D01*
X011340Y016300D01*
X013000Y017960D01*
X014010Y017960D01*
X014610Y017260D02*
X014590Y017240D01*
X015460Y016710D02*
X015540Y016760D01*
X015910Y016330D02*
X016090Y016330D01*
X017560Y016800D02*
X017740Y016960D01*
X017740Y018610D01*
X016950Y019700D01*
X016950Y021830D01*
X016430Y022030D01*
X016180Y022010D01*
X017070Y022510D02*
X017270Y022290D01*
X017270Y019850D01*
X018100Y018760D01*
X018100Y016580D01*
X017710Y016170D01*
X017470Y015470D02*
X018620Y016560D01*
X019280Y016570D01*
X019880Y016570D01*
X022920Y016530D01*
X022900Y016520D01*
X023190Y016520D01*
X023520Y016160D01*
X023510Y015715D01*
X023515Y015750D01*
X023570Y015500D01*
X023480Y015670D02*
X023510Y015715D01*
X022930Y015810D02*
X022930Y013110D01*
X023100Y012940D01*
X022930Y012770D01*
X022930Y012390D01*
X024890Y010430D01*
X025140Y010430D01*
X025440Y010130D01*
X026720Y010130D01*
X027190Y009660D01*
X027190Y008700D01*
X026900Y008410D01*
X023760Y008410D01*
X023710Y008360D01*
X022745Y008160D02*
X022745Y009160D01*
X022745Y010160D01*
X022745Y011160D01*
X022255Y012160D01*
X022255Y013160D01*
X022255Y014160D01*
X022290Y012160D01*
X022690Y011330D01*
X022860Y010380D01*
X023570Y010390D01*
X024380Y009560D01*
X024340Y009380D01*
X023010Y007660D02*
X018160Y007660D01*
X015810Y010010D01*
X015810Y013610D01*
X015460Y013660D02*
X015460Y009870D01*
X018010Y007320D01*
X022360Y007320D01*
X022710Y006970D01*
X022710Y004960D01*
X023710Y004960D02*
X023710Y006960D01*
X023010Y007660D01*
X021910Y008160D02*
X019910Y008160D01*
X018760Y009310D01*
X018760Y010050D01*
X019210Y010000D02*
X019210Y009360D01*
X020010Y008560D01*
X021310Y008560D01*
X021910Y009160D01*
X022075Y009160D01*
X021510Y009360D02*
X021110Y008960D01*
X020210Y008960D01*
X019760Y009410D01*
X019760Y010050D01*
X020310Y010000D02*
X020310Y009560D01*
X020510Y009360D01*
X020970Y009360D01*
X021170Y009560D01*
X021170Y010760D01*
X021610Y011160D01*
X022075Y011160D01*
X022075Y010160D02*
X021710Y010160D01*
X021510Y009960D01*
X021510Y009360D01*
X020760Y010050D02*
X020760Y010910D01*
X020310Y011360D01*
X020160Y011210D01*
X018710Y011210D01*
X018260Y011660D01*
X018260Y012470D01*
X018310Y012520D01*
X018310Y013765D01*
X016850Y013765D01*
X016710Y013625D01*
X016615Y013625D01*
X016350Y013890D01*
X016745Y014260D02*
X016710Y014295D01*
X016745Y014260D02*
X017410Y014260D01*
X017870Y014640D01*
X018055Y014660D01*
X018110Y014635D02*
X019325Y014635D01*
X019510Y014860D01*
X019530Y014880D01*
X019530Y015570D01*
X019350Y015750D01*
X018610Y015750D01*
X017860Y015040D01*
X016760Y015060D01*
X016810Y015160D01*
X018110Y013965D02*
X018310Y013765D01*
X018810Y013560D02*
X018810Y012520D01*
X018760Y012470D01*
X019260Y012470D02*
X019260Y013410D01*
X020010Y014160D01*
X021585Y014160D01*
X022255Y014160D02*
X022255Y015040D01*
X021585Y015040D02*
X020450Y015040D01*
X018810Y013560D01*
X018260Y012745D02*
X018260Y012470D01*
X017760Y012470D02*
X017760Y013210D01*
X017810Y013260D01*
X017800Y013250D01*
X017510Y013250D01*
X017510Y013260D01*
X017220Y012510D02*
X016780Y012510D01*
X016610Y012510D01*
X016170Y012950D01*
X016170Y013120D01*
X016170Y013270D01*
X016780Y012510D02*
X016370Y012100D01*
X016370Y011640D01*
X016370Y011380D01*
X016370Y011640D02*
X016660Y011640D01*
X016510Y010870D02*
X016310Y010670D01*
X016310Y010660D01*
X016510Y010860D01*
X016510Y010870D01*
X016310Y010660D02*
X016920Y010050D01*
X017260Y010050D01*
X017760Y010050D02*
X017760Y009310D01*
X017550Y009080D01*
X017570Y009060D01*
X017570Y009030D01*
X018120Y008589D02*
X018120Y008588D01*
X018130Y008588D01*
X018140Y008588D01*
X018140Y008588D01*
X018130Y008588D02*
X018168Y008550D01*
X018320Y008550D01*
X018310Y008560D01*
X018310Y008565D01*
X018290Y008585D01*
X018310Y008560D02*
X018260Y008610D01*
X018260Y010050D01*
X018320Y008550D02*
X018320Y008510D01*
X017860Y006980D02*
X015110Y009730D01*
X015110Y013650D01*
X014760Y013610D02*
X014760Y009610D01*
X017710Y006660D01*
X020460Y006660D01*
X020710Y006410D01*
X020710Y004960D01*
X021710Y004960D02*
X021710Y006780D01*
X021510Y006980D01*
X017860Y006980D01*
X017590Y006320D02*
X014410Y009500D01*
X014410Y013610D01*
X014060Y013620D02*
X014060Y009380D01*
X017710Y005730D01*
X017710Y004960D01*
X018710Y004960D02*
X018710Y006180D01*
X018570Y006320D01*
X017590Y006320D01*
X016730Y006240D02*
X013730Y009240D01*
X013710Y013670D01*
X013360Y013860D02*
X013980Y014480D01*
X013980Y014500D01*
X013990Y014510D01*
X013790Y014900D02*
X013260Y014370D01*
X013260Y014360D01*
X013220Y014330D01*
X012860Y013910D01*
X012290Y012580D01*
X012360Y014000D02*
X012125Y014000D01*
X012120Y013995D01*
X012105Y014010D01*
X011760Y014010D01*
X011660Y014110D01*
X011660Y016160D01*
X012610Y017110D01*
X012910Y017110D01*
X012810Y015920D02*
X012840Y015910D01*
X012795Y015910D01*
X012600Y015875D01*
X012575Y015850D01*
X012210Y015850D01*
X012120Y015760D01*
X012120Y014665D01*
X012630Y014270D02*
X012360Y014000D01*
X012630Y014270D02*
X012630Y015190D01*
X012710Y015220D01*
X013360Y013860D02*
X013360Y009150D01*
X015710Y006750D01*
X015710Y004960D01*
X016710Y004960D02*
X016730Y006240D01*
X013480Y001320D02*
X009360Y005440D01*
X005160Y005440D01*
X005160Y003470D02*
X007960Y000960D01*
X035310Y000960D01*
X037150Y002750D01*
X037150Y011585D01*
X035810Y012925D01*
X035410Y012525D01*
X034410Y012525D01*
X034410Y012170D01*
X034200Y012010D01*
X033230Y012010D01*
X033050Y012110D01*
X031860Y012120D01*
X031860Y011740D01*
X031850Y011720D02*
X031850Y011140D01*
X030910Y011370D02*
X031660Y012120D01*
X031860Y012120D01*
X030910Y011370D02*
X030510Y011360D01*
X030460Y011310D01*
X030170Y011360D02*
X029750Y011360D01*
X029570Y011540D01*
X027630Y011540D01*
X027530Y011440D01*
X027530Y010940D01*
X026720Y010130D01*
X027710Y010380D02*
X028200Y011030D01*
X029720Y011030D01*
X029650Y010690D02*
X028790Y010690D01*
X028470Y010370D01*
X028470Y007840D01*
X029350Y007080D01*
X029620Y007080D01*
X029740Y006960D01*
X029760Y005010D01*
X029710Y004960D01*
X029710Y003960D02*
X029710Y002860D01*
X030060Y002410D01*
X034660Y002410D01*
X035720Y003470D01*
X035720Y009410D01*
X034990Y010140D01*
X033210Y010140D01*
X033210Y009800D02*
X034800Y009800D01*
X035380Y009220D01*
X035380Y003600D01*
X034510Y002730D01*
X030960Y002730D01*
X030710Y003060D01*
X030710Y003960D01*
X031710Y003960D02*
X031710Y003510D01*
X032110Y003070D01*
X034360Y003070D01*
X035040Y003750D01*
X035020Y009010D01*
X034570Y009460D01*
X033170Y009460D01*
X032550Y009120D02*
X034380Y009120D01*
X034680Y008800D01*
X034700Y003900D01*
X034210Y003410D01*
X032860Y003410D01*
X032710Y003560D01*
X032710Y003960D01*
X032710Y004960D02*
X032710Y007950D01*
X032560Y008100D01*
X029830Y008100D01*
X029490Y008420D01*
X029490Y009660D01*
X029560Y009730D01*
X029450Y010040D02*
X029350Y010040D01*
X029150Y009840D01*
X029150Y008180D01*
X029610Y007780D01*
X031510Y007780D01*
X031710Y007580D01*
X031710Y004960D01*
X030710Y004960D02*
X030710Y007310D01*
X030560Y007460D01*
X029460Y007460D01*
X028810Y008010D01*
X028810Y010200D01*
X028970Y010360D01*
X029510Y010360D01*
X029810Y009460D02*
X029810Y008740D01*
X030110Y008440D01*
X033410Y008440D01*
X033710Y008140D01*
X033710Y004960D01*
X034360Y004410D02*
X034360Y008530D01*
X034110Y008760D01*
X030850Y008770D01*
X030300Y009330D01*
X030200Y011920D02*
X030060Y012060D01*
X030030Y012060D01*
X030180Y012210D01*
X030180Y012645D01*
X030185Y012650D01*
X029515Y012650D02*
X028490Y012650D01*
X028190Y012950D01*
X028190Y013880D01*
X028170Y013900D01*
X028670Y013450D02*
X028670Y014620D01*
X029200Y015150D01*
X029200Y016830D01*
X029360Y016980D01*
X029390Y017000D01*
X030280Y016990D01*
X029640Y016610D02*
X029610Y016580D01*
X029610Y014770D01*
X029170Y014330D01*
X029170Y013900D01*
X028670Y013450D02*
X028870Y013250D01*
X029660Y013250D01*
X030160Y013750D01*
X030170Y013900D01*
X031075Y013060D01*
X031210Y013760D02*
X031710Y013760D01*
X031960Y014010D01*
X031960Y014410D01*
X032210Y014660D01*
X033010Y014660D01*
X033210Y014460D01*
X033210Y014095D01*
X033245Y014060D01*
X033245Y013060D02*
X033410Y012895D01*
X033660Y012480D01*
X033410Y011660D02*
X033260Y011670D01*
X033410Y011660D02*
X034540Y011660D01*
X034900Y012020D01*
X036120Y012020D01*
X036770Y011370D01*
X036770Y002990D01*
X035190Y001410D01*
X035180Y001410D01*
X035090Y001320D01*
X013480Y001320D01*
X009500Y009380D02*
X008480Y010400D01*
X004200Y010400D01*
X004170Y010430D01*
X003350Y011240D01*
X001490Y013500D01*
X001490Y025620D01*
X001790Y025880D01*
X001730Y025850D01*
X001490Y026090D01*
X001470Y036140D01*
X002500Y037160D01*
X009610Y037160D01*
X009810Y036980D01*
X009810Y036960D01*
X010700Y036070D01*
X017030Y036070D01*
X017260Y035840D01*
X017490Y036070D01*
X027200Y036070D01*
X028510Y034760D01*
X028510Y032760D01*
X028510Y033000D01*
X028520Y032730D01*
X028530Y032740D02*
X028510Y032760D01*
X028530Y032740D02*
X028830Y032740D01*
X029210Y032660D02*
X029410Y032460D01*
X030610Y032460D01*
X030710Y032360D01*
X030710Y031895D01*
X030745Y031860D01*
X030610Y032460D02*
X030710Y032560D01*
X030710Y032925D01*
X031310Y033260D02*
X031310Y030570D01*
X031110Y030300D01*
X028340Y030290D01*
X027420Y031180D01*
X027610Y031560D02*
X028370Y030800D01*
X028670Y030800D01*
X029000Y030800D01*
X028680Y030830D02*
X028670Y030840D01*
X028680Y030830D02*
X028670Y030800D01*
X028310Y031360D02*
X029110Y031360D01*
X029210Y031460D01*
X029210Y031825D01*
X029245Y031860D01*
X029210Y032660D02*
X029210Y033660D01*
X029510Y033960D01*
X031310Y033960D01*
X031710Y033560D01*
X031700Y026600D01*
X031200Y026100D01*
X031810Y025540D01*
X031810Y022260D01*
X030845Y021295D01*
X030845Y019260D01*
X030845Y018160D01*
X031910Y018160D01*
X031920Y018150D01*
X032590Y018150D01*
X033890Y016730D02*
X033500Y016260D01*
X033270Y016000D01*
X033680Y015600D02*
X033700Y015600D01*
X034220Y016120D01*
X033710Y015610D02*
X032410Y015610D01*
X032360Y015560D01*
X032710Y015560D01*
X031810Y016190D02*
X031710Y016050D01*
X031710Y015660D01*
X031410Y015260D02*
X031410Y014360D01*
X030890Y014110D02*
X031210Y013760D01*
X030890Y014110D02*
X030900Y015150D01*
X030900Y015160D01*
X031410Y015260D02*
X030940Y015730D01*
X030970Y015710D01*
X030950Y016200D02*
X031210Y016460D01*
X031210Y016450D01*
X031220Y016440D01*
X030175Y018160D02*
X029345Y018160D01*
X029310Y018125D01*
X029310Y017980D01*
X028940Y017630D01*
X028250Y017630D01*
X027970Y017910D01*
X025730Y017910D01*
X025480Y017660D01*
X025100Y017260D01*
X025100Y016670D01*
X025990Y015780D01*
X025990Y015520D01*
X025990Y015490D01*
X025620Y015560D02*
X025620Y015250D01*
X025710Y015160D01*
X025620Y015560D02*
X024630Y016550D01*
X024650Y017360D01*
X025650Y018400D01*
X026010Y018400D01*
X027850Y020240D01*
X028110Y020790D02*
X027290Y020790D01*
X027160Y020660D01*
X027160Y020112D01*
X025799Y018752D01*
X024865Y018760D01*
X024535Y018310D01*
X024535Y019550D01*
X025310Y020325D01*
X025310Y020995D02*
X025310Y021490D01*
X025540Y021760D01*
X025540Y022860D01*
X025300Y023030D01*
X025090Y023040D01*
X025050Y023430D02*
X025490Y023870D01*
X025490Y025910D01*
X028060Y028490D01*
X028060Y028890D01*
X028240Y029060D01*
X029110Y029060D01*
X029340Y028830D01*
X029330Y028110D01*
X028970Y027750D01*
X028380Y027530D01*
X027960Y027010D01*
X027910Y027015D01*
X028005Y026810D01*
X027705Y026890D01*
X026620Y025830D01*
X026400Y025590D01*
X026400Y025065D01*
X025890Y025660D02*
X028690Y028460D01*
X028700Y028440D02*
X028880Y028440D01*
X028700Y028440D02*
X028700Y028670D01*
X028700Y028440D02*
X028470Y028440D01*
X028680Y028350D02*
X028700Y028440D01*
X027670Y028630D02*
X027670Y029100D01*
X028080Y029510D01*
X029300Y029510D01*
X029760Y029050D01*
X029760Y027760D01*
X028825Y026965D01*
X028675Y026810D01*
X027680Y026070D02*
X027680Y025070D01*
X027575Y024965D01*
X027510Y025030D01*
X027175Y025030D01*
X027270Y025035D01*
X027575Y024965D02*
X027850Y024690D01*
X027850Y023520D01*
X027580Y023250D01*
X027540Y023250D01*
X027520Y022870D02*
X027530Y022860D01*
X027710Y022860D01*
X027820Y022860D01*
X028310Y022870D01*
X029100Y022870D01*
X029320Y023010D01*
X029340Y023185D01*
X029530Y024110D02*
X030690Y024110D01*
X030810Y023950D01*
X030850Y023425D01*
X030835Y023440D01*
X031350Y022840D02*
X031380Y025330D01*
X031070Y025600D01*
X030370Y025600D01*
X030210Y025360D01*
X030220Y024855D01*
X030165Y024860D01*
X030835Y024860D02*
X030840Y024425D01*
X030810Y024260D01*
X030690Y024110D01*
X029530Y024110D02*
X029230Y024370D01*
X029220Y025690D01*
X029740Y026090D01*
X031200Y026100D01*
X030140Y027460D02*
X028470Y025720D01*
X028470Y024540D01*
X028200Y024540D01*
X028470Y024530D02*
X028470Y024540D01*
X027270Y024365D02*
X027260Y024275D01*
X027260Y023580D01*
X027270Y024365D02*
X027140Y024395D01*
X026400Y024395D01*
X025890Y025660D02*
X025909Y022920D01*
X025910Y022919D01*
X025910Y021660D01*
X026080Y021470D01*
X027600Y021470D01*
X027710Y021360D01*
X027840Y021230D01*
X027710Y021360D02*
X027610Y021260D01*
X028020Y021760D02*
X028320Y021460D01*
X028300Y021060D01*
X028300Y020980D01*
X028110Y020790D01*
X028610Y020660D02*
X028610Y019060D01*
X029430Y019010D02*
X029430Y019000D01*
X029430Y019010D02*
X029410Y019260D01*
X029410Y019390D01*
X029430Y019410D01*
X029410Y019260D02*
X030175Y019260D01*
X030010Y020680D02*
X030010Y020960D01*
X028910Y020960D01*
X028610Y020660D01*
X028930Y021490D02*
X028735Y021675D01*
X028180Y022160D01*
X027400Y022160D01*
X027300Y022490D02*
X030950Y022490D01*
X031350Y022840D01*
X030020Y021250D02*
X030020Y020960D01*
X028020Y021760D02*
X028020Y021770D01*
X027310Y022500D02*
X027300Y022490D01*
X025910Y022760D02*
X025909Y022920D01*
X025020Y022510D02*
X024900Y022570D01*
X025040Y022450D01*
X025040Y022300D01*
X025040Y022450D02*
X025020Y022470D01*
X025360Y021045D02*
X026260Y021045D01*
X026410Y020995D01*
X026410Y020325D02*
X026410Y020080D01*
X025510Y019280D01*
X023865Y018310D02*
X022995Y018310D01*
X022745Y018060D01*
X022745Y019060D01*
X022745Y020060D01*
X022745Y021060D01*
X022725Y022540D01*
X022725Y022155D01*
X024140Y020740D01*
X022725Y022540D02*
X022945Y023960D01*
X022925Y024780D01*
X022925Y025620D01*
X022255Y025620D02*
X022205Y025645D01*
X021820Y025760D01*
X020100Y025770D01*
X019560Y025290D01*
X019550Y023730D01*
X020050Y023730D02*
X020050Y025110D01*
X020370Y025350D01*
X021385Y025360D01*
X022255Y024780D01*
X021810Y024320D02*
X021990Y024120D01*
X022090Y023980D01*
X022275Y023960D01*
X021810Y024320D02*
X021650Y024520D01*
X021170Y024520D01*
X021050Y024300D01*
X021050Y023730D01*
X020550Y023730D02*
X020550Y024690D01*
X020700Y024840D01*
X021550Y023730D02*
X021550Y023360D01*
X021560Y022840D01*
X021890Y022500D01*
X021990Y022560D01*
X021550Y021940D02*
X021550Y021310D01*
X021070Y021220D02*
X021070Y020880D01*
X021270Y020620D01*
X021790Y020620D01*
X022070Y020780D01*
X022075Y021060D01*
X021550Y021940D02*
X021030Y022550D01*
X020870Y022540D01*
X020480Y022540D01*
X020470Y022530D01*
X020860Y022530D01*
X020880Y022550D01*
X020880Y022540D01*
X020860Y022520D01*
X020860Y022210D01*
X020870Y022540D02*
X020840Y022560D01*
X020880Y022550D01*
X020880Y022920D01*
X020880Y022550D02*
X020530Y022120D01*
X018810Y022150D01*
X018510Y022150D01*
X018830Y022160D01*
X018810Y022150D02*
X018810Y022570D01*
X019050Y022800D01*
X019050Y023730D01*
X019050Y025430D01*
X018605Y025875D01*
X017860Y025875D01*
X017060Y025875D01*
X017025Y025910D01*
X016770Y025910D01*
X016660Y026020D01*
X015410Y026020D01*
X015360Y025970D01*
X015190Y025970D01*
X015220Y026450D02*
X015210Y026460D01*
X015620Y026460D01*
X016210Y026470D01*
X016390Y026620D01*
X016430Y026650D01*
X016945Y026650D01*
X017060Y026545D01*
X017860Y026545D01*
X018915Y026555D01*
X019510Y027310D01*
X019330Y027500D01*
X019510Y027310D02*
X019710Y027170D01*
X020030Y026630D02*
X020150Y026540D01*
X020270Y026680D01*
X020150Y026540D02*
X020300Y026390D01*
X020150Y026540D02*
X020050Y026450D01*
X019570Y025960D01*
X019450Y025840D01*
X019450Y025830D01*
X019050Y025430D01*
X018550Y024730D02*
X018450Y024730D01*
X017920Y025260D01*
X017060Y025260D01*
X016910Y025110D01*
X016910Y024290D01*
X016760Y024100D01*
X017030Y024110D01*
X017360Y024470D02*
X017360Y024760D01*
X018010Y024310D01*
X018050Y023730D01*
X018050Y022800D01*
X018190Y022660D01*
X018190Y022660D01*
X018214Y022635D01*
X018209Y022631D01*
X018050Y022480D01*
X018040Y022640D02*
X018240Y022640D01*
X018420Y022820D01*
X018410Y022820D01*
X018209Y022631D01*
X018214Y022635D02*
X018214Y022635D01*
X017600Y023430D02*
X017440Y023560D01*
X016410Y023560D01*
X016210Y023710D01*
X016210Y024210D01*
X016560Y024560D01*
X016560Y025610D01*
X016460Y025670D01*
X015610Y025670D01*
X015360Y025460D01*
X015060Y025460D01*
X014810Y027240D02*
X014730Y027550D01*
X014250Y027750D02*
X014070Y027550D01*
X012720Y029110D02*
X012720Y029240D01*
X012670Y029290D01*
X012570Y029290D01*
X012520Y029240D01*
X012560Y029110D02*
X012710Y029110D01*
X012560Y029110D02*
X012310Y029160D01*
X009370Y029160D01*
X008890Y028960D01*
X008890Y022470D01*
X005930Y019440D01*
X005850Y018980D01*
X005350Y018330D01*
X005310Y018380D01*
X005310Y019380D02*
X008480Y022670D01*
X008500Y029700D01*
X009090Y029870D01*
X012690Y029870D01*
X012860Y029780D01*
X013140Y029980D02*
X012860Y030250D01*
X008400Y030260D01*
X008100Y030030D01*
X008100Y022960D01*
X005560Y020380D01*
X005310Y020380D01*
X005310Y022380D02*
X005620Y022380D01*
X007460Y024220D01*
X007510Y030220D01*
X007870Y030580D01*
X013040Y030600D01*
X013370Y030240D01*
X013660Y030430D02*
X013200Y030970D01*
X007660Y030950D01*
X007110Y030480D01*
X007110Y024480D01*
X006010Y023380D01*
X005310Y023380D01*
X005310Y024380D02*
X006360Y024380D01*
X006760Y024780D01*
X006740Y030720D01*
X007380Y031360D01*
X013380Y031340D01*
X014000Y030580D01*
X014020Y030240D01*
X014350Y030280D02*
X014350Y030760D01*
X013510Y031700D01*
X007210Y031720D01*
X006310Y030840D01*
X006310Y026140D01*
X005510Y025380D01*
X005310Y025380D01*
X005310Y026380D02*
X005610Y026380D01*
X005910Y026680D01*
X005910Y030980D01*
X007010Y032080D01*
X013610Y032060D01*
X014710Y031010D01*
X014710Y030260D01*
X014560Y029910D01*
X014910Y029760D02*
X015130Y029980D01*
X015130Y031280D01*
X015510Y031760D01*
X015510Y031770D01*
X015510Y031760D02*
X015540Y031790D01*
X015630Y031780D01*
X016110Y032210D02*
X015910Y032410D01*
X006660Y032430D01*
X005910Y033180D01*
X005910Y035780D01*
X005710Y035980D01*
X003910Y035980D01*
X003710Y035780D01*
X003710Y029580D01*
X003910Y029380D01*
X004310Y029380D01*
X004310Y028380D02*
X003810Y028380D01*
X003310Y028880D01*
X003310Y035880D01*
X003810Y036380D01*
X005810Y036380D01*
X006310Y035880D01*
X006310Y033280D01*
X006810Y032780D01*
X016110Y032760D01*
X016460Y032410D01*
X016460Y030110D01*
X016610Y029960D01*
X017560Y029960D01*
X017710Y030060D01*
X017710Y030600D01*
X017260Y030650D02*
X016780Y031150D01*
X016780Y032810D01*
X016410Y033160D01*
X007010Y033180D01*
X006710Y033480D01*
X006710Y036080D01*
X006010Y036780D01*
X003710Y036780D01*
X002910Y035980D01*
X002910Y027680D01*
X003210Y027380D01*
X004310Y027380D01*
X003660Y025880D02*
X001790Y025880D01*
X002480Y023870D02*
X002155Y023545D01*
X001950Y023340D01*
X001920Y023310D01*
X001920Y015210D01*
X003800Y013330D01*
X005160Y013330D01*
X005710Y012780D01*
X008530Y012780D01*
X008590Y012900D01*
X008610Y017440D01*
X012190Y020990D01*
X012760Y021010D01*
X014620Y021010D01*
X014620Y022010D02*
X014610Y022110D01*
X015110Y022510D01*
X017070Y022510D01*
X016180Y023010D02*
X014620Y023010D01*
X012760Y023010D01*
X012330Y023530D02*
X014080Y023530D01*
X014330Y023860D01*
X013310Y024820D02*
X011410Y024820D01*
X010690Y024210D01*
X010650Y021990D01*
X007190Y018690D01*
X007070Y018300D01*
X006590Y017240D01*
X006550Y016390D01*
X005710Y015510D01*
X004210Y015510D01*
X003710Y016030D01*
X002310Y015360D02*
X002310Y021260D01*
X003610Y022380D01*
X004310Y022380D01*
X003590Y023870D02*
X002480Y023870D01*
X006920Y018930D02*
X010330Y022160D01*
X010350Y024440D01*
X011220Y025140D01*
X013090Y025140D01*
X013010Y025460D02*
X012660Y025460D01*
X011660Y026260D02*
X011475Y026260D01*
X011460Y026295D02*
X010660Y026295D01*
X010055Y025760D01*
X009490Y025760D01*
X009330Y026060D01*
X009330Y027110D01*
X009710Y027410D01*
X009760Y027450D01*
X009900Y027310D01*
X009760Y027450D02*
X009760Y027770D01*
X009760Y027450D02*
X010490Y028230D01*
X011560Y028230D01*
X011420Y027700D02*
X011380Y027700D01*
X011430Y027680D01*
X011380Y027700D02*
X011190Y027700D01*
X011470Y027080D02*
X011550Y027080D01*
X011525Y027055D01*
X011525Y027010D01*
X011460Y026965D01*
X010660Y026965D01*
X010625Y026910D01*
X010260Y026910D01*
X009960Y026610D01*
X009960Y026410D01*
X011990Y023330D02*
X011990Y021320D01*
X008260Y017550D01*
X008260Y016050D01*
X006280Y014170D01*
X003600Y014170D01*
X002310Y015360D01*
X005560Y015830D02*
X006230Y016680D01*
X006270Y017400D01*
X006450Y017760D01*
X006750Y018410D01*
X006920Y018930D01*
X011990Y023330D02*
X012330Y023530D01*
X016460Y027010D02*
X017160Y027010D01*
X017580Y027250D01*
X017270Y027250D01*
X017580Y027260D02*
X017580Y027420D01*
X018360Y027480D02*
X017760Y028210D01*
X016460Y028210D01*
X016270Y028520D02*
X016460Y028610D01*
X019280Y028610D01*
X020830Y027060D01*
X022370Y027060D01*
X023810Y025520D01*
X024700Y025520D01*
X024665Y025615D01*
X027670Y028630D01*
X027290Y028830D02*
X027290Y029220D01*
X027990Y029930D01*
X029460Y029930D01*
X030140Y029260D01*
X030140Y027460D01*
X027290Y028830D02*
X025960Y027470D01*
X025925Y027615D01*
X025895Y027600D01*
X025960Y027470D02*
X025250Y026780D01*
X024570Y026760D01*
X024570Y027130D01*
X024560Y027140D01*
X025090Y027580D02*
X025110Y027600D01*
X025225Y027600D01*
X025250Y027625D01*
X025250Y028250D01*
X025410Y028410D01*
X025215Y028410D01*
X024520Y028430D02*
X024230Y028150D01*
X024410Y028160D02*
X024380Y028550D01*
X024380Y028310D01*
X024380Y029270D01*
X025160Y030050D01*
X025160Y032630D01*
X025730Y033380D01*
X025730Y033775D01*
X025740Y034435D02*
X025730Y034445D01*
X025740Y034435D02*
X026800Y034435D01*
X026800Y034900D01*
X026640Y035060D01*
X025260Y035060D01*
X024990Y034790D01*
X024990Y033390D01*
X024760Y033160D01*
X024060Y033160D01*
X023810Y032910D01*
X023810Y032210D01*
X023860Y032160D01*
X023580Y031790D02*
X023580Y027880D01*
X023880Y027580D01*
X025090Y027580D01*
X024380Y028310D02*
X024520Y028430D01*
X024380Y028310D02*
X024140Y028310D01*
X023210Y027060D02*
X023210Y033650D01*
X024070Y034510D01*
X024070Y035320D01*
X023830Y035560D01*
X018910Y035560D01*
X018260Y034910D01*
X018260Y033070D01*
X018260Y031710D01*
X018310Y031660D01*
X020510Y031660D01*
X020760Y031410D01*
X020760Y030650D01*
X020260Y030650D02*
X020260Y030210D01*
X020510Y029960D01*
X021410Y029960D01*
X021710Y030260D01*
X021710Y030560D01*
X021810Y030660D01*
X022075Y030660D01*
X022745Y030660D02*
X022745Y029660D01*
X022745Y028660D01*
X022745Y027660D01*
X023210Y027060D02*
X024010Y026260D01*
X024665Y025615D02*
X025060Y025160D01*
X025060Y024660D01*
X024590Y024140D01*
X023860Y024140D01*
X023550Y023800D01*
X023550Y023530D01*
X023610Y023390D01*
X020550Y021310D02*
X020570Y020790D01*
X021160Y020060D01*
X022075Y020060D01*
X022075Y019060D02*
X021570Y019060D01*
X020050Y020660D01*
X020050Y021310D01*
X019550Y021310D02*
X019570Y020490D01*
X021770Y018100D01*
X022075Y018060D01*
X022620Y016120D02*
X020770Y016120D01*
X019510Y014860D01*
X020120Y013560D02*
X019760Y013200D01*
X019760Y012470D01*
X020260Y012470D02*
X020260Y012910D01*
X020510Y013160D01*
X021585Y013160D01*
X021585Y012160D02*
X021070Y012160D01*
X020760Y012470D01*
X023100Y012940D02*
X023835Y012940D01*
X024505Y012940D02*
X024525Y012919D01*
X024525Y011840D01*
X025195Y011840D02*
X025290Y011840D01*
X025270Y011860D01*
X025270Y012770D01*
X025800Y013300D01*
X025800Y013390D01*
X026320Y013910D01*
X026620Y013480D02*
X026540Y013400D01*
X026510Y013400D01*
X026430Y013240D01*
X026480Y013290D01*
X027020Y013290D01*
X027180Y013450D01*
X027180Y014130D01*
X027300Y014610D02*
X027370Y014710D01*
X027410Y014690D01*
X027370Y014710D02*
X027540Y014490D01*
X027540Y011830D01*
X027575Y011865D01*
X027575Y012060D01*
X027540Y011830D02*
X027540Y011630D01*
X027630Y011540D01*
X028245Y012060D02*
X030030Y012060D01*
X027710Y010380D02*
X027710Y004960D01*
X027710Y003960D02*
X027710Y002760D01*
X028380Y002090D01*
X034810Y002090D01*
X036040Y003300D01*
X036060Y009620D01*
X035200Y010480D01*
X033230Y010480D01*
X033210Y010840D02*
X035310Y010840D01*
X036390Y009760D01*
X036390Y003160D01*
X034980Y001770D01*
X028110Y001770D01*
X026730Y003150D01*
X026710Y003960D01*
X028710Y003960D02*
X028900Y003770D01*
X028900Y002670D01*
X033710Y003960D02*
X033910Y003960D01*
X034360Y004410D01*
X035030Y011250D02*
X033220Y011250D01*
X033250Y011260D01*
X035030Y011250D02*
X035160Y011420D01*
X034745Y014060D02*
X034745Y015060D01*
X034860Y015060D01*
X035010Y015210D01*
X035795Y015210D01*
X035810Y015195D01*
X036360Y014860D02*
X036360Y016430D01*
X036140Y016730D01*
X033890Y016730D01*
X033710Y015610D02*
X033991Y015301D01*
X034075Y015191D01*
X034075Y015060D01*
X035975Y014525D02*
X036025Y014525D01*
X036360Y014860D01*
X028730Y015570D02*
X028740Y016660D01*
X028560Y016840D01*
X028125Y016840D01*
X028110Y016825D01*
X028110Y017150D01*
X027930Y017330D01*
X026070Y017330D01*
X025670Y016930D01*
X026510Y016500D02*
X026835Y016825D01*
X027300Y016825D01*
X027300Y016155D02*
X027300Y015630D01*
X027300Y015590D01*
X027300Y016155D02*
X028110Y016155D01*
X028730Y015570D02*
X028360Y015180D01*
X027790Y015180D01*
X026000Y014460D02*
X025980Y014460D01*
X025910Y014280D01*
X025470Y013950D02*
X025420Y013620D01*
X024850Y012940D01*
X024505Y012940D01*
X025290Y011840D02*
X026010Y011840D01*
X025940Y012435D02*
X025940Y012750D01*
X026430Y013240D01*
X025060Y014660D02*
X025080Y014730D01*
X025090Y014720D01*
X025030Y014700D02*
X025060Y014660D01*
X023550Y014835D02*
X023550Y014080D01*
X023550Y014835D02*
X023510Y015045D01*
X022930Y015810D02*
X022620Y016120D01*
X020000Y016570D02*
X019880Y016570D01*
X019970Y016560D01*
X019820Y018410D02*
X019820Y018690D01*
X020120Y018690D01*
X019830Y018700D02*
X019830Y018420D01*
X019820Y018410D01*
X019820Y018690D02*
X019510Y018690D01*
X019830Y018700D02*
X019269Y019428D01*
X018590Y020310D01*
X018550Y020480D01*
X018530Y021250D01*
X018550Y021310D01*
X018050Y021310D02*
X018050Y020410D01*
X018140Y020120D01*
X017610Y020040D02*
X017600Y023430D01*
X018550Y023730D02*
X018550Y024730D01*
X017650Y024770D02*
X017360Y024770D01*
X018360Y027240D02*
X018360Y027490D01*
X018360Y027480D02*
X018680Y027480D01*
X018010Y029360D02*
X018210Y029560D01*
X018210Y030600D01*
X018260Y030650D01*
X018810Y030600D02*
X018810Y029660D01*
X020850Y027660D01*
X022075Y027660D01*
X021810Y028660D02*
X020360Y028660D01*
X019210Y029810D01*
X019210Y030600D01*
X019260Y030650D01*
X019760Y030650D02*
X019760Y030010D01*
X020310Y029460D01*
X021875Y029460D01*
X022075Y029660D01*
X022745Y030660D02*
X022745Y031760D01*
X022745Y032760D01*
X022745Y033860D01*
X022745Y034960D01*
X023135Y034570D01*
X023440Y034570D01*
X023440Y034580D02*
X023440Y034840D01*
X022075Y034960D02*
X021935Y035100D01*
X019170Y035100D01*
X018760Y034710D01*
X018760Y033070D01*
X019260Y033070D02*
X019260Y034470D01*
X019510Y034720D01*
X020930Y034720D01*
X021800Y033850D01*
X022075Y033860D01*
X022010Y032960D02*
X020980Y033980D01*
X020480Y033980D01*
X020210Y033660D01*
X020210Y033120D01*
X020260Y033070D01*
X019760Y033070D02*
X019770Y033780D01*
X019870Y034110D01*
X020760Y033070D02*
X020760Y032210D01*
X021210Y031760D01*
X022075Y031760D01*
X022010Y032860D02*
X022010Y032960D01*
X023920Y031460D02*
X023920Y031450D01*
X023920Y030360D01*
X024090Y030260D01*
X024410Y030260D01*
X025525Y029385D02*
X025525Y029210D01*
X025525Y029385D02*
X026350Y030170D01*
X026350Y030300D01*
X027080Y030310D01*
X027240Y030220D01*
X027680Y030140D02*
X027670Y030450D01*
X027400Y030720D01*
X027400Y030730D01*
X027680Y030140D02*
X026740Y029210D01*
X026195Y029210D01*
X026185Y028760D01*
X025885Y028410D01*
X025650Y030270D02*
X025660Y031830D01*
X025780Y031950D01*
X026070Y032450D02*
X026070Y032905D01*
X026800Y033765D01*
X026841Y033725D01*
X027620Y033725D01*
X027620Y033055D02*
X027620Y032400D01*
X027400Y032180D01*
X027780Y031890D02*
X028310Y031360D01*
X026350Y030300D02*
X026280Y030430D01*
X026110Y030600D01*
X026110Y030980D01*
X030075Y032960D02*
X030075Y033325D01*
X030310Y033560D01*
X031010Y033560D01*
X031310Y033260D01*
X021975Y028760D02*
X021910Y028760D01*
X021810Y028660D01*
X018010Y029360D02*
X016260Y029360D01*
X016110Y029510D01*
X016110Y032210D01*
X017260Y033070D02*
X017260Y035840D01*
X017760Y034180D02*
X017760Y034149D01*
X017766Y034144D01*
X017730Y034140D02*
X017730Y034150D01*
X017760Y034180D01*
X017730Y034140D02*
X017730Y034110D01*
X017720Y034100D01*
X017730Y034140D02*
X017770Y033680D01*
X017770Y033160D01*
X017760Y033070D02*
X017760Y033610D01*
X017770Y033680D01*
X017250Y030660D02*
X017260Y030650D01*
X015560Y029520D02*
X015310Y029270D01*
X015190Y029270D01*
X016450Y027790D02*
X016560Y027680D01*
X019050Y021310D02*
X019070Y020460D01*
X019830Y019420D01*
X019880Y019420D01*
X020040Y019260D01*
X018820Y019150D02*
X018500Y019150D01*
X018490Y019160D01*
X018490Y018910D01*
X018490Y019150D02*
X018500Y019150D01*
X018490Y019160D02*
X018490Y019430D01*
X018490Y019160D02*
X018296Y019190D01*
X018290Y019184D01*
X018290Y019160D01*
X018296Y019190D02*
X018230Y019200D01*
X017610Y020040D01*
X014810Y015300D02*
X014590Y015300D01*
X014600Y015310D02*
X014600Y015420D01*
X017220Y012510D02*
X017260Y012470D01*
D26*
X015700Y014270D02*
X015700Y014650D01*
X015700Y015070D01*
X014980Y015790D01*
X014420Y015790D01*
X014250Y015620D01*
X014130Y015820D02*
X014320Y016010D01*
X014330Y016000D01*
X015070Y016000D01*
X015900Y015170D01*
X015900Y015120D01*
X016110Y015020D02*
X016100Y014980D01*
X016100Y014650D01*
X015510Y014660D02*
X015510Y014170D01*
X014910Y013860D02*
X014760Y013710D01*
X014910Y013860D02*
X014910Y014650D01*
X014720Y014650D02*
X014720Y014090D01*
X014450Y013820D01*
X014450Y013650D01*
X014030Y014040D02*
X014130Y014140D01*
X014210Y014160D01*
X014320Y014270D01*
X014320Y014650D01*
X014130Y014650D02*
X013990Y014510D01*
X014520Y014650D02*
X014520Y014170D01*
X014450Y014100D01*
X014050Y015160D02*
X014190Y015300D01*
X014590Y015300D01*
X014570Y015280D01*
X014130Y015820D02*
X013550Y015820D01*
X012980Y015820D01*
X013550Y016010D02*
X014020Y016010D01*
X014020Y016030D01*
X014100Y016110D01*
X014100Y016520D01*
X014010Y016610D01*
X013550Y016610D01*
X013130Y016610D01*
X013030Y016710D01*
X013030Y016910D01*
X013030Y016990D01*
X012910Y017110D01*
X013030Y016910D02*
X013120Y017000D01*
X013550Y016800D02*
X014150Y016800D01*
X014320Y016630D01*
X014320Y016010D01*
X014920Y016630D02*
X016110Y015440D01*
X016390Y015610D02*
X016420Y015620D01*
X016870Y015620D01*
X016460Y015620D01*
X016375Y015655D02*
X016320Y015710D01*
X016320Y016040D01*
X016355Y016125D02*
X016440Y016210D01*
X016870Y016210D01*
X016870Y016010D02*
X017250Y016010D01*
X017260Y016020D01*
X017450Y015820D02*
X016870Y015820D01*
X016870Y015420D02*
X017350Y015420D01*
X016870Y015230D02*
X016400Y015230D01*
X016460Y015620D02*
X016441Y015621D01*
X016423Y015626D01*
X016406Y015633D01*
X016389Y015643D01*
X016375Y015655D01*
X016320Y016040D02*
X016321Y016059D01*
X016326Y016077D01*
X016333Y016094D01*
X016343Y016111D01*
X016355Y016125D01*
X016070Y016410D02*
X016870Y016410D01*
X016870Y016610D02*
X016280Y016610D01*
X016020Y016870D01*
X015620Y016870D01*
X015460Y016710D01*
X015230Y017180D02*
X014920Y016870D01*
X014920Y016630D01*
X015230Y017180D02*
X015920Y017180D01*
X016100Y017360D01*
X016100Y017970D01*
X015700Y017970D02*
X015700Y018510D01*
X015710Y018550D01*
X015510Y018840D02*
X015510Y017970D01*
X015900Y017600D02*
X015900Y017510D01*
X015780Y017390D01*
X014740Y017390D01*
X014610Y017260D01*
X014150Y016800D01*
X014130Y017970D02*
X014020Y017970D01*
X014320Y017970D02*
X014320Y018450D01*
X014710Y018710D02*
X014720Y018700D01*
X014720Y017970D01*
X014910Y017970D02*
X014910Y018810D01*
X016870Y017390D02*
X017360Y017390D01*
X017560Y016800D02*
X016870Y016800D01*
X016070Y016410D02*
X016025Y016365D01*
X015940Y016330D02*
X015910Y016330D01*
X015940Y016330D02*
X015959Y016331D01*
X015977Y016336D01*
X015994Y016343D01*
X016011Y016353D01*
X016025Y016365D01*
X014760Y024760D02*
X014760Y025120D01*
X014450Y025430D01*
X014450Y025950D01*
X014260Y025950D02*
X014260Y025290D01*
X014300Y025250D01*
X014300Y025070D01*
X014850Y025600D02*
X014860Y025590D01*
X014850Y025600D02*
X014850Y025950D01*
X014850Y026310D01*
X014850Y026390D02*
X014849Y026409D01*
X014844Y026427D01*
X014837Y026444D01*
X014827Y026461D01*
X014815Y026475D01*
X014810Y026480D01*
X014490Y026800D01*
X013600Y026800D01*
X013400Y027000D01*
X013400Y028280D01*
X013580Y028460D01*
X014640Y028460D01*
X014850Y028670D01*
X014850Y028890D01*
X014850Y028920D02*
X014850Y029270D01*
X014260Y029270D02*
X014260Y029690D01*
X013680Y030040D02*
X013660Y030020D01*
X013660Y029270D01*
X013470Y029270D02*
X013470Y030030D01*
X013370Y030130D01*
X013070Y029630D02*
X013070Y029270D01*
X012880Y029270D02*
X012750Y029270D01*
X012720Y029240D01*
X013310Y028730D02*
X013100Y028520D01*
X013100Y028230D01*
X012970Y028100D01*
X012920Y028100D01*
X013080Y027940D01*
X013080Y027210D01*
X013020Y027150D01*
X013020Y027120D01*
X013060Y027080D01*
X013060Y026670D01*
X013250Y026480D01*
X014510Y026480D01*
X014650Y026340D01*
X015070Y026490D02*
X015160Y026510D01*
X015160Y026480D01*
X015180Y026460D01*
X015210Y026460D01*
X015220Y026450D02*
X015160Y026510D01*
X015070Y026490D02*
X014480Y027080D01*
X013840Y027100D01*
X013680Y027310D01*
X013680Y028000D01*
X013820Y028180D01*
X014660Y028180D01*
X014975Y028495D01*
X015170Y028690D01*
X015270Y028690D01*
X015620Y028500D02*
X016250Y028500D01*
X016270Y028520D01*
X016210Y028220D02*
X016450Y028220D01*
X016460Y028210D01*
X016210Y028220D02*
X016090Y028100D01*
X015620Y028100D01*
X015620Y027910D02*
X016330Y027910D01*
X016560Y027680D01*
X016160Y027620D02*
X016160Y027390D01*
X016080Y027310D01*
X015620Y027310D01*
X015620Y027120D02*
X016350Y027120D01*
X016460Y027010D01*
X016160Y027620D02*
X016070Y027710D01*
X016010Y027710D01*
X015170Y027710D02*
X015120Y027750D01*
X014930Y027940D01*
X014360Y027940D01*
X014250Y027750D01*
X014810Y027240D02*
X014870Y026970D01*
X015120Y026720D01*
X015620Y026720D01*
X015620Y026530D02*
X015620Y026460D01*
X015620Y026470D02*
X015620Y026530D01*
X013660Y025950D02*
X013660Y024710D01*
X013460Y025200D02*
X013470Y025210D01*
X013470Y025950D01*
X013070Y025950D02*
X013070Y025520D01*
X013010Y025460D01*
X012810Y025860D02*
X012880Y025930D01*
X012880Y025950D01*
X011810Y026410D02*
X011660Y026260D01*
X011810Y026410D02*
X011810Y026570D01*
X011460Y026965D02*
X011615Y027120D01*
X012300Y027120D01*
X013020Y027120D01*
X012800Y027310D02*
X012870Y027400D01*
X012870Y027830D01*
X012860Y027860D01*
X012780Y027910D01*
X012300Y027910D01*
X011790Y027910D01*
X011750Y027950D01*
X011750Y028190D01*
X011710Y028230D01*
X011560Y028230D01*
X011750Y028190D02*
X011860Y028300D01*
X012300Y028300D01*
X012300Y028100D02*
X012920Y028100D01*
X013310Y028730D02*
X014550Y028730D01*
X012800Y027310D02*
X012300Y027310D01*
X025710Y015160D02*
X025710Y015070D01*
X026050Y014730D01*
X026620Y014730D01*
X026300Y014990D02*
X026150Y014990D01*
X026060Y015080D01*
X026060Y015300D01*
X027770Y031880D02*
X027780Y031890D01*
D27*
X028500Y032740D02*
X028520Y032730D01*
X028530Y032810D01*
X028490Y032750D02*
X028500Y032740D01*
X028830Y032740D01*
X028850Y032760D01*
X018360Y027480D02*
X018310Y027460D01*
X018310Y027490D01*
X018310Y027460D02*
X018330Y027460D01*
X018330Y027530D01*
X018310Y027530D01*
X015620Y028690D02*
X015270Y028690D01*
X015190Y029270D02*
X015040Y029270D01*
X014850Y029270D02*
X014850Y029700D01*
X014910Y029760D01*
X014660Y029280D02*
X014650Y029270D01*
X014790Y027580D02*
X014800Y027330D01*
X014780Y027330D01*
X014730Y027550D01*
X014780Y027330D02*
X014760Y027310D01*
X014850Y026390D02*
X014850Y026310D01*
X015040Y025950D02*
X015170Y025950D01*
X015190Y025970D01*
X012300Y027510D02*
X012300Y027710D01*
X011450Y027710D01*
X011420Y027680D01*
X011420Y027700D01*
X011405Y026330D02*
X010680Y026330D01*
X010180Y025830D01*
X009600Y025750D01*
X009370Y026010D01*
X009370Y027120D01*
X009690Y027270D01*
X011405Y026330D02*
X011475Y026260D01*
X015630Y031780D02*
X015700Y031780D01*
X017720Y034100D02*
X017680Y034140D01*
X030030Y020940D02*
X030030Y020920D01*
X029430Y019410D02*
X029430Y019030D01*
X026450Y013250D02*
X026450Y013230D01*
X019830Y019420D02*
X019810Y019460D01*
X019810Y019440D01*
X019810Y019460D02*
X019820Y019460D01*
X019310Y019460D02*
X019269Y019428D01*
X018290Y019160D02*
X018290Y019150D01*
X016940Y018270D02*
X016870Y018270D01*
X016470Y018750D02*
X016420Y018760D01*
X016100Y018440D02*
X016100Y017970D01*
X016290Y017970D02*
X016360Y017970D01*
X016370Y017980D01*
X016410Y017980D01*
X016420Y017990D01*
X014590Y017310D02*
X014590Y017240D01*
X013550Y016410D02*
X013550Y016210D01*
X013470Y016310D02*
X013550Y016390D01*
X013550Y016410D01*
X015510Y014170D02*
X015510Y014020D01*
X015810Y013720D01*
X015810Y013610D01*
X016110Y013760D02*
X016110Y013180D01*
X016170Y013120D01*
X016810Y013460D02*
X016710Y013625D01*
X016350Y013890D02*
X016290Y013950D01*
X016290Y014650D01*
X015700Y014270D02*
X015700Y014170D01*
X016110Y013760D01*
X016810Y015160D02*
X016810Y015170D01*
X016870Y015230D01*
X016980Y015220D02*
X017170Y015030D01*
X017890Y015030D01*
X018610Y015750D01*
X018610Y015730D01*
X016980Y015220D02*
X016430Y015220D01*
X016320Y015300D01*
X018260Y012470D02*
X018310Y012460D01*
X017570Y009030D02*
X017560Y009030D01*
X018320Y008510D02*
X018340Y008510D01*
D28*
X004590Y025880D02*
X003660Y025880D01*
X004590Y025880D02*
X004810Y026100D01*
X004810Y029880D01*
X004310Y030380D01*
D29*
X015560Y029520D03*
X007740Y013460D03*
X024340Y009380D03*
X026430Y013240D03*
X035160Y011420D03*
D30*
X035810Y013595D02*
X035810Y014525D01*
X035675Y015060D02*
X035810Y015195D01*
X033680Y015600D02*
X032670Y015600D01*
X032590Y015680D01*
X032520Y015680D01*
X013470Y016310D02*
X012870Y016310D01*
X012660Y016520D01*
X005310Y021380D02*
X004810Y021880D01*
X004810Y023680D01*
X004620Y023870D01*
X003590Y023870D01*
M02*
