G75*
%MOIN*%
%OFA0B0*%
%FSLAX24Y24*%
%IPPOS*%
%LPD*%
%AMOC8*
5,1,8,0,0,1.08239X$1,22.5*
%
%ADD10R,0.0580X0.0110*%
%ADD11R,0.0110X0.0580*%
%ADD12R,0.0580X0.0140*%
%ADD13R,0.0394X0.0433*%
%ADD14C,0.0560*%
%ADD15R,0.0433X0.0394*%
%ADD16R,0.0600X0.0600*%
%ADD17C,0.0600*%
%ADD18OC8,0.0600*%
%ADD19R,0.0260X0.0800*%
%ADD20C,0.0780*%
%ADD21C,0.0320*%
%ADD22C,0.0475*%
%ADD23C,0.0120*%
%ADD24C,0.0240*%
%ADD25C,0.0110*%
%ADD26C,0.0100*%
%ADD27C,0.0400*%
%ADD28C,0.0591*%
%ADD29C,0.0160*%
D10*
X013550Y015230D03*
X013550Y015420D03*
X013550Y015620D03*
X013550Y015820D03*
X013550Y016010D03*
X013550Y016210D03*
X013550Y016410D03*
X013550Y016610D03*
X013550Y016800D03*
X013550Y017000D03*
X013550Y017200D03*
X013550Y017390D03*
X016870Y017390D03*
X016870Y017200D03*
X016870Y017000D03*
X016870Y016800D03*
X016870Y016610D03*
X016870Y016410D03*
X016870Y016210D03*
X016870Y016010D03*
X016870Y015820D03*
X016870Y015620D03*
X016870Y015420D03*
X016870Y015230D03*
X015620Y026530D03*
X015620Y026720D03*
X015620Y026920D03*
X015620Y027120D03*
X015620Y027310D03*
X015620Y027510D03*
X015620Y027710D03*
X015620Y027910D03*
X015620Y028100D03*
X015620Y028300D03*
X015620Y028500D03*
X015620Y028690D03*
X012300Y028690D03*
X012300Y028500D03*
X012300Y028300D03*
X012300Y028100D03*
X012300Y027910D03*
X012300Y027710D03*
X012300Y027510D03*
X012300Y027310D03*
X012300Y027120D03*
X012300Y026920D03*
X012300Y026720D03*
X012300Y026530D03*
D11*
X012880Y025950D03*
X013070Y025950D03*
X013270Y025950D03*
X013470Y025950D03*
X013660Y025950D03*
X013860Y025950D03*
X014060Y025950D03*
X014260Y025950D03*
X014450Y025950D03*
X014650Y025950D03*
X014850Y025950D03*
X015040Y025950D03*
X015040Y029270D03*
X014850Y029270D03*
X014650Y029270D03*
X014450Y029270D03*
X014260Y029270D03*
X014060Y029270D03*
X013860Y029270D03*
X013660Y029270D03*
X013470Y029270D03*
X013270Y029270D03*
X013070Y029270D03*
X012880Y029270D03*
X014130Y017970D03*
X014320Y017970D03*
X014520Y017970D03*
X014720Y017970D03*
X014910Y017970D03*
X015110Y017970D03*
X015310Y017970D03*
X015510Y017970D03*
X015700Y017970D03*
X015900Y017970D03*
X016100Y017970D03*
X016290Y017970D03*
X016290Y014650D03*
X016100Y014650D03*
X015900Y014650D03*
X015700Y014650D03*
X015510Y014650D03*
X015310Y014650D03*
X015110Y014650D03*
X014910Y014650D03*
X014720Y014650D03*
X014520Y014650D03*
X014320Y014650D03*
X014130Y014650D03*
D12*
X024400Y014730D03*
X024400Y014480D03*
X024400Y014220D03*
X024400Y013960D03*
X024400Y014990D03*
X024400Y015240D03*
X024400Y015500D03*
X024400Y015760D03*
X026620Y015760D03*
X026620Y015500D03*
X026620Y015240D03*
X026620Y014990D03*
X026620Y014730D03*
X026620Y014480D03*
X026620Y014220D03*
X026620Y013960D03*
X030300Y015160D03*
X030300Y015420D03*
X030300Y015680D03*
X030300Y015930D03*
X030300Y016190D03*
X030300Y016440D03*
X030300Y016700D03*
X030300Y016960D03*
X032520Y016960D03*
X032520Y016700D03*
X032520Y016440D03*
X032520Y016190D03*
X032520Y015930D03*
X032520Y015680D03*
X032520Y015420D03*
X032520Y015160D03*
X032520Y011710D03*
X032520Y011460D03*
X032520Y011200D03*
X032520Y010940D03*
X032520Y010690D03*
X032520Y010430D03*
X032520Y010180D03*
X032520Y009920D03*
X032520Y009660D03*
X032520Y009410D03*
X030300Y009410D03*
X030300Y009660D03*
X030300Y009920D03*
X030300Y010180D03*
X030300Y010430D03*
X030300Y010690D03*
X030300Y010940D03*
X030300Y011200D03*
X030300Y011460D03*
X030300Y011710D03*
X026520Y021860D03*
X026520Y022120D03*
X026520Y022380D03*
X026520Y022630D03*
X026520Y022890D03*
X026520Y023140D03*
X026520Y023400D03*
X026520Y023660D03*
X024300Y023660D03*
X024300Y023400D03*
X024300Y023140D03*
X024300Y022890D03*
X024300Y022630D03*
X024300Y022380D03*
X024300Y022120D03*
X024300Y021860D03*
X024500Y030860D03*
X024500Y031120D03*
X024500Y031380D03*
X024500Y031630D03*
X024500Y031890D03*
X024500Y032140D03*
X024500Y032400D03*
X024500Y032660D03*
X026720Y032660D03*
X026720Y032400D03*
X026720Y032140D03*
X026720Y031890D03*
X026720Y031630D03*
X026720Y031380D03*
X026720Y031120D03*
X026720Y030860D03*
D13*
X025510Y029655D03*
X025510Y028985D03*
X026590Y028915D03*
X026590Y029585D03*
X024410Y029595D03*
X024410Y028925D03*
X017860Y026545D03*
X017860Y025875D03*
X017060Y025875D03*
X017060Y026545D03*
X011460Y026295D03*
X011460Y026965D03*
X010660Y026965D03*
X010660Y026295D03*
X012090Y015875D03*
X012090Y015205D03*
X012810Y015225D03*
X012810Y015895D03*
X016710Y014295D03*
X016710Y013625D03*
X018110Y013965D03*
X018110Y014635D03*
X024270Y019625D03*
X024270Y020295D03*
X025310Y020325D03*
X025310Y020995D03*
X026410Y020995D03*
X026410Y020325D03*
X026810Y012495D03*
X026810Y011825D03*
X025710Y011995D03*
X025710Y011325D03*
X024510Y011825D03*
X024510Y012495D03*
X034410Y012525D03*
X034410Y013195D03*
X035810Y012925D03*
X035810Y013595D03*
X035810Y014525D03*
X035810Y015195D03*
X034210Y016025D03*
X034210Y016695D03*
D14*
X016460Y021010D02*
X015900Y021010D01*
X015900Y022010D02*
X016460Y022010D01*
X016460Y023010D02*
X015900Y023010D01*
X014900Y023010D02*
X014340Y023010D01*
X014340Y022010D02*
X014900Y022010D01*
X014900Y021010D02*
X014340Y021010D01*
X013040Y021010D02*
X012480Y021010D01*
X012480Y022010D02*
X013040Y022010D01*
X013040Y023010D02*
X012480Y023010D01*
D15*
X021585Y015040D03*
X022255Y015040D03*
X022255Y014160D03*
X021585Y014160D03*
X021585Y013160D03*
X022255Y013160D03*
X022255Y012160D03*
X021585Y012160D03*
X022075Y011160D03*
X022745Y011160D03*
X022745Y010160D03*
X022075Y010160D03*
X022075Y009160D03*
X022745Y009160D03*
X022745Y008160D03*
X022075Y008160D03*
X027575Y012060D03*
X028245Y012060D03*
X031075Y013060D03*
X031745Y013060D03*
X032575Y013060D03*
X033245Y013060D03*
X033245Y014060D03*
X032575Y014060D03*
X034075Y014060D03*
X034745Y014060D03*
X034745Y015060D03*
X034075Y015060D03*
X030845Y018160D03*
X030175Y018160D03*
X029345Y018160D03*
X028675Y018160D03*
X030175Y019260D03*
X030845Y019260D03*
X030835Y023440D03*
X030165Y023440D03*
X029345Y023430D03*
X028675Y023430D03*
X030165Y024860D03*
X030835Y024860D03*
X030745Y031860D03*
X030075Y031860D03*
X029245Y031860D03*
X028575Y031860D03*
X030075Y032960D03*
X030745Y032960D03*
X022745Y032760D03*
X022075Y032760D03*
X022075Y031760D03*
X022745Y031760D03*
X022745Y030660D03*
X022075Y030660D03*
X022075Y029660D03*
X022745Y029660D03*
X022745Y028660D03*
X022075Y028660D03*
X022075Y027660D03*
X022745Y027660D03*
X022925Y025620D03*
X022255Y025620D03*
X022255Y024780D03*
X022925Y024780D03*
X022945Y023960D03*
X022275Y023960D03*
X022055Y022540D03*
X022725Y022540D03*
X022745Y021060D03*
X022075Y021060D03*
X022075Y020060D03*
X022745Y020060D03*
X022745Y019060D03*
X022075Y019060D03*
X022075Y018060D03*
X022745Y018060D03*
X022745Y033860D03*
X022075Y033860D03*
X022075Y034960D03*
X022745Y034960D03*
D16*
X034310Y017760D03*
X028210Y013060D03*
D17*
X029210Y013060D03*
X030210Y013060D03*
X032310Y017760D03*
X033310Y017760D03*
D18*
X033710Y004960D03*
X033710Y003960D03*
X032710Y003960D03*
X032710Y004960D03*
X031710Y004960D03*
X030710Y004960D03*
X030710Y003960D03*
X031710Y003960D03*
X029710Y003960D03*
X028710Y003960D03*
X028710Y004960D03*
X029710Y004960D03*
X027710Y004960D03*
X027710Y003960D03*
X026710Y003960D03*
X025710Y003960D03*
X025710Y004960D03*
X026710Y004960D03*
X024710Y004960D03*
X024710Y003960D03*
X023710Y003960D03*
X022710Y003960D03*
X022710Y004960D03*
X023710Y004960D03*
X021710Y004960D03*
X020710Y004960D03*
X020710Y003960D03*
X021710Y003960D03*
X019710Y003960D03*
X019710Y004960D03*
X018710Y004960D03*
X017710Y004960D03*
X017710Y003960D03*
X018710Y003960D03*
X016710Y003960D03*
X015710Y003960D03*
X015710Y004960D03*
X016710Y004960D03*
X014710Y004960D03*
X014710Y003960D03*
X005310Y016380D03*
X005310Y017380D03*
X004310Y017380D03*
X004310Y016380D03*
X004310Y018380D03*
X005310Y018380D03*
X005310Y019380D03*
X005310Y020380D03*
X004310Y020380D03*
X004310Y019380D03*
X004310Y021380D03*
X004310Y022380D03*
X005310Y022380D03*
X005310Y021380D03*
X005310Y023380D03*
X004310Y023380D03*
X004310Y024380D03*
X004310Y025380D03*
X005310Y025380D03*
X005310Y024380D03*
X005310Y026380D03*
X004310Y026380D03*
X004310Y027380D03*
X004310Y028380D03*
X005310Y028380D03*
X005310Y027380D03*
X005310Y029380D03*
X004310Y029380D03*
X004310Y030380D03*
X004310Y031380D03*
X005310Y031380D03*
X005310Y030380D03*
X005310Y032380D03*
X005310Y033380D03*
X004310Y033380D03*
X004310Y032380D03*
X004310Y034380D03*
X005310Y034380D03*
X005310Y035380D03*
X004310Y035380D03*
D19*
X017260Y033070D03*
X017760Y033070D03*
X018260Y033070D03*
X018760Y033070D03*
X019260Y033070D03*
X019760Y033070D03*
X020260Y033070D03*
X020760Y033070D03*
X020760Y030650D03*
X020260Y030650D03*
X019760Y030650D03*
X019260Y030650D03*
X018760Y030650D03*
X018260Y030650D03*
X017760Y030650D03*
X017260Y030650D03*
X018050Y023730D03*
X018550Y023730D03*
X019050Y023730D03*
X019550Y023730D03*
X020050Y023730D03*
X020550Y023730D03*
X021050Y023730D03*
X021550Y023730D03*
X021550Y021310D03*
X021050Y021310D03*
X020550Y021310D03*
X020050Y021310D03*
X019550Y021310D03*
X019050Y021310D03*
X018550Y021310D03*
X018050Y021310D03*
X018260Y012470D03*
X017760Y012470D03*
X017260Y012470D03*
X018760Y012470D03*
X019260Y012470D03*
X019760Y012470D03*
X020260Y012470D03*
X020760Y012470D03*
X020760Y010050D03*
X020260Y010050D03*
X019760Y010050D03*
X019260Y010050D03*
X018760Y010050D03*
X018260Y010050D03*
X017760Y010050D03*
X017260Y010050D03*
D20*
X005550Y003470D02*
X004770Y003470D01*
X004770Y005440D02*
X005550Y005440D01*
X005550Y007410D02*
X004770Y007410D01*
X004770Y009390D02*
X005550Y009390D01*
X005550Y011360D02*
X004770Y011360D01*
X004770Y013330D02*
X005550Y013330D01*
D21*
X028610Y018160D02*
X028610Y019060D01*
X028610Y018160D02*
X028675Y018160D01*
X032575Y014060D02*
X032575Y013060D01*
X031745Y013060D01*
X033245Y013060D02*
X034275Y013060D01*
X034410Y013195D01*
X034075Y014060D02*
X033245Y014060D01*
X030165Y023440D02*
X029345Y023430D01*
X028675Y023430D02*
X028480Y023640D01*
X028470Y024540D01*
X028510Y031860D02*
X028510Y032760D01*
X028510Y031860D02*
X028575Y031860D01*
D22*
X028680Y030810D03*
X027610Y032360D03*
X028510Y032760D03*
X024990Y033320D03*
X024410Y030260D03*
X023710Y029560D03*
X023750Y027960D03*
X024570Y026760D03*
X024010Y026260D03*
X021710Y026260D03*
X020360Y026760D03*
X018360Y027480D03*
X017580Y027250D03*
X016580Y027690D03*
X014880Y027300D03*
X014290Y027580D03*
X011420Y027680D03*
X009960Y026410D03*
X009760Y027460D03*
X015510Y031760D03*
X017730Y034140D03*
X019810Y033960D03*
X018310Y031660D03*
X017360Y024760D03*
X016760Y024100D03*
X018190Y022660D03*
X018810Y022150D03*
X020870Y022540D03*
X020530Y024620D03*
X023960Y021070D03*
X025010Y022460D03*
X027310Y023460D03*
X028470Y024540D03*
X027710Y021360D03*
X030010Y020960D03*
X029410Y019260D03*
X028610Y019060D03*
X031210Y016460D03*
X031710Y015660D03*
X031410Y014360D03*
X033660Y012480D03*
X027810Y015360D03*
X025910Y014280D03*
X025060Y014660D03*
X024830Y013280D03*
X020310Y011360D03*
X019810Y013280D03*
X019510Y014860D03*
X018610Y015750D03*
X019020Y016160D03*
X016870Y018240D03*
X016510Y018820D03*
X018140Y020120D03*
X018490Y019160D03*
X019830Y019420D03*
X019830Y018700D03*
X015910Y016330D03*
X015460Y016710D03*
X014610Y017260D03*
X014590Y015300D03*
X012660Y016520D03*
X012290Y012580D03*
X012770Y012000D03*
X016370Y011640D03*
X016310Y010660D03*
X017550Y009080D03*
X018310Y008560D03*
X017810Y013260D03*
X023710Y008360D03*
X028900Y002670D03*
X025510Y018760D03*
X025310Y019760D03*
X031810Y020860D03*
X028680Y028610D03*
X011260Y035110D03*
X002340Y012250D03*
X009480Y009390D03*
D23*
X013710Y013670D02*
X014030Y014040D01*
X014270Y013950D02*
X014060Y013620D01*
X014410Y013610D02*
X014450Y013650D01*
X014760Y013610D02*
X014760Y013710D01*
X015110Y013650D02*
X015110Y014650D01*
X015310Y014650D02*
X015310Y013870D01*
X015460Y013720D01*
X015460Y013660D01*
X015900Y014650D02*
X015900Y015120D01*
X016110Y015020D02*
X016110Y015440D01*
X016320Y015470D02*
X016410Y015600D01*
X016320Y015470D02*
X016320Y015300D01*
X016400Y015230D01*
X016760Y015120D02*
X016810Y015160D01*
X016710Y014460D02*
X016710Y014295D01*
X017350Y015420D02*
X017470Y015470D01*
X017450Y015820D02*
X017710Y016080D01*
X017710Y016170D01*
X017360Y016120D02*
X017360Y016310D01*
X017260Y016410D01*
X016870Y016410D01*
X017360Y016320D02*
X017360Y016310D01*
X017360Y016120D02*
X017260Y016020D01*
X016860Y017400D02*
X016860Y017610D01*
X016870Y018240D02*
X016790Y018380D01*
X015900Y017970D02*
X015900Y017600D01*
X015310Y017970D02*
X015310Y018940D01*
X015440Y019090D01*
X015440Y019210D01*
X015760Y019230D02*
X015760Y019150D01*
X015510Y018840D01*
X015720Y018720D02*
X015710Y018550D01*
X015720Y018720D02*
X015780Y018750D01*
X015830Y018780D01*
X015110Y019150D02*
X015110Y017970D01*
X014520Y017970D02*
X014520Y018560D01*
X014270Y018810D01*
X014220Y018810D01*
X014350Y019070D02*
X014710Y018710D01*
X014910Y018810D02*
X014910Y018910D01*
X014790Y019030D01*
X014350Y019070D02*
X014250Y019150D01*
X014200Y018470D02*
X014320Y018450D01*
X014020Y017970D02*
X014010Y017960D01*
X013550Y017000D02*
X013120Y017000D01*
X012880Y015900D02*
X013200Y015820D01*
X013170Y015620D02*
X012950Y015330D01*
X013170Y015620D02*
X013550Y015620D01*
X014250Y015620D01*
X014050Y015160D02*
X013790Y014900D01*
X014450Y014100D02*
X014270Y013950D01*
X015730Y016330D02*
X015910Y016330D01*
X015910Y016510D01*
X015910Y016520D01*
X015470Y016660D02*
X015460Y016670D01*
X015460Y016710D01*
X015460Y016720D01*
X015440Y016740D01*
X015440Y016750D01*
X015410Y016780D01*
X018055Y014660D02*
X018110Y014635D01*
X019810Y013280D02*
X019810Y012520D01*
X019760Y012470D01*
X018760Y012470D02*
X018710Y012520D01*
X018310Y012420D02*
X018260Y012470D01*
X019810Y010260D02*
X019810Y010100D01*
X019760Y010050D01*
X019710Y010160D02*
X019810Y010260D01*
X020260Y010050D02*
X020310Y010000D01*
X019260Y010050D02*
X019210Y010000D01*
X018760Y010050D02*
X018710Y010000D01*
X021910Y008160D02*
X022075Y008160D01*
X024345Y011925D02*
X024510Y011825D01*
X024510Y012460D02*
X024410Y012460D01*
X024610Y012560D01*
X024510Y012495D02*
X024445Y012560D01*
X024510Y012460D01*
X025710Y011325D02*
X025710Y011225D01*
X025910Y011225D01*
X026620Y013960D02*
X026620Y014220D01*
X026620Y014480D02*
X026230Y014480D01*
X026180Y014460D01*
X026140Y014730D02*
X026080Y014810D01*
X026140Y014730D02*
X026620Y014730D01*
X026620Y014990D02*
X026300Y014990D01*
X026110Y015200D01*
X026620Y015240D02*
X027030Y015240D01*
X027110Y015160D01*
X026620Y015240D02*
X026620Y015500D01*
X024910Y015260D02*
X024420Y015260D01*
X024400Y015240D01*
X024400Y014990D02*
X023940Y014990D01*
X023810Y014960D01*
X023970Y015500D02*
X023910Y015560D01*
X023970Y015500D02*
X024400Y015500D01*
X024400Y014730D02*
X024880Y014730D01*
X024910Y014760D01*
X021595Y014170D02*
X021585Y014160D01*
X024175Y019610D02*
X024270Y019625D01*
X024260Y019715D01*
X024270Y020295D02*
X024235Y020320D01*
X025310Y020995D02*
X025360Y021045D01*
X026520Y021860D02*
X026520Y022120D01*
X026520Y022380D02*
X027090Y022380D01*
X027110Y022360D01*
X026520Y022630D02*
X026080Y022630D01*
X026110Y022660D01*
X026140Y022630D01*
X026040Y022630D02*
X025910Y022760D01*
X026520Y022890D02*
X026550Y022860D01*
X027110Y022860D01*
X027160Y023400D02*
X026520Y023400D01*
X026520Y023140D01*
X025020Y023140D02*
X024300Y023140D01*
X024300Y022890D02*
X023800Y022890D01*
X023710Y022730D01*
X023450Y023140D02*
X023680Y023400D01*
X023730Y023400D01*
X023610Y023390D01*
X023730Y023400D02*
X024300Y023400D01*
X024300Y022630D02*
X024790Y022630D01*
X024960Y022520D01*
X022275Y023960D02*
X022190Y023965D01*
X021990Y022560D02*
X022055Y022540D01*
X021050Y021310D02*
X021070Y021220D01*
X022010Y021060D02*
X022075Y021060D01*
X020550Y023730D02*
X020510Y023980D01*
X017060Y026545D02*
X016955Y026670D01*
X016430Y026650D02*
X016080Y026920D01*
X015620Y026920D01*
X015620Y027710D02*
X015180Y027710D01*
X015620Y027710D02*
X016010Y027710D01*
X014810Y026480D02*
X014850Y026430D01*
X014850Y026310D01*
X014650Y026340D02*
X014650Y025950D01*
X014860Y025590D02*
X014860Y025570D01*
X014970Y025460D01*
X015060Y025460D01*
X014530Y025300D02*
X014560Y025160D01*
X014610Y025110D01*
X014610Y024910D01*
X014760Y024760D01*
X014330Y024980D02*
X014260Y025030D01*
X014300Y025070D01*
X014300Y025260D01*
X014260Y025290D01*
X014470Y025400D02*
X014530Y025300D01*
X014470Y025400D02*
X014470Y025410D01*
X014060Y025950D02*
X014060Y024090D01*
X013950Y023980D01*
X013630Y024170D02*
X013860Y024460D01*
X013860Y025950D01*
X013270Y025950D02*
X013270Y025320D01*
X013090Y025140D01*
X013360Y025090D02*
X013460Y025200D01*
X013360Y025090D02*
X013360Y024860D01*
X013310Y024820D01*
X013660Y024710D02*
X013510Y024500D01*
X013070Y025470D02*
X013010Y025460D01*
X012810Y025860D02*
X012770Y025850D01*
X012300Y026920D02*
X011880Y026920D01*
X011810Y026830D01*
X011810Y026570D01*
X011560Y026310D02*
X011525Y026275D01*
X011460Y026295D01*
X011485Y026920D02*
X011460Y026965D01*
X011470Y027080D02*
X011570Y027110D01*
X011950Y027120D01*
X011520Y027700D02*
X011420Y027700D01*
X010625Y026910D02*
X010460Y026910D01*
X012760Y027330D02*
X012870Y027480D01*
X014270Y026800D02*
X014360Y026800D01*
X014550Y028740D02*
X014650Y028840D01*
X014650Y029270D01*
X014260Y029690D02*
X014350Y029780D01*
X014510Y029860D01*
X014560Y029910D01*
X014310Y030150D02*
X014350Y030280D01*
X014310Y030150D02*
X014060Y029860D01*
X014060Y029270D01*
X013860Y029270D02*
X013860Y029940D01*
X014010Y030110D01*
X014010Y030410D01*
X014020Y030240D01*
X013680Y030410D02*
X013660Y030430D01*
X013680Y030410D02*
X013680Y030040D01*
X013370Y030130D02*
X013370Y030240D01*
X013140Y029980D02*
X013270Y029770D01*
X013270Y029270D01*
X013070Y029630D02*
X013060Y029660D01*
X012860Y029780D01*
X012720Y029110D02*
X012710Y029110D01*
X017710Y030600D02*
X017760Y030650D01*
X018760Y030650D02*
X018810Y030600D01*
X020760Y030650D02*
X020810Y030700D01*
X021910Y030660D02*
X022075Y030660D01*
X021975Y028760D02*
X022075Y028660D01*
X024410Y028760D02*
X024410Y028925D01*
X025510Y028985D02*
X025765Y028970D01*
X026720Y030860D02*
X026720Y031120D01*
X026720Y031380D02*
X027230Y031380D01*
X027420Y031180D01*
X027610Y031560D02*
X027608Y031576D01*
X027603Y031590D01*
X027595Y031604D01*
X027584Y031615D01*
X027570Y031623D01*
X027556Y031628D01*
X027540Y031630D01*
X026720Y031630D01*
X026720Y031380D02*
X026530Y031380D01*
X026720Y031890D02*
X027570Y031880D01*
X027770Y031880D01*
X028510Y031860D02*
X028510Y032060D01*
X029245Y031860D02*
X030075Y031860D01*
X030710Y032925D02*
X030745Y032960D01*
X026740Y032380D02*
X026740Y032160D01*
X026720Y032140D01*
X026630Y032310D02*
X026720Y032400D01*
X026740Y032380D01*
X026630Y032310D02*
X026510Y032310D01*
X025010Y032360D02*
X025010Y032160D01*
X025010Y032360D02*
X024970Y032400D01*
X024500Y032400D01*
X024480Y032160D02*
X024500Y032140D01*
X024480Y032160D02*
X023910Y032160D01*
X023740Y031890D02*
X023750Y031860D01*
X023740Y031890D02*
X024500Y031890D01*
X024500Y031630D02*
X023980Y031630D01*
X024010Y031560D01*
X022075Y032760D02*
X022010Y032660D01*
X022010Y032860D01*
X020310Y033120D02*
X020260Y033070D01*
X019810Y033120D02*
X019760Y033070D01*
X019710Y033020D01*
X019710Y032860D01*
X017760Y033070D02*
X017770Y033160D01*
X028470Y024540D02*
X028510Y024060D01*
X029345Y023430D02*
X029340Y023185D01*
X028606Y018229D02*
X028675Y018160D01*
X029345Y018160D02*
X029345Y017995D01*
X029860Y017000D02*
X030300Y016960D01*
X030300Y016700D02*
X029950Y016700D01*
X029770Y016660D01*
X030300Y016190D02*
X030740Y016190D01*
X030760Y016210D01*
X030690Y015930D02*
X030300Y015930D01*
X030300Y015680D02*
X030300Y015420D01*
X030750Y015420D01*
X030760Y015410D01*
X030760Y015860D02*
X030690Y015930D01*
X032010Y016160D02*
X032040Y016190D01*
X032520Y016190D01*
X032520Y016440D02*
X032080Y016440D01*
X031860Y016660D01*
X032520Y016700D02*
X033000Y016700D01*
X033010Y016710D01*
X032520Y016960D02*
X032510Y016970D01*
X032510Y017160D01*
X032520Y017720D02*
X032480Y017760D01*
X032310Y017760D01*
X032910Y015960D02*
X032860Y015910D01*
X032540Y015910D01*
X032520Y015930D01*
X032520Y015680D02*
X032590Y015680D01*
X032710Y015560D01*
X032520Y015680D02*
X032520Y015420D01*
X032910Y015960D02*
X033010Y015960D01*
X035810Y014525D02*
X035975Y014525D01*
X033260Y011670D02*
X033090Y011620D01*
X032930Y011460D01*
X032520Y011460D01*
X032520Y011710D02*
X031930Y011710D01*
X031860Y011740D01*
X031850Y011720D02*
X032040Y011720D01*
X032520Y011710D01*
X032810Y011710D01*
X033080Y011200D02*
X032520Y011200D01*
X032510Y010950D02*
X032030Y010950D01*
X031850Y011140D01*
X032510Y010950D02*
X032520Y010940D01*
X032520Y010690D02*
X032920Y010690D01*
X033070Y010820D01*
X033210Y010840D01*
X033230Y010480D02*
X033000Y010440D01*
X032830Y010430D01*
X032520Y010430D01*
X032520Y010180D02*
X033170Y010180D01*
X033210Y010140D01*
X033030Y009920D02*
X033130Y009820D01*
X033190Y009820D01*
X033210Y009800D01*
X033030Y009920D02*
X032520Y009920D01*
X032520Y009660D02*
X032970Y009660D01*
X033170Y009460D01*
X032540Y009330D02*
X032550Y009120D01*
X032540Y009330D02*
X032520Y009410D01*
X033080Y011200D02*
X033220Y011250D01*
X030310Y011460D02*
X030300Y011460D01*
X030210Y011460D01*
X030170Y011360D01*
X030300Y011450D02*
X030300Y011200D01*
X030300Y011450D02*
X030310Y011460D01*
X030300Y011710D02*
X030160Y011850D01*
X030220Y011860D01*
X029930Y010940D02*
X029720Y011030D01*
X029930Y010940D02*
X030300Y010940D01*
X030300Y010690D02*
X029650Y010690D01*
X029700Y010430D02*
X029630Y010360D01*
X029700Y010430D02*
X030300Y010430D01*
X030300Y010180D02*
X030280Y010160D01*
X029860Y010160D01*
X029740Y010040D01*
X029450Y010040D01*
X029560Y009730D02*
X029730Y009730D01*
X029930Y009910D01*
X030290Y009910D01*
X030300Y009920D01*
X030300Y009660D02*
X029970Y009660D01*
X029810Y009500D01*
X029810Y009370D01*
X030300Y009410D02*
X030310Y009400D01*
X030310Y008950D01*
X028910Y012460D02*
X028860Y012460D01*
X028710Y012610D01*
X029210Y013060D02*
X029310Y013060D01*
X005410Y017380D02*
X005310Y017380D01*
D24*
X005310Y017580D01*
X005810Y018080D01*
X006030Y018530D01*
X006310Y019310D01*
X009670Y022480D01*
X009690Y024830D01*
X010960Y025860D01*
X012810Y025860D01*
X012660Y025460D02*
X012490Y025540D01*
X011110Y025540D01*
X010010Y024620D01*
X009990Y022310D01*
X006610Y019130D01*
X006390Y018510D01*
X005970Y017640D01*
X005930Y017620D01*
X005910Y016980D01*
X005310Y016380D01*
X005560Y015830D02*
X004410Y015830D01*
X004310Y015930D01*
X004310Y016380D01*
X003710Y016030D02*
X003710Y016780D01*
X004310Y017380D01*
X004310Y018380D02*
X003860Y018380D01*
X003390Y017870D01*
X003390Y015820D01*
X004060Y015170D01*
X005860Y015170D01*
X006890Y016260D01*
X006950Y017140D01*
X007390Y018200D01*
X007490Y018500D01*
X010970Y021840D01*
X011010Y023960D01*
X011660Y024500D01*
X013510Y024500D01*
X013630Y024170D02*
X011880Y024170D01*
X011330Y023760D01*
X011290Y021630D01*
X007850Y018330D01*
X007610Y017800D01*
X007310Y017020D01*
X007270Y016170D01*
X006010Y014850D01*
X003910Y014850D01*
X003030Y015690D01*
X003030Y018180D01*
X004310Y019380D01*
X004310Y020380D02*
X004210Y020380D01*
X002670Y018980D01*
X002670Y015550D01*
X003750Y014510D01*
X006130Y014510D01*
X007810Y016160D01*
X007850Y017440D01*
X007990Y017800D01*
X008130Y018050D01*
X011630Y021470D01*
X011670Y023510D01*
X012030Y023850D01*
X013830Y023850D01*
X013830Y023860D01*
X013950Y023980D01*
X014330Y023860D02*
X014330Y024980D01*
X014760Y024760D02*
X014760Y023410D01*
X014620Y023010D01*
X013710Y022330D01*
X013710Y021690D01*
X013910Y021510D01*
X015130Y021510D01*
X015400Y021340D01*
X015400Y020760D01*
X015410Y020590D01*
X016130Y019770D01*
X016370Y019410D01*
X016350Y019380D01*
X016660Y019390D01*
X017410Y018460D01*
X017410Y018040D01*
X016860Y017610D01*
X016560Y017990D02*
X016870Y018240D01*
X016940Y018270D01*
X016560Y017990D02*
X016420Y017990D01*
X016100Y018440D02*
X016470Y018800D01*
X016310Y018660D01*
X016350Y018660D01*
X016510Y018820D01*
X016480Y018820D01*
X016420Y018760D01*
X015850Y018800D02*
X015830Y018780D01*
X015780Y018730D01*
X015850Y018800D02*
X016350Y019380D01*
X015760Y019230D02*
X015760Y019570D01*
X014820Y020490D01*
X012170Y020490D01*
X008970Y017330D01*
X008950Y011360D01*
X010560Y009970D01*
X010560Y004810D01*
X013710Y001660D01*
X020110Y001660D01*
X021710Y003260D01*
X021710Y003960D01*
X020710Y003960D02*
X020710Y003410D01*
X019310Y001990D01*
X013860Y001990D01*
X010910Y004940D01*
X010910Y010140D01*
X009300Y011510D01*
X009300Y017160D01*
X012330Y020170D01*
X014640Y020170D01*
X015440Y019390D01*
X015440Y019210D01*
X015110Y019250D02*
X014530Y019830D01*
X012460Y019830D01*
X009640Y017010D01*
X009640Y011710D01*
X011260Y010270D01*
X011260Y005060D01*
X014010Y002310D01*
X017210Y002310D01*
X018710Y003810D01*
X018710Y003960D01*
X017710Y003960D02*
X017710Y003410D01*
X016960Y002660D01*
X014160Y002660D01*
X011610Y005210D01*
X011610Y010410D01*
X009980Y011860D01*
X009980Y016860D01*
X012610Y019490D01*
X014410Y019490D01*
X014790Y019090D01*
X014790Y019030D01*
X015110Y019150D02*
X015110Y019250D01*
X014250Y019150D02*
X012730Y019150D01*
X010320Y016720D01*
X010320Y012060D01*
X011960Y010560D01*
X011960Y005360D01*
X014310Y002990D01*
X016210Y002990D01*
X016710Y003510D01*
X016710Y003960D01*
X015710Y003960D02*
X015710Y003610D01*
X015410Y003310D01*
X014460Y003310D01*
X012310Y005480D01*
X012310Y010710D01*
X010660Y012280D01*
X010660Y016580D01*
X012890Y018810D01*
X014220Y018810D01*
X014200Y018470D02*
X013010Y018470D01*
X011000Y016440D01*
X011000Y012460D01*
X012660Y010860D01*
X012660Y006010D01*
X014710Y003960D01*
X014710Y004960D02*
X014860Y005110D01*
X014860Y007140D01*
X013010Y008990D01*
X013010Y011010D01*
X011340Y012660D01*
X011340Y016300D01*
X013000Y017960D01*
X014010Y017960D01*
X014610Y017260D02*
X014590Y017240D01*
X015460Y016710D02*
X015540Y016760D01*
X016810Y015160D02*
X016760Y015060D01*
X017860Y015040D01*
X018610Y015750D01*
X019020Y016160D01*
X019060Y016170D01*
X019170Y016110D01*
X019530Y015700D01*
X019510Y014860D01*
X020770Y016120D01*
X022620Y016120D01*
X022930Y015810D01*
X022930Y012390D01*
X024890Y010430D01*
X025140Y010430D01*
X025140Y011860D01*
X025275Y011995D01*
X025710Y011995D01*
X026260Y012060D02*
X026260Y012410D01*
X025410Y013260D01*
X025410Y014380D01*
X025560Y014550D01*
X025560Y014780D01*
X025080Y015260D01*
X024910Y015260D01*
X024910Y014760D02*
X025060Y014660D01*
X025080Y014730D01*
X024880Y014730D01*
X023810Y014960D02*
X023810Y012960D01*
X024410Y012460D01*
X024610Y012560D02*
X024610Y013160D01*
X024830Y013280D01*
X024345Y011925D02*
X023420Y012780D01*
X023420Y015180D01*
X023910Y015560D01*
X022980Y016490D01*
X019850Y016530D01*
X019890Y016510D01*
X019910Y016520D02*
X019850Y016530D01*
X019530Y016820D01*
X018870Y016810D01*
X017470Y015470D01*
X017710Y016170D02*
X018100Y016580D01*
X018100Y018760D01*
X017270Y019850D01*
X017270Y022290D01*
X017070Y022510D01*
X015110Y022510D01*
X014610Y022110D01*
X014620Y022010D01*
X014620Y021010D02*
X012760Y021010D01*
X012190Y020990D01*
X008610Y017440D01*
X008590Y012900D01*
X008530Y012780D01*
X005710Y012780D01*
X005160Y013330D01*
X006280Y014170D02*
X003600Y014170D01*
X002310Y015360D01*
X002310Y021260D01*
X003610Y022380D01*
X004310Y022380D01*
X005310Y022380D02*
X005620Y022380D01*
X007460Y024220D01*
X007510Y030220D01*
X007870Y030580D01*
X013040Y030600D01*
X013370Y030240D01*
X013660Y030430D02*
X013200Y030970D01*
X007660Y030950D01*
X007110Y030480D01*
X007110Y024480D01*
X006010Y023380D01*
X005310Y023380D01*
X005310Y024380D02*
X006360Y024380D01*
X006760Y024780D01*
X006740Y030720D01*
X007380Y031360D01*
X013380Y031340D01*
X014000Y030580D01*
X014020Y030240D01*
X014350Y030280D02*
X014350Y030760D01*
X013510Y031700D01*
X007210Y031720D01*
X006310Y030840D01*
X006310Y026140D01*
X005510Y025380D01*
X005310Y025380D01*
X005310Y026380D02*
X005610Y026380D01*
X005910Y026680D01*
X005910Y030980D01*
X007010Y032080D01*
X013610Y032060D01*
X014710Y031010D01*
X014710Y030260D01*
X014560Y029910D01*
X014910Y029760D02*
X015130Y029980D01*
X015130Y031280D01*
X015510Y031760D01*
X015510Y031770D01*
X015510Y031760D02*
X015540Y031790D01*
X015630Y031780D01*
X016110Y032210D02*
X015910Y032410D01*
X006660Y032430D01*
X005910Y033180D01*
X005910Y035780D01*
X005710Y035980D01*
X003910Y035980D01*
X003710Y035780D01*
X003710Y029580D01*
X003910Y029380D01*
X004310Y029380D01*
X004310Y028380D02*
X003810Y028380D01*
X003310Y028880D01*
X003310Y035880D01*
X003810Y036380D01*
X005810Y036380D01*
X006310Y035880D01*
X006310Y033280D01*
X006810Y032780D01*
X016110Y032760D01*
X016460Y032410D01*
X016460Y030110D01*
X016610Y029960D01*
X017560Y029960D01*
X017710Y030060D01*
X017710Y030600D01*
X017260Y030650D02*
X016780Y031150D01*
X016780Y032810D01*
X016410Y033160D01*
X007010Y033180D01*
X006710Y033480D01*
X006710Y036080D01*
X006010Y036780D01*
X003710Y036780D01*
X002910Y035980D01*
X002910Y027680D01*
X003210Y027380D01*
X004310Y027380D01*
X002490Y025440D02*
X001190Y024140D01*
X001240Y007410D01*
X005160Y003470D01*
X007960Y000960D01*
X035310Y000960D01*
X037150Y002750D01*
X037150Y011585D01*
X035810Y012925D01*
X035410Y012525D01*
X034410Y012525D01*
X034410Y012170D01*
X034200Y012010D01*
X033230Y012010D01*
X033050Y012110D01*
X031860Y012120D01*
X031860Y011740D01*
X031850Y011720D02*
X031850Y011140D01*
X030910Y011370D02*
X031660Y012120D01*
X031860Y012120D01*
X030910Y011370D02*
X030510Y011360D01*
X030460Y011310D01*
X030170Y011360D02*
X029750Y011360D01*
X029570Y011540D01*
X027630Y011540D01*
X027530Y011440D01*
X027530Y010940D01*
X026720Y010130D01*
X027190Y009660D01*
X027190Y008700D01*
X026900Y008410D01*
X023760Y008410D01*
X023710Y008360D01*
X022745Y008160D02*
X022745Y009160D01*
X022745Y010160D01*
X022745Y011160D01*
X022255Y012160D01*
X022255Y013160D01*
X022255Y014160D01*
X022290Y012160D01*
X022690Y011330D01*
X022860Y010380D01*
X023570Y010390D01*
X024380Y009560D01*
X024340Y009380D01*
X025140Y010430D02*
X025440Y010130D01*
X026720Y010130D01*
X027710Y010380D02*
X028200Y011030D01*
X029720Y011030D01*
X029650Y010690D02*
X028790Y010690D01*
X028470Y010370D01*
X028470Y007840D01*
X029350Y007080D01*
X029620Y007080D01*
X029740Y006960D01*
X029760Y005010D01*
X029710Y004960D01*
X029710Y003960D02*
X029710Y002860D01*
X030060Y002410D01*
X034660Y002410D01*
X035720Y003470D01*
X035720Y009410D01*
X034990Y010140D01*
X033210Y010140D01*
X033210Y009800D02*
X034800Y009800D01*
X035380Y009220D01*
X035380Y003600D01*
X034510Y002730D01*
X030960Y002730D01*
X030710Y003060D01*
X030710Y003960D01*
X031710Y003960D02*
X031710Y003510D01*
X032110Y003070D01*
X034360Y003070D01*
X035040Y003750D01*
X035020Y009010D01*
X034570Y009460D01*
X033170Y009460D01*
X032550Y009120D02*
X034380Y009120D01*
X034680Y008800D01*
X034700Y003900D01*
X034210Y003410D01*
X032860Y003410D01*
X032710Y003560D01*
X032710Y003960D01*
X032710Y004960D02*
X032710Y007950D01*
X032560Y008100D01*
X029830Y008100D01*
X029490Y008420D01*
X029490Y009660D01*
X029560Y009730D01*
X029450Y010040D02*
X029350Y010040D01*
X029150Y009840D01*
X029150Y008180D01*
X029610Y007780D01*
X031510Y007780D01*
X031710Y007580D01*
X031710Y004960D01*
X030710Y004960D02*
X030710Y007310D01*
X030560Y007460D01*
X029460Y007460D01*
X028810Y008010D01*
X028810Y010200D01*
X028970Y010360D01*
X029630Y010360D01*
X029810Y009370D02*
X029810Y008740D01*
X030110Y008440D01*
X033410Y008440D01*
X033710Y008140D01*
X033710Y004960D01*
X034360Y004410D02*
X034360Y008530D01*
X034110Y008760D01*
X030360Y008760D01*
X030310Y008950D01*
X027710Y010380D02*
X027710Y004960D01*
X027710Y003960D02*
X027710Y002760D01*
X028380Y002090D01*
X034810Y002090D01*
X036040Y003300D01*
X036060Y009620D01*
X035200Y010480D01*
X033230Y010480D01*
X033210Y010840D02*
X035310Y010840D01*
X036390Y009760D01*
X036390Y003160D01*
X034980Y001770D01*
X028110Y001770D01*
X026730Y003150D01*
X026710Y003960D01*
X028710Y003960D02*
X028900Y003770D01*
X028900Y002670D01*
X033710Y003960D02*
X033910Y003960D01*
X034360Y004410D01*
X036770Y002990D02*
X035190Y001410D01*
X035180Y001410D01*
X035090Y001320D01*
X013480Y001320D01*
X009360Y005440D01*
X005160Y005440D01*
X009500Y009380D02*
X008480Y010400D01*
X003670Y010400D01*
X003350Y010720D01*
X003350Y011240D01*
X002340Y012250D01*
X004210Y015510D02*
X003710Y016030D01*
X004210Y015510D02*
X005710Y015510D01*
X006550Y016390D01*
X006590Y017240D01*
X007070Y018300D01*
X007190Y018690D01*
X010650Y021990D01*
X010690Y024210D01*
X011410Y024820D01*
X013310Y024820D01*
X013090Y025140D02*
X011220Y025140D01*
X010350Y024440D01*
X010330Y022160D01*
X006920Y018930D01*
X006750Y018410D01*
X006450Y017760D01*
X006270Y017400D01*
X006230Y016680D01*
X005560Y015830D01*
X006280Y014170D02*
X008260Y016050D01*
X008260Y017550D01*
X011990Y021320D01*
X011990Y023330D01*
X012330Y023530D01*
X014080Y023530D01*
X014330Y023860D01*
X014620Y023010D02*
X012760Y023010D01*
X014620Y023010D02*
X016180Y023010D01*
X016410Y023560D02*
X016210Y023710D01*
X016210Y024210D01*
X016560Y024560D01*
X016560Y025610D01*
X016460Y025670D01*
X015610Y025670D01*
X015360Y025460D01*
X015060Y025460D01*
X015190Y025970D02*
X015360Y025970D01*
X015410Y026020D01*
X016660Y026020D01*
X016770Y025910D01*
X017025Y025910D01*
X017060Y025875D01*
X017860Y025875D01*
X018605Y025875D01*
X019050Y025430D01*
X019450Y025830D01*
X019450Y025840D01*
X019570Y025960D01*
X021410Y025960D01*
X021710Y026260D01*
X021935Y025555D02*
X021850Y025520D01*
X020130Y025520D01*
X019590Y025040D01*
X019550Y023730D01*
X020050Y023730D02*
X020050Y024930D01*
X020370Y025170D01*
X021605Y025170D01*
X022255Y024780D01*
X022925Y024780D02*
X022955Y024810D01*
X024110Y024810D01*
X023860Y024140D02*
X023570Y023880D01*
X023550Y023530D01*
X023610Y023390D01*
X023600Y023340D02*
X023450Y023140D01*
X023210Y022860D01*
X023210Y020460D01*
X023620Y019840D01*
X023810Y019650D01*
X024000Y019610D01*
X024175Y019610D01*
X024270Y020295D02*
X023710Y020995D01*
X023710Y021060D01*
X023960Y021070D01*
X023710Y021060D02*
X023710Y022730D01*
X022725Y022540D02*
X022945Y023960D01*
X022925Y024780D01*
X022925Y025620D01*
X022255Y025620D02*
X021935Y025555D01*
X021650Y024520D02*
X021170Y024520D01*
X021050Y024300D01*
X021050Y023730D01*
X020550Y023730D02*
X020530Y024620D01*
X021650Y024520D02*
X021810Y024320D01*
X021990Y024120D01*
X022090Y023980D01*
X022275Y023960D01*
X021550Y023730D02*
X021550Y023360D01*
X021560Y022840D01*
X021890Y022500D01*
X021990Y022560D01*
X022725Y022540D02*
X022745Y021060D01*
X022745Y020060D01*
X022745Y019060D01*
X022745Y018060D01*
X022075Y018060D02*
X021770Y018100D01*
X019570Y020490D01*
X019550Y021310D01*
X020050Y021310D02*
X020050Y020660D01*
X021570Y019060D01*
X022075Y019060D01*
X022075Y020060D02*
X021160Y020060D01*
X020570Y020790D01*
X020550Y021310D01*
X021070Y021220D02*
X021070Y020880D01*
X021270Y020620D01*
X021790Y020620D01*
X022070Y020780D01*
X022075Y021060D01*
X021550Y021310D02*
X021550Y021940D01*
X021030Y022550D01*
X020870Y022540D01*
X020480Y022540D01*
X020470Y022530D01*
X020860Y022530D01*
X020880Y022550D01*
X020880Y022540D01*
X020860Y022520D01*
X020860Y022160D01*
X020530Y022120D02*
X020880Y022550D01*
X020880Y022920D01*
X020840Y022560D02*
X020880Y022550D01*
X020870Y022540D02*
X020840Y022560D01*
X020530Y022120D02*
X018810Y022150D01*
X018510Y022150D01*
X018830Y022160D01*
X018810Y022150D02*
X018810Y022570D01*
X019050Y022800D01*
X019050Y023730D01*
X019050Y025430D01*
X018550Y024730D02*
X017920Y025260D01*
X017060Y025260D01*
X016910Y025110D01*
X016910Y024290D01*
X016760Y024100D01*
X016710Y023560D02*
X016410Y023560D01*
X016710Y023560D02*
X017610Y023210D01*
X017610Y020040D01*
X018230Y019200D01*
X018490Y019160D01*
X019269Y019428D02*
X019830Y018700D01*
X019830Y019420D02*
X019070Y020460D01*
X019050Y021310D01*
X018550Y021310D02*
X018530Y021250D01*
X018550Y020480D01*
X018590Y020310D01*
X019269Y019428D01*
X018140Y020120D02*
X018050Y020410D01*
X018050Y021310D01*
X018050Y022480D02*
X018410Y022820D01*
X018420Y022820D01*
X018240Y022640D01*
X018040Y022640D01*
X018190Y022660D02*
X018050Y022800D01*
X018050Y023730D01*
X018010Y024310D01*
X017360Y024760D01*
X018550Y024730D02*
X018550Y023730D01*
X016950Y021830D02*
X016950Y019700D01*
X017740Y018610D01*
X017740Y017130D01*
X017590Y016810D01*
X019510Y014860D02*
X019325Y014635D01*
X018110Y014635D01*
X018055Y014660D02*
X017870Y014640D01*
X017410Y014260D01*
X016745Y014260D01*
X016710Y014295D01*
X016350Y013890D02*
X016615Y013625D01*
X016710Y013625D01*
X016850Y013765D01*
X018310Y013765D01*
X018310Y012520D01*
X018260Y012470D01*
X018260Y011660D01*
X018710Y011210D01*
X020160Y011210D01*
X020310Y011360D01*
X020760Y010910D01*
X020760Y010050D01*
X020310Y010000D02*
X020310Y009560D01*
X020510Y009360D01*
X020970Y009360D01*
X021170Y009560D01*
X021170Y010760D01*
X021610Y011160D01*
X022075Y011160D01*
X022075Y010160D02*
X021710Y010160D01*
X021510Y009960D01*
X021510Y009360D01*
X021110Y008960D01*
X020210Y008960D01*
X019760Y009410D01*
X019760Y010050D01*
X019210Y010000D02*
X019210Y009360D01*
X020010Y008560D01*
X021310Y008560D01*
X021910Y009160D01*
X022075Y009160D01*
X021910Y008160D02*
X019910Y008160D01*
X018760Y009310D01*
X018760Y010050D01*
X018260Y010050D02*
X018260Y008610D01*
X018310Y008560D01*
X018160Y007660D02*
X015810Y010010D01*
X015810Y013610D01*
X015460Y013660D02*
X015460Y009870D01*
X018010Y007320D01*
X022360Y007320D01*
X022710Y006970D01*
X022710Y004960D01*
X023710Y004960D02*
X023710Y006960D01*
X023010Y007660D01*
X018160Y007660D01*
X017860Y006980D02*
X015110Y009730D01*
X015110Y013650D01*
X014760Y013610D02*
X014760Y009610D01*
X017710Y006660D01*
X020460Y006660D01*
X020710Y006410D01*
X020710Y004960D01*
X021710Y004960D02*
X021710Y006780D01*
X021510Y006980D01*
X017860Y006980D01*
X017590Y006320D02*
X014410Y009500D01*
X014410Y013610D01*
X014060Y013620D02*
X014060Y009380D01*
X017710Y005730D01*
X017710Y004960D01*
X018710Y004960D02*
X018710Y006180D01*
X018570Y006320D01*
X017590Y006320D01*
X016730Y006240D02*
X013730Y009240D01*
X013710Y013670D01*
X013360Y013860D02*
X013980Y014480D01*
X013980Y014500D01*
X013990Y014510D01*
X013790Y014900D02*
X013260Y014370D01*
X013260Y014360D01*
X013220Y014330D01*
X012860Y013910D01*
X012290Y012580D01*
X013360Y013860D02*
X013360Y009150D01*
X015710Y006750D01*
X015710Y004960D01*
X016710Y004960D02*
X016730Y006240D01*
X017550Y009080D02*
X017760Y009310D01*
X017760Y010050D01*
X017260Y010050D02*
X016920Y010050D01*
X016310Y010660D01*
X016370Y011640D02*
X016370Y012100D01*
X016780Y012510D01*
X016610Y012510D01*
X016170Y012950D01*
X016170Y013120D01*
X016170Y013270D01*
X016780Y012510D02*
X017220Y012510D01*
X017260Y012470D01*
X017760Y012470D02*
X017760Y013210D01*
X017810Y013260D01*
X018260Y012745D02*
X018260Y012470D01*
X018760Y012470D02*
X018810Y012520D01*
X018810Y013560D01*
X020450Y015040D01*
X021585Y015040D01*
X022255Y015040D02*
X022255Y014160D01*
X021585Y014160D02*
X020010Y014160D01*
X019260Y013410D01*
X019260Y012470D01*
X020260Y012470D02*
X020260Y012910D01*
X020510Y013160D01*
X021585Y013160D01*
X021585Y012160D02*
X021070Y012160D01*
X020760Y012470D01*
X018310Y013765D02*
X018110Y013965D01*
X012950Y015330D02*
X012860Y015260D01*
X011760Y015260D01*
X011660Y015360D01*
X011660Y016160D01*
X012610Y017110D01*
X012910Y017110D01*
X012810Y015920D02*
X012880Y015900D01*
X012795Y015910D01*
X012810Y015895D01*
X012090Y015875D01*
X012090Y015205D02*
X012810Y015225D01*
X016180Y022010D02*
X016430Y022030D01*
X016950Y021830D01*
X013010Y025460D02*
X012660Y025460D01*
X011660Y026260D02*
X011475Y026260D01*
X011460Y026295D02*
X010660Y026295D01*
X010055Y025760D01*
X009490Y025760D01*
X009330Y026060D01*
X009330Y027110D01*
X009710Y027410D01*
X009760Y027460D01*
X009760Y027510D01*
X010490Y028230D01*
X011560Y028230D01*
X012310Y029160D02*
X012560Y029110D01*
X012710Y029110D01*
X012720Y029110D02*
X012720Y029240D01*
X012670Y029290D01*
X012570Y029290D01*
X012520Y029240D01*
X012310Y029160D02*
X009370Y029160D01*
X008890Y028960D01*
X008890Y022470D01*
X005930Y019440D01*
X005850Y018980D01*
X005350Y018330D01*
X005310Y018380D01*
X005310Y019380D02*
X008480Y022670D01*
X008500Y029700D01*
X009090Y029870D01*
X012690Y029870D01*
X012860Y029780D01*
X013140Y029980D02*
X012860Y030250D01*
X008860Y030250D01*
X008100Y030030D01*
X008100Y022960D01*
X005560Y020380D01*
X005310Y020380D01*
X001950Y023340D02*
X002480Y023870D01*
X003590Y023870D01*
X002490Y025440D02*
X002540Y036220D01*
X003440Y037120D01*
X006330Y037120D01*
X007160Y036290D01*
X007160Y033900D01*
X007400Y033660D01*
X010900Y033660D01*
X011290Y034050D01*
X011290Y035080D01*
X011260Y035110D01*
X011270Y035120D02*
X011270Y034050D01*
X011290Y034030D01*
X011650Y033670D01*
X016520Y033670D01*
X017090Y034240D01*
X017090Y034950D01*
X018160Y036020D01*
X024080Y036020D01*
X026240Y033860D01*
X026240Y033610D01*
X026220Y033510D02*
X026295Y033345D01*
X026460Y033310D01*
X026400Y033280D01*
X026530Y033280D02*
X026260Y033010D01*
X026160Y032910D01*
X026160Y030510D01*
X026590Y030080D01*
X026590Y029585D01*
X026595Y029580D01*
X027090Y029580D01*
X027410Y029260D01*
X027670Y029520D01*
X029280Y029520D01*
X029510Y029290D01*
X029510Y026760D01*
X028470Y025720D01*
X028470Y024540D01*
X029230Y024370D02*
X029530Y024110D01*
X030690Y024110D01*
X030810Y023950D01*
X030850Y023425D01*
X030835Y023440D01*
X030690Y024110D02*
X030810Y024260D01*
X030840Y024425D01*
X030835Y024860D01*
X031380Y025330D02*
X031070Y025600D01*
X030370Y025600D01*
X030210Y025360D01*
X030220Y024855D01*
X030165Y024860D01*
X029230Y024370D02*
X029220Y025690D01*
X029740Y026090D01*
X031200Y026100D01*
X031810Y025540D01*
X031810Y022260D01*
X030845Y021295D01*
X030845Y019260D01*
X030845Y018160D01*
X031910Y018160D01*
X032310Y017760D01*
X032310Y017410D01*
X032510Y017210D01*
X032510Y017160D01*
X033010Y016710D02*
X033060Y016710D01*
X033200Y016870D01*
X033200Y017670D01*
X033310Y017760D01*
X033800Y017310D02*
X033560Y017060D01*
X033560Y016210D01*
X033310Y015960D01*
X033010Y015960D01*
X032710Y015560D02*
X032360Y015560D01*
X032410Y015610D01*
X033710Y015610D01*
X033991Y015891D01*
X034075Y015891D01*
X034210Y016025D01*
X034075Y015891D02*
X034075Y015060D01*
X034745Y015060D02*
X034745Y014060D01*
X034745Y015060D02*
X034860Y015060D01*
X035010Y015210D01*
X035795Y015210D01*
X035810Y015195D01*
X036360Y014860D02*
X036360Y016960D01*
X034830Y018480D01*
X034030Y018480D01*
X033800Y018290D01*
X034310Y017760D02*
X034310Y017010D01*
X034210Y016910D01*
X034210Y016695D01*
X033010Y014660D02*
X032210Y014660D01*
X031960Y014410D01*
X031960Y014010D01*
X031710Y013760D01*
X031210Y013760D01*
X030860Y014110D01*
X030860Y015310D01*
X030760Y015410D01*
X030760Y015860D02*
X030810Y015860D01*
X031410Y015260D01*
X031410Y014360D01*
X031075Y013060D02*
X030210Y013060D01*
X030210Y012960D01*
X029710Y012460D01*
X028910Y012460D01*
X028710Y012660D01*
X028710Y016420D01*
X029310Y017000D01*
X029860Y017000D01*
X029770Y016660D02*
X029460Y016660D01*
X029060Y016260D01*
X029060Y013210D01*
X029210Y013060D01*
X028210Y013060D02*
X028210Y012070D01*
X028495Y012070D01*
X028245Y012060D01*
X029965Y012055D01*
X030220Y011860D01*
X027630Y011540D02*
X027540Y011630D01*
X027540Y012140D01*
X027560Y015110D01*
X027810Y015360D01*
X028060Y015610D01*
X028060Y016250D01*
X029170Y017360D01*
X031160Y017360D01*
X031860Y016660D01*
X032010Y016160D02*
X031710Y015860D01*
X031710Y015660D01*
X030960Y016210D02*
X031210Y016460D01*
X030960Y016210D02*
X030760Y016210D01*
X030175Y018160D02*
X029345Y018160D01*
X029310Y018125D01*
X029310Y017980D01*
X027450Y016160D01*
X026310Y016160D01*
X026110Y015960D01*
X026110Y015200D01*
X026080Y014810D02*
X026020Y014810D01*
X025710Y015120D01*
X025710Y016060D01*
X026310Y016660D01*
X027410Y016660D01*
X027610Y016860D01*
X027610Y021260D01*
X027710Y021360D01*
X027510Y021560D01*
X026060Y021560D01*
X025910Y021710D01*
X025910Y022510D01*
X026030Y022630D01*
X026040Y022630D01*
X026080Y022630D01*
X025910Y022760D02*
X025890Y025830D01*
X028680Y028610D01*
X027410Y028650D02*
X027410Y029260D01*
X027410Y028650D02*
X025520Y026760D01*
X024570Y026760D01*
X024010Y026260D02*
X023210Y027060D01*
X023210Y035460D01*
X023110Y035560D01*
X018910Y035560D01*
X018260Y034910D01*
X018260Y033070D01*
X018260Y031710D01*
X018310Y031660D01*
X020510Y031660D01*
X020760Y031410D01*
X020760Y030650D01*
X020260Y030650D02*
X020260Y030210D01*
X020510Y029960D01*
X021410Y029960D01*
X021710Y030260D01*
X021710Y030560D01*
X021810Y030660D01*
X022075Y030660D01*
X022745Y030660D02*
X022745Y029660D01*
X022745Y028660D01*
X022745Y027660D01*
X022370Y027060D02*
X020830Y027060D01*
X019280Y028610D01*
X016460Y028610D01*
X016270Y028520D01*
X016460Y028210D02*
X017760Y028210D01*
X018360Y027480D01*
X017580Y027250D02*
X017160Y027010D01*
X016460Y027010D01*
X016430Y026650D02*
X016390Y026620D01*
X016210Y026470D01*
X015620Y026460D01*
X015210Y026460D01*
X015220Y026450D01*
X014970Y027190D02*
X014880Y027300D01*
X014370Y027690D02*
X014290Y027580D01*
X015190Y029270D02*
X015310Y029270D01*
X015560Y029520D01*
X016110Y029510D02*
X016260Y029360D01*
X018010Y029360D01*
X018210Y029560D01*
X018210Y030600D01*
X018260Y030650D01*
X018810Y030600D02*
X018810Y029660D01*
X020850Y027660D01*
X022075Y027660D01*
X022370Y027060D02*
X023810Y025520D01*
X024700Y025520D01*
X025060Y025160D01*
X025060Y024660D01*
X024590Y024140D01*
X023860Y024140D01*
X025020Y023140D02*
X025230Y023130D01*
X025510Y022860D01*
X025510Y021760D01*
X025310Y021560D01*
X025310Y020995D01*
X025360Y021045D02*
X026260Y021045D01*
X026410Y020995D01*
X026410Y020325D02*
X026410Y019660D01*
X025510Y018760D01*
X025310Y019760D02*
X025310Y020325D01*
X026550Y021990D02*
X028200Y021990D01*
X028500Y021690D01*
X028170Y022370D02*
X030960Y022380D01*
X031360Y022780D01*
X031380Y025330D01*
X031200Y026100D02*
X031700Y026600D01*
X031710Y033560D01*
X031310Y033960D01*
X029510Y033960D01*
X029210Y033660D01*
X029210Y032660D01*
X029410Y032460D01*
X030610Y032460D01*
X030710Y032360D01*
X030710Y031895D01*
X030745Y031860D01*
X030610Y032460D02*
X030710Y032560D01*
X030710Y032925D01*
X031310Y033260D02*
X031310Y030460D01*
X031110Y030260D01*
X028310Y030260D01*
X027420Y031180D01*
X027610Y031560D02*
X028370Y030800D01*
X028680Y030810D01*
X028310Y031360D02*
X029110Y031360D01*
X029210Y031460D01*
X029210Y031825D01*
X029245Y031860D01*
X028830Y032740D02*
X028530Y032740D01*
X028510Y032760D01*
X028510Y033000D01*
X028530Y033020D01*
X028510Y032760D02*
X027990Y033280D01*
X026530Y033280D01*
X026530Y033320D01*
X025770Y033740D02*
X025770Y030290D01*
X026030Y029920D01*
X026030Y029200D01*
X025930Y029080D01*
X025765Y028970D01*
X026030Y029200D02*
X026245Y028955D01*
X026590Y028915D01*
X025510Y029655D02*
X025380Y030025D01*
X025380Y032930D01*
X024990Y033320D01*
X025530Y033980D02*
X025770Y033740D01*
X025530Y033980D02*
X024030Y033980D01*
X023820Y033700D01*
X023810Y032260D01*
X023910Y032160D01*
X023750Y031860D02*
X023630Y031660D01*
X023630Y029660D01*
X023710Y029560D01*
X023730Y029560D01*
X024375Y029560D01*
X024410Y029595D01*
X024410Y028925D02*
X024410Y028160D01*
X024210Y027960D01*
X023750Y027960D01*
X024410Y028925D02*
X024675Y028925D01*
X025010Y029260D01*
X025010Y032160D01*
X024010Y031560D02*
X023970Y031460D01*
X023970Y030360D01*
X024090Y030260D01*
X024410Y030260D01*
X022745Y030660D02*
X022745Y031760D01*
X022745Y032760D01*
X022745Y033860D01*
X022745Y034960D01*
X022075Y034960D02*
X019010Y034960D01*
X018760Y034710D01*
X018760Y033070D01*
X019260Y033070D02*
X019260Y034210D01*
X019510Y034460D01*
X021110Y034460D01*
X021710Y033860D01*
X022075Y033860D01*
X022010Y032960D02*
X021010Y033960D01*
X020510Y033960D01*
X020210Y033660D01*
X020210Y033120D01*
X020260Y033070D01*
X019810Y033120D02*
X019810Y033960D01*
X020760Y033070D02*
X020760Y032210D01*
X021210Y031760D01*
X022075Y031760D01*
X022010Y032860D02*
X022010Y032960D01*
X019760Y030650D02*
X019760Y030010D01*
X020310Y029460D01*
X021875Y029460D01*
X022075Y029660D01*
X021975Y028760D02*
X021910Y028760D01*
X021810Y028660D01*
X020360Y028660D01*
X019210Y029810D01*
X019210Y030600D01*
X019260Y030650D01*
X017260Y030650D02*
X017250Y030660D01*
X016110Y029510D02*
X016110Y032210D01*
X017120Y033070D02*
X016520Y033670D01*
X017120Y033070D02*
X017260Y033070D01*
X017760Y033070D02*
X017760Y033610D01*
X017770Y033680D01*
X017770Y033160D01*
X017770Y033680D02*
X017730Y034140D01*
X016380Y027800D02*
X016396Y027781D01*
X016470Y027690D01*
X016580Y027690D01*
X016430Y026650D02*
X016945Y026650D01*
X017060Y026545D01*
X017860Y026545D01*
X020045Y026545D01*
X020360Y026760D01*
X024900Y022570D02*
X025010Y022460D01*
X024960Y022520D02*
X024900Y022570D01*
X027110Y022360D02*
X027760Y022360D01*
X028170Y022370D01*
X028310Y022870D02*
X027820Y022860D01*
X027110Y022860D01*
X027320Y023270D02*
X027425Y023375D01*
X027310Y023450D02*
X027210Y023360D01*
X027310Y023460D01*
X027310Y023280D01*
X027320Y023270D01*
X027210Y023360D02*
X027160Y023400D01*
X028310Y022870D02*
X029100Y022870D01*
X029320Y023010D01*
X029340Y023185D01*
X028910Y020960D02*
X028610Y020660D01*
X028610Y019060D01*
X029410Y019260D02*
X030175Y019260D01*
X030010Y020960D02*
X028910Y020960D01*
X027110Y015160D02*
X027210Y015060D01*
X027210Y012895D01*
X026810Y012495D01*
X026810Y011825D02*
X026775Y011825D01*
X026660Y011710D01*
X026610Y011710D01*
X026260Y012060D01*
X026660Y011710D02*
X026310Y011360D01*
X026275Y011325D01*
X025710Y011325D01*
X025910Y011225D02*
X026045Y011360D01*
X026310Y011360D01*
X026430Y013240D02*
X026510Y013400D01*
X026540Y013400D01*
X026620Y013480D01*
X026620Y013960D01*
X026180Y014460D02*
X025980Y014460D01*
X025910Y014280D01*
X033010Y014660D02*
X033210Y014460D01*
X033210Y014095D01*
X033245Y014060D01*
X033245Y013060D02*
X033410Y012895D01*
X033660Y012480D01*
X033410Y011660D02*
X033260Y011670D01*
X033410Y011660D02*
X034540Y011660D01*
X034900Y012020D01*
X036120Y012020D01*
X036770Y011370D01*
X036770Y002990D01*
X035030Y011250D02*
X033220Y011250D01*
X033250Y011260D01*
X035030Y011250D02*
X035160Y011420D01*
X035975Y014525D02*
X036025Y014525D01*
X036360Y014860D01*
X028310Y031360D02*
X027780Y031890D01*
X027560Y032310D02*
X026510Y032310D01*
X027560Y032310D02*
X027610Y032360D01*
X027630Y032380D01*
X027640Y032380D01*
X030075Y032960D02*
X030075Y033325D01*
X030310Y033560D01*
X031010Y033560D01*
X031310Y033260D01*
X011550Y027080D02*
X011470Y027080D01*
X011525Y027055D02*
X011550Y027080D01*
X011525Y027055D02*
X011525Y027010D01*
X011460Y026965D01*
X010660Y026965D01*
X010625Y026910D01*
X010260Y026910D01*
X009960Y026610D01*
X009960Y026410D01*
X009780Y027420D02*
X009760Y027460D01*
X011290Y034030D02*
X011290Y034050D01*
X011200Y035110D02*
X009810Y036500D01*
X009810Y036960D01*
X009500Y036960D02*
X010180Y036960D01*
D25*
X013370Y030130D02*
X013470Y030030D01*
X013470Y029270D01*
X013660Y029270D02*
X013660Y030020D01*
X013680Y030040D01*
X013070Y029630D02*
X013070Y029270D01*
X012880Y029270D02*
X012750Y029270D01*
X012720Y029240D01*
X013310Y028730D02*
X013100Y028520D01*
X013100Y028230D01*
X012970Y028100D01*
X012920Y028100D01*
X013080Y027940D01*
X013080Y027210D01*
X013020Y027150D01*
X013020Y027120D01*
X013060Y027080D01*
X013060Y026670D01*
X013250Y026480D01*
X014510Y026480D01*
X014650Y026340D01*
X014850Y026310D02*
X014850Y025950D01*
X014850Y025600D01*
X014860Y025590D01*
X014470Y025410D02*
X014450Y025430D01*
X014450Y025950D01*
X014260Y025950D02*
X014260Y025290D01*
X013470Y025210D02*
X013470Y025950D01*
X013660Y025950D02*
X013660Y024710D01*
X013460Y025200D02*
X013470Y025210D01*
X013070Y025520D02*
X013010Y025460D01*
X013070Y025520D02*
X013070Y025950D01*
X012880Y025950D02*
X012880Y025930D01*
X012810Y025860D01*
X013600Y026800D02*
X014360Y026800D01*
X014490Y026800D01*
X014810Y026480D01*
X015100Y026510D02*
X015160Y026510D01*
X015160Y026480D01*
X015180Y026460D01*
X015210Y026460D01*
X015220Y026450D02*
X015160Y026510D01*
X015100Y026510D02*
X014510Y027100D01*
X013950Y027100D01*
X013780Y027270D01*
X013780Y027960D01*
X014000Y028180D01*
X014660Y028180D01*
X015170Y028690D01*
X015270Y028690D01*
X015620Y028500D02*
X016250Y028500D01*
X016270Y028520D01*
X016210Y028220D02*
X016450Y028220D01*
X016460Y028210D01*
X016210Y028220D02*
X016090Y028100D01*
X015620Y028100D01*
X015620Y027910D02*
X016267Y027910D01*
X016396Y027781D01*
X016160Y027620D02*
X016070Y027710D01*
X016010Y027710D01*
X016160Y027620D02*
X016160Y027390D01*
X016080Y027310D01*
X015620Y027310D01*
X015620Y027120D02*
X016350Y027120D01*
X016460Y027010D01*
X015620Y026720D02*
X015250Y026720D01*
X014970Y027000D01*
X014970Y027190D01*
X015120Y027710D02*
X014940Y027890D01*
X014510Y027890D01*
X014380Y027760D01*
X014540Y027730D01*
X014290Y027580D01*
X015120Y027710D02*
X015180Y027710D01*
X014640Y028460D02*
X013580Y028460D01*
X013400Y028280D01*
X013400Y027000D01*
X013600Y026800D01*
X013020Y027120D02*
X012300Y027120D01*
X011950Y027120D01*
X012300Y027310D02*
X012760Y027310D01*
X012760Y027330D01*
X012770Y027340D01*
X012870Y027480D02*
X012870Y027790D01*
X012850Y027840D01*
X012780Y027910D01*
X012300Y027910D01*
X011790Y027910D01*
X011750Y027950D01*
X011750Y028190D01*
X011710Y028230D01*
X011560Y028230D01*
X011750Y028190D02*
X011860Y028300D01*
X012300Y028300D01*
X012300Y028100D02*
X012920Y028100D01*
X013310Y028730D02*
X014550Y028730D01*
X014640Y028460D02*
X014850Y028670D01*
X014850Y028890D01*
X014850Y028920D02*
X014850Y029270D01*
X014260Y029270D02*
X014260Y029690D01*
X015620Y026530D02*
X015620Y026460D01*
X015620Y026470D02*
X015620Y026530D01*
X011810Y026570D02*
X011810Y026410D01*
X011660Y026260D01*
X014910Y018810D02*
X014910Y017970D01*
X014720Y017970D02*
X014720Y018700D01*
X014710Y018710D01*
X014320Y018450D02*
X014320Y017970D01*
X014130Y017970D02*
X014020Y017970D01*
X014610Y017260D02*
X014740Y017390D01*
X015780Y017390D01*
X015900Y017510D01*
X015900Y017600D01*
X016100Y017360D02*
X015920Y017180D01*
X015230Y017180D01*
X014920Y016870D01*
X014920Y016630D01*
X016110Y015440D01*
X016410Y015600D02*
X016410Y015610D01*
X016870Y015620D01*
X016870Y015820D02*
X017450Y015820D01*
X017250Y016010D02*
X016870Y016010D01*
X016230Y016010D01*
X015910Y016330D01*
X016280Y016610D02*
X016020Y016870D01*
X015620Y016870D01*
X015460Y016710D01*
X015070Y016000D02*
X014330Y016000D01*
X014320Y016010D01*
X014320Y016630D01*
X014150Y016800D01*
X014610Y017260D01*
X014150Y016800D02*
X013550Y016800D01*
X013550Y016610D02*
X013130Y016610D01*
X013030Y016710D01*
X013030Y016910D01*
X013030Y016990D01*
X012910Y017110D01*
X013030Y016910D02*
X013120Y017000D01*
X013550Y016610D02*
X014010Y016610D01*
X014100Y016520D01*
X014100Y016110D01*
X014020Y016030D01*
X014020Y016010D01*
X013550Y016010D01*
X013550Y015820D02*
X013200Y015820D01*
X013550Y015820D02*
X014130Y015820D01*
X014320Y016010D01*
X014420Y015790D02*
X014250Y015620D01*
X014420Y015790D02*
X014980Y015790D01*
X015700Y015070D01*
X015700Y014650D01*
X015700Y014270D01*
X015510Y014170D02*
X015510Y014660D01*
X015900Y015120D02*
X015900Y015170D01*
X015070Y016000D01*
X014590Y015300D02*
X014190Y015300D01*
X014050Y015160D01*
X014130Y014650D02*
X013990Y014510D01*
X014320Y014650D02*
X014320Y014270D01*
X014210Y014160D01*
X014130Y014140D01*
X014030Y014040D01*
X014450Y014100D02*
X014520Y014170D01*
X014520Y014650D01*
X014720Y014650D02*
X014720Y014090D01*
X014450Y013820D01*
X014450Y013650D01*
X014760Y013710D02*
X014910Y013860D01*
X014910Y014650D01*
X014570Y015210D02*
X014570Y015280D01*
X014590Y015300D01*
X016100Y014980D02*
X016100Y014650D01*
X016100Y014980D02*
X016110Y015020D01*
X016400Y015230D02*
X016870Y015230D01*
X016870Y015420D02*
X017350Y015420D01*
X017250Y016010D02*
X017260Y016020D01*
X016870Y016610D02*
X016280Y016610D01*
X016870Y016800D02*
X017350Y016800D01*
X017590Y016810D01*
X016100Y017360D02*
X016100Y017970D01*
X015700Y017970D02*
X015700Y018510D01*
X015710Y018550D01*
X015510Y018840D02*
X015510Y017970D01*
X027770Y031880D02*
X027780Y031890D01*
D26*
X027650Y032350D02*
X027960Y032350D01*
X027640Y032380D02*
X027640Y032610D01*
X027580Y032670D01*
X028170Y032740D02*
X028830Y032740D01*
X028850Y032760D01*
X028530Y032810D02*
X028530Y033020D01*
X028530Y033100D01*
X028670Y030990D02*
X028740Y030920D01*
X028740Y030830D01*
X028960Y030830D01*
X028690Y030730D02*
X028690Y030570D01*
X028690Y028980D02*
X028690Y028270D01*
X029050Y028590D02*
X028300Y028590D01*
X028700Y028970D02*
X028690Y028980D01*
X024650Y030290D02*
X024430Y030290D01*
X024420Y030340D02*
X024420Y030460D01*
X023730Y029560D02*
X023710Y029540D01*
X023710Y029200D01*
X023750Y028270D02*
X023750Y028260D01*
X023750Y027580D01*
X024240Y026790D02*
X024570Y026790D01*
X024570Y027130D01*
X024570Y026790D02*
X024570Y026380D01*
X024300Y026260D02*
X023640Y026260D01*
X024000Y026600D02*
X024000Y025900D01*
X024110Y025120D02*
X024110Y024510D01*
X024120Y024820D02*
X024460Y024820D01*
X025010Y022700D02*
X025010Y022460D01*
X024810Y022460D01*
X024850Y022450D01*
X025250Y022450D01*
X025010Y022460D02*
X025010Y022210D01*
X025020Y022210D01*
X024230Y021080D02*
X023960Y021080D01*
X023960Y020820D01*
X023960Y021080D02*
X023960Y021310D01*
X026520Y022020D02*
X026550Y021990D01*
X026520Y022020D02*
X026520Y022120D01*
X027450Y021310D02*
X027980Y021310D01*
X027740Y021450D02*
X027670Y021560D01*
X027670Y021100D01*
X028220Y021660D02*
X028260Y021660D01*
X028770Y021660D01*
X028520Y021460D02*
X028520Y021930D01*
X030000Y021280D02*
X030000Y020640D01*
X030030Y020920D02*
X030030Y020940D01*
X030030Y020920D02*
X030310Y020920D01*
X030310Y020960D01*
X030010Y020960D01*
X030310Y020920D02*
X030320Y020920D01*
X029430Y019620D02*
X029430Y019010D01*
X029430Y018910D01*
X028980Y019050D02*
X028270Y019050D01*
X031020Y016540D02*
X031020Y016430D01*
X031310Y016430D01*
X031310Y016460D01*
X031210Y016460D01*
X031310Y016430D02*
X031480Y016430D01*
X031260Y016240D02*
X031230Y016240D01*
X031230Y016730D01*
X031950Y017720D02*
X032520Y017720D01*
X032630Y017720D01*
X032630Y017760D01*
X032310Y017760D02*
X032310Y017960D01*
X032290Y017960D01*
X032290Y018000D01*
X032290Y017960D02*
X032290Y017750D01*
X032300Y017750D01*
X033250Y017720D02*
X033250Y018080D01*
X034150Y017760D02*
X034150Y017740D01*
X034280Y017740D01*
X034310Y017760D02*
X034310Y017770D01*
X034310Y017960D01*
X034310Y018020D01*
X034320Y017770D02*
X034630Y017770D01*
X034630Y017790D01*
X031830Y015570D02*
X031830Y015460D01*
X031810Y015460D01*
X031710Y015660D01*
X031630Y015700D02*
X031510Y015700D01*
X031510Y015790D01*
X031770Y015570D02*
X031830Y015570D01*
X031830Y015460D02*
X031830Y015430D01*
X031670Y014340D02*
X031200Y014340D01*
X031200Y014370D01*
X031420Y014340D02*
X031420Y014130D01*
X030170Y013370D02*
X030170Y013070D01*
X030220Y013070D01*
X030100Y013070D02*
X029850Y013070D01*
X029850Y013100D01*
X029470Y013090D02*
X029470Y013050D01*
X029230Y013050D01*
X029230Y013260D01*
X029210Y013090D02*
X029470Y013090D01*
X029210Y013090D02*
X029210Y012830D01*
X029230Y012830D01*
X028170Y013030D02*
X027900Y013030D01*
X027900Y013070D01*
X028170Y013090D02*
X028170Y013440D01*
X026670Y013250D02*
X026450Y013250D01*
X026450Y013230D01*
X026440Y013230D02*
X026440Y013000D01*
X026440Y013250D02*
X026200Y013290D01*
X026200Y013250D01*
X025030Y013250D02*
X024580Y013250D01*
X024580Y013310D01*
X024790Y013320D02*
X024830Y013320D01*
X024830Y013280D01*
X024810Y013460D01*
X024830Y013460D01*
X024830Y013520D01*
X024830Y013460D02*
X024830Y013320D01*
X024830Y013280D02*
X024830Y013100D01*
X027680Y015190D02*
X027680Y015590D01*
X027970Y015590D01*
X027970Y015220D01*
X027780Y015220D01*
X027780Y015500D01*
X027810Y015500D01*
X027810Y015360D01*
X027910Y015290D02*
X027910Y015500D01*
X027810Y015500D01*
X027680Y015190D02*
X027990Y015190D01*
X033470Y012420D02*
X033690Y012430D01*
X033870Y012380D01*
X024530Y009360D02*
X024530Y009340D01*
X024090Y009340D01*
X024360Y009320D02*
X024360Y009110D01*
X023700Y008610D02*
X023710Y008280D01*
X023710Y008340D02*
X023480Y008340D01*
X023480Y008360D01*
X020670Y011390D02*
X020040Y011390D01*
X020040Y011330D01*
X020310Y011360D02*
X020310Y011460D01*
X020290Y011460D01*
X020290Y011640D01*
X020290Y011460D02*
X020290Y011040D01*
X020280Y011040D01*
X020010Y013260D02*
X019830Y013260D01*
X019840Y013280D02*
X019810Y013280D01*
X019810Y013300D01*
X019810Y013460D01*
X019810Y013300D02*
X019840Y013300D01*
X019810Y013280D02*
X019650Y013280D01*
X020010Y013260D02*
X020010Y013280D01*
X018310Y012460D02*
X018260Y012470D01*
X017770Y013250D02*
X017450Y013250D01*
X016810Y013460D02*
X016710Y013625D01*
X016350Y013890D02*
X016290Y013950D01*
X016290Y014650D01*
X015700Y014270D02*
X015700Y014170D01*
X016110Y013760D01*
X016110Y013180D01*
X016170Y013120D01*
X015810Y013610D02*
X015810Y013720D01*
X015510Y014020D01*
X015510Y014170D01*
X014730Y015250D02*
X014570Y015210D01*
X014570Y015280D02*
X014570Y015480D01*
X014570Y015280D02*
X014620Y015280D01*
X013550Y016210D02*
X013550Y016410D01*
X013550Y016390D01*
X013470Y016310D01*
X014480Y017220D02*
X014480Y017440D01*
X014590Y017310D02*
X014590Y017240D01*
X014740Y017210D01*
X014670Y017190D01*
X014590Y017220D02*
X014480Y017220D01*
X014590Y017240D02*
X014660Y017100D01*
X015300Y016740D02*
X015300Y016720D01*
X015300Y016740D02*
X015440Y016740D01*
X015410Y016780D02*
X015460Y016880D01*
X015470Y016660D02*
X015470Y016530D01*
X015730Y016330D02*
X015730Y016320D01*
X015910Y016330D02*
X016090Y016330D01*
X015900Y016200D02*
X015900Y016120D01*
X015910Y016510D01*
X016320Y015300D02*
X016430Y015220D01*
X016980Y015220D01*
X017170Y015030D01*
X017890Y015030D01*
X018610Y015750D01*
X018610Y015730D02*
X018580Y015730D01*
X018580Y015780D01*
X018420Y015780D01*
X018420Y015890D01*
X018580Y015890D01*
X018580Y015830D01*
X018610Y015730D02*
X018610Y015550D01*
X018770Y015550D01*
X018780Y015580D02*
X018780Y015760D01*
X018860Y016210D02*
X018860Y016330D01*
X019000Y016330D01*
X019000Y016220D01*
X019000Y016210D02*
X018860Y016210D01*
X019120Y016230D02*
X019150Y016230D01*
X019150Y016360D01*
X019810Y018460D02*
X019830Y018500D01*
X019830Y018920D01*
X019810Y018960D01*
X019310Y018960D01*
X019310Y019460D01*
X019269Y019428D01*
X019640Y019440D02*
X019640Y019420D01*
X019640Y019440D02*
X019810Y019440D01*
X019810Y019460D01*
X019830Y019420D01*
X019810Y019440D02*
X020070Y019440D01*
X019820Y019460D02*
X019820Y019220D01*
X019810Y019460D02*
X019820Y019460D01*
X019820Y019640D01*
X019600Y018690D02*
X020060Y018690D01*
X019840Y018490D02*
X019830Y018490D01*
X019830Y018480D01*
X019810Y018460D01*
X018720Y019160D02*
X018290Y019160D01*
X018290Y019150D01*
X018480Y018920D02*
X018480Y019390D01*
X018150Y019930D02*
X018150Y020140D01*
X017960Y020140D01*
X018160Y020140D02*
X018300Y020140D01*
X018150Y019930D02*
X018140Y019930D01*
X016900Y018540D02*
X016870Y018540D01*
X016870Y018270D01*
X016940Y018270D01*
X017070Y018270D01*
X017070Y018330D01*
X016940Y018270D02*
X016940Y018110D01*
X016900Y018110D01*
X016870Y018240D01*
X016900Y018540D01*
X016470Y018750D02*
X016420Y018760D01*
X016100Y018440D02*
X016100Y017970D01*
X016290Y017970D02*
X016360Y017970D01*
X016370Y017980D01*
X016410Y017980D01*
X016420Y017990D01*
X016870Y015230D02*
X016810Y015170D01*
X016810Y015160D01*
X016370Y011640D02*
X016310Y011460D01*
X016340Y011460D01*
X016340Y011320D01*
X016340Y011460D02*
X016340Y011590D01*
X016380Y011610D02*
X016720Y011610D01*
X016290Y010980D02*
X016290Y010460D01*
X016310Y010460D01*
X016310Y010660D01*
X016290Y010460D02*
X016290Y010270D01*
X016330Y010270D01*
X017270Y009070D02*
X017860Y009070D01*
X017570Y009030D02*
X017560Y009030D01*
X017560Y008820D01*
X017980Y008570D02*
X018660Y008570D01*
X018340Y008510D02*
X018320Y008510D01*
X018320Y008460D01*
X018310Y008460D01*
X018310Y008560D01*
X018320Y008460D02*
X018320Y008210D01*
X012640Y012610D02*
X011990Y012610D01*
X012290Y012580D02*
X012310Y012460D01*
X012300Y012460D01*
X012300Y012320D01*
X012300Y012460D02*
X012300Y012520D01*
X016820Y023970D02*
X016760Y024000D01*
X016760Y024100D01*
X016750Y024100D02*
X016600Y024100D01*
X016700Y024090D02*
X016850Y024060D01*
X016900Y024130D01*
X016780Y024110D02*
X016820Y023970D01*
X016700Y024050D01*
X017360Y024520D02*
X017360Y024970D01*
X017380Y024760D02*
X017690Y024760D01*
X017690Y024790D01*
X017370Y024520D02*
X017360Y024520D01*
X015190Y025970D02*
X015170Y025950D01*
X015040Y025950D01*
X014980Y027200D02*
X015000Y027220D01*
X014880Y027300D01*
X014920Y027390D01*
X015000Y027220D01*
X014980Y027240D01*
X014900Y027300D01*
X014920Y027390D02*
X014970Y027440D01*
X014400Y027590D02*
X014290Y027580D01*
X014400Y027590D02*
X014400Y027630D01*
X014250Y027420D01*
X014280Y027420D01*
X015270Y028690D02*
X015620Y028690D01*
X015190Y029270D02*
X015040Y029270D01*
X014850Y029270D02*
X014850Y029700D01*
X014910Y029760D01*
X014660Y029280D02*
X014650Y029270D01*
X016580Y027860D02*
X016580Y027420D01*
X016570Y027510D01*
X016600Y027670D02*
X016830Y027670D01*
X016800Y027660D01*
X017590Y027400D02*
X017590Y027040D01*
X017600Y027190D02*
X017700Y027230D01*
X017700Y027260D01*
X018170Y027490D02*
X018310Y027490D01*
X018310Y027460D01*
X018360Y027480D01*
X018330Y027460D02*
X018310Y027460D01*
X018330Y027460D02*
X018390Y027310D01*
X018330Y027460D02*
X018330Y027530D01*
X018310Y027530D01*
X018310Y027490D02*
X018530Y027490D01*
X020020Y026780D02*
X020740Y026780D01*
X020360Y027100D02*
X020360Y026400D01*
X021360Y026260D02*
X021710Y026260D01*
X022070Y026260D01*
X021700Y025920D02*
X021700Y026620D01*
X020540Y024810D02*
X020540Y024640D01*
X020660Y024630D01*
X020550Y024630D01*
X020540Y024630D02*
X020340Y024630D01*
X020340Y024620D01*
X018300Y031340D02*
X018300Y031460D01*
X018310Y031460D01*
X018310Y031660D01*
X018300Y031680D02*
X018300Y031460D01*
X018300Y031680D02*
X017970Y031680D01*
X017970Y031700D01*
X015700Y031780D02*
X015630Y031780D01*
X015140Y031790D01*
X015510Y031770D02*
X015510Y032100D01*
X015500Y032110D01*
X017390Y034140D02*
X017680Y034140D01*
X017720Y034100D01*
X017720Y034450D01*
X017690Y034480D01*
X017740Y034100D02*
X017900Y034100D01*
X017960Y034160D01*
X019540Y033980D02*
X019690Y033980D01*
X019810Y034100D01*
X019830Y034100D01*
X019950Y033980D01*
X020030Y033980D01*
X024620Y033300D02*
X025280Y033300D01*
X025300Y033320D01*
X025020Y033360D02*
X025020Y033620D01*
X024980Y033660D01*
X026310Y033460D02*
X026310Y032960D01*
X026260Y033010D01*
X026295Y033345D02*
X026310Y033460D01*
X028080Y024540D02*
X028810Y024540D01*
X027640Y023450D02*
X027310Y023450D01*
X027280Y023450D01*
X027320Y023270D02*
X027320Y023230D01*
X027310Y023710D01*
X012300Y027510D02*
X012300Y027710D01*
X011450Y027710D01*
X011420Y027680D01*
X011420Y027450D01*
X011420Y027680D02*
X011420Y027700D01*
X011520Y027700D02*
X011140Y027720D01*
X011270Y027710D01*
X009970Y027270D02*
X009690Y027270D01*
X009370Y027120D01*
X009370Y026010D01*
X009600Y025750D01*
X010180Y025830D01*
X010680Y026330D01*
X011405Y026330D01*
X011475Y026260D01*
X010150Y026390D02*
X010150Y026410D01*
X009960Y026410D01*
X009810Y026460D01*
X009810Y026430D01*
X009810Y026410D01*
X009960Y026410D01*
X009970Y026430D02*
X009810Y026430D01*
X009970Y026430D02*
X009970Y026180D01*
X009970Y027270D02*
X009820Y027420D01*
X009780Y027420D01*
X009770Y027500D02*
X009770Y027890D01*
X009790Y027520D02*
X009450Y027520D01*
X009740Y027500D02*
X009770Y027500D01*
X011200Y035110D02*
X011510Y035110D01*
X011490Y035130D01*
X011510Y035110D02*
X011580Y035110D01*
X011280Y035150D02*
X011280Y035450D01*
X011310Y035460D01*
D27*
X009810Y036960D03*
D28*
X015560Y029520D03*
X024110Y024810D03*
X028500Y021690D03*
X026430Y013240D03*
X024340Y009380D03*
X035160Y011420D03*
X007740Y013460D03*
X001950Y023340D03*
D29*
X003590Y023870D02*
X004620Y023870D01*
X004810Y023680D01*
X004810Y021880D01*
X005310Y021380D01*
X012660Y016520D02*
X012870Y016310D01*
X013470Y016310D01*
X033800Y017310D02*
X033800Y018290D01*
X034210Y016025D02*
X034210Y015915D01*
X035675Y015060D02*
X035810Y015195D01*
X035810Y014525D02*
X035810Y013595D01*
M02*
