G75*
%MOIN*%
%OFA0B0*%
%FSLAX24Y24*%
%IPPOS*%
%LPD*%
%AMOC8*
5,1,8,0,0,1.08239X$1,22.5*
%
%ADD10C,0.0640*%
%ADD11R,0.0680X0.0680*%
%ADD12C,0.0680*%
%ADD13OC8,0.0680*%
%ADD14C,0.0860*%
%ADD15C,0.0555*%
%ADD16C,0.0671*%
D10*
X012480Y021010D02*
X013040Y021010D01*
X013040Y022010D02*
X012480Y022010D01*
X012480Y023010D02*
X013040Y023010D01*
X014340Y023010D02*
X014900Y023010D01*
X014900Y022010D02*
X014340Y022010D01*
X014340Y021010D02*
X014900Y021010D01*
X015900Y021010D02*
X016460Y021010D01*
X016460Y022010D02*
X015900Y022010D01*
X015900Y023010D02*
X016460Y023010D01*
D11*
X028170Y013900D03*
D12*
X029170Y013900D03*
X030170Y013900D03*
D13*
X029710Y004960D03*
X028710Y004960D03*
X028710Y003960D03*
X029710Y003960D03*
X030710Y003960D03*
X031710Y003960D03*
X031710Y004960D03*
X030710Y004960D03*
X032710Y004960D03*
X032710Y003960D03*
X033710Y003960D03*
X033710Y004960D03*
X027710Y004960D03*
X027710Y003960D03*
X026710Y003960D03*
X025710Y003960D03*
X025710Y004960D03*
X026710Y004960D03*
X024710Y004960D03*
X024710Y003960D03*
X023710Y003960D03*
X022710Y003960D03*
X022710Y004960D03*
X023710Y004960D03*
X021710Y004960D03*
X020710Y004960D03*
X020710Y003960D03*
X021710Y003960D03*
X019710Y003960D03*
X019710Y004960D03*
X018710Y004960D03*
X017710Y004960D03*
X017710Y003960D03*
X018710Y003960D03*
X016710Y003960D03*
X015710Y003960D03*
X015710Y004960D03*
X016710Y004960D03*
X014710Y004960D03*
X014710Y003960D03*
X005310Y016380D03*
X005310Y017380D03*
X004310Y017380D03*
X004310Y016380D03*
X004310Y018380D03*
X005310Y018380D03*
X005310Y019380D03*
X005310Y020380D03*
X004310Y020380D03*
X004310Y019380D03*
X004310Y021380D03*
X004310Y022380D03*
X005310Y022380D03*
X005310Y021380D03*
X005310Y023380D03*
X004310Y023380D03*
X004310Y024380D03*
X004310Y025380D03*
X005310Y025380D03*
X005310Y024380D03*
X005310Y026380D03*
X004310Y026380D03*
X004310Y027380D03*
X004310Y028380D03*
X005310Y028380D03*
X005310Y027380D03*
X005310Y029380D03*
X004310Y029380D03*
X004310Y030380D03*
X004310Y031380D03*
X005310Y031380D03*
X005310Y030380D03*
X005310Y032380D03*
X005310Y033380D03*
X004310Y033380D03*
X004310Y032380D03*
X004310Y034380D03*
X005310Y034380D03*
X005310Y035380D03*
X004310Y035380D03*
D14*
X004770Y003470D02*
X005550Y003470D01*
X005550Y005440D02*
X004770Y005440D01*
X004770Y007410D02*
X005550Y007410D01*
X005550Y009390D02*
X004770Y009390D01*
X004770Y011360D02*
X005550Y011360D01*
X005550Y013330D02*
X004770Y013330D01*
D15*
X009480Y009390D03*
X012770Y012000D03*
X012290Y012580D03*
X014590Y015300D03*
X015910Y016330D03*
X015460Y016710D03*
X014610Y017260D03*
X012660Y016520D03*
X016510Y018820D03*
X016870Y018240D03*
X018490Y019160D03*
X018140Y020120D03*
X019830Y019420D03*
X019830Y018700D03*
X018610Y015750D03*
X019510Y014860D03*
X020120Y013560D03*
X020310Y011360D03*
X017810Y013260D03*
X016370Y011640D03*
X016310Y010660D03*
X017550Y009080D03*
X018310Y008560D03*
X023710Y008360D03*
X023550Y014080D03*
X025060Y014660D03*
X025910Y014280D03*
X027370Y014710D03*
X026510Y016500D03*
X025670Y016930D03*
X025510Y019280D03*
X024140Y020740D03*
X025040Y022450D03*
X027710Y021360D03*
X027850Y020240D03*
X028610Y019060D03*
X029410Y019260D03*
X030010Y020960D03*
X028930Y021490D03*
X028470Y024540D03*
X027680Y026070D03*
X028690Y028460D03*
X027080Y030310D03*
X025650Y030270D03*
X024410Y030260D03*
X024380Y028310D03*
X024570Y026760D03*
X024010Y026260D03*
X020700Y024840D03*
X020150Y026540D03*
X019510Y027310D03*
X018360Y027480D03*
X017580Y027250D03*
X016560Y027680D03*
X014730Y027550D03*
X014070Y027550D03*
X011420Y027680D03*
X009960Y026410D03*
X009760Y027450D03*
X015510Y031760D03*
X017730Y034140D03*
X019870Y034110D03*
X018310Y031660D03*
X023440Y034570D03*
X028510Y032760D03*
X028670Y030800D03*
X020870Y022540D03*
X018810Y022150D03*
X018190Y022660D03*
X016760Y024100D03*
X017360Y024760D03*
X031210Y016460D03*
X031710Y015660D03*
X031410Y014360D03*
X033660Y012480D03*
X034220Y016120D03*
X032590Y018150D03*
X028900Y002670D03*
D16*
X024340Y009380D03*
X026430Y013240D03*
X035160Y011420D03*
X015560Y029520D03*
X007740Y013460D03*
M02*
